<?xml version="1.0"?><svg version="1.1" id="圖層_1" xmlns="http://www.w3.org/2000/svg" x="0" y="0" viewBox="0 0 100 100" xml:space="preserve"><path d="M26.087 85.612c-6.859 0-12.969-2.365-18.679-7.229C6.21 77.365 5 75.455 5 73.486V26.514c0-2.291 1.741-4.086 3.963-4.086.749 0 1.893.214 3.088 1.231 4.362 3.715 8.952 5.521 14.034 5.521h.002c7.18-.001 14.575-3.431 22.404-7.063 8.19-3.799 16.66-7.728 25.421-7.728 6.859 0 12.968 2.365 18.68 7.229C93.79 22.635 95 24.545 95 26.514v46.972c0 2.291-1.741 4.086-3.963 4.086-.749 0-1.893-.214-3.089-1.232-4.362-3.715-8.952-5.52-14.036-5.52-7.18 0-14.575 3.431-22.404 7.064-8.19 3.799-16.658 7.728-25.419 7.728h-.002z" fill="#d1d1d1"/><path d="M8.582 73.486c0 .631.517 1.633 1.149 2.171 26.846 22.866 53.692-24.909 80.539-2.044.632.537 1.148.506 1.148-.127V26.514c0-.631-.517-1.633-1.148-2.17-26.846-22.866-53.693 24.91-80.539 2.043-.632-.537-1.149-.505-1.149.127v46.972zm79.616-10.452c.632.454 1.149 1.385 1.149 2.017v2.343c0 .633-.517.735-1.149.281a26.673 26.673 0 0 0-4.53-2.65c-.632-.289-1.148-1.004-1.148-1.636v-2.343c0-.631.516-.949 1.148-.661a26.704 26.704 0 0 1 4.53 2.649zm-11.694-4.613c.633.066 1.149.667 1.149 1.299v2.343c0 .633-.517 1.064-1.149.998-1.51-.16-3.02-.173-4.53-.065-.632.045-1.148-.411-1.148-1.042v-2.343c-.001-.631.516-1.209 1.148-1.255a25.58 25.58 0 0 1 4.53.065zm-11.692 1.268c.632-.182 1.148.205 1.149.836v2.343c0 .632-.517 1.279-1.149 1.461a57.6 57.6 0 0 0-4.53 1.517c-.632.239-1.148-.071-1.148-.704v-2.343c0-.632.517-1.354 1.148-1.594a57.451 57.451 0 0 1 4.53-1.516zm-11.693 4.554c.632-.288 1.148-.004 1.148.629v2.343c0 .632-.517 1.38-1.148 1.668-1.51.689-3.02 1.395-4.53 2.093-.632.292-1.149.012-1.149-.619v-2.343c0-.632.517-1.385 1.149-1.678 1.509-.698 3.019-1.404 4.53-2.093zm-11.693 5.246c.632-.255 1.149.043 1.149.676v2.343c0 .632-.517 1.366-1.149 1.621-1.51.61-3.02 1.173-4.53 1.664-.632.205-1.149-.158-1.149-.79V72.66c0-.633.517-1.302 1.149-1.507a68.37 68.37 0 0 0 4.53-1.664zm-11.693 3.344c.632-.082 1.149.345 1.149.978v2.343c0 .632-.517 1.238-1.149 1.32-1.51.197-3.02.282-4.53.23-.632-.022-1.149-.584-1.149-1.216v-2.343c0-.632.517-1.103 1.149-1.082 1.51.052 3.02-.033 4.53-.23zm-11.692-1.152c.632.231 1.149.901 1.149 1.533v2.343c0 .632-.517.994-1.149.764a24.852 24.852 0 0 1-4.531-2.21c-.632-.388-1.149-1.265-1.149-1.896v-2.343c0-.633.517-.79 1.149-.401 1.51.93 3.021 1.659 4.531 2.21zm64.264-40.122c.632.241 1.148.992 1.148 1.623v21.767c0 .633-.516.915-1.148.674-5.895-2.257-11.789-1.781-17.684-.068-.632.183-1.148-.168-1.148-.799V32.989c0-.631.516-1.314 1.148-1.497 5.895-1.714 11.789-2.189 17.684.067zm-24.289 2.289c.632-.26 1.149.053 1.149.685v21.765c0 .632-.517 1.352-1.149 1.613-5.895 2.427-11.79 5.532-17.684 7.82-.632.246-1.149-.082-1.149-.713V43.253c0-.632.517-1.338 1.149-1.583 5.895-2.289 11.79-5.394 17.684-7.822zm-24.288 9.964c.632-.157 1.149.214 1.149.845v21.766c0 .632-.517 1.294-1.149 1.452-5.895 1.468-11.79 1.56-17.684-1.219-.632-.297-1.149-1.096-1.149-1.727V43.163c0-.632.517-.867 1.149-.57 5.894 2.78 11.79 2.687 17.684 1.219zm54.085-18.313c.632.439 1.148 1.358 1.148 1.989v2.343c0 .632-.517.747-1.148.308a26.28 26.28 0 0 0-4.53-2.549c-.632-.275-1.148-.98-1.148-1.612v-2.343c0-.631.517-.959 1.148-.684a26.207 26.207 0 0 1 4.53 2.548zm-11.694-4.378c.632.056 1.149.648 1.149 1.28v2.343c0 .632-.517 1.073-1.149 1.017a25.862 25.862 0 0 0-4.53.004c-.632.054-1.149-.395-1.149-1.027v-2.343c0-.631.517-1.216 1.149-1.27 1.51-.13 3.02-.139 4.53-.004zm-11.693 1.418c.632-.187 1.149.194 1.149.825v2.343c0 .632-.517 1.285-1.149 1.471-1.51.446-3.02.971-4.53 1.552-.632.243-1.149-.065-1.149-.697V25.69c0-.631.516-1.357 1.149-1.6 1.51-.58 3.02-1.106 4.53-1.551zm-11.692 4.618c.632-.289 1.149-.006 1.149.626v2.343c0 .632-.517 1.381-1.149 1.671-1.51.691-3.021 1.398-4.531 2.095-.632.292-1.149.011-1.149-.621v-2.343c0-.632.517-1.384 1.149-1.676 1.51-.698 3.021-1.404 4.531-2.095zm-11.693 5.224c.632-.252 1.149.049 1.149.681v2.343c0 .632-.517 1.364-1.149 1.616a65.734 65.734 0 0 1-4.53 1.632c-.632.2-1.148-.169-1.149-.8V35.51c0-.632.517-1.296 1.149-1.497a65.4 65.4 0 0 0 4.53-1.632zm-11.693 3.237c.632-.074 1.149.359 1.149.991v2.343c0 .631-.517 1.232-1.149 1.305-1.51.178-3.02.241-4.53.165-.632-.031-1.149-.603-1.149-1.234v-2.343c0-.632.517-1.094 1.149-1.063 1.51.078 3.02.014 4.53-.164zm-11.692-1.344c.632.244 1.149.924 1.149 1.556v2.343c0 .631-.517.984-1.149.74a25.23 25.23 0 0 1-4.531-2.307c-.632-.403-1.149-1.291-1.149-1.922v-2.343c0-.632.517-.777 1.149-.374a25.23 25.23 0 0 0 4.531 2.307z" fill="#454545"/><metadata xmlns:d="https://loading.io/stock/">
<d:name>cinema</d:name>
<d:tags>film,movie,footage,camera,projector,theatre,theater,cinema,map</d:tags>
<d:license>by</d:license>
<d:slug>dfwur5</d:slug>
</metadata></svg>