<svg width="110" height="110" viewBox="0 0 110 110" fill="none" xmlns="http://www.w3.org/2000/svg">
<g clip-path="url(#clip0)">
<g filter="url(#filter0_d)">
<ellipse rx="55" ry="55" transform="matrix(1 -8.74228e-08 -8.74228e-08 -1 55 55)" fill="url(#paint0_linear)"/>
</g>
<path d="M-49 0H128V280H-49V0Z" fill="url(#paint1_linear)"/>
<g style="mix-blend-mode:lighten" opacity="0.7">
<path d="M104.225 79.5344C104.6 78.7855 104.962 78.0124 105.3 77.2392C107.801 71.5979 109.371 65.4733 109.842 59.0347C109.842 58.9985 109.842 58.9743 109.854 58.938C108.743 58.7931 107.221 59.3005 106.11 62.4292C104.672 66.5001 97.98 76.4178 104.225 79.5344Z" fill="#FFB403"/>
<path d="M82.2503 43.6203L82.2624 43.6324C83.7845 45.9276 88.5319 43.8257 94.0524 40.2137C98.5582 37.2662 101.771 34.3308 101.989 32.096C102.037 31.5886 101.928 31.1054 101.651 30.6706C100.129 28.3512 94.0886 28.1942 88.556 31.8182C83.0234 35.4421 80.7283 41.3009 82.2503 43.6203Z" fill="#FFB403"/>
<path d="M16.3927 77.8671C20.8502 81.5877 26.1895 82.5421 28.3035 79.9932C28.4122 79.8603 28.5089 79.7274 28.5934 79.5825C30.2121 76.937 28.2793 72.1895 24.0514 68.6742C19.7509 65.0865 14.6411 64.0718 12.3822 66.2824C12.2976 66.367 12.2131 66.4515 12.1406 66.5361C10.0266 69.085 11.9232 74.1586 16.3927 77.8671Z" fill="#FFB403"/>
<path d="M66.5488 97.1349C67.2011 97.7631 68.4936 98.1134 70.5231 98.0168C77.9643 97.6906 86.0457 88.6306 83.7868 85.7193C83.7505 85.671 83.7143 85.6348 83.6781 85.5985C81.3346 82.953 75.4637 87.7125 72.4679 89.2829C67.5272 91.868 64.8213 95.4799 66.5488 97.1349Z" fill="#FFB403"/>
<path d="M37.3636 90.4549C37.3515 92.1702 39.6829 93.9822 43.3552 94.1393C50.0716 94.4292 53.9009 93.1366 54.8069 90.7448C54.9036 90.4911 54.964 90.2253 55.0002 89.9354C55.3264 87.0241 49.1777 87.5194 45.9403 87.3503C39.8641 87.0241 37.3756 88.6912 37.3636 90.4549Z" fill="#FFB403"/>
<path d="M23.294 39.8383C24.0308 40.9375 25.4563 41.6865 27.3045 41.6865C33.127 41.6865 40.8944 37.4827 39.9159 33.5929C39.8072 33.1459 39.6381 32.7594 39.4448 32.4453C37.9469 30.0293 34.1659 31.2011 30.5298 31.9742C23.2577 33.5204 21.6994 37.4827 23.294 39.8383Z" fill="#FFB403"/>
<path d="M41.6155 71.4534C41.4869 72.3275 41.8624 73.3668 42.7894 74.255C45.7097 77.0534 51.5107 78.7982 52.7827 76.4882C52.9308 76.2246 53.0211 75.9605 53.0665 75.719C53.4101 73.8565 50.9827 72.5935 48.8086 71.2117C44.4605 68.448 41.8832 69.573 41.6155 71.4534Z" fill="#FFB403"/>
<path d="M35.9139 23.2902C35.9864 23.121 36.0226 22.9278 36.0468 22.7224C36.1917 21.0674 34.5609 18.6515 31.3839 17.7817C29.3183 17.2139 26.5278 17.2864 24.8004 18.3494C24.0394 18.8206 23.4958 19.4729 23.2904 20.3668C22.8072 22.5895 34.8871 25.8632 35.9139 23.2902Z" fill="#FFB403"/>
<path d="M69.109 18.1442C69.5197 18.3858 70.0029 18.3133 70.5223 17.7939C74.0859 14.2303 74.4 8.40773 72.4672 7.44133C71.7062 7.05477 71.0417 6.93397 70.474 6.99437C66.6084 7.42925 67.0312 16.8879 69.109 18.1442Z" fill="#FFB403"/>
<path d="M8.09369 38.499C8.34737 38.6198 8.64938 38.644 8.97553 38.5594C10.3285 38.2091 12.0921 36.1313 12.6236 33.0026C12.9256 31.1664 12.0076 29.4028 10.8117 28.8471C9.48288 28.2189 7.80378 29.0887 7.12731 33.0026C6.72867 35.2253 6.78906 37.8467 8.09369 38.499Z" fill="#FFB403"/>
<path d="M14.6288 92.3514C18.7964 96.8573 23.7129 100.662 29.173 103.562C29.7891 103.26 30.3448 102.813 30.5622 102.172C30.7555 101.605 30.6709 100.88 30.079 99.9618C27.8201 96.3982 25.5491 90.9018 20.3789 90.5757C18.8689 90.479 17.673 90.6602 16.7187 90.9985C15.8006 91.3367 15.1241 91.8199 14.6288 92.3514Z" fill="#FFB403"/>
<path d="M40.48 108.055C45.1066 109.324 49.9748 109.988 55.0001 109.988C57.3073 109.988 59.5783 109.843 61.801 109.565C61.801 108.913 61.6802 108.212 61.2816 107.62C60.895 107.053 60.2548 106.594 59.2038 106.425C55.3262 105.772 53.3813 103.187 47.885 103.513C45.0341 103.682 43.0409 105.072 41.7967 106.364C41.1806 107.016 40.7578 107.62 40.48 108.055Z" fill="#FFB403"/>
<path d="M47.5105 7.83986C47.7884 9.21698 50.1198 9.71226 51.2432 9.19282C51.4848 9.0841 51.666 8.92706 51.7627 8.73378C52.415 7.44122 48.1508 5.02522 47.5589 7.11506C47.4864 7.38082 47.4743 7.62242 47.5105 7.83986Z" fill="#FFB403"/>
<path d="M64.3752 80.548C65.8248 79.8232 66.9603 79.2554 66.6341 82.1667C66.308 85.078 64.049 85.7303 62.1042 85.7303C60.1714 85.7303 63.0826 81.2003 64.3752 80.548Z" fill="#FFBC1D"/>
<path d="M91.2279 78.6158C92.5205 78.2897 92.5205 80.5607 93.4869 82.8197C94.4533 85.0786 93.1607 86.6974 91.2279 86.6974C89.2831 86.6974 88.6428 79.2561 91.2279 78.6158Z" fill="#FFBC1D"/>
<path d="M97.0513 49.4909C98.2955 48.9232 99.6364 48.1984 99.9625 49.4909C100.289 50.7835 97.3774 54.3471 95.7587 54.3471C94.14 54.3471 93.4998 51.1096 97.0513 49.4909Z" fill="#FFBC1D"/>
<path d="M0.000611782 54.9994C0.000611782 58.2126 0.278466 61.3655 0.809981 64.4218C1.2811 64.2406 1.76428 63.9144 2.27164 63.407C5.50905 60.1696 3.05683 55.5792 2.27164 54.0209C1.40189 52.2814 0.532137 52.4384 0.0489416 52.7404C0.012702 53.4894 0.000611782 54.2383 0.000611782 54.9994Z" fill="#FFBC1D"/>
<path d="M102.873 43.9946C103.743 44.4295 103.84 46.2536 101.581 45.9395C99.3218 45.6134 100.94 43.0282 102.873 43.9946Z" fill="#FFBC1D"/>
<path d="M56.9335 21.3563C57.8999 21.6825 59.1924 22.6489 56.9335 22.9751C54.6746 23.2891 55.9671 21.0302 56.9335 21.3563Z" fill="#FFBC1D"/>
<path d="M51.4374 21.3573C52.6212 20.6687 52.7299 23.9424 51.7635 25.2349C50.7971 26.5275 47.5597 23.6162 51.4374 21.3573Z" fill="#FFBC1D"/>
<path d="M41.0846 98.0284C41.7852 98.1854 42.051 99.321 40.1182 99.9733C38.1733 100.614 38.1733 97.3761 41.0846 98.0284Z" fill="#FFBC1D"/>
<path d="M69.2319 103.525C70.1976 103.851 71.1753 104.491 69.2319 105.144C67.2885 105.784 68.2662 103.199 69.2319 103.525Z" fill="#FFBC1D"/>
<path d="M14.5574 47.5579C15.3668 48.1861 13.9051 51.7617 12.6125 51.4356C11.32 51.1094 11.6462 45.2869 14.5574 47.5579Z" fill="#FFBC1D"/>
<path d="M101.989 32.096C102.037 31.5886 101.928 31.1054 101.651 30.6706C100.129 28.3512 94.0886 28.1942 88.556 31.8182C83.0234 35.4421 80.7283 41.3009 82.2503 43.6203L82.2624 43.6324C82.1779 42.219 82.7698 40.2379 84.8354 37.4716C90.2231 30.284 100.044 27.8076 101.989 32.096Z" fill="#FFA51D"/>
<path d="M35.9135 23.2898C35.986 23.1207 36.0222 22.9274 36.0464 22.722C34.0049 24.075 28.7743 22.9757 25.8872 21.6711C23.8215 20.7288 24.1598 19.3517 24.8 18.3611C24.039 18.8323 23.4954 19.4846 23.29 20.3785C22.8068 22.5891 34.8867 25.8628 35.9135 23.2898Z" fill="#FFA51D"/>
<path d="M69.109 18.1442C69.5197 18.3858 70.0029 18.3133 70.5223 17.7939C74.0859 14.2303 74.4 8.40773 72.4672 7.44133C71.7062 7.05477 71.0417 6.93397 70.474 6.99437C71.2592 7.13933 72.4672 7.82789 72.4672 10.6788C72.4672 13.9645 70.8847 16.6584 69.109 18.1442Z" fill="#FFA51D"/>
<path d="M47.5105 7.83986C47.6193 7.28418 48.0541 6.75266 49.4916 7.11506C50.6634 7.40498 51.1104 8.2989 51.2432 9.19282C51.4848 9.0841 51.666 8.92706 51.7627 8.73378C52.415 7.44122 48.1508 5.02522 47.5589 7.11506C47.4864 7.38082 47.4743 7.62242 47.5105 7.83986Z" fill="#FFA51D"/>
<path d="M66.5482 97.1349C66.826 95.3954 68.4206 93.7042 71.1748 92.1942C74.7384 90.2493 77.3235 88.3165 79.5824 86.6978C80.7662 85.8522 82.397 85.6227 83.6775 85.5985C81.334 82.953 75.4632 87.7125 72.4674 89.2829C67.5267 91.868 64.8208 95.48 66.5482 97.1349Z" fill="#FFA51D"/>
<path d="M37.3636 90.4551C37.883 89.1626 39.4534 88.631 42.0626 88.631H51.1225C54.5895 88.631 54.8069 90.6363 54.8069 90.733C54.9036 90.4793 54.964 90.2135 55.0002 89.9236C55.3264 87.0123 49.1777 87.5076 45.9403 87.3385C39.8641 87.0244 37.3756 88.6914 37.3636 90.4551Z" fill="#FFA51D"/>
<path d="M41.7967 106.376C41.1806 107.004 40.7578 107.62 40.48 108.055C45.1066 109.323 49.9748 109.988 55.0001 109.988C57.3073 109.988 59.5783 109.843 61.801 109.565C61.801 108.912 61.6802 108.212 61.2816 107.62C50.5305 110.157 44.3335 107.801 41.7967 106.376Z" fill="#FFA51D"/>
<path d="M14.6289 92.3514C18.7964 96.8573 23.713 100.662 29.1731 103.562C29.7891 103.26 30.3448 102.813 30.5623 102.172C21.5386 98.7901 17.6368 92.6655 16.7187 91.0106C15.8006 91.3367 15.1241 91.8199 14.6289 92.3514Z" fill="#FFA51D"/>
<path d="M12.3822 66.2832C13.107 66.0295 18.2651 64.592 24.2688 71.4897C27.3009 74.9808 28.3518 77.6867 28.5934 79.5832C30.2121 76.9377 28.2793 72.1903 24.0514 68.675C19.7509 65.0993 14.6411 64.0725 12.3822 66.2832Z" fill="#FFA51D"/>
<path d="M8.97553 38.5471C10.3285 38.1968 12.0921 36.119 12.6236 32.9903C12.9256 31.1541 12.0076 29.3905 10.8117 28.8348C11.3311 29.5233 11.8143 30.5743 11.6573 32.0239C11.3794 34.3674 10.4976 36.7109 8.97553 38.5471Z" fill="#FFA51D"/>
<path d="M104.225 79.5344C104.6 78.7855 104.962 78.0124 105.3 77.2392C103.754 75.838 102.232 73.277 104.165 69.2302C106.557 64.217 107.716 59.9045 109.842 59.0347C109.842 58.9985 109.842 58.9743 109.854 58.938C108.743 58.7931 107.221 59.3005 106.11 62.4292C104.672 66.5001 97.98 76.4178 104.225 79.5344Z" fill="#FFA51D"/>
<path opacity="0.45" d="M21.7079 98.7781C24.0514 100.566 26.552 102.173 29.1733 103.574C32.7248 105.47 36.5058 106.98 40.468 108.068C45.0946 109.336 49.9628 110 54.988 110C57.2953 110 59.5663 109.855 61.789 109.578C80.4162 107.282 96.1684 95.6614 104.214 79.5346C107.354 73.2531 109.323 66.295 109.843 58.9383C109.939 57.6336 109.988 56.3169 109.988 55.0002C109.988 46.7012 108.152 38.8372 104.866 31.7825C101.93 25.4767 97.8233 19.8233 92.8464 15.1C108.188 88.2685 51.7627 98.4036 21.7079 98.7781Z" fill="url(#paint2_linear)"/>
<path d="M0.000282288 55C0.000282288 58.2133 0.278137 61.3661 0.809647 64.4224C1.09956 66.0653 1.44989 67.684 1.87269 69.2785C3.78131 25.0416 33.7394 -0.108902 76.9734 4.56605C70.2449 1.63062 62.8037 -0.000183105 55.0001 -0.000183105C31.2872 -0.000183105 11.0776 15.0032 3.35853 36.0465C1.43782 41.2892 0.290207 46.8943 0.0486069 52.7531C0.0123672 53.49 0.000282288 54.239 0.000282288 55Z" fill="url(#paint3_linear)"/>
</g>
</g>
<defs>
<filter id="filter0_d" x="-20" y="-10" width="150" height="150" filterUnits="userSpaceOnUse" color-interpolation-filters="sRGB">
<feFlood flood-opacity="0" result="BackgroundImageFix"/>
<feColorMatrix in="SourceAlpha" type="matrix" values="0 0 0 0 0 0 0 0 0 0 0 0 0 0 0 0 0 0 127 0"/>
<feOffset dy="10"/>
<feGaussianBlur stdDeviation="10"/>
<feColorMatrix type="matrix" values="0 0 0 0 0.277333 0 0 0 0 0 0 0 0 0 0.866667 0 0 0 0.3 0"/>
<feBlend mode="normal" in2="BackgroundImageFix" result="effect1_dropShadow"/>
<feBlend mode="normal" in="SourceGraphic" in2="effect1_dropShadow" result="shape"/>
</filter>
<linearGradient id="paint0_linear" x1="82.5" y1="128" x2="22" y2="-67" gradientUnits="userSpaceOnUse">
<stop stop-color="#8C6FFF"/>
<stop offset="1" stop-color="#6100DD"/>
</linearGradient>
<linearGradient id="paint1_linear" x1="46" y1="159" x2="116.638" y2="6.27663" gradientUnits="userSpaceOnUse">
<stop stop-color="#FFC700"/>
<stop offset="1" stop-color="#5CD921"/>
</linearGradient>
<linearGradient id="paint2_linear" x1="65.6237" y1="134.547" x2="66.1602" y2="-1.75351" gradientUnits="userSpaceOnUse">
<stop stop-color="#FF7A00"/>
<stop offset="1" stop-color="#CC622E" stop-opacity="0.2"/>
</linearGradient>
<linearGradient id="paint3_linear" x1="6.07756" y1="-0.0244599" x2="39.5379" y2="37.0487" gradientUnits="userSpaceOnUse">
<stop stop-color="#FFB300"/>
<stop offset="1" stop-color="#FFF49A" stop-opacity="0.2"/>
</linearGradient>
<clipPath id="clip0">
<rect width="110" height="110" rx="55" transform="matrix(-1 0 0 1 110 0)" fill="white"/>
</clipPath>
</defs>
</svg>
