<svg width="110" height="110" viewBox="0 0 110 110" fill="none" xmlns="http://www.w3.org/2000/svg">
<g clip-path="url(#clip0)">
<g filter="url(#filter0_d)">
<ellipse rx="55" ry="55" transform="matrix(1 -8.74228e-08 -8.74228e-08 -1 55 55)" fill="url(#paint0_linear)"/>
</g>
<path d="M77.6599 59.128C77.4679 59.416 77.3719 59.688 77.3719 59.944C77.3719 60.2853 77.5159 60.5733 77.8039 60.808C78.0812 61.032 78.4065 61.144 78.7799 61.144C79.0359 61.144 79.2759 61.0853 79.4999 60.968C79.7239 60.8507 79.9159 60.6747 80.0759 60.44L82.1559 57.4C82.3052 57.1867 82.4652 57.032 82.6359 56.936C82.7959 56.8293 82.9879 56.776 83.2119 56.776H84.2519V59.64C84.2519 60.088 84.3799 60.4453 84.6359 60.712C84.8919 60.968 85.2439 61.096 85.6919 61.096C86.1399 61.096 86.4972 60.968 86.7639 60.712C87.0199 60.4453 87.1479 60.088 87.1479 59.64V51.08C87.1479 50.6427 87.0305 50.3067 86.7959 50.072C86.5612 49.8373 86.2252 49.72 85.7879 49.72H81.7719C80.4065 49.72 79.3825 50.0187 78.6999 50.616C78.0065 51.2027 77.6599 52.056 77.6599 53.176C77.6599 54.0293 77.8945 54.7547 78.3639 55.352C78.8332 55.9387 79.4945 56.3333 80.3479 56.536C79.9959 56.5893 79.6919 56.7067 79.4359 56.888C79.1692 57.0693 78.9079 57.3413 78.6519 57.704L77.6599 59.128ZM82.2359 54.568C81.5852 54.568 81.1212 54.4667 80.8439 54.264C80.5559 54.0613 80.4119 53.7307 80.4119 53.272C80.4119 52.8027 80.5559 52.4667 80.8439 52.264C81.1212 52.0507 81.5852 51.944 82.2359 51.944H84.2839V54.568H82.2359ZM69.6274 58.472C69.382 58.472 69.1847 58.568 69.0354 58.76C68.8754 58.952 68.7954 59.2027 68.7954 59.512C68.7954 59.9387 69.0034 60.264 69.4194 60.488C69.782 60.6693 70.214 60.824 70.7154 60.952C71.206 61.0693 71.6594 61.128 72.0754 61.128C72.95 61.128 73.7127 60.9627 74.3634 60.632C75.014 60.3013 75.5154 59.8267 75.8674 59.208C76.2194 58.5893 76.3954 57.864 76.3954 57.032C76.3954 56.2427 76.23 55.5387 75.8994 54.92C75.558 54.2907 75.0887 53.8053 74.4914 53.464C73.8834 53.112 73.2007 52.936 72.4434 52.936C71.7074 52.936 71.062 53.096 70.5074 53.416C69.9527 53.736 69.526 54.1893 69.2274 54.776C68.918 55.3627 68.7634 56.0507 68.7634 56.84C68.7634 57.0853 68.822 57.2773 68.9394 57.416C69.046 57.544 69.206 57.608 69.4194 57.608H73.6434C73.5687 58.12 73.4034 58.488 73.1474 58.712C72.8914 58.936 72.5127 59.048 72.0114 59.048C71.7447 59.048 71.4994 59.0213 71.2754 58.968C71.0514 58.904 70.8007 58.8187 70.5234 58.712C70.3634 58.648 70.2087 58.5947 70.0594 58.552C69.8994 58.4987 69.7554 58.472 69.6274 58.472ZM72.3634 54.856C72.7367 54.856 73.0354 54.9787 73.2594 55.224C73.4834 55.4587 73.6167 55.8053 73.6594 56.264H71.1474C71.2114 55.3253 71.6167 54.856 72.3634 54.856ZM64.3609 61.128C65.0755 61.128 65.6782 61.0747 66.1689 60.968C66.6595 60.8613 67.0915 60.6907 67.4649 60.456C67.6142 60.3813 67.7315 60.2533 67.8169 60.072C67.9022 59.8907 67.9449 59.688 67.9449 59.464C67.9449 59.176 67.8702 58.9413 67.7209 58.76C67.5609 58.568 67.3635 58.472 67.1289 58.472C66.9689 58.472 66.8195 58.4933 66.6809 58.536C66.5422 58.568 66.3715 58.6267 66.1689 58.712C65.8275 58.8293 65.5289 58.92 65.2729 58.984C65.0062 59.048 64.6702 59.08 64.2649 59.08C63.9769 59.08 63.7529 59.0427 63.5929 58.968C63.4222 58.8827 63.3369 58.7653 63.3369 58.616C63.3369 58.4987 63.3795 58.408 63.4649 58.344C63.5395 58.28 63.6889 58.2213 63.9129 58.168C64.1369 58.104 64.5155 58.0187 65.0489 57.912C65.9982 57.7307 66.6862 57.4587 67.1129 57.096C67.5289 56.7227 67.7369 56.2 67.7369 55.528C67.7369 55.0373 67.5875 54.5947 67.2889 54.2C66.9795 53.8053 66.5582 53.496 66.0249 53.272C65.4915 53.048 64.8942 52.936 64.2329 52.936C63.7529 52.936 63.2889 52.9947 62.8409 53.112C62.3822 53.2293 61.9769 53.3947 61.6249 53.608C61.2942 53.8 61.1289 54.1093 61.1289 54.536C61.1289 54.8347 61.2089 55.0853 61.3689 55.288C61.5289 55.4907 61.7262 55.592 61.9609 55.592C62.2382 55.592 62.5689 55.5013 62.9529 55.32C63.2089 55.2027 63.4382 55.1173 63.6409 55.064C63.8329 55 64.0622 54.968 64.3289 54.968C64.5955 54.968 64.8035 55.0107 64.9529 55.096C65.1022 55.1707 65.1769 55.2827 65.1769 55.432C65.1769 55.6027 65.0755 55.736 64.8729 55.832C64.6595 55.928 64.2435 56.0347 63.6249 56.152C62.5902 56.3333 61.8595 56.6107 61.4329 56.984C61.0062 57.3467 60.7929 57.8747 60.7929 58.568C60.7929 59.3467 61.1182 59.9707 61.7689 60.44C62.4089 60.8987 63.2729 61.128 64.3609 61.128ZM53.2211 58.472C52.9758 58.472 52.7785 58.568 52.6291 58.76C52.4691 58.952 52.3891 59.2027 52.3891 59.512C52.3891 59.9387 52.5971 60.264 53.0131 60.488C53.3758 60.6693 53.8078 60.824 54.3091 60.952C54.7998 61.0693 55.2531 61.128 55.6691 61.128C56.5438 61.128 57.3065 60.9627 57.9571 60.632C58.6078 60.3013 59.1091 59.8267 59.4611 59.208C59.8131 58.5893 59.9891 57.864 59.9891 57.032C59.9891 56.2427 59.8238 55.5387 59.4931 54.92C59.1518 54.2907 58.6825 53.8053 58.0851 53.464C57.4771 53.112 56.7945 52.936 56.0371 52.936C55.3011 52.936 54.6558 53.096 54.1011 53.416C53.5465 53.736 53.1198 54.1893 52.8211 54.776C52.5118 55.3627 52.3571 56.0507 52.3571 56.84C52.3571 57.0853 52.4158 57.2773 52.5331 57.416C52.6398 57.544 52.7998 57.608 53.0131 57.608H57.2371C57.1625 58.12 56.9971 58.488 56.7411 58.712C56.4851 58.936 56.1065 59.048 55.6051 59.048C55.3385 59.048 55.0931 59.0213 54.8691 58.968C54.6451 58.904 54.3945 58.8187 54.1171 58.712C53.9571 58.648 53.8025 58.5947 53.6531 58.552C53.4931 58.4987 53.3491 58.472 53.2211 58.472ZM55.9571 54.856C56.3305 54.856 56.6291 54.9787 56.8531 55.224C57.0771 55.4587 57.2105 55.8053 57.2531 56.264H54.7411C54.8051 55.3253 55.2105 54.856 55.9571 54.856ZM47.3946 52.936C46.1786 52.936 45.2826 53.2293 44.7066 53.816C44.12 54.392 43.8266 55.272 43.8266 56.456V59.8C43.8266 60.2053 43.9493 60.5253 44.1946 60.76C44.4293 60.984 44.76 61.096 45.1866 61.096C45.56 61.096 45.8693 60.9893 46.1146 60.776C46.3493 60.5627 46.4773 60.2747 46.4986 59.912C46.648 60.296 46.8986 60.5947 47.2506 60.808C47.6026 61.0213 48.024 61.128 48.5146 61.128C49.0586 61.128 49.5493 61.0213 49.9866 60.808C50.424 60.584 50.7706 60.28 51.0266 59.896C51.272 59.5013 51.3946 59.0587 51.3946 58.568C51.3946 58.0027 51.2506 57.5547 50.9626 57.224C50.664 56.8827 50.1946 56.6373 49.5546 56.488C48.9146 56.3387 48.0506 56.264 46.9626 56.264H46.5306V56.072C46.5306 55.6987 46.616 55.432 46.7866 55.272C46.9573 55.1013 47.2453 55.016 47.6506 55.016C48.088 55.016 48.728 55.1653 49.5706 55.464C49.816 55.5493 50.024 55.592 50.1946 55.592C50.4613 55.592 50.6746 55.496 50.8346 55.304C50.9946 55.112 51.0746 54.8613 51.0746 54.552C51.0746 54.3173 51.0266 54.1253 50.9306 53.976C50.8346 53.8267 50.68 53.6933 50.4666 53.576C50.0933 53.384 49.624 53.2293 49.0586 53.112C48.4933 52.9947 47.9386 52.936 47.3946 52.936ZM47.8426 59.224C47.4586 59.224 47.144 59.0907 46.8986 58.824C46.6533 58.5467 46.5306 58.1947 46.5306 57.768V57.576H46.7866C47.4693 57.576 47.9546 57.64 48.2426 57.768C48.5306 57.8853 48.6746 58.088 48.6746 58.376C48.6746 58.6213 48.6 58.824 48.4506 58.984C48.2906 59.144 48.088 59.224 47.8426 59.224ZM37.2385 52.968C36.8758 52.936 36.5878 53.0213 36.3745 53.224C36.1612 53.416 36.0545 53.704 36.0545 54.088C36.0545 54.5147 36.1558 54.824 36.3585 55.016C36.5505 55.208 36.9025 55.3307 37.4145 55.384L37.8945 55.432C38.4278 55.496 38.8118 55.6667 39.0465 55.944C39.2705 56.2107 39.3825 56.5787 39.3825 57.048V59.784C39.3825 60.2213 39.5212 60.552 39.7985 60.776C40.0652 60.9893 40.4012 61.096 40.8065 61.096C41.2118 61.096 41.5532 60.9893 41.8305 60.776C42.0972 60.552 42.2305 60.2213 42.2305 59.784V54.248C42.2305 53.8427 42.0972 53.528 41.8305 53.304C41.5532 53.08 41.2225 52.968 40.8385 52.968C40.4438 52.968 40.1292 53.0747 39.8945 53.288C39.6492 53.5013 39.5265 53.8 39.5265 54.184V54.488C39.3558 54.0187 39.0785 53.656 38.6945 53.4C38.2998 53.144 37.8892 53.0053 37.4625 52.984L37.2385 52.968ZM31.8916 61.128C33.1716 61.128 34.185 60.7653 34.9316 60.04C35.6783 59.3147 36.0516 58.328 36.0516 57.08C36.0516 56.2587 35.8703 55.5333 35.5076 54.904C35.145 54.2747 34.6383 53.7893 33.9876 53.448C33.3263 53.1067 32.5743 52.936 31.7316 52.936C31.2836 52.936 30.8356 52.9947 30.3876 53.112C29.9396 53.2293 29.545 53.3947 29.2036 53.608C28.873 53.8107 28.7076 54.12 28.7076 54.536C28.7076 54.8667 28.7876 55.1387 28.9476 55.352C29.097 55.5547 29.2943 55.656 29.5396 55.656C29.6996 55.656 29.8543 55.6347 30.0036 55.592C30.153 55.5387 30.3183 55.464 30.4996 55.368C30.713 55.272 30.8943 55.2027 31.0436 55.16C31.193 55.1067 31.3583 55.08 31.5396 55.08C32.5956 55.08 33.1236 55.7253 33.1236 57.016C33.1236 57.656 32.9903 58.1467 32.7236 58.488C32.4463 58.8187 32.0516 58.984 31.5396 58.984C31.3583 58.984 31.193 58.9627 31.0436 58.92C30.8836 58.8667 30.7076 58.792 30.5156 58.696C30.3023 58.6 30.1316 58.5307 30.0036 58.488C29.865 58.4347 29.7156 58.408 29.5556 58.408C29.3103 58.408 29.113 58.5147 28.9636 58.728C28.8036 58.9307 28.7236 59.1973 28.7236 59.528C28.7236 59.7307 28.7663 59.9173 28.8516 60.088C28.937 60.248 29.0543 60.3707 29.2036 60.456C29.9396 60.904 30.8356 61.128 31.8916 61.128ZM22.3236 52.936C21.4063 52.936 20.7236 53.2187 20.2756 53.784C19.8276 54.3387 19.6036 55.1867 19.6036 56.328V59.784C19.6036 60.1893 19.7316 60.5093 19.9876 60.744C20.2436 60.9787 20.5903 61.096 21.0276 61.096C21.465 61.096 21.8116 60.9787 22.0676 60.744C22.3236 60.5093 22.4516 60.1893 22.4516 59.784V56.264C22.4516 55.496 22.7823 55.112 23.4436 55.112C23.8703 55.112 24.2116 55.2507 24.4676 55.528C24.713 55.7947 24.8356 56.1573 24.8356 56.616V59.784C24.8356 60.1893 24.9636 60.5093 25.2196 60.744C25.4756 60.9787 25.8223 61.096 26.2596 61.096C26.697 61.096 27.0436 60.9787 27.2996 60.744C27.5556 60.5093 27.6836 60.1893 27.6836 59.784V50.92C27.6836 50.5467 27.5503 50.2427 27.2836 50.008C27.017 49.7627 26.665 49.64 26.2276 49.64C25.8116 49.64 25.4756 49.752 25.2196 49.976C24.9636 50.2 24.8356 50.4987 24.8356 50.872V54.072C24.5476 53.6987 24.1903 53.416 23.7636 53.224C23.337 53.032 22.857 52.936 22.3236 52.936Z" fill="white"/>
<path d="M-16 0H110V162H-16V0Z" fill="url(#paint1_linear)"/>
<g style="mix-blend-mode:lighten" opacity="0.7">
<path d="M104.225 79.5344C104.6 78.7855 104.962 78.0124 105.3 77.2392C107.801 71.5979 109.371 65.4733 109.842 59.0347C109.842 58.9985 109.842 58.9743 109.854 58.938C108.743 58.7931 107.221 59.3005 106.11 62.4292C104.672 66.5001 97.98 76.4178 104.225 79.5344Z" fill="#FFB403"/>
<path d="M82.2503 43.6203L82.2624 43.6324C83.7845 45.9276 88.5319 43.8257 94.0524 40.2137C98.5582 37.2662 101.771 34.3308 101.989 32.096C102.037 31.5886 101.928 31.1054 101.651 30.6706C100.129 28.3512 94.0886 28.1942 88.556 31.8182C83.0234 35.4421 80.7283 41.3009 82.2503 43.6203Z" fill="#FFB403"/>
<path d="M16.3927 77.8671C20.8502 81.5877 26.1895 82.5421 28.3035 79.9932C28.4122 79.8603 28.5089 79.7274 28.5934 79.5825C30.2121 76.937 28.2793 72.1895 24.0514 68.6742C19.7509 65.0865 14.6411 64.0718 12.3822 66.2824C12.2976 66.367 12.2131 66.4515 12.1406 66.5361C10.0266 69.085 11.9232 74.1586 16.3927 77.8671Z" fill="#FFB403"/>
<path d="M66.5488 97.1349C67.2011 97.7631 68.4936 98.1134 70.5231 98.0168C77.9643 97.6906 86.0457 88.6306 83.7868 85.7193C83.7505 85.671 83.7143 85.6348 83.6781 85.5985C81.3346 82.953 75.4637 87.7125 72.4679 89.2829C67.5272 91.868 64.8213 95.4799 66.5488 97.1349Z" fill="#FFB403"/>
<path d="M37.3636 90.4549C37.3515 92.1702 39.6829 93.9822 43.3552 94.1393C50.0716 94.4292 53.9009 93.1366 54.8069 90.7448C54.9036 90.4911 54.964 90.2253 55.0002 89.9354C55.3264 87.0241 49.1777 87.5194 45.9403 87.3503C39.8641 87.0241 37.3756 88.6912 37.3636 90.4549Z" fill="#FFB403"/>
<path d="M35.9139 23.2902C35.9864 23.121 36.0226 22.9278 36.0468 22.7224C36.1917 21.0674 34.5609 18.6515 31.3839 17.7817C29.3183 17.2139 26.5278 17.2864 24.8004 18.3494C24.0394 18.8206 23.4958 19.4729 23.2904 20.3668C22.8072 22.5895 34.8871 25.8632 35.9139 23.2902Z" fill="#FFB403"/>
<path d="M69.109 18.1442C69.5197 18.3858 70.0029 18.3133 70.5223 17.7939C74.0859 14.2303 74.4 8.40773 72.4672 7.44133C71.7062 7.05477 71.0417 6.93397 70.474 6.99437C66.6084 7.42925 67.0312 16.8879 69.109 18.1442Z" fill="#FFB403"/>
<path d="M8.09369 38.499C8.34737 38.6198 8.64938 38.644 8.97553 38.5594C10.3285 38.2091 12.0921 36.1313 12.6236 33.0026C12.9256 31.1664 12.0076 29.4028 10.8117 28.8471C9.48288 28.2189 7.80378 29.0887 7.12731 33.0026C6.72867 35.2253 6.78906 37.8467 8.09369 38.499Z" fill="#FFB403"/>
<path d="M14.6288 92.3514C18.7964 96.8573 23.7129 100.662 29.173 103.562C29.7891 103.26 30.3448 102.813 30.5622 102.172C30.7555 101.605 30.6709 100.88 30.079 99.9618C27.8201 96.3982 25.5491 90.9018 20.3789 90.5757C18.8689 90.479 17.673 90.6602 16.7187 90.9985C15.8006 91.3367 15.1241 91.8199 14.6288 92.3514Z" fill="#FFB403"/>
<path d="M40.48 108.055C45.1066 109.324 49.9748 109.988 55.0001 109.988C57.3073 109.988 59.5783 109.843 61.801 109.565C61.801 108.913 61.6802 108.212 61.2816 107.62C60.895 107.053 60.2548 106.594 59.2038 106.425C55.3262 105.772 53.3813 103.187 47.885 103.513C45.0341 103.682 43.0409 105.072 41.7967 106.364C41.1806 107.016 40.7578 107.62 40.48 108.055Z" fill="#FFB403"/>
<path d="M47.5105 7.83986C47.7884 9.21698 50.1198 9.71226 51.2432 9.19282C51.4848 9.0841 51.666 8.92706 51.7627 8.73378C52.415 7.44122 48.1508 5.02522 47.5589 7.11506C47.4864 7.38082 47.4743 7.62242 47.5105 7.83986Z" fill="#FFB403"/>
<path d="M64.3752 80.548C65.8248 79.8232 66.9603 79.2554 66.6341 82.1667C66.308 85.078 64.049 85.7303 62.1042 85.7303C60.1714 85.7303 63.0826 81.2003 64.3752 80.548Z" fill="#FFBC1D"/>
<path d="M91.2279 78.6158C92.5205 78.2897 92.5205 80.5607 93.4869 82.8197C94.4533 85.0786 93.1607 86.6974 91.2279 86.6974C89.2831 86.6974 88.6428 79.2561 91.2279 78.6158Z" fill="#FFBC1D"/>
<path d="M97.0513 49.4909C98.2955 48.9232 99.6364 48.1984 99.9625 49.4909C100.289 50.7835 97.3774 54.3471 95.7587 54.3471C94.14 54.3471 93.4998 51.1096 97.0513 49.4909Z" fill="#FFBC1D"/>
<path d="M0.000611782 54.9994C0.000611782 58.2126 0.278466 61.3655 0.809981 64.4218C1.2811 64.2406 1.76428 63.9144 2.27164 63.407C5.50905 60.1696 3.05683 55.5792 2.27164 54.0209C1.40189 52.2814 0.532137 52.4384 0.0489416 52.7404C0.012702 53.4894 0.000611782 54.2383 0.000611782 54.9994Z" fill="#FFBC1D"/>
<path d="M102.873 43.9946C103.743 44.4295 103.84 46.2536 101.581 45.9395C99.3218 45.6134 100.94 43.0282 102.873 43.9946Z" fill="#FFBC1D"/>
<path d="M56.9335 21.3563C57.8999 21.6825 59.1924 22.6489 56.9335 22.9751C54.6746 23.2891 55.9671 21.0302 56.9335 21.3563Z" fill="#FFBC1D"/>
<path d="M51.4374 21.3573C52.6212 20.6687 52.7299 23.9424 51.7635 25.2349C50.7971 26.5275 47.5597 23.6162 51.4374 21.3573Z" fill="#FFBC1D"/>
<path d="M41.0846 98.0284C41.7852 98.1854 42.051 99.321 40.1182 99.9733C38.1733 100.614 38.1733 97.3761 41.0846 98.0284Z" fill="#FFBC1D"/>
<path d="M69.2319 103.525C70.1976 103.851 71.1753 104.491 69.2319 105.144C67.2885 105.784 68.2662 103.199 69.2319 103.525Z" fill="#FFBC1D"/>
<path d="M14.5574 47.5579C15.3668 48.1861 13.9051 51.7617 12.6125 51.4356C11.32 51.1094 11.6462 45.2869 14.5574 47.5579Z" fill="#FFBC1D"/>
<path d="M101.989 32.096C102.037 31.5886 101.928 31.1054 101.651 30.6706C100.129 28.3512 94.0886 28.1942 88.556 31.8182C83.0234 35.4421 80.7283 41.3009 82.2503 43.6203L82.2624 43.6324C82.1779 42.219 82.7698 40.2379 84.8354 37.4716C90.2231 30.284 100.044 27.8076 101.989 32.096Z" fill="#FFA51D"/>
<path d="M35.9135 23.2898C35.986 23.1207 36.0222 22.9274 36.0464 22.722C34.0049 24.075 28.7743 22.9757 25.8872 21.6711C23.8215 20.7288 24.1598 19.3517 24.8 18.3611C24.039 18.8323 23.4954 19.4846 23.29 20.3785C22.8068 22.5891 34.8867 25.8628 35.9135 23.2898Z" fill="#FFA51D"/>
<path d="M69.109 18.1442C69.5197 18.3858 70.0029 18.3133 70.5223 17.7939C74.0859 14.2303 74.4 8.40773 72.4672 7.44133C71.7062 7.05477 71.0417 6.93397 70.474 6.99437C71.2592 7.13933 72.4672 7.82789 72.4672 10.6788C72.4672 13.9645 70.8847 16.6584 69.109 18.1442Z" fill="#FFA51D"/>
<path d="M47.5105 7.83986C47.6193 7.28418 48.0541 6.75266 49.4916 7.11506C50.6634 7.40498 51.1104 8.2989 51.2432 9.19282C51.4848 9.0841 51.666 8.92706 51.7627 8.73378C52.415 7.44122 48.1508 5.02522 47.5589 7.11506C47.4864 7.38082 47.4743 7.62242 47.5105 7.83986Z" fill="#FFA51D"/>
<path d="M66.5482 97.1349C66.826 95.3954 68.4206 93.7042 71.1748 92.1942C74.7384 90.2493 77.3235 88.3165 79.5824 86.6978C80.7662 85.8522 82.397 85.6227 83.6775 85.5985C81.334 82.953 75.4632 87.7125 72.4674 89.2829C67.5267 91.868 64.8208 95.48 66.5482 97.1349Z" fill="#FFA51D"/>
<path d="M37.3636 90.4551C37.883 89.1626 39.4534 88.631 42.0626 88.631H51.1225C54.5895 88.631 54.8069 90.6363 54.8069 90.733C54.9036 90.4793 54.964 90.2135 55.0002 89.9236C55.3264 87.0123 49.1777 87.5076 45.9403 87.3385C39.8641 87.0244 37.3756 88.6914 37.3636 90.4551Z" fill="#FFA51D"/>
<path d="M41.7967 106.376C41.1806 107.004 40.7578 107.62 40.48 108.055C45.1066 109.323 49.9748 109.988 55.0001 109.988C57.3073 109.988 59.5783 109.843 61.801 109.565C61.801 108.912 61.6802 108.212 61.2816 107.62C50.5305 110.157 44.3335 107.801 41.7967 106.376Z" fill="#FFA51D"/>
<path d="M14.6289 92.3514C18.7964 96.8573 23.713 100.662 29.1731 103.562C29.7891 103.26 30.3448 102.813 30.5623 102.172C21.5386 98.7901 17.6368 92.6655 16.7187 91.0106C15.8006 91.3367 15.1241 91.8199 14.6289 92.3514Z" fill="#FFA51D"/>
<path d="M12.3822 66.2832C13.107 66.0295 18.2651 64.592 24.2688 71.4897C27.3009 74.9808 28.3518 77.6867 28.5934 79.5832C30.2121 76.9377 28.2793 72.1903 24.0514 68.675C19.7509 65.0993 14.6411 64.0725 12.3822 66.2832Z" fill="#FFA51D"/>
<path d="M8.97553 38.5471C10.3285 38.1968 12.0921 36.119 12.6236 32.9903C12.9256 31.1541 12.0076 29.3905 10.8117 28.8348C11.3311 29.5233 11.8143 30.5743 11.6573 32.0239C11.3794 34.3674 10.4976 36.7109 8.97553 38.5471Z" fill="#FFA51D"/>
<path d="M104.225 79.5344C104.6 78.7855 104.962 78.0124 105.3 77.2392C103.754 75.838 102.232 73.277 104.165 69.2302C106.557 64.217 107.716 59.9045 109.842 59.0347C109.842 58.9985 109.842 58.9743 109.854 58.938C108.743 58.7931 107.221 59.3005 106.11 62.4292C104.672 66.5001 97.98 76.4178 104.225 79.5344Z" fill="#FFA51D"/>
<path opacity="0.45" d="M21.7079 98.7781C24.0514 100.566 26.552 102.173 29.1733 103.574C32.7248 105.47 36.5058 106.98 40.468 108.068C45.0946 109.336 49.9628 110 54.988 110C57.2953 110 59.5663 109.855 61.789 109.578C80.4162 107.282 96.1684 95.6614 104.214 79.5346C107.354 73.2531 109.323 66.295 109.843 58.9383C109.939 57.6336 109.988 56.3169 109.988 55.0002C109.988 46.7012 108.152 38.8372 104.866 31.7825C101.93 25.4767 97.8233 19.8233 92.8464 15.1C108.188 88.2685 51.7627 98.4036 21.7079 98.7781Z" fill="url(#paint2_linear)"/>
<path d="M0.000282288 55C0.000282288 58.2133 0.278137 61.3661 0.809647 64.4224C1.09956 66.0653 1.44989 67.684 1.87269 69.2785C3.78131 25.0416 33.7394 -0.108902 76.9734 4.56605C70.2449 1.63062 62.8037 -0.000183105 55.0001 -0.000183105C31.2872 -0.000183105 11.0776 15.0032 3.35853 36.0465C1.43782 41.2892 0.290207 46.8943 0.0486069 52.7531C0.0123672 53.49 0.000282288 54.239 0.000282288 55Z" fill="url(#paint3_linear)"/>
</g>
</g>
<defs>
<filter id="filter0_d" x="-20" y="-10" width="150" height="150" filterUnits="userSpaceOnUse" color-interpolation-filters="sRGB">
<feFlood flood-opacity="0" result="BackgroundImageFix"/>
<feColorMatrix in="SourceAlpha" type="matrix" values="0 0 0 0 0 0 0 0 0 0 0 0 0 0 0 0 0 0 127 0"/>
<feOffset dy="10"/>
<feGaussianBlur stdDeviation="10"/>
<feColorMatrix type="matrix" values="0 0 0 0 0.277333 0 0 0 0 0 0 0 0 0 0.866667 0 0 0 0.3 0"/>
<feBlend mode="normal" in2="BackgroundImageFix" result="effect1_dropShadow"/>
<feBlend mode="normal" in="SourceGraphic" in2="effect1_dropShadow" result="shape"/>
</filter>
<linearGradient id="paint0_linear" x1="82.5" y1="128" x2="22" y2="-67" gradientUnits="userSpaceOnUse">
<stop stop-color="#8C6FFF"/>
<stop offset="1" stop-color="#6100DD"/>
</linearGradient>
<linearGradient id="paint1_linear" x1="240" y1="-120" x2="23.0906" y2="266.054" gradientUnits="userSpaceOnUse">
<stop offset="0.335127" stop-color="#FFB403"/>
<stop offset="1" stop-color="#FF0101"/>
</linearGradient>
<linearGradient id="paint2_linear" x1="65.6237" y1="134.547" x2="66.1602" y2="-1.75351" gradientUnits="userSpaceOnUse">
<stop stop-color="#FF7A00"/>
<stop offset="1" stop-color="#CC622E" stop-opacity="0.2"/>
</linearGradient>
<linearGradient id="paint3_linear" x1="6.07756" y1="-0.0244599" x2="39.5379" y2="37.0487" gradientUnits="userSpaceOnUse">
<stop stop-color="#FFB300"/>
<stop offset="1" stop-color="#FFF49A" stop-opacity="0.2"/>
</linearGradient>
<clipPath id="clip0">
<rect width="110" height="110" rx="55" transform="matrix(-1 0 0 1 110 0)" fill="white"/>
</clipPath>
</defs>
</svg>
