<svg width="110" height="110" viewBox="0 0 110 110" fill="none" xmlns="http://www.w3.org/2000/svg">
<g clip-path="url(#clip0)">
<path d="M138 -107H-29V155H138V-107Z" fill="url(#paint0_linear)"/>
<g style="mix-blend-mode:screen" opacity="0.5">
<path d="M5.77474 79.5344C5.40027 78.7855 5.03787 78.0124 4.69963 77.2392C2.1991 71.5979 0.628715 65.4733 0.1576 59.0347C0.1576 58.9985 0.157588 58.9743 0.145508 58.938C1.25686 58.7931 2.77893 59.3005 3.89028 62.4292C5.32779 66.5001 12.02 76.4178 5.77474 79.5344Z" fill="#FFB403"/>
<path d="M27.7497 43.6203L27.7376 43.6324C26.2155 45.9276 21.4681 43.8257 15.9476 40.2137C11.4418 37.2662 8.22854 34.3308 8.01111 32.096C7.96279 31.5886 8.07152 31.1054 8.34936 30.6706C9.87143 28.3512 15.9114 28.1942 21.444 31.8182C26.9766 35.4421 29.2717 41.3009 27.7497 43.6203Z" fill="#FFB403"/>
<path d="M93.6073 77.8671C89.1498 81.5878 83.8105 82.5421 81.6965 79.9932C81.5878 79.8603 81.4911 79.7274 81.4066 79.5825C79.7879 76.937 81.7207 72.1895 85.9486 68.6743C90.2491 65.0865 95.3589 64.0718 97.6178 66.2824C97.7024 66.367 97.7869 66.4515 97.8594 66.5361C99.9734 69.085 98.0768 74.1586 93.6073 77.8671Z" fill="#FFB403"/>
<path d="M43.4512 97.1349C42.7989 97.7631 41.5064 98.1134 39.4769 98.0167C32.0357 97.6906 23.9543 88.6306 26.2132 85.7193C26.2495 85.671 26.2857 85.6347 26.3219 85.5985C28.6654 82.953 34.5363 87.7125 37.5321 89.2829C42.4728 91.868 45.1787 95.4799 43.4512 97.1349Z" fill="#FFB403"/>
<path d="M72.6364 90.4549C72.6485 92.1702 70.3171 93.9822 66.6448 94.1393C59.9284 94.4292 56.0991 93.1366 55.1931 90.7448C55.0964 90.4911 55.036 90.2253 54.9998 89.9354C54.6736 87.0241 60.8223 87.5194 64.0597 87.3503C70.1359 87.0241 72.6244 88.6912 72.6364 90.4549Z" fill="#FFB403"/>
<path d="M86.706 39.8383C85.9692 40.9375 84.5437 41.6865 82.6955 41.6865C76.873 41.6865 69.1056 37.4827 70.0841 33.5929C70.1928 33.1459 70.3619 32.7594 70.5552 32.4453C72.0531 30.0293 75.8341 31.2011 79.4702 31.9742C86.7423 33.5204 88.3006 37.4827 86.706 39.8383Z" fill="#FFB403"/>
<path d="M68.3845 71.4534C68.5131 72.3275 68.1376 73.3668 67.2106 74.255C64.2903 77.0534 58.4893 78.7982 57.2173 76.4882C57.0692 76.2246 56.9789 75.9605 56.9335 75.719C56.5899 73.8565 59.0173 72.5935 61.1914 71.2117C65.5395 68.448 68.1168 69.573 68.3845 71.4534Z" fill="#FFB403"/>
<path d="M74.0861 23.2902C74.0136 23.121 73.9774 22.9278 73.9532 22.7224C73.8083 21.0674 75.4391 18.6515 78.6161 17.7817C80.6817 17.2139 83.4722 17.2864 85.1996 18.3494C85.9606 18.8206 86.5042 19.4729 86.7096 20.3668C87.1928 22.5895 75.1129 25.8632 74.0861 23.2902Z" fill="#FFB403"/>
<path d="M40.891 18.1442C40.4803 18.3858 39.9971 18.3133 39.4777 17.7939C35.9141 14.2303 35.6 8.40773 37.5328 7.44133C38.2938 7.05477 38.9583 6.93397 39.526 6.99437C43.3916 7.42925 42.9688 16.8879 40.891 18.1442Z" fill="#FFB403"/>
<path d="M101.906 38.499C101.653 38.6198 101.351 38.644 101.024 38.5594C99.6715 38.2091 97.9079 36.1313 97.3764 33.0026C97.0744 31.1665 97.9924 29.4028 99.1883 28.8471C100.517 28.2189 102.196 29.0887 102.873 33.0026C103.271 35.2253 103.211 37.8467 101.906 38.499Z" fill="#FFB403"/>
<path d="M95.3712 92.3514C91.2036 96.8573 86.2871 100.662 80.827 103.562C80.2109 103.26 79.6552 102.813 79.4378 102.172C79.2445 101.605 79.3291 100.88 79.921 99.9618C82.1799 96.3982 84.4509 90.9018 89.6211 90.5757C91.1311 90.479 92.327 90.6602 93.2813 90.9985C94.1994 91.3367 94.8759 91.8199 95.3712 92.3514Z" fill="#FFB403"/>
<path d="M69.52 108.055C64.8934 109.324 60.0252 109.988 54.9999 109.988C52.6927 109.988 50.4217 109.843 48.199 109.565C48.199 108.913 48.3198 108.212 48.7184 107.62C49.105 107.053 49.7452 106.594 50.7962 106.425C54.6738 105.772 56.6187 103.187 62.115 103.513C64.9659 103.682 66.9591 105.072 68.2033 106.364C68.8194 107.016 69.2422 107.62 69.52 108.055Z" fill="#FFB403"/>
<path d="M62.4895 7.83986C62.2116 9.21698 59.8802 9.71226 58.7568 9.19282C58.5152 9.0841 58.334 8.92706 58.2373 8.73378C57.585 7.44122 61.8492 5.02522 62.4411 7.11506C62.5136 7.38082 62.5257 7.62242 62.4895 7.83986Z" fill="#FFB403"/>
<path d="M45.6248 80.548C44.1752 79.8232 43.0397 79.2554 43.3659 82.1667C43.692 85.078 45.951 85.7303 47.8958 85.7303C49.8286 85.7303 46.9174 81.2003 45.6248 80.548Z" fill="#FFBC1D"/>
<path d="M18.7721 78.6158C17.4795 78.2897 17.4795 80.5607 16.5131 82.8197C15.5467 85.0786 16.8393 86.6974 18.7721 86.6974C20.7169 86.6974 21.3572 79.2561 18.7721 78.6158Z" fill="#FFBC1D"/>
<path d="M12.9487 49.4909C11.7045 48.9232 10.3636 48.1984 10.0375 49.4909C9.71131 50.7835 12.6226 54.3471 14.2413 54.3471C15.86 54.3471 16.5002 51.1096 12.9487 49.4909Z" fill="#FFBC1D"/>
<path d="M109.999 54.9994C109.999 58.2126 109.722 61.3655 109.19 64.4218C108.719 64.2406 108.236 63.9144 107.728 63.407C104.491 60.1696 106.943 55.5792 107.728 54.0209C108.598 52.2814 109.468 52.4384 109.951 52.7404C109.987 53.4894 109.999 54.2383 109.999 54.9994Z" fill="#FFBC1D"/>
<path d="M7.12675 43.9946C6.257 44.4295 6.16037 46.2536 8.41931 45.9395C10.6782 45.6134 9.05953 43.0282 7.12675 43.9946Z" fill="#FFBC1D"/>
<path d="M53.0665 21.3563C52.1001 21.6825 50.8076 22.6489 53.0665 22.9751C55.3254 23.2891 54.0329 21.0302 53.0665 21.3563Z" fill="#FFBC1D"/>
<path d="M58.5626 21.3573C57.3788 20.6687 57.2701 23.9424 58.2365 25.235C59.2029 26.5275 62.4403 23.6162 58.5626 21.3573Z" fill="#FFBC1D"/>
<path d="M68.9154 98.0284C68.2148 98.1854 67.949 99.321 69.8818 99.9733C71.8267 100.614 71.8267 97.3761 68.9154 98.0284Z" fill="#FFBC1D"/>
<path d="M40.7681 103.525C39.8024 103.851 38.8247 104.491 40.7681 105.144C42.7115 105.784 41.7338 103.199 40.7681 103.525Z" fill="#FFBC1D"/>
<path d="M95.4426 47.5579C94.6332 48.1861 96.0949 51.7618 97.3875 51.4356C98.68 51.1094 98.3538 45.2869 95.4426 47.5579Z" fill="#FFBC1D"/>
<path d="M8.01111 32.096C7.96279 31.5886 8.07152 31.1054 8.34936 30.6706C9.87143 28.3512 15.9114 28.1942 21.444 31.8182C26.9766 35.4421 29.2717 41.3009 27.7497 43.6203L27.7376 43.6324C27.8221 42.219 27.2302 40.2379 25.1646 37.4716C19.7769 30.284 9.95597 27.8076 8.01111 32.096Z" fill="#FFA51D"/>
<path d="M74.0865 23.2898C74.014 23.1207 73.9778 22.9274 73.9536 22.722C75.9951 24.075 81.2257 22.9757 84.1128 21.6711C86.1785 20.7288 85.8402 19.3517 85.2 18.3611C85.961 18.8323 86.5046 19.4846 86.71 20.3785C87.1932 22.5891 75.1133 25.8628 74.0865 23.2898Z" fill="#FFA51D"/>
<path d="M40.891 18.1442C40.4803 18.3858 39.9971 18.3133 39.4777 17.7939C35.9141 14.2303 35.6 8.40773 37.5328 7.44133C38.2938 7.05477 38.9583 6.93397 39.526 6.99437C38.7408 7.13933 37.5328 7.82789 37.5328 10.6788C37.5328 13.9645 39.1153 16.6584 40.891 18.1442Z" fill="#FFA51D"/>
<path d="M62.4895 7.83986C62.3807 7.28418 61.9459 6.75266 60.5084 7.11506C59.3366 7.40498 58.8896 8.2989 58.7568 9.19282C58.5152 9.0841 58.334 8.92706 58.2373 8.73378C57.585 7.44122 61.8492 5.02522 62.4411 7.11506C62.5136 7.38082 62.5257 7.62242 62.4895 7.83986Z" fill="#FFA51D"/>
<path d="M43.4518 97.1349C43.174 95.3954 41.5794 93.7042 38.8252 92.1942C35.2616 90.2493 32.6765 88.3165 30.4176 86.6978C29.2338 85.8522 27.603 85.6227 26.3225 85.5985C28.666 82.953 34.5368 87.7125 37.5326 89.2829C42.4733 91.868 45.1792 95.4799 43.4518 97.1349Z" fill="#FFA51D"/>
<path d="M72.6364 90.4551C72.117 89.1626 70.5466 88.631 67.9374 88.631H58.8775C55.4105 88.631 55.1931 90.6363 55.1931 90.733C55.0964 90.4793 55.036 90.2135 54.9998 89.9236C54.6736 87.0123 60.8223 87.5076 64.0597 87.3385C70.1359 87.0244 72.6244 88.6914 72.6364 90.4551Z" fill="#FFA51D"/>
<path d="M68.2033 106.376C68.8194 107.004 69.2422 107.62 69.52 108.055C64.8934 109.323 60.0252 109.988 54.9999 109.988C52.6927 109.988 50.4217 109.843 48.199 109.565C48.199 108.912 48.3198 108.212 48.7184 107.62C59.4695 110.157 65.6665 107.801 68.2033 106.376Z" fill="#FFA51D"/>
<path d="M95.3711 92.3515C91.2036 96.8573 86.287 100.662 80.8269 103.562C80.2109 103.26 79.6552 102.813 79.4377 102.172C88.4614 98.7901 92.3632 92.6655 93.2813 91.0106C94.1994 91.3367 94.8759 91.8199 95.3711 92.3515Z" fill="#FFA51D"/>
<path d="M97.6178 66.2832C96.893 66.0295 91.7349 64.592 85.7312 71.4896C82.6991 74.9808 81.6482 77.6867 81.4066 79.5832C79.7879 76.9377 81.7207 72.1903 85.9486 68.675C90.2491 65.0993 95.3589 64.0725 97.6178 66.2832Z" fill="#FFA51D"/>
<path d="M101.024 38.5471C99.6715 38.1968 97.9079 36.119 97.3764 32.9903C97.0744 31.1542 97.9924 29.3905 99.1883 28.8348C98.6689 29.5234 98.1857 30.5743 98.3427 32.0239C98.6206 34.3674 99.5024 36.7109 101.024 38.5471Z" fill="#FFA51D"/>
<path d="M5.77474 79.5344C5.40027 78.7855 5.03787 78.0124 4.69963 77.2392C6.24586 75.838 7.76793 73.277 5.83515 69.2302C3.44333 64.217 2.28366 59.9045 0.1576 59.0347C0.1576 58.9985 0.157588 58.9743 0.145508 58.938C1.25686 58.7931 2.77893 59.3005 3.89028 62.4292C5.32779 66.5001 12.02 76.4178 5.77474 79.5344Z" fill="#FFA51D"/>
<path opacity="0.45" d="M88.2921 98.7781C85.9486 100.566 83.448 102.173 80.8267 103.574C77.2752 105.47 73.4942 106.98 69.532 108.068C64.9054 109.336 60.0372 110 55.012 110C52.7047 110 50.4337 109.855 48.211 109.578C29.5838 107.282 13.8316 95.6614 5.78639 79.5346C2.64562 73.2531 0.676614 66.295 0.157178 58.9383C0.0605391 57.6336 0.012207 56.3169 0.012207 55.0002C0.012207 46.7012 1.84836 38.8372 5.13409 31.7825C8.0695 25.4767 12.1767 19.8233 17.1536 15.1C1.81211 88.2685 58.2373 98.4036 88.2921 98.7781Z" fill="url(#paint1_linear)"/>
<path d="M110 55C110 58.2133 109.722 61.3661 109.19 64.4224C108.9 66.0653 108.55 67.684 108.127 69.2785C106.219 25.0416 76.2606 -0.108902 33.0266 4.56605C39.7551 1.63062 47.1963 -0.000183105 54.9999 -0.000183105C78.7128 -0.000183105 98.9224 15.0032 106.641 36.0465C108.562 41.2892 109.71 46.8943 109.951 52.7531C109.988 53.49 110 54.239 110 55Z" fill="url(#paint2_linear)"/>
</g>
</g>
<defs>
<linearGradient id="paint0_linear" x1="91" y1="-7.00001" x2="21" y2="227.5" gradientUnits="userSpaceOnUse">
<stop stop-color="#9124FF"/>
<stop offset="0.5155" stop-color="#FF00B3"/>
<stop offset="0.9948" stop-color="#FF002F"/>
</linearGradient>
<linearGradient id="paint1_linear" x1="44.3763" y1="134.547" x2="43.8398" y2="-1.75351" gradientUnits="userSpaceOnUse">
<stop stop-color="#FF7A00"/>
<stop offset="1" stop-color="#CC622E" stop-opacity="0.2"/>
</linearGradient>
<linearGradient id="paint2_linear" x1="103.922" y1="-0.0244599" x2="70.4621" y2="37.0487" gradientUnits="userSpaceOnUse">
<stop stop-color="#FFB300"/>
<stop offset="1" stop-color="#FFF49A" stop-opacity="0.2"/>
</linearGradient>
<clipPath id="clip0">
<rect width="110" height="110" rx="55" fill="white"/>
</clipPath>
</defs>
</svg>
