<svg viewBox="0 0 120 120" fill="none" xmlns="http://www.w3.org/2000/svg">
<g clip-path="url(#clip0)">
<g filter="url(#filter0_d)">
<ellipse cx="60" cy="60" rx="60" ry="60" transform="rotate(-180 60 60)" fill="url(#paint0_linear)"/>
</g>
<path fill-rule="evenodd" clip-rule="evenodd" d="M-12 0H132V120H-12V0Z" fill="url(#paint1_linear)"/>
<g opacity="0.5">
<path opacity="0.5" d="M120.077 53.9451C118.957 53.8528 117.641 53.8528 116.175 54.049C111.685 54.6378 104.805 57.189 97.5318 66.0201C96.3774 67.4285 95.3039 68.756 94.2534 70.049C82.6055 84.4674 77.2837 91.059 42.5364 94.2105C31.558 95.2033 23.9621 98.8743 18.6981 103.33C18.4441 103.088 18.2017 102.857 17.9592 102.603C23.3503 98.0085 31.1656 94.2105 42.444 93.1946C76.7527 90.0778 81.6473 84.0287 93.4568 69.4025C94.4958 68.1096 95.5694 66.782 96.7353 65.3737C104.25 56.2424 111.419 53.6219 116.106 53.0216C117.538 52.8369 118.83 52.8254 119.95 52.9062C120.008 53.2525 120.054 53.5988 120.077 53.9451Z" fill="#E7001C"/>
<path opacity="0.5" d="M119.765 68.4332C119.719 68.7679 119.673 69.1027 119.615 69.426C114.271 69.3451 109.503 71.527 105.382 75.9483C102.981 78.5226 100.926 80.9353 99.1133 83.0594C90.1898 93.5182 84.7988 99.8327 58.3054 104.104C48.0428 105.755 40.493 109.357 35.8177 114.805C35.4945 114.667 35.1713 114.517 34.848 114.367C39.6734 108.606 47.5002 104.808 58.1438 103.1C84.2678 98.8861 89.2663 93.0334 98.3399 82.4014C100.164 80.2657 102.23 77.8415 104.643 75.2556C109.607 69.9108 115.021 68.3408 119.765 68.4332Z" fill="#E7001C"/>
<path opacity="0.5" d="M115.875 82.7361C115.725 83.0939 115.575 83.4633 115.413 83.8212C111.108 84.5485 107.413 86.8111 104.377 90.609C96.1119 100.941 90.6285 106.274 76.1178 110.592C66.3054 113.501 62.1611 117.149 60.4411 120H60.2563C59.9216 120 59.5983 120 59.2635 119.988C61.5146 115.694 67.0788 112.196 75.8176 109.599C90.0514 105.374 95.4424 100.121 103.569 89.9626C107.379 85.218 111.823 83.3017 115.875 82.7361Z" fill="#E7001C"/>
<path opacity="0.5" d="M57.5434 67.0589C53.7685 73.6274 44.314 76.1209 30.3227 79.18C18.2131 81.8236 12.0601 87.1685 9.00099 91.2897C8.80474 90.9664 8.60848 90.6432 8.41223 90.32C8.68929 89.9506 9.00096 89.5812 9.33574 89.1887C12.4988 85.5408 18.6748 80.6808 30.1034 78.1757C43.8292 75.1743 53.0874 72.7385 56.6545 66.5509C58.9287 62.5798 58.8363 57.1541 56.3659 49.4659C54.2764 42.9781 51.1365 36.4674 48.112 30.1759C43.5752 20.7445 39.1885 11.6478 38.9114 3.69402C39.2577 3.56704 39.5925 3.44003 39.9388 3.31305C40.0889 11.1399 44.4756 20.2596 49.0355 29.7257C52.0831 36.0518 55.2346 42.5857 57.3471 49.1542C59.9099 57.1311 59.9792 62.8222 57.5434 67.0589Z" fill="#E7001C"/>
<path opacity="0.5" d="M44.0716 56.9931C41.682 61.4953 34.2593 63.3423 21.3993 65.1778C12.0487 66.5169 5.68792 69.6338 1.52055 72.6814C1.43974 72.3005 1.35895 71.908 1.27814 71.527C5.56095 68.5025 11.9448 65.4895 21.2492 64.162C33.4858 62.4188 40.9894 60.6064 43.1597 56.5083C44.568 53.8416 43.91 49.9975 41.0125 44.0639C40.3775 42.771 39.7542 41.5127 39.1539 40.289C33.6936 29.2991 29.2376 20.3295 30.7268 7.52724C31.0962 7.31945 31.4541 7.11166 31.835 6.91541C30.1034 19.7408 34.3862 28.3756 40.0774 39.8273C40.6892 41.0509 41.3126 42.3092 41.9475 43.6022C44.9951 49.8821 45.6532 54.0032 44.0716 56.9931Z" fill="#E7001C"/>
<path opacity="0.5" d="M16.8049 48.3231C15.4542 48.8426 13.9304 49.4313 12.3027 50.1124C6.1267 52.7329 2.32875 55.5612 0.193115 57.5583C0.204659 57.0734 0.2393 56.5886 0.273931 56.1037C2.57118 54.1182 6.26524 51.567 11.9102 49.1774C13.5495 48.4847 15.0848 47.896 16.447 47.3765C24.5278 44.2827 27.8755 43.0013 25.6129 30.2683C24.1122 21.8181 24.4355 15.342 25.0588 11.1746C25.4513 10.886 25.8438 10.609 26.2479 10.3319C25.5552 14.3492 25.0242 21.1255 26.6172 30.0952C29.0299 43.6478 24.9434 45.2178 16.8049 48.3231Z" fill="#E7001C"/>
<path opacity="0.5" d="M16.2509 32.6579C13.6766 36.6291 8.40095 38.0259 4.07196 38.4761C4.21049 38.1067 4.36057 37.7373 4.51064 37.3679C8.51639 36.883 13.1571 35.5439 15.3966 32.0923C17.2783 29.1948 17.209 25.1774 15.1773 20.1212C15.4313 19.8326 15.6736 19.5555 15.9392 19.2785C18.2826 24.8889 18.3865 29.3795 16.2509 32.6579Z" fill="#E7001C"/>
<path opacity="0.5" d="M119.026 47.2033C109.884 45.3794 106.04 39.5035 102.299 33.8007C101.503 32.5771 100.672 31.3188 99.8173 30.1413C99.1708 29.2524 98.559 28.352 97.9818 27.4862C93.699 21.1601 89.6471 15.1803 69.0757 11.9018C59.171 10.3203 52.2908 7.14571 48.6429 2.44731C48.285 1.98555 47.9849 1.53536 47.7194 1.09669C48.0772 1.01588 48.4351 0.946614 48.793 0.87735C49.0008 1.21213 49.2432 1.54691 49.5087 1.89323C51.9214 4.95238 57.3009 8.99275 69.2373 10.8975C90.2474 14.2453 94.4147 20.3982 98.8245 26.9205C99.4017 27.7748 100.002 28.6637 100.648 29.541C101.526 30.7416 102.357 32.0115 103.165 33.2467C106.709 38.6608 110.357 44.2249 118.796 46.0951C118.865 46.4529 118.957 46.8224 119.026 47.2033Z" fill="#E7001C"/>
<path opacity="0.5" d="M114.755 34.4818C108.418 32.7502 104.966 28.352 101.341 23.7344C97.2547 18.5396 92.6371 12.6522 82.9863 9.48915C72.7122 6.11831 67.7598 2.63203 65.3702 0C65.9013 0.0461759 66.4438 0.0923687 66.9749 0.161632C69.4799 2.52815 74.2476 5.55266 83.298 8.51946C93.2374 11.7749 97.9704 17.8008 102.138 23.1111C105.613 27.5324 108.706 31.4689 114.155 33.2467C114.363 33.6507 114.559 34.0662 114.755 34.4818Z" fill="#E7001C"/>
<path opacity="0.5" d="M99.0208 44.7675C97.0699 34.9898 83.5288 20.9177 71.1768 15.7921C64.8391 13.1716 59.4366 13.1601 55.5462 15.746C53.1566 17.339 54.8767 22.2568 57.4971 29.6911C58.6862 33.0619 60.0253 36.8714 61.145 40.9003C62.0339 44.0979 62.5996 47.6535 63.1537 51.0821C64.7699 61.1253 66.2937 70.6145 75.2403 71.665C75.7828 71.7342 76.3369 71.7573 76.891 71.7573C82.2474 71.7573 88.1926 68.8482 92.764 63.8843C97.9472 58.2624 100.291 51.1167 99.0208 44.7675ZM92.0021 63.1917C87.1652 68.4327 80.7929 71.284 75.3557 70.6491C67.171 69.6909 65.7049 60.5712 64.158 50.9205C63.6039 47.4573 63.0267 43.8786 62.1263 40.6232C60.995 36.5597 59.6443 32.7272 58.4553 29.3448C56.262 23.1226 54.3687 17.7546 56.1003 16.6002C60.6371 13.5757 66.5823 15.0071 70.7727 16.7387C82.6515 21.6565 96.1464 35.6478 98.005 44.9638C99.2171 50.9897 96.966 57.8122 92.0021 63.1917Z" fill="#E7001C"/>
<path opacity="0.5" d="M88.5392 34.863C82.4555 27.7173 72.9894 20.7909 65.0472 20.7909C64.6662 20.7909 64.3084 20.8025 63.939 20.8371C63.2001 20.8948 62.646 21.2642 62.3343 21.8761C60.4642 25.5471 67.7485 37.7259 67.8177 37.8414C69.6532 40.9005 69.9995 45.2411 70.3228 49.4431C70.8076 55.6768 71.2694 61.5642 76.7412 62.0606C77.2953 62.1068 77.8494 62.1414 78.392 62.1414C86.3112 62.1414 93.2029 56.9582 95.1192 49.3046C95.9158 46.1069 93.3992 40.5658 88.5392 34.863ZM94.1264 49.0506C92.1986 56.7273 84.9259 61.772 76.822 61.0332C72.2044 60.6176 71.8004 55.3998 71.3271 49.3623C70.9923 45.0448 70.646 40.5773 68.672 37.3104C65.7283 32.4273 62.0919 24.5543 63.2232 22.3378C63.3849 22.0377 63.6273 21.876 64.0082 21.853C71.8119 21.195 81.5551 28.2368 87.7542 35.5211C92.3371 40.9005 94.8422 46.2108 94.1264 49.0506Z" fill="#E7001C"/>
<path opacity="0.5" d="M86.2998 46.5103C85.8034 41.2231 79.916 33.431 75.2984 33.431C74.8597 33.431 74.6057 33.6503 74.4672 33.835C73.9131 34.5738 74.3287 36.0399 75.1714 38.7758C75.7255 40.5651 76.3489 42.5968 76.4874 44.2361C76.5451 44.8941 76.5451 45.5521 76.5567 46.187C76.5798 48.011 76.6144 49.731 77.815 50.7122C78.4499 51.2317 79.3503 51.4857 80.5624 51.4857C81.3243 51.4857 82.2132 51.3818 83.2291 51.1971C85.4571 50.7469 86.5422 49.0961 86.2998 46.5103ZM83.0559 50.1697C80.7356 50.6084 79.2349 50.5276 78.473 49.9042C77.6418 49.2231 77.6187 47.8032 77.5956 46.1524C77.5841 45.5059 77.5726 44.8364 77.5148 44.1438C77.3763 42.3891 76.7298 40.2996 76.1526 38.4526C75.714 37.0211 75.0444 34.8739 75.2753 34.4468H75.2868C79.3041 34.4468 84.8337 41.9157 85.2724 46.6026C85.4686 48.6459 84.7183 49.8465 83.0559 50.1697Z" fill="#E7001C"/>
</g>
</g>
<defs>
<filter id="filter0_d" x="-20" y="-10" width="160" height="160" filterUnits="userSpaceOnUse" color-interpolation-filters="sRGB">
<feFlood flood-opacity="0" result="BackgroundImageFix"/>
<feColorMatrix in="SourceAlpha" type="matrix" values="0 0 0 0 0 0 0 0 0 0 0 0 0 0 0 0 0 0 127 0"/>
<feOffset dy="10"/>
<feGaussianBlur stdDeviation="10"/>
<feColorMatrix type="matrix" values="0 0 0 0 0.545098 0 0 0 0 0.870588 0 0 0 0 0.141176 0 0 0 0.3 0"/>
<feBlend mode="normal" in2="BackgroundImageFix" result="effect1_dropShadow"/>
<feBlend mode="normal" in="SourceGraphic" in2="effect1_dropShadow" result="shape"/>
</filter>
<linearGradient id="paint0_linear" x1="125" y1="120" x2="37.5" y2="-47.5" gradientUnits="userSpaceOnUse">
<stop stop-color="#ACF51B"/>
<stop offset="1" stop-color="#70CA2B"/>
</linearGradient>
<linearGradient id="paint1_linear" x1="-12" y1="0" x2="-12" y2="120" gradientUnits="userSpaceOnUse">
<stop stop-color="#FFF500"/>
<stop offset="1" stop-color="#FF30B5"/>
</linearGradient>
<clipPath id="clip0">
<rect width="120" height="120" rx="60" fill="white"/>
</clipPath>
</defs>
</svg>
