<svg viewBox="0 0 110 110" fill="none" xmlns="http://www.w3.org/2000/svg">
<g clip-path="url(#clip0)">
<g filter="url(#filter0_d)">
<ellipse cx="55" cy="55" rx="55" ry="55" transform="rotate(-180 55 55)" fill="url(#paint0_linear)"/>
</g>
<path fill-rule="evenodd" clip-rule="evenodd" d="M110 110H-1V0H110V110Z" fill="url(#paint1_linear)"/>
<path d="M32.3401 59.128C32.5321 59.416 32.6281 59.688 32.6281 59.944C32.6281 60.2853 32.4841 60.5733 32.1961 60.808C31.9188 61.032 31.5935 61.144 31.2201 61.144C30.9641 61.144 30.7241 61.0853 30.5001 60.968C30.2761 60.8507 30.0841 60.6747 29.9241 60.44L27.8441 57.4C27.6948 57.1867 27.5348 57.032 27.3641 56.936C27.2041 56.8293 27.0121 56.776 26.7881 56.776H25.7481V59.64C25.7481 60.088 25.6201 60.4453 25.3641 60.712C25.1081 60.968 24.7561 61.096 24.3081 61.096C23.8601 61.096 23.5028 60.968 23.2361 60.712C22.9801 60.4453 22.8521 60.088 22.8521 59.64V51.08C22.8521 50.6427 22.9695 50.3067 23.2041 50.072C23.4388 49.8373 23.7748 49.72 24.2121 49.72H28.2281C29.5935 49.72 30.6175 50.0187 31.3001 50.616C31.9935 51.2027 32.3401 52.056 32.3401 53.176C32.3401 54.0293 32.1055 54.7547 31.6361 55.352C31.1668 55.9387 30.5055 56.3333 29.6521 56.536C30.0041 56.5893 30.3081 56.7067 30.5641 56.888C30.8308 57.0693 31.0921 57.3413 31.3481 57.704L32.3401 59.128ZM27.7641 54.568C28.4148 54.568 28.8788 54.4667 29.1561 54.264C29.4441 54.0613 29.5881 53.7307 29.5881 53.272C29.5881 52.8027 29.4441 52.4667 29.1561 52.264C28.8788 52.0507 28.4148 51.944 27.7641 51.944H25.7161V54.568H27.7641ZM40.3726 58.472C40.618 58.472 40.8153 58.568 40.9646 58.76C41.1246 58.952 41.2046 59.2027 41.2046 59.512C41.2046 59.9387 40.9966 60.264 40.5806 60.488C40.218 60.6693 39.786 60.824 39.2846 60.952C38.794 61.0693 38.3406 61.128 37.9246 61.128C37.05 61.128 36.2873 60.9627 35.6366 60.632C34.986 60.3013 34.4846 59.8267 34.1326 59.208C33.7806 58.5893 33.6046 57.864 33.6046 57.032C33.6046 56.2427 33.77 55.5387 34.1006 54.92C34.442 54.2907 34.9113 53.8053 35.5086 53.464C36.1166 53.112 36.7993 52.936 37.5566 52.936C38.2926 52.936 38.938 53.096 39.4926 53.416C40.0473 53.736 40.474 54.1893 40.7726 54.776C41.082 55.3627 41.2366 56.0507 41.2366 56.84C41.2366 57.0853 41.178 57.2773 41.0606 57.416C40.954 57.544 40.794 57.608 40.5806 57.608H36.3566C36.4313 58.12 36.5966 58.488 36.8526 58.712C37.1086 58.936 37.4873 59.048 37.9886 59.048C38.2553 59.048 38.5006 59.0213 38.7246 58.968C38.9486 58.904 39.1993 58.8187 39.4766 58.712C39.6366 58.648 39.7913 58.5947 39.9406 58.552C40.1006 58.4987 40.2446 58.472 40.3726 58.472ZM37.6366 54.856C37.2633 54.856 36.9646 54.9787 36.7406 55.224C36.5166 55.4587 36.3833 55.8053 36.3406 56.264H38.8526C38.7886 55.3253 38.3833 54.856 37.6366 54.856ZM45.6391 61.128C44.9245 61.128 44.3218 61.0747 43.8311 60.968C43.3405 60.8613 42.9085 60.6907 42.5351 60.456C42.3858 60.3813 42.2685 60.2533 42.1831 60.072C42.0978 59.8907 42.0551 59.688 42.0551 59.464C42.0551 59.176 42.1298 58.9413 42.2791 58.76C42.4391 58.568 42.6365 58.472 42.8711 58.472C43.0311 58.472 43.1805 58.4933 43.3191 58.536C43.4578 58.568 43.6285 58.6267 43.8311 58.712C44.1725 58.8293 44.4711 58.92 44.7271 58.984C44.9938 59.048 45.3298 59.08 45.7351 59.08C46.0231 59.08 46.2471 59.0427 46.4071 58.968C46.5778 58.8827 46.6631 58.7653 46.6631 58.616C46.6631 58.4987 46.6205 58.408 46.5351 58.344C46.4605 58.28 46.3111 58.2213 46.0871 58.168C45.8631 58.104 45.4845 58.0187 44.9511 57.912C44.0018 57.7307 43.3138 57.4587 42.8871 57.096C42.4711 56.7227 42.2631 56.2 42.2631 55.528C42.2631 55.0373 42.4125 54.5947 42.7111 54.2C43.0205 53.8053 43.4418 53.496 43.9751 53.272C44.5085 53.048 45.1058 52.936 45.7671 52.936C46.2471 52.936 46.7111 52.9947 47.1591 53.112C47.6178 53.2293 48.0231 53.3947 48.3751 53.608C48.7058 53.8 48.8711 54.1093 48.8711 54.536C48.8711 54.8347 48.7911 55.0853 48.6311 55.288C48.4711 55.4907 48.2738 55.592 48.0391 55.592C47.7618 55.592 47.4311 55.5013 47.0471 55.32C46.7911 55.2027 46.5618 55.1173 46.3591 55.064C46.1671 55 45.9378 54.968 45.6711 54.968C45.4045 54.968 45.1965 55.0107 45.0471 55.096C44.8978 55.1707 44.8231 55.2827 44.8231 55.432C44.8231 55.6027 44.9245 55.736 45.1271 55.832C45.3405 55.928 45.7565 56.0347 46.3751 56.152C47.4098 56.3333 48.1405 56.6107 48.5671 56.984C48.9938 57.3467 49.2071 57.8747 49.2071 58.568C49.2071 59.3467 48.8818 59.9707 48.2311 60.44C47.5911 60.8987 46.7271 61.128 45.6391 61.128ZM56.7789 58.472C57.0242 58.472 57.2215 58.568 57.3709 58.76C57.5309 58.952 57.6109 59.2027 57.6109 59.512C57.6109 59.9387 57.4029 60.264 56.9869 60.488C56.6242 60.6693 56.1922 60.824 55.6909 60.952C55.2002 61.0693 54.7469 61.128 54.3309 61.128C53.4562 61.128 52.6935 60.9627 52.0429 60.632C51.3922 60.3013 50.8909 59.8267 50.5389 59.208C50.1869 58.5893 50.0109 57.864 50.0109 57.032C50.0109 56.2427 50.1762 55.5387 50.5069 54.92C50.8482 54.2907 51.3175 53.8053 51.9149 53.464C52.5229 53.112 53.2055 52.936 53.9629 52.936C54.6989 52.936 55.3442 53.096 55.8989 53.416C56.4535 53.736 56.8802 54.1893 57.1789 54.776C57.4882 55.3627 57.6429 56.0507 57.6429 56.84C57.6429 57.0853 57.5842 57.2773 57.4669 57.416C57.3602 57.544 57.2002 57.608 56.9869 57.608H52.7629C52.8375 58.12 53.0029 58.488 53.2589 58.712C53.5149 58.936 53.8935 59.048 54.3949 59.048C54.6615 59.048 54.9069 59.0213 55.1309 58.968C55.3549 58.904 55.6055 58.8187 55.8829 58.712C56.0429 58.648 56.1975 58.5947 56.3469 58.552C56.5069 58.4987 56.6509 58.472 56.7789 58.472ZM54.0429 54.856C53.6695 54.856 53.3709 54.9787 53.1469 55.224C52.9229 55.4587 52.7895 55.8053 52.7469 56.264H55.2589C55.1949 55.3253 54.7895 54.856 54.0429 54.856ZM62.6054 52.936C63.8214 52.936 64.7174 53.2293 65.2934 53.816C65.88 54.392 66.1734 55.272 66.1734 56.456V59.8C66.1734 60.2053 66.0507 60.5253 65.8054 60.76C65.5707 60.984 65.24 61.096 64.8134 61.096C64.44 61.096 64.1307 60.9893 63.8854 60.776C63.6507 60.5627 63.5227 60.2747 63.5014 59.912C63.352 60.296 63.1014 60.5947 62.7494 60.808C62.3974 61.0213 61.976 61.128 61.4854 61.128C60.9414 61.128 60.4507 61.0213 60.0134 60.808C59.576 60.584 59.2294 60.28 58.9734 59.896C58.728 59.5013 58.6054 59.0587 58.6054 58.568C58.6054 58.0027 58.7494 57.5547 59.0374 57.224C59.336 56.8827 59.8054 56.6373 60.4454 56.488C61.0854 56.3387 61.9494 56.264 63.0374 56.264H63.4694V56.072C63.4694 55.6987 63.384 55.432 63.2134 55.272C63.0427 55.1013 62.7547 55.016 62.3494 55.016C61.912 55.016 61.272 55.1653 60.4294 55.464C60.184 55.5493 59.976 55.592 59.8054 55.592C59.5387 55.592 59.3254 55.496 59.1654 55.304C59.0054 55.112 58.9254 54.8613 58.9254 54.552C58.9254 54.3173 58.9734 54.1253 59.0694 53.976C59.1654 53.8267 59.32 53.6933 59.5334 53.576C59.9067 53.384 60.376 53.2293 60.9414 53.112C61.5067 52.9947 62.0614 52.936 62.6054 52.936ZM62.1574 59.224C62.5414 59.224 62.856 59.0907 63.1014 58.824C63.3467 58.5467 63.4694 58.1947 63.4694 57.768V57.576H63.2134C62.5307 57.576 62.0454 57.64 61.7574 57.768C61.4694 57.8853 61.3254 58.088 61.3254 58.376C61.3254 58.6213 61.4 58.824 61.5494 58.984C61.7094 59.144 61.912 59.224 62.1574 59.224ZM72.7615 52.968C73.1242 52.936 73.4122 53.0213 73.6255 53.224C73.8388 53.416 73.9455 53.704 73.9455 54.088C73.9455 54.5147 73.8442 54.824 73.6415 55.016C73.4495 55.208 73.0975 55.3307 72.5855 55.384L72.1055 55.432C71.5722 55.496 71.1882 55.6667 70.9535 55.944C70.7295 56.2107 70.6175 56.5787 70.6175 57.048V59.784C70.6175 60.2213 70.4788 60.552 70.2015 60.776C69.9348 60.9893 69.5988 61.096 69.1935 61.096C68.7882 61.096 68.4468 60.9893 68.1695 60.776C67.9028 60.552 67.7695 60.2213 67.7695 59.784V54.248C67.7695 53.8427 67.9028 53.528 68.1695 53.304C68.4468 53.08 68.7775 52.968 69.1615 52.968C69.5562 52.968 69.8708 53.0747 70.1055 53.288C70.3508 53.5013 70.4735 53.8 70.4735 54.184V54.488C70.6442 54.0187 70.9215 53.656 71.3055 53.4C71.7002 53.144 72.1108 53.0053 72.5375 52.984L72.7615 52.968ZM78.1084 61.128C76.8284 61.128 75.815 60.7653 75.0684 60.04C74.3217 59.3147 73.9484 58.328 73.9484 57.08C73.9484 56.2587 74.1297 55.5333 74.4924 54.904C74.855 54.2747 75.3617 53.7893 76.0124 53.448C76.6737 53.1067 77.4257 52.936 78.2684 52.936C78.7164 52.936 79.1644 52.9947 79.6124 53.112C80.0604 53.2293 80.455 53.3947 80.7964 53.608C81.127 53.8107 81.2924 54.12 81.2924 54.536C81.2924 54.8667 81.2124 55.1387 81.0524 55.352C80.903 55.5547 80.7057 55.656 80.4604 55.656C80.3004 55.656 80.1457 55.6347 79.9964 55.592C79.847 55.5387 79.6817 55.464 79.5004 55.368C79.287 55.272 79.1057 55.2027 78.9564 55.16C78.807 55.1067 78.6417 55.08 78.4604 55.08C77.4044 55.08 76.8764 55.7253 76.8764 57.016C76.8764 57.656 77.0097 58.1467 77.2764 58.488C77.5537 58.8187 77.9484 58.984 78.4604 58.984C78.6417 58.984 78.807 58.9627 78.9564 58.92C79.1164 58.8667 79.2924 58.792 79.4844 58.696C79.6977 58.6 79.8684 58.5307 79.9964 58.488C80.135 58.4347 80.2844 58.408 80.4444 58.408C80.6897 58.408 80.887 58.5147 81.0364 58.728C81.1964 58.9307 81.2764 59.1973 81.2764 59.528C81.2764 59.7307 81.2337 59.9173 81.1484 60.088C81.063 60.248 80.9457 60.3707 80.7964 60.456C80.0604 60.904 79.1644 61.128 78.1084 61.128ZM87.6764 52.936C88.5937 52.936 89.2764 53.2187 89.7244 53.784C90.1724 54.3387 90.3964 55.1867 90.3964 56.328V59.784C90.3964 60.1893 90.2684 60.5093 90.0124 60.744C89.7564 60.9787 89.4097 61.096 88.9724 61.096C88.535 61.096 88.1884 60.9787 87.9324 60.744C87.6764 60.5093 87.5484 60.1893 87.5484 59.784V56.264C87.5484 55.496 87.2177 55.112 86.5564 55.112C86.1297 55.112 85.7884 55.2507 85.5324 55.528C85.287 55.7947 85.1644 56.1573 85.1644 56.616V59.784C85.1644 60.1893 85.0364 60.5093 84.7804 60.744C84.5244 60.9787 84.1777 61.096 83.7404 61.096C83.303 61.096 82.9564 60.9787 82.7004 60.744C82.4444 60.5093 82.3164 60.1893 82.3164 59.784V50.92C82.3164 50.5467 82.4497 50.2427 82.7164 50.008C82.983 49.7627 83.335 49.64 83.7724 49.64C84.1884 49.64 84.5244 49.752 84.7804 49.976C85.0364 50.2 85.1644 50.4987 85.1644 50.872V54.072C85.4524 53.6987 85.8097 53.416 86.2364 53.224C86.663 53.032 87.143 52.936 87.6764 52.936Z" fill="white"/>
<path d="M141 0H0V223H141V0Z" fill="url(#paint2_linear)"/>
<g style="mix-blend-mode:soft-light">
<path d="M5.77474 79.5344C5.40027 78.7855 5.03787 78.0124 4.69963 77.2392C2.1991 71.5979 0.628715 65.4733 0.1576 59.0347C0.1576 58.9985 0.157588 58.9743 0.145508 58.938C1.25686 58.7931 2.77893 59.3005 3.89028 62.4292C5.32779 66.5001 12.02 76.4178 5.77474 79.5344Z" fill="#FFB403"/>
<path d="M27.7497 43.6203L27.7376 43.6324C26.2155 45.9276 21.4681 43.8257 15.9476 40.2137C11.4418 37.2662 8.22854 34.3308 8.01111 32.096C7.96279 31.5886 8.07152 31.1054 8.34936 30.6706C9.87143 28.3512 15.9114 28.1942 21.444 31.8182C26.9766 35.4421 29.2717 41.3009 27.7497 43.6203Z" fill="#FFB403"/>
<path d="M93.6072 77.8671C89.1497 81.5878 83.8103 82.5421 81.6964 79.9932C81.5876 79.8603 81.491 79.7275 81.4065 79.5825C79.7878 76.937 81.7205 72.1896 85.9485 68.6743C90.249 65.0865 95.3588 64.0718 97.6177 66.2824C97.7023 66.367 97.7868 66.4516 97.8593 66.5361C99.9733 69.085 98.0767 74.1586 93.6072 77.8671Z" fill="#FFB403"/>
<path d="M43.4512 97.1349C42.7989 97.7631 41.5064 98.1134 39.4769 98.0168C32.0357 97.6906 23.9543 88.6306 26.2132 85.7193C26.2495 85.671 26.2857 85.6348 26.3219 85.5985C28.6654 82.953 34.5363 87.7125 37.5321 89.2829C42.4728 91.868 45.1787 95.4799 43.4512 97.1349Z" fill="#FFB403"/>
<path d="M72.6364 90.4549C72.6485 92.1703 70.3171 93.9823 66.6448 94.1393C59.9284 94.4292 56.0991 93.1366 55.1931 90.7448C55.0964 90.4911 55.036 90.2254 54.9998 89.9355C54.6736 87.0242 60.8223 87.5195 64.0597 87.3503C70.1359 87.0242 72.6244 88.6912 72.6364 90.4549Z" fill="#FFB403"/>
<path d="M92.9913 51.8589C92.2544 52.9582 90.829 53.7071 88.9808 53.7071C83.1583 53.7071 75.3909 49.5033 76.3694 45.6135C76.4781 45.1666 76.6472 44.78 76.8405 44.4659C78.3384 42.0499 82.1194 43.2217 85.7555 43.9948C93.0276 45.5411 94.5858 49.5033 92.9913 51.8589Z" fill="#FFB403"/>
<path d="M74.086 23.2902C74.0135 23.121 73.9773 22.9278 73.9531 22.7224C73.8081 21.0674 75.439 18.6515 78.616 17.7817C80.6816 17.2139 83.4721 17.2864 85.1995 18.3494C85.9605 18.8206 86.5041 19.4729 86.7095 20.3668C87.1927 22.5895 75.1128 25.8632 74.086 23.2902Z" fill="#FFB403"/>
<path d="M40.8909 18.1442C40.4802 18.3858 39.997 18.3133 39.4776 17.7938C35.914 14.2303 35.5999 8.4077 37.5327 7.4413C38.2937 7.05474 38.9581 6.93394 39.5259 6.99434C43.3915 7.42922 42.9686 16.8879 40.8909 18.1442Z" fill="#FFB403"/>
<path d="M101.906 38.499C101.653 38.6198 101.351 38.644 101.024 38.5594C99.6715 38.2091 97.9079 36.1313 97.3764 33.0026C97.0744 31.1664 97.9924 29.4028 99.1883 28.8471C100.517 28.2189 102.196 29.0887 102.873 33.0026C103.271 35.2253 103.211 37.8467 101.906 38.499Z" fill="#FFB403"/>
<path d="M95.3712 92.3514C91.2036 96.8573 86.2871 100.662 80.827 103.562C80.2109 103.26 79.6552 102.813 79.4378 102.172C79.2445 101.605 79.3291 100.88 79.921 99.9618C82.1799 96.3982 84.4509 90.9018 89.6211 90.5757C91.1311 90.479 92.327 90.6602 93.2813 90.9985C94.1994 91.3367 94.8759 91.8199 95.3712 92.3514Z" fill="#FFB403"/>
<path d="M69.5199 108.055C64.8933 109.324 60.0251 109.988 54.9998 109.988C52.6926 109.988 50.4216 109.843 48.1989 109.565C48.1989 108.913 48.3197 108.212 48.7183 107.62C49.1049 107.053 49.7451 106.594 50.796 106.425C54.6737 105.772 56.6185 103.187 62.1149 103.513C64.9658 103.682 66.9589 105.072 68.2032 106.364C68.8193 107.016 69.242 107.62 69.5199 108.055Z" fill="#FFB403"/>
<path d="M62.4896 7.83986C62.2117 9.21698 59.8803 9.71226 58.7569 9.19282C58.5153 9.0841 58.3341 8.92706 58.2375 8.73378C57.5852 7.44122 61.8493 5.02522 62.4412 7.11506C62.5137 7.38082 62.5258 7.62242 62.4896 7.83986Z" fill="#FFB403"/>
<path d="M45.6251 80.548C44.1755 79.8232 43.0399 79.2554 43.3661 82.1667C43.6923 85.078 45.9512 85.7303 47.8961 85.7303C49.8289 85.7303 46.9176 81.2003 45.6251 80.548Z" fill="#FFBC1D"/>
<path d="M18.7722 78.6158C17.4796 78.2897 17.4797 80.5607 16.5133 82.8196C15.5469 85.0786 16.8394 86.6973 18.7722 86.6973C20.7171 86.6973 21.3573 79.256 18.7722 78.6158Z" fill="#FFBC1D"/>
<path d="M12.949 49.4909C11.7047 48.9232 10.3639 48.1984 10.0377 49.4909C9.71155 50.7835 12.6228 54.3471 14.2415 54.3471C15.8602 54.3471 16.5005 51.1096 12.949 49.4909Z" fill="#FFBC1D"/>
<path d="M109.999 54.9993C109.999 58.2126 109.722 61.3655 109.19 64.4217C108.719 64.2405 108.236 63.9144 107.728 63.407C104.491 60.1696 106.943 55.5792 107.728 54.0209C108.598 52.2813 109.468 52.4384 109.951 52.7404C109.987 53.4893 109.999 54.2383 109.999 54.9993Z" fill="#FFBC1D"/>
<path d="M7.12687 43.9946C6.25712 44.4295 6.16049 46.2536 8.41943 45.9395C10.6784 45.6134 9.05965 43.0282 7.12687 43.9946Z" fill="#FFBC1D"/>
<path d="M53.0666 21.3563C52.1002 21.6825 50.8077 22.6489 53.0666 22.9751C55.3256 23.2891 54.033 21.0302 53.0666 21.3563Z" fill="#FFBC1D"/>
<path d="M58.5627 21.3573C57.3789 20.6687 57.2702 23.9424 58.2366 25.2349C59.203 26.5275 62.4404 23.6162 58.5627 21.3573Z" fill="#FFBC1D"/>
<path d="M68.9156 98.0284C68.2149 98.1854 67.9492 99.3209 69.8819 99.9732C71.8268 100.613 71.8268 97.376 68.9156 98.0284Z" fill="#FFBC1D"/>
<path d="M40.7684 103.525C39.8027 103.851 38.8249 104.491 40.7684 105.144C42.7118 105.784 41.734 103.199 40.7684 103.525Z" fill="#FFBC1D"/>
<path d="M95.4428 47.5579C94.6335 48.1861 96.0951 51.7617 97.3877 51.4356C98.6802 51.1094 98.3541 45.2869 95.4428 47.5579Z" fill="#FFBC1D"/>
<path d="M8.01111 32.096C7.96279 31.5886 8.07152 31.1054 8.34936 30.6706C9.87143 28.3512 15.9114 28.1942 21.444 31.8182C26.9766 35.4421 29.2717 41.3009 27.7497 43.6203L27.7376 43.6324C27.8221 42.219 27.2302 40.2379 25.1646 37.4716C19.7769 30.284 9.95597 27.8076 8.01111 32.096Z" fill="#FFA51D"/>
<path d="M92.9909 51.8589C93.7278 47.5947 86.8906 46.2175 83.4719 44.9733C80.0896 43.7411 77.7702 44.176 76.828 44.4659C78.3259 42.0499 82.1069 43.2217 85.743 43.9948C93.0271 45.5411 94.5855 49.5033 92.9909 51.8589Z" fill="#FFA51D"/>
<path d="M74.0866 23.2898C74.0142 23.1207 73.9779 22.9274 73.9537 22.722C75.9952 24.075 81.2258 22.9757 84.1129 21.6711C86.1786 20.7288 85.8403 19.3517 85.2001 18.3611C85.9611 18.8323 86.5047 19.4846 86.7101 20.3785C87.1933 22.5891 75.1134 25.8628 74.0866 23.2898Z" fill="#FFA51D"/>
<path d="M40.8909 18.1442C40.4802 18.3858 39.997 18.3133 39.4776 17.7938C35.914 14.2303 35.5999 8.4077 37.5327 7.4413C38.2937 7.05474 38.9581 6.93394 39.5259 6.99434C38.7407 7.1393 37.5327 7.82786 37.5327 10.6787C37.5327 13.9645 39.1152 16.6583 40.8909 18.1442Z" fill="#FFA51D"/>
<path d="M62.4896 7.83986C62.3809 7.28418 61.946 6.75266 60.5085 7.11506C59.3367 7.40498 58.8898 8.2989 58.7569 9.19282C58.5153 9.0841 58.3341 8.92706 58.2375 8.73378C57.5852 7.44122 61.8493 5.02522 62.4412 7.11506C62.5137 7.38082 62.5258 7.62242 62.4896 7.83986Z" fill="#FFA51D"/>
<path d="M43.4518 97.1349C43.174 95.3954 41.5794 93.7042 38.8252 92.1942C35.2616 90.2493 32.6765 88.3165 30.4176 86.6978C29.2338 85.8522 27.603 85.6227 26.3225 85.5985C28.666 82.953 34.5368 87.7125 37.5326 89.2829C42.4733 91.868 45.1792 95.48 43.4518 97.1349Z" fill="#FFA51D"/>
<path d="M72.6364 90.4551C72.117 89.1625 70.5466 88.631 67.9374 88.631H58.8775C55.4105 88.631 55.1931 90.6363 55.1931 90.7329C55.0964 90.4792 55.036 90.2135 54.9998 89.9236C54.6736 87.0123 60.8223 87.5076 64.0597 87.3385C70.1359 87.0244 72.6244 88.6914 72.6364 90.4551Z" fill="#FFA51D"/>
<path d="M68.2032 106.376C68.8193 107.004 69.242 107.62 69.5199 108.055C64.8933 109.323 60.0251 109.988 54.9998 109.988C52.6926 109.988 50.4216 109.843 48.1989 109.565C48.1989 108.912 48.3197 108.212 48.7183 107.62C59.4694 110.157 65.6664 107.801 68.2032 106.376Z" fill="#FFA51D"/>
<path d="M95.3711 92.3514C91.2036 96.8573 86.287 100.662 80.8269 103.562C80.2109 103.26 79.6552 102.813 79.4377 102.172C88.4614 98.7901 92.3632 92.6655 93.2813 91.0106C94.1994 91.3367 94.8759 91.8199 95.3711 92.3514Z" fill="#FFA51D"/>
<path d="M97.6177 66.2831C96.8929 66.0295 91.7348 64.592 85.731 71.4896C82.699 74.9807 81.6481 77.6867 81.4065 79.5832C79.7878 76.9377 81.7205 72.1903 85.9485 68.675C90.249 65.0993 95.3588 64.0725 97.6177 66.2831Z" fill="#FFA51D"/>
<path d="M101.024 38.5471C99.6715 38.1968 97.9079 36.119 97.3764 32.9903C97.0744 31.1541 97.9924 29.3905 99.1883 28.8348C98.6689 29.5233 98.1857 30.5743 98.3427 32.0239C98.6206 34.3674 99.5024 36.7109 101.024 38.5471Z" fill="#FFA51D"/>
<path d="M5.77474 79.5344C5.40027 78.7855 5.03787 78.0124 4.69963 77.2392C6.24586 75.838 7.76793 73.277 5.83515 69.2302C3.44333 64.217 2.28366 59.9045 0.1576 59.0347C0.1576 58.9985 0.157588 58.9743 0.145508 58.938C1.25686 58.7931 2.77893 59.3005 3.89028 62.4292C5.32779 66.5001 12.02 76.4178 5.77474 79.5344Z" fill="#FFA51D"/>
<path opacity="0.45" d="M88.2921 98.778C85.9486 100.566 83.448 102.173 80.8267 103.574C77.2752 105.47 73.4942 106.98 69.532 108.068C64.9054 109.336 60.0372 110 55.012 110C52.7047 110 50.4337 109.855 48.211 109.578C29.5838 107.282 13.8316 95.6614 5.78639 79.5346C2.64562 73.253 0.676614 66.2949 0.157178 58.9382C0.0605391 57.6336 0.012207 56.3169 0.012207 55.0002C0.012207 46.7012 1.84836 38.8371 5.13409 31.7824C8.0695 25.4767 12.1767 19.8232 17.1536 15.1C1.81211 88.2684 58.2373 98.4035 88.2921 98.778Z" fill="url(#paint3_linear)"/>
<path d="M110 55C110 58.2133 109.722 61.3661 109.19 64.4224C108.9 66.0653 108.55 67.684 108.127 69.2785C106.219 25.0416 76.2604 -0.108902 33.0265 4.56605C39.755 1.63062 47.1962 -0.000183105 54.9998 -0.000183105C78.7126 -0.000183105 98.9223 15.0032 106.641 36.0465C108.562 41.2892 109.71 46.8943 109.951 52.7531C109.988 53.49 110 54.239 110 55Z" fill="url(#paint4_linear)"/>
</g>
</g>
<defs>
<filter id="filter0_d" x="-20" y="-10" width="150" height="150" filterUnits="userSpaceOnUse" color-interpolation-filters="sRGB">
<feFlood flood-opacity="0" result="BackgroundImageFix"/>
<feColorMatrix in="SourceAlpha" type="matrix" values="0 0 0 0 0 0 0 0 0 0 0 0 0 0 0 0 0 0 127 0"/>
<feOffset dy="10"/>
<feGaussianBlur stdDeviation="10"/>
<feColorMatrix type="matrix" values="0 0 0 0 0.277333 0 0 0 0 0 0 0 0 0 0.866667 0 0 0 0.3 0"/>
<feBlend mode="normal" in2="BackgroundImageFix" result="effect1_dropShadow"/>
<feBlend mode="normal" in="SourceGraphic" in2="effect1_dropShadow" result="shape"/>
</filter>
<linearGradient id="paint0_linear" x1="82.5" y1="128" x2="22" y2="-67" gradientUnits="userSpaceOnUse">
<stop stop-color="#8C6FFF"/>
<stop offset="1" stop-color="#6100DD"/>
</linearGradient>
<linearGradient id="paint1_linear" x1="-21.4509" y1="19.9893" x2="18.2506" y2="130.22" gradientUnits="userSpaceOnUse">
<stop stop-color="#21D4FD"/>
<stop offset="1" stop-color="#AC00FF"/>
</linearGradient>
<linearGradient id="paint2_linear" x1="70.4688" y1="0.0250175" x2="70.4688" y2="223.035" gradientUnits="userSpaceOnUse">
<stop stop-color="#FFEA2B"/>
<stop offset="0.413482" stop-color="#09D6C9"/>
<stop offset="1" stop-color="#00DDFF"/>
</linearGradient>
<linearGradient id="paint3_linear" x1="44.3763" y1="134.547" x2="43.8398" y2="-1.75354" gradientUnits="userSpaceOnUse">
<stop stop-color="#FF7A00"/>
<stop offset="1" stop-color="#CC622E" stop-opacity="0.2"/>
</linearGradient>
<linearGradient id="paint4_linear" x1="103.922" y1="-0.0244599" x2="70.4619" y2="37.0487" gradientUnits="userSpaceOnUse">
<stop stop-color="#FFB300"/>
<stop offset="1" stop-color="#FFF49A" stop-opacity="0.2"/>
</linearGradient>
<clipPath id="clip0">
<rect width="110" height="110" rx="55" fill="white"/>
</clipPath>
</defs>
</svg>
