<svg viewBox="0 0 110 110" fill="none" xmlns="http://www.w3.org/2000/svg">
<g clip-path="url(#clip0)">
<path d="M119.167 0H-0.916626V188.833H119.167V0Z" fill="url(#paint0_linear)"/>
<path d="M106.25 19.0465C101.671 33.4542 77.9785 35.3794 44.7545 27.1198C24.5339 22.0896 8.33257 27.244 -1 31.8272C5.13461 21.8039 13.7828 13.4822 24.086 7.71913C33.319 7.12295 40.7601 10.1411 46.3721 12.6625C58.8902 18.2889 77.0577 21.9032 78.6753 15.4695C80.6414 7.63219 73.4242 6.22868 57.6832 4.21657C51.0384 3.37198 48.1266 1.58345 46.9943 -0.180253C50.4785 -0.726751 54.0498 -1 57.6832 -1C76.647 -1 93.819 6.66339 106.25 19.0465Z" fill="url(#paint1_linear)"/>
<path d="M109.142 64.7122C109.627 67.983 109.803 71.2358 109.705 74.4343C105.49 73.9839 94.2325 78.5126 84.4242 84.6912C70.7476 93.3072 49.4678 97.0602 29.1076 95.6502C15.5417 95.2048 8.02452 105.532 8.9296 110.767C10.5844 117.648 34.1905 104.191 49.7675 98.8653C65.3346 93.5411 81.2854 98.0209 82.0584 102.492C82.8314 106.963 66.8412 104.137 41.4764 115.76C36.2296 118.161 30.7785 119.439 25.5798 119.707C14.2249 112.766 5.43418 101.783 1.48648 88.3565C8 76.2318 22.6966 74.2805 37.6795 76.6303C55.649 79.4396 66.9623 78.1444 86.5783 69.4875C98.3357 64.2935 105.39 64.0598 109.142 64.7122Z" fill="url(#paint2_linear)"/>
<path d="M9.50094 33.0781C5.30407 33.599 5.9251 37.285 8.19882 39.2382C10.4725 41.1814 20.549 40.5303 21.2001 38.2666C21.8511 35.9929 14.6994 32.4271 9.50094 33.0781Z" fill="#FB02B6"/>
<path d="M66.5043 10.323C62.9184 10.323 59.0321 9.03091 58.0505 11.6151C57.0688 14.1994 70.7211 17.1242 72.0233 15.5015C73.3254 13.8889 73.9765 10.323 66.5043 10.323Z" fill="#F603B9"/>
<path d="M111 56C103.925 55.5103 95.5219 53.6646 96.0212 50.8771C96.898 45.9426 105.362 43.0673 109.173 42C110.233 46.5202 110.854 51.191 111 56Z" fill="#B219E8"/>
<path d="M100.184 89.7769L100.595 88.6952C100.374 89.2861 100.234 89.6567 100.184 89.7769Z" fill="#B219E8"/>
</g>
<defs>
<linearGradient id="paint0_linear" x1="59.1315" y1="0.0195549" x2="59.1315" y2="188.862" gradientUnits="userSpaceOnUse">
<stop stop-color="#9124FF"/>
<stop offset="0.5155" stop-color="#FF00B3"/>
<stop offset="0.9948" stop-color="#FF002F"/>
</linearGradient>
<linearGradient id="paint1_linear" x1="52.625" y1="-1" x2="91.4026" y2="34.9026" gradientUnits="userSpaceOnUse">
<stop stop-color="#FD01B4"/>
<stop offset="1" stop-color="#E2005F" stop-opacity="0.24"/>
</linearGradient>
<linearGradient id="paint2_linear" x1="22" y1="92.1666" x2="105.417" y2="115.083" gradientUnits="userSpaceOnUse">
<stop stop-color="#B700F8"/>
<stop offset="1" stop-color="#B700F8" stop-opacity="0"/>
</linearGradient>
<clipPath id="clip0">
<rect width="110" height="110" rx="55" fill="white"/>
</clipPath>
</defs>
</svg>
