<svg viewBox="0 0 110 110" fill="none" xmlns="http://www.w3.org/2000/svg">
<g clip-path="url(#clip0)">
<g filter="url(#filter0_d)">
<ellipse cx="55" cy="55" rx="55" ry="55" transform="rotate(-180 55 55)" fill="url(#paint0_linear)"/>
</g>
<path fill-rule="evenodd" clip-rule="evenodd" d="M110 110H-1V0H110V110Z" fill="url(#paint1_linear)"/>
<g opacity="0.3">
<path d="M110.498 54.9999C110.498 58.2131 110.22 61.366 109.688 64.4222C109.398 66.065 109.048 67.6838 108.625 69.2783C106.282 78.0242 101.836 85.9003 95.8689 92.3509C93.7066 94.6945 91.3389 96.8447 88.79 98.7775C86.4465 100.565 83.946 102.172 81.3246 103.573C77.7731 105.47 73.9921 106.98 70.0299 108.067C65.4033 109.335 60.5351 110 55.5098 110C53.2026 110 50.9316 109.855 48.7088 109.577C30.0816 107.282 14.3294 95.6608 6.28415 79.5342C3.14337 73.2526 1.17436 66.2946 0.65492 58.9379C0.558281 57.6333 0.509949 56.3166 0.509949 54.9999C0.509949 46.701 2.3461 38.8369 5.63184 31.7823C8.56726 25.4765 12.6744 19.8231 17.6514 15.0999C22.2538 10.727 27.6173 7.13923 33.5244 4.56621C40.2529 1.63079 47.6941 0 55.4977 0C79.2106 0 99.4203 15.0033 107.139 36.0465C109.06 41.2892 110.208 46.8942 110.449 52.753C110.486 53.4899 110.498 54.2388 110.498 54.9999Z" fill="url(#paint2_radial)"/>
<path d="M6.27439 79.534C5.89991 78.785 5.53752 78.0119 5.19928 77.2388C2.69873 71.5975 1.12835 65.473 0.657233 59.0344C0.657233 58.9981 0.657222 58.974 0.645142 58.9377C1.75649 58.7928 3.27857 59.3001 4.38992 62.4288C5.82744 66.4998 12.5197 76.4174 6.27439 79.534Z" fill="#4700DD"/>
<path d="M49.4714 70.1842C49.3989 70.6312 49.2419 71.054 49.0124 71.4405C47.2608 74.5813 41.1604 76.1275 34.3594 74.9558C28.4403 73.929 23.717 71.1265 22.195 68.0823C21.748 67.1884 21.5789 66.2824 21.7359 65.3764C22.4245 61.4142 29.0805 60.4599 36.7392 61.8008C44.3979 63.1175 50.16 66.222 49.4714 70.1842Z" fill="#4700DD"/>
<path d="M33.1761 43.9953L33.164 44.0074C31.6419 46.3026 26.8945 44.2007 21.374 40.5888C16.8682 37.6413 13.6549 34.7058 13.4375 32.4711C13.3892 31.9637 13.4979 31.4805 13.7758 31.0456C15.2978 28.7263 21.3378 28.5693 26.8704 32.1932C32.403 35.8172 34.6982 41.676 33.1761 43.9953Z" fill="#4700DD"/>
<path d="M94.1073 77.8674C89.6498 81.588 84.3105 82.5423 82.1965 79.9934C82.0878 79.8606 81.9911 79.7277 81.9066 79.5827C80.2879 76.9372 82.2207 72.1898 86.4486 68.6746C90.7491 65.0868 95.8589 64.0721 98.1179 66.2827C98.2024 66.3673 98.2869 66.4519 98.3594 66.5364C100.473 69.0853 98.5769 74.1589 94.1073 77.8674Z" fill="#4700DD"/>
<path d="M61.9505 47.3659C57.4447 50.9295 52.8664 52.8985 50.2451 49.5886C49.9914 49.2745 49.786 48.9363 49.6048 48.5739C47.9378 45.2157 49.5807 40.3475 53.6637 37.1221C58.1695 33.5586 64.3182 31.8795 68.5099 37.1825C68.5341 37.2188 68.5703 37.255 68.5824 37.2913C71.0467 40.5649 66.4201 43.8386 61.9505 47.3659Z" fill="#4700DD"/>
<path d="M43.9513 97.1345C43.299 97.7627 42.0064 98.113 39.977 98.0163C32.5357 97.6902 24.4543 88.6303 26.7132 85.719C26.7495 85.6707 26.7857 85.6344 26.8219 85.5982C29.1654 82.9527 35.0363 87.7122 38.0321 89.2826C42.9728 91.8677 45.6787 95.4796 43.9513 97.1345Z" fill="#4700DD"/>
<path d="M73.137 90.4547C73.149 92.1701 70.8176 93.9821 67.1453 94.1391C60.4289 94.429 56.5995 93.1365 55.6936 90.7447C55.5969 90.491 55.5365 90.2252 55.5003 89.9353C55.1741 87.024 61.3228 87.5193 64.5602 87.3502C70.6364 87.024 73.1249 88.6911 73.137 90.4547Z" fill="#4700DD"/>
<path d="M93.4915 51.8588C92.7546 52.9581 91.3291 53.707 89.4809 53.707C83.6584 53.707 75.891 49.5032 76.8695 45.6135C76.9782 45.1665 77.1473 44.78 77.3406 44.4659C78.8385 42.0499 82.6195 43.2217 86.2556 43.9948C93.5277 45.541 95.086 49.5032 93.4915 51.8588Z" fill="#4700DD"/>
<path d="M74.5858 23.2899C74.5133 23.1208 74.477 22.9275 74.4529 22.7222C74.3079 21.0672 75.9387 18.6512 79.1157 17.7815C81.1814 17.2137 83.9718 17.2862 85.6993 18.3492C86.4603 18.8203 87.0039 19.4727 87.2093 20.3666C87.6925 22.5893 75.6126 25.8629 74.5858 23.2899Z" fill="#4700DD"/>
<path d="M41.3905 18.1441C40.9798 18.3857 40.4966 18.3132 39.9771 17.7938C36.4136 14.2302 36.0995 8.40769 38.0323 7.4413C38.7933 7.05474 39.4577 6.93395 40.0255 6.99435C43.891 7.42922 43.4682 16.8878 41.3905 18.1441Z" fill="#4700DD"/>
<path d="M102.406 38.499C102.153 38.6198 101.851 38.644 101.524 38.5594C100.171 38.2091 98.4077 36.1313 97.8762 33.0026C97.5742 31.1665 98.4923 29.4028 99.6882 28.8471C101.017 28.219 102.696 29.0887 103.373 33.0026C103.771 35.2253 103.711 37.8467 102.406 38.499Z" fill="#4700DD"/>
<path d="M95.8713 92.3509C91.7038 96.8567 86.7872 100.662 81.3271 103.561C80.711 103.259 80.1553 102.812 79.9379 102.172C79.7446 101.604 79.8292 100.879 80.4211 99.9612C82.68 96.3976 84.9511 90.9013 90.1213 90.5751C91.6313 90.4785 92.8272 90.6597 93.7815 90.9979C94.6996 91.3362 95.376 91.8194 95.8713 92.3509Z" fill="#4700DD"/>
<path d="M70.02 108.055C65.3934 109.323 60.5251 109.988 55.4999 109.988C53.1926 109.988 50.9216 109.843 48.6989 109.565C48.6989 108.912 48.8197 108.212 49.2184 107.62C49.6049 107.052 50.2452 106.593 51.2961 106.424C55.1738 105.772 57.1186 103.187 62.615 103.513C65.4658 103.682 67.459 105.071 68.7033 106.364C69.3194 107.016 69.7421 107.62 70.02 108.055Z" fill="#4700DD"/>
<path d="M62.9889 7.8398C62.7111 9.21692 60.3797 9.71219 59.2562 9.19275C59.0146 9.08403 58.8334 8.92699 58.7368 8.73372C58.0845 7.44116 62.3487 5.02518 62.9406 7.11501C63.0131 7.38077 63.0252 7.62237 62.9889 7.8398Z" fill="#4700DD"/>
<path d="M46.1263 80.549C44.6767 79.8242 43.5412 79.2564 43.8673 82.1677C44.1935 85.0789 46.4524 85.7312 48.3973 85.7312C50.3301 85.7312 47.4188 81.2013 46.1263 80.549Z" fill="#4700DD"/>
<path d="M19.2726 78.616C17.9801 78.2898 17.9801 80.5608 17.0137 82.8198C16.0473 85.0787 17.3398 86.6974 19.2726 86.6974C21.2175 86.6974 21.8577 79.2562 19.2726 78.616Z" fill="#4700DD"/>
<path d="M13.4495 49.4918C12.2052 48.924 10.8644 48.1992 10.5382 49.4918C10.212 50.7843 13.1233 54.3479 14.742 54.3479C16.3607 54.3479 17.001 51.1105 13.4495 49.4918Z" fill="#4700DD"/>
<path d="M110.5 55.0003C110.5 58.2135 110.222 61.3664 109.691 64.4226C109.219 64.2414 108.736 63.9153 108.229 63.4079C104.991 60.1705 107.444 55.5801 108.229 54.0218C109.099 52.2823 109.968 52.4393 110.452 52.7413C110.488 53.4903 110.5 54.2392 110.5 55.0003Z" fill="#4700DD"/>
<path d="M77.1833 58.5515C75.3109 58.3219 74.272 59.844 77.1833 61.1366C80.0945 62.4412 79.7684 58.8776 77.1833 58.5515Z" fill="#4700DD"/>
<path d="M7.62779 43.9951C6.75803 44.4299 6.6614 46.254 8.92035 45.9399C11.1793 45.6138 9.56058 43.0287 7.62779 43.9951Z" fill="#4700DD"/>
<path d="M53.5678 21.3576C52.6014 21.6837 51.3088 22.6501 53.5678 22.9763C55.8267 23.2903 54.5342 21.0314 53.5678 21.3576Z" fill="#4700DD"/>
<path d="M59.0633 21.3573C57.8795 20.6688 57.7708 23.9425 58.7372 25.235C59.7036 26.5276 62.941 23.6163 59.0633 21.3573Z" fill="#4700DD"/>
<path d="M69.4168 98.0286C68.7161 98.1856 68.4504 99.3211 70.3832 99.9734C72.328 100.614 72.328 97.3762 69.4168 98.0286Z" fill="#4700DD"/>
<path d="M41.27 103.525C40.3036 103.851 39.3251 104.491 41.27 105.143C43.2149 105.784 42.2364 103.198 41.27 103.525Z" fill="#4700DD"/>
<path d="M42.8886 55.966C41.2457 56.0506 44.8335 58.225 45.7999 58.5511C46.7663 58.8773 49.6775 55.6399 42.8886 55.966Z" fill="#4700DD"/>
<path d="M95.9443 47.5585C95.1349 48.1866 96.5966 51.7623 97.8892 51.4361C99.1817 51.1099 98.8555 45.2874 95.9443 47.5585Z" fill="#4700DD"/>
<path d="M69.9234 70.2329C69.7784 70.7886 69.5972 71.3322 69.416 71.8154C68.4738 74.3401 62.9049 75.3306 61.4312 74.171C61.395 74.1468 61.3587 74.1106 61.3225 74.0743C60.0299 72.7818 61.2862 69.5323 61.9748 67.9256C62.9412 65.6667 67.7973 64.048 69.416 64.6882C70.7207 65.2318 70.5515 67.8773 69.9234 70.2329Z" fill="#4700DD"/>
<path d="M13.4375 32.4832C13.3892 31.9759 13.4979 31.4927 13.7758 31.0578C15.2978 28.7384 21.3378 28.5814 26.8704 32.2054C32.403 35.8293 34.6982 41.6881 33.1761 44.0074L33.164 44.0195C33.2486 42.6062 32.6567 40.6251 30.591 37.8588C25.2034 30.6712 15.3824 28.1948 13.4375 32.4832Z" fill="#651DFF"/>
<path d="M49.4714 70.1846C49.3989 70.6316 49.2419 71.0543 49.0124 71.4409C48.8795 70.8852 47.6836 66.5244 42.2356 64.7003C36.5822 62.8158 28.9718 61.1367 24.4418 64.7003C22.9922 65.8358 22.3762 67.0076 22.195 68.0706C21.748 67.1767 21.5789 66.2707 21.7359 65.3647C22.4245 61.4025 29.0805 60.4482 36.7392 61.789C44.3979 63.1178 50.16 66.2224 49.4714 70.1846Z" fill="#651DFF"/>
<path d="M58.4111 36.2282C52.3953 38.306 49.8585 44.201 49.6048 48.5739C47.9378 45.2157 49.5807 40.3475 53.6637 37.1221C58.1695 33.5586 64.3182 31.8795 68.5099 37.1825C68.5341 37.2188 68.5703 37.255 68.5824 37.2913C66.7704 35.89 63.4726 34.4887 58.4111 36.2282Z" fill="#651DFF"/>
<path d="M69.9233 70.2329C69.8629 67.8894 69.2831 65.2439 66.8308 65.9929C64.3182 66.766 61.4674 71.3201 61.4432 74.171C61.407 74.1468 61.3707 74.1106 61.3345 74.0743C60.0419 72.7818 61.2983 69.5323 61.9868 67.9256C62.9532 65.6667 67.8094 64.048 69.4281 64.6882C70.7206 65.2318 70.5515 67.8773 69.9233 70.2329Z" fill="#651DFF"/>
<path d="M93.4914 51.8588C94.2283 47.5946 87.3911 46.2175 83.9724 44.9733C80.5901 43.7411 78.2707 44.176 77.3285 44.4659C78.8264 42.0499 82.6074 43.2217 86.2435 43.9948C93.5277 45.541 95.086 49.5032 93.4914 51.8588Z" fill="#651DFF"/>
<path d="M74.586 23.2902C74.5135 23.121 74.4772 22.9278 74.4531 22.7224C76.4946 24.0754 81.7252 22.9761 84.6123 21.6715C86.6779 20.7292 86.3397 19.3521 85.6995 18.3616C86.4605 18.8327 87.0041 19.485 87.2095 20.3789C87.6927 22.5895 75.6128 25.8632 74.586 23.2902Z" fill="#651DFF"/>
<path d="M41.3905 18.1441C40.9798 18.3857 40.4966 18.3132 39.9771 17.7938C36.4136 14.2302 36.0995 8.40769 38.0323 7.4413C38.7933 7.05474 39.4577 6.93395 40.0255 6.99435C39.2403 7.1393 38.0323 7.82786 38.0323 10.6787C38.0323 13.9645 39.6147 16.6583 41.3905 18.1441Z" fill="#651DFF"/>
<path d="M62.9889 7.8398C62.8802 7.28413 62.4453 6.75261 61.0078 7.11501C59.8361 7.40492 59.3891 8.29884 59.2562 9.19275C59.0146 9.08403 58.8334 8.92699 58.7368 8.73372C58.0845 7.44116 62.3487 5.02518 62.9406 7.11501C63.0131 7.38076 63.0252 7.62237 62.9889 7.8398Z" fill="#651DFF"/>
<path d="M43.9523 97.1345C43.6744 95.395 42.0799 93.7038 39.3257 92.1938C35.7621 90.249 33.177 88.3162 30.918 86.6975C29.7342 85.8519 28.1034 85.6223 26.8229 85.5982C29.1664 82.9527 35.0373 87.7122 38.0331 89.2826C42.9738 91.8677 45.6797 95.4796 43.9523 97.1345Z" fill="#651DFF"/>
<path d="M73.137 90.4543C72.6175 89.1617 71.0472 88.6302 68.4379 88.6302H59.378C55.911 88.6302 55.6936 90.6354 55.6936 90.7321C55.5969 90.4784 55.5365 90.2127 55.5003 89.9227C55.1741 87.0115 61.3228 87.5068 64.5602 87.3376C70.6364 87.0236 73.1249 88.6906 73.137 90.4543Z" fill="#651DFF"/>
<path d="M68.7033 106.376C69.3194 107.004 69.7421 107.62 70.02 108.055C65.3934 109.323 60.5251 109.988 55.4999 109.988C53.1926 109.988 50.9216 109.843 48.6989 109.565C48.6989 108.912 48.8197 108.212 49.2184 107.62C59.9695 110.157 66.1665 107.801 68.7033 106.376Z" fill="#651DFF"/>
<path d="M95.8707 92.3509C91.7031 96.8567 86.7866 100.662 81.3264 103.561C80.7104 103.259 80.1547 102.812 79.9373 102.172C88.961 98.7895 92.8628 92.665 93.7808 91.0101C94.6989 91.3362 95.3754 91.8194 95.8707 92.3509Z" fill="#651DFF"/>
<path d="M98.1179 66.2825C97.3931 66.0288 92.2349 64.5913 86.2312 71.489C83.1991 74.9801 82.1482 77.686 81.9066 79.5825C80.2879 76.937 82.2207 72.1896 86.4486 68.6743C90.7491 65.0987 95.8589 64.0719 98.1179 66.2825Z" fill="#651DFF"/>
<path d="M101.524 38.5471C100.171 38.1968 98.4077 36.119 97.8762 32.9903C97.5742 31.1542 98.4923 29.3905 99.6882 28.8348C99.1688 29.5234 98.6856 30.5743 98.8426 32.0239C99.1204 34.3674 100.002 36.7109 101.524 38.5471Z" fill="#651DFF"/>
<path d="M6.27439 79.534C5.89991 78.785 5.53752 78.0119 5.19928 77.2388C6.74551 75.8375 8.26758 73.2766 6.33479 69.2298C3.94297 64.2167 2.7833 59.9041 0.657233 59.0344C0.657233 58.9981 0.657222 58.974 0.645142 58.9377C1.75649 58.7928 3.27857 59.3001 4.38992 62.4288C5.82744 66.4998 12.5197 76.4174 6.27439 79.534Z" fill="#651DFF"/>
<path opacity="0.35" d="M110.5 55.0001C110.5 58.2133 110.222 61.3662 109.69 64.4224C107.842 75.1011 102.914 84.7288 95.8589 92.3512C91.6913 96.857 86.7748 100.662 81.3147 103.561C77.7632 105.458 73.9822 106.968 70.02 108.055C65.3933 109.323 60.5251 109.988 55.4999 109.988C53.1926 109.988 50.9216 109.843 48.6989 109.565C30.0716 107.27 14.3194 95.649 6.2742 79.5223C3.13342 73.2407 1.16439 66.2827 0.644953 58.9261C0.548314 57.6214 0.5 56.3047 0.5 54.988C0.5 46.6891 2.33615 38.8251 5.62189 31.7704C6.15341 79.4015 104.508 91.3727 107.142 36.0225C109.062 41.2652 110.21 46.8703 110.451 52.729C110.488 53.4901 110.5 54.239 110.5 55.0001Z" fill="url(#paint3_linear)"/>
<path opacity="0.45" d="M88.7922 98.7778C86.4487 100.566 83.9481 102.172 81.3268 103.574C77.7753 105.47 73.9943 106.98 70.0321 108.067C65.4055 109.336 60.5373 110 55.512 110C53.2048 110 50.9337 109.855 48.711 109.577C30.0838 107.282 14.3316 95.6612 6.28635 79.5345C3.14557 73.2529 1.17655 66.2949 0.657118 58.9382C0.560478 57.6336 0.512146 56.3169 0.512146 55.0002C0.512146 46.7013 2.3483 38.8372 5.63404 31.7826C8.56946 25.4769 12.6766 19.8235 17.6536 15.1002C2.31206 88.2683 58.7374 98.4033 88.7922 98.7778Z" fill="url(#paint4_linear)"/>
</g>
</g>
<defs>
<filter id="filter0_d" x="-20" y="-10" width="150" height="150" filterUnits="userSpaceOnUse" color-interpolation-filters="sRGB">
<feFlood flood-opacity="0" result="BackgroundImageFix"/>
<feColorMatrix in="SourceAlpha" type="matrix" values="0 0 0 0 0 0 0 0 0 0 0 0 0 0 0 0 0 0 127 0"/>
<feOffset dy="10"/>
<feGaussianBlur stdDeviation="10"/>
<feColorMatrix type="matrix" values="0 0 0 0 0.277333 0 0 0 0 0 0 0 0 0 0.866667 0 0 0 0.3 0"/>
<feBlend mode="normal" in2="BackgroundImageFix" result="effect1_dropShadow"/>
<feBlend mode="normal" in="SourceGraphic" in2="effect1_dropShadow" result="shape"/>
</filter>
<linearGradient id="paint0_linear" x1="82.5" y1="128" x2="22" y2="-67" gradientUnits="userSpaceOnUse">
<stop stop-color="#8C6FFF"/>
<stop offset="1" stop-color="#6100DD"/>
</linearGradient>
<linearGradient id="paint1_linear" x1="-21.4509" y1="19.9893" x2="18.2506" y2="130.22" gradientUnits="userSpaceOnUse">
<stop stop-color="#21D4FD"/>
<stop offset="1" stop-color="#AC00FF"/>
</linearGradient>
<radialGradient id="paint2_radial" cx="0" cy="0" r="1" gradientUnits="userSpaceOnUse" gradientTransform="translate(53.0749 25.8821) scale(83.9805)">
<stop stop-color="#9260FF"/>
<stop offset="1" stop-color="#5200FF"/>
</radialGradient>
<linearGradient id="paint3_linear" x1="8.52433" y1="84.0691" x2="105.789" y2="38.5638" gradientUnits="userSpaceOnUse">
<stop stop-color="#270078" stop-opacity="0.81"/>
<stop offset="1" stop-color="#651DFF" stop-opacity="0.27"/>
</linearGradient>
<linearGradient id="paint4_linear" x1="44.8764" y1="134.547" x2="44.3398" y2="-1.75321" gradientUnits="userSpaceOnUse">
<stop stop-color="#651DFF"/>
<stop offset="1" stop-color="#4700DD" stop-opacity="0.25"/>
</linearGradient>
<clipPath id="clip0">
<rect width="110" height="110" rx="55" fill="white"/>
</clipPath>
</defs>
</svg>
