<svg viewBox="0 0 170 170" fill="none" xmlns="http://www.w3.org/2000/svg">
<g clip-path="url(#clip0)">
<path d="M177 -6H0V273H177V-6Z" fill="url(#paint0_linear)"/>
<path opacity="0.5" d="M185 118.794C182.534 118.591 179.636 118.591 176.408 119.023C166.519 120.319 151.368 125.937 135.352 145.385C132.81 148.486 130.446 151.41 128.133 154.257C102.483 186.008 90.7633 200.524 14.2452 207.464C-9.93041 209.65 -26.6576 217.734 -38.2497 227.546C-38.809 227.012 -39.3429 226.504 -39.8767 225.945C-28.005 215.827 -10.7947 207.464 14.0419 205.226C89.594 198.363 100.373 185.042 126.379 152.833C128.666 149.986 131.031 147.063 133.598 143.961C150.147 123.853 165.934 118.082 176.255 116.76C179.407 116.354 182.255 116.328 184.72 116.506C184.847 117.269 184.949 118.031 185 118.794Z" fill="#FFBC1D"/>
<path opacity="0.5" d="M184.313 150.698C184.212 151.436 184.11 152.173 183.983 152.885C172.213 152.707 161.714 157.511 152.639 167.248C147.351 172.917 142.826 178.23 138.835 182.907C119.184 205.939 107.312 219.844 48.9705 229.25C26.371 232.885 9.74546 240.817 -0.550168 252.816C-1.26196 252.511 -1.97375 252.18 -2.68555 251.85C7.94055 239.165 25.1762 230.801 48.6147 227.039C106.143 217.76 117.15 204.871 137.132 181.458C141.148 176.755 145.699 171.417 151.012 165.722C161.943 153.952 173.865 150.495 184.313 150.698Z" fill="#FFBC1D"/>
<path opacity="0.5" d="M47.2926 147.672C38.9799 162.137 18.1599 167.628 -12.6508 174.364C-39.3177 180.186 -52.8672 191.956 -59.6039 201.031C-60.036 200.32 -60.4682 199.608 -60.9004 198.896C-60.2903 198.082 -59.6039 197.269 -58.8667 196.405C-51.9013 188.371 -38.3008 177.669 -13.1338 172.153C17.0921 165.543 37.48 160.179 45.3352 146.553C50.3432 137.809 50.1398 125.861 44.6997 108.93C40.0984 94.6432 33.1838 80.3056 26.5235 66.451C16.5329 45.6818 6.8728 25.6498 6.2627 8.13454C7.02533 7.85491 7.76251 7.57523 8.52515 7.29559C8.85562 24.5312 18.5157 44.6141 28.5571 65.4595C35.2684 79.3904 42.2084 93.7789 46.8605 108.244C52.504 125.81 52.6565 138.342 47.2926 147.672Z" fill="#FFBC1D"/>
<path opacity="0.5" d="M17.6261 125.506C12.3639 135.42 -3.98199 139.488 -32.3013 143.53C-52.8926 146.479 -66.8997 153.342 -76.0768 160.054C-76.2547 159.215 -76.4326 158.35 -76.6106 157.511C-67.1793 150.851 -53.1214 144.216 -32.6318 141.293C-5.68523 137.454 10.8386 133.463 15.6178 124.438C18.7192 118.566 17.2702 110.101 10.8894 97.0342C9.49126 94.187 8.11855 91.4161 6.79665 88.7214C-5.22762 64.5203 -15.0402 44.7681 -11.7609 16.5758C-10.9474 16.1183 -10.1593 15.6607 -9.32044 15.2285C-13.1336 43.4716 -3.70238 62.4866 8.83031 87.7046C10.1776 90.3992 11.5504 93.1702 12.9486 96.0174C19.6598 109.847 21.1089 118.922 17.6261 125.506Z" fill="#FFBC1D"/>
<path opacity="0.5" d="M182.686 103.948C162.553 99.9311 154.087 86.9916 145.851 74.4335C144.097 71.7389 142.266 68.968 140.385 66.375C138.962 64.4176 137.614 62.4347 136.343 60.5281C126.912 46.5972 117.989 33.429 72.6883 26.2093C50.8769 22.7266 35.7258 15.7357 27.6927 5.38928C26.9046 4.37243 26.2436 3.38104 25.6589 2.41503C26.447 2.23708 27.2351 2.08455 28.0232 1.93202C28.4808 2.66924 29.0146 3.40647 29.5993 4.16911C34.9123 10.9058 46.7586 19.8032 73.0443 23.9977C119.311 31.3699 128.488 44.9194 138.199 59.2824C139.47 61.1636 140.792 63.121 142.216 65.0531C144.148 67.6969 145.978 70.4933 147.757 73.2133C155.562 85.1359 163.595 97.3889 182.178 101.507C182.33 102.295 182.534 103.109 182.686 103.948Z" fill="#FFBC1D"/>
<path opacity="0.5" d="M173.281 75.9334C159.324 72.1202 151.723 62.4347 143.741 52.2662C134.742 40.8266 124.573 27.8617 103.321 20.8963C80.6963 13.4733 69.7905 5.79605 64.5283 0C65.6977 0.101685 66.8925 0.203408 68.0619 0.355935C73.5783 5.5673 84.0773 12.2277 104.008 18.7609C125.895 25.9297 136.318 39.1997 145.495 50.8935C153.147 60.6298 159.96 69.2985 171.959 73.2134C172.416 74.1031 172.848 75.0182 173.281 75.9334Z" fill="#FFBC1D"/>
<path opacity="0.5" d="M138.631 98.5838C134.335 77.052 104.516 46.0634 77.315 34.7764C63.3587 29.0057 51.4616 28.9804 42.8947 34.6747C37.6325 38.1829 41.4202 49.0123 47.1908 65.3836C49.8092 72.8066 52.7581 81.1956 55.2239 90.0677C57.1814 97.1094 58.4271 104.939 59.6473 112.489C63.2063 134.606 66.5619 155.502 86.2634 157.815C87.4582 157.968 88.6784 158.019 89.8986 158.019C101.694 158.019 114.786 151.613 124.853 140.681C136.267 128.301 141.428 112.566 138.631 98.5838ZM123.175 139.156C112.524 150.698 98.491 156.977 86.5175 155.578C68.4938 153.468 65.2654 133.386 61.8589 112.133C60.6387 104.507 59.3676 96.6264 57.3848 89.4576C54.8935 80.5093 51.9192 72.0694 49.3008 64.621C44.4708 50.9189 40.3016 39.098 44.1148 36.5559C54.1054 29.8955 67.1973 33.0477 76.4253 36.8609C102.584 47.6904 132.301 78.501 136.394 99.016C139.063 112.286 134.106 127.31 123.175 139.156Z" fill="#FFBC1D"/>
<path opacity="0.5" d="M115.549 76.7727C102.152 61.0369 81.3066 45.7841 63.8168 45.7841C62.9779 45.7841 62.1898 45.8096 61.3764 45.8859C59.7494 46.013 58.5291 46.8264 57.8428 48.1738C53.7245 56.2577 69.7653 83.0772 69.9179 83.3314C73.9599 90.068 74.7225 99.6265 75.4343 108.88C76.502 122.607 77.5189 135.572 89.5686 136.665C90.7888 136.767 92.009 136.843 93.2038 136.843C110.643 136.843 125.819 125.429 130.039 108.575C131.793 101.533 126.251 89.3308 115.549 76.7727ZM127.853 108.015C123.608 124.921 107.592 136.03 89.7465 134.403C79.578 133.488 78.6882 121.997 77.646 108.702C76.9087 99.1943 76.1461 89.3562 71.7991 82.162C65.3167 71.4088 57.309 54.0715 59.8002 49.1906C60.1561 48.5296 60.69 48.1737 61.5289 48.1229C78.7137 46.6739 100.169 62.1809 113.82 78.2217C123.913 90.0681 129.429 101.762 127.853 108.015Z" fill="#FFBC1D"/>
<path opacity="0.5" d="M110.618 102.421C109.525 90.7784 96.5599 73.6191 86.3914 73.6191C85.4254 73.6191 84.8661 74.1021 84.561 74.5088C83.3408 76.1358 84.256 79.3643 86.1118 85.3891C87.332 89.3294 88.7047 93.8036 89.0098 97.4134C89.1369 98.8624 89.1369 100.311 89.1623 101.71C89.2131 105.726 89.2894 109.514 91.9332 111.675C93.3314 112.819 95.3142 113.378 97.9835 113.378C99.6613 113.378 101.619 113.149 103.856 112.742C108.762 111.751 111.152 108.116 110.618 102.421ZM103.474 110.48C98.3648 111.446 95.06 111.268 93.3822 109.895C91.5519 108.395 91.501 105.269 91.4502 101.633C91.4248 100.21 91.3994 98.7353 91.2723 97.2101C90.9672 93.346 89.5436 88.7447 88.2725 84.6773C87.3065 81.5251 85.8321 76.7967 86.3406 75.8561H86.3659C95.2125 75.8561 107.389 92.3037 108.355 102.625C108.788 107.124 107.135 109.768 103.474 110.48Z" fill="#FFBC1D"/>
</g>
<defs>
<linearGradient id="paint0_linear" x1="88.4848" y1="-5.97111" x2="88.4848" y2="273.042" gradientUnits="userSpaceOnUse">
<stop stop-color="#FF8F00"/>
<stop offset="0.5" stop-color="#FF124A"/>
<stop offset="1" stop-color="#EB00A4"/>
</linearGradient>
<clipPath id="clip0">
<rect width="170" height="170" rx="85" fill="white"/>
</clipPath>
</defs>
</svg>
