<svg viewBox="0 0 170 170" fill="none" xmlns="http://www.w3.org/2000/svg">
<g clip-path="url(#clip0)">
<path d="M32.3401 59.128C32.5321 59.416 32.6281 59.688 32.6281 59.944C32.6281 60.2853 32.4841 60.5733 32.1961 60.808C31.9188 61.032 31.5935 61.144 31.2201 61.144C30.9641 61.144 30.7241 61.0853 30.5001 60.968C30.2761 60.8507 30.0841 60.6747 29.9241 60.44L27.8441 57.4C27.6948 57.1867 27.5348 57.032 27.3641 56.936C27.2041 56.8293 27.0121 56.776 26.7881 56.776H25.7481V59.64C25.7481 60.088 25.6201 60.4453 25.3641 60.712C25.1081 60.968 24.7561 61.096 24.3081 61.096C23.8601 61.096 23.5028 60.968 23.2361 60.712C22.9801 60.4453 22.8521 60.088 22.8521 59.64V51.08C22.8521 50.6427 22.9695 50.3067 23.2041 50.072C23.4388 49.8373 23.7748 49.72 24.2121 49.72H28.2281C29.5935 49.72 30.6175 50.0187 31.3001 50.616C31.9935 51.2027 32.3401 52.056 32.3401 53.176C32.3401 54.0293 32.1055 54.7547 31.6361 55.352C31.1668 55.9387 30.5055 56.3333 29.6521 56.536C30.0041 56.5893 30.3081 56.7067 30.5641 56.888C30.8308 57.0693 31.0921 57.3413 31.3481 57.704L32.3401 59.128ZM27.7641 54.568C28.4148 54.568 28.8788 54.4667 29.1561 54.264C29.4441 54.0613 29.5881 53.7307 29.5881 53.272C29.5881 52.8027 29.4441 52.4667 29.1561 52.264C28.8788 52.0507 28.4148 51.944 27.7641 51.944H25.7161V54.568H27.7641ZM40.3726 58.472C40.618 58.472 40.8153 58.568 40.9646 58.76C41.1246 58.952 41.2046 59.2027 41.2046 59.512C41.2046 59.9387 40.9966 60.264 40.5806 60.488C40.218 60.6693 39.786 60.824 39.2846 60.952C38.794 61.0693 38.3406 61.128 37.9246 61.128C37.05 61.128 36.2873 60.9627 35.6366 60.632C34.986 60.3013 34.4846 59.8267 34.1326 59.208C33.7806 58.5893 33.6046 57.864 33.6046 57.032C33.6046 56.2427 33.77 55.5387 34.1006 54.92C34.442 54.2907 34.9113 53.8053 35.5086 53.464C36.1166 53.112 36.7993 52.936 37.5566 52.936C38.2926 52.936 38.938 53.096 39.4926 53.416C40.0473 53.736 40.474 54.1893 40.7726 54.776C41.082 55.3627 41.2366 56.0507 41.2366 56.84C41.2366 57.0853 41.178 57.2773 41.0606 57.416C40.954 57.544 40.794 57.608 40.5806 57.608H36.3566C36.4313 58.12 36.5966 58.488 36.8526 58.712C37.1086 58.936 37.4873 59.048 37.9886 59.048C38.2553 59.048 38.5006 59.0213 38.7246 58.968C38.9486 58.904 39.1993 58.8187 39.4766 58.712C39.6366 58.648 39.7913 58.5947 39.9406 58.552C40.1006 58.4987 40.2446 58.472 40.3726 58.472ZM37.6366 54.856C37.2633 54.856 36.9646 54.9787 36.7406 55.224C36.5166 55.4587 36.3833 55.8053 36.3406 56.264H38.8526C38.7886 55.3253 38.3833 54.856 37.6366 54.856ZM45.6391 61.128C44.9245 61.128 44.3218 61.0747 43.8311 60.968C43.3405 60.8613 42.9085 60.6907 42.5351 60.456C42.3858 60.3813 42.2685 60.2533 42.1831 60.072C42.0978 59.8907 42.0551 59.688 42.0551 59.464C42.0551 59.176 42.1298 58.9413 42.2791 58.76C42.4391 58.568 42.6365 58.472 42.8711 58.472C43.0311 58.472 43.1805 58.4933 43.3191 58.536C43.4578 58.568 43.6285 58.6267 43.8311 58.712C44.1725 58.8293 44.4711 58.92 44.7271 58.984C44.9938 59.048 45.3298 59.08 45.7351 59.08C46.0231 59.08 46.2471 59.0427 46.4071 58.968C46.5778 58.8827 46.6631 58.7653 46.6631 58.616C46.6631 58.4987 46.6205 58.408 46.5351 58.344C46.4605 58.28 46.3111 58.2213 46.0871 58.168C45.8631 58.104 45.4845 58.0187 44.9511 57.912C44.0018 57.7307 43.3138 57.4587 42.8871 57.096C42.4711 56.7227 42.2631 56.2 42.2631 55.528C42.2631 55.0373 42.4125 54.5947 42.7111 54.2C43.0205 53.8053 43.4418 53.496 43.9751 53.272C44.5085 53.048 45.1058 52.936 45.7671 52.936C46.2471 52.936 46.7111 52.9947 47.1591 53.112C47.6178 53.2293 48.0231 53.3947 48.3751 53.608C48.7058 53.8 48.8711 54.1093 48.8711 54.536C48.8711 54.8347 48.7911 55.0853 48.6311 55.288C48.4711 55.4907 48.2738 55.592 48.0391 55.592C47.7618 55.592 47.4311 55.5013 47.0471 55.32C46.7911 55.2027 46.5618 55.1173 46.3591 55.064C46.1671 55 45.9378 54.968 45.6711 54.968C45.4045 54.968 45.1965 55.0107 45.0471 55.096C44.8978 55.1707 44.8231 55.2827 44.8231 55.432C44.8231 55.6027 44.9245 55.736 45.1271 55.832C45.3405 55.928 45.7565 56.0347 46.3751 56.152C47.4098 56.3333 48.1405 56.6107 48.5671 56.984C48.9938 57.3467 49.2071 57.8747 49.2071 58.568C49.2071 59.3467 48.8818 59.9707 48.2311 60.44C47.5911 60.8987 46.7271 61.128 45.6391 61.128ZM56.7789 58.472C57.0242 58.472 57.2215 58.568 57.3709 58.76C57.5309 58.952 57.6109 59.2027 57.6109 59.512C57.6109 59.9387 57.4029 60.264 56.9869 60.488C56.6242 60.6693 56.1922 60.824 55.6909 60.952C55.2002 61.0693 54.7469 61.128 54.3309 61.128C53.4562 61.128 52.6935 60.9627 52.0429 60.632C51.3922 60.3013 50.8909 59.8267 50.5389 59.208C50.1869 58.5893 50.0109 57.864 50.0109 57.032C50.0109 56.2427 50.1762 55.5387 50.5069 54.92C50.8482 54.2907 51.3175 53.8053 51.9149 53.464C52.5229 53.112 53.2055 52.936 53.9629 52.936C54.6989 52.936 55.3442 53.096 55.8989 53.416C56.4535 53.736 56.8802 54.1893 57.1789 54.776C57.4882 55.3627 57.6429 56.0507 57.6429 56.84C57.6429 57.0853 57.5842 57.2773 57.4669 57.416C57.3602 57.544 57.2002 57.608 56.9869 57.608H52.7629C52.8375 58.12 53.0029 58.488 53.2589 58.712C53.5149 58.936 53.8935 59.048 54.3949 59.048C54.6615 59.048 54.9069 59.0213 55.1309 58.968C55.3549 58.904 55.6055 58.8187 55.8829 58.712C56.0429 58.648 56.1975 58.5947 56.3469 58.552C56.5069 58.4987 56.6509 58.472 56.7789 58.472ZM54.0429 54.856C53.6695 54.856 53.3709 54.9787 53.1469 55.224C52.9229 55.4587 52.7895 55.8053 52.7469 56.264H55.2589C55.1949 55.3253 54.7895 54.856 54.0429 54.856ZM62.6054 52.936C63.8214 52.936 64.7174 53.2293 65.2934 53.816C65.88 54.392 66.1734 55.272 66.1734 56.456V59.8C66.1734 60.2053 66.0507 60.5253 65.8054 60.76C65.5707 60.984 65.24 61.096 64.8134 61.096C64.44 61.096 64.1307 60.9893 63.8854 60.776C63.6507 60.5627 63.5227 60.2747 63.5014 59.912C63.352 60.296 63.1014 60.5947 62.7494 60.808C62.3974 61.0213 61.976 61.128 61.4854 61.128C60.9414 61.128 60.4507 61.0213 60.0134 60.808C59.576 60.584 59.2294 60.28 58.9734 59.896C58.728 59.5013 58.6054 59.0587 58.6054 58.568C58.6054 58.0027 58.7494 57.5547 59.0374 57.224C59.336 56.8827 59.8054 56.6373 60.4454 56.488C61.0854 56.3387 61.9494 56.264 63.0374 56.264H63.4694V56.072C63.4694 55.6987 63.384 55.432 63.2134 55.272C63.0427 55.1013 62.7547 55.016 62.3494 55.016C61.912 55.016 61.272 55.1653 60.4294 55.464C60.184 55.5493 59.976 55.592 59.8054 55.592C59.5387 55.592 59.3254 55.496 59.1654 55.304C59.0054 55.112 58.9254 54.8613 58.9254 54.552C58.9254 54.3173 58.9734 54.1253 59.0694 53.976C59.1654 53.8267 59.32 53.6933 59.5334 53.576C59.9067 53.384 60.376 53.2293 60.9414 53.112C61.5067 52.9947 62.0614 52.936 62.6054 52.936ZM62.1574 59.224C62.5414 59.224 62.856 59.0907 63.1014 58.824C63.3467 58.5467 63.4694 58.1947 63.4694 57.768V57.576H63.2134C62.5307 57.576 62.0454 57.64 61.7574 57.768C61.4694 57.8853 61.3254 58.088 61.3254 58.376C61.3254 58.6213 61.4 58.824 61.5494 58.984C61.7094 59.144 61.912 59.224 62.1574 59.224ZM72.7615 52.968C73.1242 52.936 73.4122 53.0213 73.6255 53.224C73.8388 53.416 73.9455 53.704 73.9455 54.088C73.9455 54.5147 73.8442 54.824 73.6415 55.016C73.4495 55.208 73.0975 55.3307 72.5855 55.384L72.1055 55.432C71.5722 55.496 71.1882 55.6667 70.9535 55.944C70.7295 56.2107 70.6175 56.5787 70.6175 57.048V59.784C70.6175 60.2213 70.4788 60.552 70.2015 60.776C69.9348 60.9893 69.5988 61.096 69.1935 61.096C68.7882 61.096 68.4468 60.9893 68.1695 60.776C67.9028 60.552 67.7695 60.2213 67.7695 59.784V54.248C67.7695 53.8427 67.9028 53.528 68.1695 53.304C68.4468 53.08 68.7775 52.968 69.1615 52.968C69.5562 52.968 69.8708 53.0747 70.1055 53.288C70.3508 53.5013 70.4735 53.8 70.4735 54.184V54.488C70.6442 54.0187 70.9215 53.656 71.3055 53.4C71.7002 53.144 72.1108 53.0053 72.5375 52.984L72.7615 52.968ZM78.1084 61.128C76.8284 61.128 75.815 60.7653 75.0684 60.04C74.3217 59.3147 73.9484 58.328 73.9484 57.08C73.9484 56.2587 74.1297 55.5333 74.4924 54.904C74.855 54.2747 75.3617 53.7893 76.0124 53.448C76.6737 53.1067 77.4257 52.936 78.2684 52.936C78.7164 52.936 79.1644 52.9947 79.6124 53.112C80.0604 53.2293 80.455 53.3947 80.7964 53.608C81.127 53.8107 81.2924 54.12 81.2924 54.536C81.2924 54.8667 81.2124 55.1387 81.0524 55.352C80.903 55.5547 80.7057 55.656 80.4604 55.656C80.3004 55.656 80.1457 55.6347 79.9964 55.592C79.847 55.5387 79.6817 55.464 79.5004 55.368C79.287 55.272 79.1057 55.2027 78.9564 55.16C78.807 55.1067 78.6417 55.08 78.4604 55.08C77.4044 55.08 76.8764 55.7253 76.8764 57.016C76.8764 57.656 77.0097 58.1467 77.2764 58.488C77.5537 58.8187 77.9484 58.984 78.4604 58.984C78.6417 58.984 78.807 58.9627 78.9564 58.92C79.1164 58.8667 79.2924 58.792 79.4844 58.696C79.6977 58.6 79.8684 58.5307 79.9964 58.488C80.135 58.4347 80.2844 58.408 80.4444 58.408C80.6897 58.408 80.887 58.5147 81.0364 58.728C81.1964 58.9307 81.2764 59.1973 81.2764 59.528C81.2764 59.7307 81.2337 59.9173 81.1484 60.088C81.063 60.248 80.9457 60.3707 80.7964 60.456C80.0604 60.904 79.1644 61.128 78.1084 61.128ZM87.6764 52.936C88.5937 52.936 89.2764 53.2187 89.7244 53.784C90.1724 54.3387 90.3964 55.1867 90.3964 56.328V59.784C90.3964 60.1893 90.2684 60.5093 90.0124 60.744C89.7564 60.9787 89.4097 61.096 88.9724 61.096C88.535 61.096 88.1884 60.9787 87.9324 60.744C87.6764 60.5093 87.5484 60.1893 87.5484 59.784V56.264C87.5484 55.496 87.2177 55.112 86.5564 55.112C86.1297 55.112 85.7884 55.2507 85.5324 55.528C85.287 55.7947 85.1644 56.1573 85.1644 56.616V59.784C85.1644 60.1893 85.0364 60.5093 84.7804 60.744C84.5244 60.9787 84.1777 61.096 83.7404 61.096C83.303 61.096 82.9564 60.9787 82.7004 60.744C82.4444 60.5093 82.3164 60.1893 82.3164 59.784V50.92C82.3164 50.5467 82.4497 50.2427 82.7164 50.008C82.983 49.7627 83.335 49.64 83.7724 49.64C84.1884 49.64 84.5244 49.752 84.7804 49.976C85.0364 50.2 85.1644 50.4987 85.1644 50.872V54.072C85.4524 53.6987 85.8097 53.416 86.2364 53.224C86.663 53.032 87.143 52.936 87.6764 52.936Z" fill="white"/>
<path d="M24.5786 292.23L290.229 26.5787L2.19235 -261.458L-263.458 4.1924L24.5786 292.23Z" fill="url(#paint0_linear)"/>
<g style="mix-blend-mode:soft-light">
<path d="M8.91836 122.922C8.3396 121.765 7.77951 120.57 7.25676 119.375C3.39212 110.656 0.965069 101.19 0.23695 91.2394C0.23695 91.1834 0.236931 91.1461 0.218262 91.0901C1.93588 90.866 4.28827 91.6502 6.00589 96.4857C8.22759 102.777 18.5706 118.105 8.91836 122.922Z" fill="#FFB403"/>
<path d="M42.8811 67.4162L42.8624 67.4348C40.51 70.9821 33.1728 67.7336 24.6407 62.1513C17.6769 57.5958 12.7108 53.0591 12.3747 49.6051C12.3 48.821 12.4681 48.0742 12.8975 47.4021C15.2499 43.8175 24.5847 43.5748 33.1355 49.1757C41.6862 54.7767 45.2335 63.8316 42.8811 67.4162Z" fill="#FFB403"/>
<path d="M144.665 120.345C137.776 126.096 129.524 127.571 126.257 123.631C126.089 123.426 125.94 123.221 125.809 122.996C123.307 118.908 126.294 111.571 132.829 106.138C139.475 100.593 147.372 99.0244 150.864 102.441C150.994 102.572 151.125 102.702 151.237 102.833C154.504 106.772 151.573 114.614 144.665 120.345Z" fill="#FFB403"/>
<path d="M67.1482 150.124C66.1401 151.095 64.1424 151.636 61.0059 151.487C49.5053 150.983 37.0153 136.981 40.5065 132.481C40.5625 132.406 40.6185 132.35 40.6746 132.294C44.2965 128.206 53.37 135.562 58.0001 137.989C65.636 141.984 69.818 147.566 67.1482 150.124Z" fill="#FFB403"/>
<path d="M112.254 139.8C112.273 142.451 108.67 145.252 102.994 145.494C92.6139 145.942 86.6956 143.945 85.2954 140.248C85.146 139.856 85.0526 139.445 84.9966 138.997C84.4926 134.498 93.9954 135.263 98.9989 135.002C108.39 134.498 112.236 137.074 112.254 139.8Z" fill="#FFB403"/>
<path d="M115.82 69.6597C114.681 71.3587 112.478 72.5162 109.621 72.5162C100.622 72.5162 88.6177 66.0191 90.1299 60.0074C90.298 59.3166 90.5594 58.7192 90.8581 58.2338C93.1731 54.4998 99.0168 56.3108 104.636 57.5056C115.876 59.8954 118.284 66.0191 115.82 69.6597Z" fill="#FFB403"/>
<path d="M114.495 35.9955C114.383 35.7342 114.327 35.4354 114.289 35.1181C114.065 32.5603 116.586 28.8263 121.496 27.4821C124.689 26.6046 129.001 26.7166 131.671 28.3596C132.847 29.0877 133.687 30.0959 134.005 31.4774C134.752 34.9127 116.082 39.9722 114.495 35.9955Z" fill="#FFB403"/>
<path d="M63.1912 28.0423C62.5564 28.4157 61.8096 28.3037 61.0068 27.5009C55.4992 21.9932 55.0138 12.9944 58.001 11.5008C59.1772 10.9033 60.204 10.7166 61.0815 10.81C67.0558 11.4821 66.4024 26.1006 63.1912 28.0423Z" fill="#FFB403"/>
<path d="M157.492 59.5011C157.1 59.6878 156.633 59.7251 156.129 59.5945C154.038 59.053 151.312 55.8418 150.491 51.0063C150.024 48.1685 151.443 45.4427 153.291 44.5839C155.345 43.613 157.94 44.9573 158.985 51.0063C159.601 54.4416 159.508 58.4929 157.492 59.5011Z" fill="#FFB403"/>
<path d="M147.391 142.731C140.95 149.695 133.352 155.576 124.913 160.057C123.961 159.59 123.102 158.899 122.766 157.91C122.467 157.032 122.598 155.912 123.513 154.493C127.004 148.986 130.514 140.491 138.505 139.987C140.838 139.837 142.687 140.117 144.162 140.64C145.58 141.163 146.626 141.91 147.391 142.731Z" fill="#FFB403"/>
<path d="M107.438 167.002C100.287 168.962 92.7634 169.989 84.9968 169.989C81.4308 169.989 77.9209 169.765 74.4857 169.336C74.4857 168.327 74.6724 167.245 75.2885 166.33C75.886 165.452 76.8755 164.743 78.4997 164.481C84.4927 163.473 87.4985 159.478 95.9933 159.982C100.399 160.243 103.48 162.39 105.403 164.388C106.355 165.396 107.008 166.33 107.438 167.002Z" fill="#FFB403"/>
<path d="M96.5723 12.1168C96.1429 14.2451 92.5396 15.0106 90.8034 14.2078C90.43 14.0398 90.1499 13.797 90.0006 13.4983C88.9924 11.5006 95.5828 7.76667 96.4976 10.9966C96.6096 11.4073 96.6283 11.7807 96.5723 12.1168Z" fill="#FFB403"/>
<path d="M70.5077 124.489C68.2673 123.368 66.5124 122.491 67.0164 126.99C67.5205 131.49 71.0118 132.498 74.0176 132.498C77.0047 132.498 72.5054 125.497 70.5077 124.489Z" fill="#FFBC1D"/>
<path d="M29.0061 121.502C27.0084 120.998 27.0084 124.508 25.5149 128C24.0213 131.491 26.0189 133.993 29.0061 133.993C32.0119 133.993 33.0014 122.492 29.0061 121.502Z" fill="#FFBC1D"/>
<path d="M20.0061 76.4893C18.0831 75.6119 16.0108 74.4917 15.5067 76.4893C15.0026 78.487 19.502 83.9946 22.0037 83.9946C24.5055 83.9946 25.495 78.9911 20.0061 76.4893Z" fill="#FFBC1D"/>
<path d="M170 85.0027C170 89.9689 169.57 94.8417 168.749 99.5652C168.021 99.2851 167.274 98.7811 166.49 97.9969C161.486 92.9934 165.276 85.8989 166.49 83.4904C167.834 80.802 169.178 81.0447 169.925 81.5114C169.981 82.669 170 83.8265 170 85.0027Z" fill="#FFBC1D"/>
<path d="M11.0081 67.9947C9.66384 68.6669 9.5145 71.486 13.0057 71.0006C16.497 70.4965 13.9952 66.5012 11.0081 67.9947Z" fill="#FFBC1D"/>
<path d="M82.0088 33.0068C80.5152 33.5108 78.5176 35.0044 82.0088 35.5085C85.5 35.9939 83.5024 32.5027 82.0088 33.0068Z" fill="#FFBC1D"/>
<path d="M90.5032 33.0082C88.6736 31.944 88.5056 37.0036 89.9992 39.0012C91.4927 40.9989 96.4962 36.4995 90.5032 33.0082Z" fill="#FFBC1D"/>
<path d="M106.504 151.505C105.421 151.748 105.01 153.503 107.997 154.511C111.003 155.5 111.003 150.497 106.504 151.505Z" fill="#FFBC1D"/>
<path d="M63.0015 160C61.509 160.504 59.9979 161.494 63.0015 162.502C66.0051 163.491 64.494 159.496 63.0015 160Z" fill="#FFBC1D"/>
<path d="M147.502 73.5018C146.251 74.4727 148.51 79.999 150.508 79.4949C152.506 78.9908 152.001 69.9919 147.502 73.5018Z" fill="#FFBC1D"/>
<path opacity="0.45" d="M136.451 152.664C132.829 155.427 128.964 157.91 124.913 160.076C119.424 163.007 113.58 165.34 107.457 167.021C100.306 168.981 92.7821 170.008 85.0155 170.008C81.4495 170.008 77.9397 169.784 74.5044 169.354C45.7157 165.807 21.3704 147.847 8.93633 122.923C4.08221 113.214 1.03906 102.46 0.236263 91.0904C0.0869053 89.074 0.012207 87.039 0.012207 85.004C0.012207 72.1778 2.85002 60.0237 7.92818 49.1205C12.4649 39.3749 18.8126 30.6374 26.5046 23.3374C2.794 136.421 90.0003 152.085 136.451 152.664Z" fill="url(#paint1_linear)"/>
<path d="M170 85.0037C170 89.9699 169.571 94.8427 168.749 99.5662C168.301 102.105 167.76 104.607 167.106 107.072C164.156 38.7025 117.855 -0.16821 51.0365 7.05703C61.4355 2.52025 72.9361 -0.000183105 84.9967 -0.000183105C121.645 -0.000183105 152.88 23.1878 164.81 55.7107C167.778 63.8134 169.552 72.4762 169.925 81.5311C169.981 82.67 170 83.8275 170 85.0037Z" fill="url(#paint2_linear)"/>
</g>
</g>
<defs>
<linearGradient id="paint0_linear" x1="157.36" y1="159.389" x2="-130.69" y2="-128.662" gradientUnits="userSpaceOnUse">
<stop stop-color="#9124FF"/>
<stop offset="0.5155" stop-color="#FF00B3"/>
<stop offset="0.9948" stop-color="#FF002F"/>
</linearGradient>
<linearGradient id="paint1_linear" x1="68.5779" y1="207.945" x2="67.7486" y2="-2.71002" gradientUnits="userSpaceOnUse">
<stop stop-color="#FF7A00"/>
<stop offset="1" stop-color="#CC622E" stop-opacity="0.2"/>
</linearGradient>
<linearGradient id="paint2_linear" x1="160.607" y1="-0.0377034" x2="108.894" y2="57.2596" gradientUnits="userSpaceOnUse">
<stop stop-color="#FFB300"/>
<stop offset="1" stop-color="#FFF49A" stop-opacity="0.2"/>
</linearGradient>
<clipPath id="clip0">
<rect width="170" height="170" rx="85" fill="white"/>
</clipPath>
</defs>
</svg>
