<svg viewBox="0 0 120 120" fill="none" xmlns="http://www.w3.org/2000/svg">
<g clip-path="url(#clip0)">
<path fill-rule="evenodd" clip-rule="evenodd" d="M120 0H0V120H120V0Z" fill="url(#paint0_linear)"/>
<path d="M102.692 17.6361C98.6706 30.3114 77.8656 32.0051 48.6906 24.7387C30.9342 20.3132 16.7073 24.8479 8.51208 28.88C13.8991 20.0619 21.4933 12.7409 30.5409 7.67073C38.6487 7.14624 45.183 9.8015 50.111 12.0197C61.1036 16.9696 77.057 20.1493 78.4775 14.4892C80.204 7.59425 73.8663 6.3595 60.0437 4.58933C54.2087 3.84629 51.6518 2.27281 50.6574 0.72118C53.7169 0.240393 56.853 0 60.0437 0C76.6964 0 91.7757 6.74194 102.692 17.6361Z" fill="url(#paint1_linear)"/>
<path d="M116.547 39.1623C92.7591 59.2352 62.7427 53.1488 35.2177 49.838C15.1558 47.4231 4.65489 51.7502 0 54.7551C0.458933 49.5757 1.57351 44.5712 3.26719 39.8507C19.7669 36.365 30.071 38.1133 60.0328 42.4185C88.9783 46.5817 105.467 33.972 111.215 28.3555C113.335 31.7429 115.127 35.3597 116.547 39.1623Z" fill="#E2005F" fill-opacity="0.57"/>
<path d="M120.284 61.6173C120.197 65.2232 119.782 68.7526 119.082 72.1727C114.635 70.9052 101.692 73.6812 90 78.5C73.697 85.2201 50.1245 85.2996 28.5 80C14 77 4 86.7043 4 92.5C4.5 100.204 32.3766 90.1258 50.1111 87.2957C67.8347 84.4656 84.1487 92.2456 84.1487 97.1955C84.1487 102.145 67.485 96.1356 38.0587 103.916C31.9724 105.522 25.8751 105.882 20.2368 105.205C9.32074 95.6329 1.91226 82.1928 0.16394 67.0261C9.41909 55.2031 25.5801 55.8369 41.2493 61.1474C60.0437 67.5069 72.4459 68.2172 95.1412 62.557C108.745 59.1587 116.372 60.2186 120.284 61.6173Z" fill="#E2005F" fill-opacity="0.43"/>
<path d="M113.815 87.2191C111.28 92.2127 108.057 96.8021 104.276 100.878C103.14 94.6713 86.9787 92.5952 95.4799 88.0059C101.599 84.7059 109.729 86.1483 113.815 87.2191Z" fill="#E2005F"/>
<path d="M95.3488 108.767C92.8137 110.603 90.1257 112.242 87.3175 113.662C80.7394 112.657 71.7465 112.81 61.8029 117.334C59.552 118.35 57.4977 119.235 55.6292 120C48.2207 119.465 41.1837 117.596 34.7587 114.635C39.5228 113.717 43.8281 111.739 54.3617 108.494C71.2548 103.304 87.2737 106.429 95.3488 108.767Z" fill="#E2005F"/>
<path d="M38.3647 28.0852C33.7863 28.6534 34.4638 32.6746 36.9442 34.8053C39.4246 36.9252 50.4171 36.2149 51.1274 33.7454C51.8377 31.265 44.0358 27.375 38.3647 28.0852Z" fill="#E2005F"/>
<path d="M64.9938 7.41941C61.0819 7.41941 56.8423 6.00983 55.7714 8.82899C54.7006 11.6482 69.594 14.8388 71.0145 13.0687C72.435 11.3094 73.1453 7.41941 64.9938 7.41941Z" fill="#E2005F"/>
<path d="M120.273 58.1753C113.925 57.7491 106.385 56.1429 106.833 53.7171C107.62 49.4228 115.214 46.9205 118.634 45.9917C119.585 49.9254 120.142 53.9902 120.273 58.1753Z" fill="#E2005F"/>
<path d="M109.292 97.9385L109.74 96.7584C109.499 97.4031 109.346 97.8073 109.292 97.9385Z" fill="#E2005F"/>
</g>
<defs>
<linearGradient id="paint0_linear" x1="128.5" y1="109.5" x2="-49" y2="12" gradientUnits="userSpaceOnUse">
<stop stop-color="#FF50C3"/>
<stop offset="1" stop-color="#FF0066"/>
</linearGradient>
<linearGradient id="paint1_linear" x1="55.6019" y1="-1.64885e-06" x2="89.7119" y2="31.5227" gradientUnits="userSpaceOnUse">
<stop stop-color="#E2005F"/>
<stop offset="1" stop-color="#E2005F" stop-opacity="0"/>
</linearGradient>
<clipPath id="clip0">
<rect width="120" height="120" rx="60" fill="white"/>
</clipPath>
</defs>
</svg>
