<svg viewBox="0 0 120 120" fill="none" xmlns="http://www.w3.org/2000/svg">
<g clip-path="url(#clip0)">
<g filter="url(#filter0_d)">
<ellipse cx="60" cy="60" rx="60" ry="60" transform="rotate(-180 60 60)" fill="url(#paint0_linear)"/>
</g>
<path fill-rule="evenodd" clip-rule="evenodd" d="M144 120H0V0H144V120Z" fill="url(#paint1_linear)"/>
<path opacity="0.5" d="M120 53.9973C118.879 53.9049 117.562 53.9049 116.094 54.1013C111.599 54.6906 104.712 57.2443 97.4327 66.084C96.2772 67.4937 95.2026 68.8225 94.1511 70.1167C82.492 84.549 77.165 91.147 42.3841 94.3016C31.3952 95.2953 23.7919 98.9699 18.5227 103.43C18.2685 103.187 18.0259 102.956 17.7832 102.702C23.1794 98.1032 31.0023 94.3016 42.2917 93.2847C76.6335 90.1649 81.5329 84.1099 93.3538 69.4696C94.3937 68.1754 95.4684 66.8466 96.6354 65.4369C104.158 56.2968 111.334 53.6737 116.025 53.0729C117.458 52.888 118.752 52.8765 119.873 52.9573C119.931 53.304 119.977 53.6506 120 53.9973Z" fill="#FAFF03"/>
<path opacity="0.5" d="M119.688 68.4993C119.642 68.8344 119.596 69.1695 119.538 69.4931C114.188 69.4122 109.416 71.5961 105.29 76.0217C102.887 78.5985 100.83 81.0135 99.0159 83.1397C90.0838 93.6086 84.6875 99.9292 58.1685 104.205C47.896 105.857 40.3389 109.462 35.6591 114.916C35.3356 114.778 35.012 114.627 34.6885 114.477C39.5185 108.711 47.3529 104.91 58.0068 103.199C84.156 98.9817 89.1594 93.1233 98.2417 82.481C100.067 80.3433 102.136 77.9167 104.551 75.3284C109.52 69.9784 114.939 68.4068 119.688 68.4993Z" fill="#FAFF03"/>
<path opacity="0.5" d="M115.794 82.816C115.644 83.1742 115.493 83.544 115.332 83.9022C111.022 84.6302 107.324 86.895 104.285 90.6966C96.0116 101.038 90.5229 106.377 75.9981 110.699C66.1762 113.61 62.0279 117.262 60.3062 120.116H60.1213C59.7862 120.116 59.4627 120.116 59.1276 120.104C61.3808 115.806 66.9504 112.305 75.6976 109.705C89.9451 105.476 95.3413 100.218 103.476 90.0495C107.289 85.3004 111.738 83.3822 115.794 82.816Z" fill="#FAFF03"/>
<path opacity="0.5" d="M57.4057 67.1236C53.6272 73.6985 44.1635 76.1944 30.1587 79.2565C18.0374 81.9027 11.8785 87.2527 8.81637 91.3779C8.61994 91.0543 8.42349 90.7308 8.22705 90.4073C8.50437 90.0375 8.81635 89.6677 9.15145 89.2748C12.3176 85.6234 18.4996 80.7587 29.9392 78.2512C43.6782 75.2469 52.9454 72.8088 56.5159 66.6152C58.7923 62.6403 58.6999 57.2094 56.2271 49.5136C54.1356 43.0197 50.9926 36.5026 47.9652 30.205C43.424 20.7645 39.033 11.659 38.7557 3.69756C39.1024 3.57046 39.4375 3.44333 39.7841 3.31622C39.9343 11.1506 44.3253 20.2792 48.8896 29.7544C51.9401 36.0866 55.0947 42.6268 57.2093 49.2017C59.7745 57.1863 59.8438 62.8829 57.4057 67.1236Z" fill="#FAFF03"/>
<path opacity="0.5" d="M43.9209 57.0482C41.529 61.5547 34.0991 63.4035 21.2266 65.2408C11.867 66.5812 5.50011 69.7011 1.32871 72.7516C1.24782 72.3703 1.16695 71.9774 1.08606 71.5961C5.37301 68.5687 11.763 65.5528 21.0764 64.2239C33.3249 62.4791 40.8357 60.6649 43.0081 56.5629C44.4178 53.8936 43.7591 50.0458 40.8588 44.1065C40.2233 42.8123 39.5993 41.5527 38.9984 40.3279C33.5329 29.3274 29.0726 20.3491 30.5632 7.53448C30.933 7.32649 31.2912 7.1185 31.6725 6.92206C29.9392 19.7598 34.2262 28.403 39.9228 39.8657C40.5353 41.0905 41.1592 42.3501 41.7948 43.6443C44.8453 49.9302 45.504 54.0554 43.9209 57.0482Z" fill="#FAFF03"/>
<path opacity="0.5" d="M16.6278 48.3698C15.2759 48.8898 13.7506 49.4791 12.1213 50.1608C5.93932 52.7838 2.1377 55.6149 0 57.6139C0.0115551 57.1286 0.046229 56.6433 0.0808944 56.1579C2.38036 54.1705 6.07799 51.6168 11.7284 49.2249C13.3693 48.5316 14.9061 47.9422 16.2696 47.4223C24.3582 44.3255 27.7092 43.0429 25.4444 30.2976C23.9422 21.8392 24.2658 15.3568 24.8898 11.1854C25.2826 10.8965 25.6755 10.6192 26.0799 10.3419C25.3866 14.363 24.8551 21.1459 26.4497 30.1242C28.8647 43.69 24.7742 45.2615 16.6278 48.3698Z" fill="#FAFF03"/>
<path opacity="0.5" d="M16.0734 32.6895C13.4966 36.6645 8.21586 38.0627 3.88269 38.5133C4.02135 38.1435 4.17157 37.7737 4.32179 37.404C8.33142 36.9187 12.9766 35.5783 15.2183 32.1233C17.1018 29.223 17.0325 25.2018 14.9988 20.1406C15.253 19.8517 15.4956 19.5744 15.7614 19.2971C18.1071 24.9129 18.2111 29.4079 16.0734 32.6895Z" fill="#FAFF03"/>
<path opacity="0.5" d="M118.948 47.2489C109.797 45.4232 105.949 39.5416 102.205 33.8334C101.408 32.6085 100.576 31.3491 99.7205 30.1704C99.0734 29.2807 98.4609 28.3794 97.8832 27.5127C93.5962 21.1805 89.5404 15.195 68.9491 11.9133C59.0348 10.3303 52.148 7.15259 48.4966 2.44965C48.1384 1.98745 47.8379 1.53682 47.5721 1.09772C47.9304 1.01684 48.2886 0.947505 48.6468 0.878174C48.8548 1.21327 49.0974 1.54838 49.3632 1.89503C51.7782 4.95714 57.1629 9.00142 69.1109 10.908C90.1413 14.259 94.3127 20.4179 98.7267 26.9465C99.3045 27.8016 99.9053 28.6914 100.552 29.5695C101.431 30.7713 102.263 32.0424 103.071 33.2788C106.619 38.6981 110.27 44.2677 118.717 46.1396C118.786 46.4978 118.879 46.8676 118.948 47.2489Z" fill="#FAFF03"/>
<path opacity="0.5" d="M114.673 34.5152C108.329 32.7819 104.874 28.3794 101.246 23.7573C97.1553 18.5575 92.5332 12.6644 82.8731 9.49832C72.5891 6.12422 67.6319 2.63457 65.24 0C65.7715 0.0462205 66.3146 0.092458 66.8462 0.161789C69.3536 2.53059 74.1259 5.55802 83.1851 8.52769C93.1341 11.7862 97.8717 17.818 102.043 23.1334C105.521 27.559 108.618 31.4993 114.072 33.2788C114.28 33.6832 114.476 34.0992 114.673 34.5152Z" fill="#FAFF03"/>
<path opacity="0.5" d="M98.9232 44.8107C96.9704 35.0236 83.4163 20.9379 71.0523 15.8074C64.7085 13.1844 59.3007 13.1728 55.4067 15.7612C53.0148 17.3558 54.7364 22.2783 57.3594 29.7198C58.5496 33.0939 59.89 36.907 61.0109 40.9398C61.9006 44.1405 62.4668 47.6995 63.0215 51.1314C64.6392 61.1844 66.1645 70.6827 75.1197 71.7342C75.6628 71.8036 76.2174 71.8266 76.7721 71.8266C82.1337 71.8266 88.0846 68.9147 92.6604 63.946C97.8486 58.3187 100.194 51.1661 98.9232 44.8107ZM91.8977 63.2528C87.0561 68.4988 80.6777 71.3529 75.2352 70.7174C67.0426 69.7583 65.5752 60.6297 64.0268 50.9697C63.4721 47.5031 62.8944 43.921 61.9931 40.6625C60.8607 36.5951 59.5087 32.7588 58.3185 29.3731C56.1231 23.1449 54.228 17.7718 55.9613 16.6162C60.5025 13.5888 66.4533 15.0216 70.6478 16.7549C82.5381 21.6774 96.046 35.6822 97.9064 45.0072C99.1197 51.039 96.8664 57.8681 91.8977 63.2528Z" fill="#FAFF03"/>
<path opacity="0.5" d="M88.4313 34.8967C82.3417 27.7441 72.8665 20.811 64.9166 20.811C64.5353 20.811 64.1771 20.8226 63.8073 20.8573C63.0678 20.915 62.5131 21.2848 62.2011 21.8972C60.3292 25.5718 67.6205 37.7624 67.6898 37.8779C69.5271 40.9401 69.8738 45.2848 70.1973 49.4909C70.6826 55.7306 71.1448 61.6238 76.622 62.1206C77.1766 62.1668 77.7312 62.2015 78.2743 62.2015C86.2011 62.2015 93.0996 57.0133 95.0177 49.3522C95.815 46.1514 93.296 40.605 88.4313 34.8967ZM94.024 49.098C92.0943 56.7822 84.8146 61.8317 76.7028 61.0922C72.0808 60.6762 71.6764 55.4533 71.2026 49.41C70.8675 45.0884 70.5209 40.6165 68.5449 37.3464C65.5984 32.4586 61.9585 24.578 63.0909 22.3594C63.2527 22.059 63.4953 21.8972 63.8767 21.8741C71.6879 21.2154 81.4405 28.2641 87.6456 35.5554C92.2329 40.9401 94.7404 46.2554 94.024 49.098Z" fill="#FAFF03"/>
<path opacity="0.5" d="M86.1899 46.5552C85.6931 41.263 79.8 33.4633 75.1779 33.4633C74.7388 33.4633 74.4846 33.6828 74.3459 33.8677C73.7913 34.6072 74.2073 36.0747 75.0508 38.8133C75.6055 40.6043 76.2294 42.638 76.3681 44.2788C76.4259 44.9375 76.4259 45.5961 76.4374 46.2317C76.4605 48.0574 76.4952 49.7791 77.6969 50.7612C78.3324 51.2812 79.2338 51.5355 80.447 51.5355C81.2097 51.5355 82.0994 51.4315 83.1163 51.2466C85.3464 50.7959 86.4326 49.1435 86.1899 46.5552ZM82.943 50.2182C80.6204 50.6573 79.1182 50.5764 78.3556 49.9524C77.5236 49.2707 77.5005 47.8494 77.4774 46.197C77.4658 45.5499 77.4543 44.8797 77.3965 44.1864C77.2578 42.43 76.6107 40.3385 76.033 38.4897C75.5939 37.0569 74.9237 34.9076 75.1548 34.4801H75.1663C79.1875 34.4801 84.7225 41.9562 85.1616 46.6476C85.358 48.6929 84.6069 49.8946 82.943 50.2182Z" fill="#FAFF03"/>
</g>
<defs>
<filter id="filter0_d" x="-20" y="-10" width="160" height="160" filterUnits="userSpaceOnUse" color-interpolation-filters="sRGB">
<feFlood flood-opacity="0" result="BackgroundImageFix"/>
<feColorMatrix in="SourceAlpha" type="matrix" values="0 0 0 0 0 0 0 0 0 0 0 0 0 0 0 0 0 0 127 0"/>
<feOffset dy="10"/>
<feGaussianBlur stdDeviation="10"/>
<feColorMatrix type="matrix" values="0 0 0 0 0.545098 0 0 0 0 0.870588 0 0 0 0 0.141176 0 0 0 0.3 0"/>
<feBlend mode="normal" in2="BackgroundImageFix" result="effect1_dropShadow"/>
<feBlend mode="normal" in="SourceGraphic" in2="effect1_dropShadow" result="shape"/>
</filter>
<linearGradient id="paint0_linear" x1="125" y1="120" x2="37.5" y2="-47.5" gradientUnits="userSpaceOnUse">
<stop stop-color="#ACF51B"/>
<stop offset="1" stop-color="#70CA2B"/>
</linearGradient>
<linearGradient id="paint1_linear" x1="-3.59681e-06" y1="26.5" x2="121.5" y2="131" gradientUnits="userSpaceOnUse">
<stop stop-color="#FF0085"/>
<stop offset="1" stop-color="#841CFA"/>
</linearGradient>
<clipPath id="clip0">
<rect width="120" height="120" rx="60" fill="white"/>
</clipPath>
</defs>
</svg>
