<svg viewBox="0 0 120 120" fill="none" xmlns="http://www.w3.org/2000/svg">
<g clip-path="url(#clip0)">
<path d="M140 0H-3V225H140V0Z" fill="url(#paint0_linear)"/>
<g opacity="0.75">
<path opacity="0.75" d="M109.464 43.9934C107.034 44.55 104.128 45.7768 106.614 47.5601C109.112 49.3435 113.017 48.6279 113.381 46.4924C113.733 44.3455 114.096 42.9257 109.464 43.9934Z" fill="#2FD0F6"/>
<path opacity="0.75" d="M60.6923 101.333C55.47 98.1984 47.8749 97.0625 47.1597 100.266C46.4445 103.469 51.4284 108.456 57.4794 107.74C63.5418 107.036 64.2571 103.469 60.6923 101.333Z" fill="#2FD0F6"/>
<path opacity="0.75" d="M95.344 110.147C88.7692 114.031 79.1466 117.182 71.5 119.438C70.4564 107.987 81.9713 108.746 88.0409 108.812C89.8173 108.843 93.9093 109.382 95.344 110.147Z" fill="#2FD0F6"/>
<path opacity="0.75" d="M96.6811 91.9369C98.9858 92.9478 100.598 88.018 97.3964 83.747C94.1949 79.4761 92.7644 74.126 88.8477 73.0582C84.931 71.9905 82.7966 85.8825 96.6811 91.9369Z" fill="#2FD0F6"/>
<path opacity="0.75" d="M81.0144 74.4781C79.7543 74.7052 79.232 77.3292 82.0816 77.6813C84.9312 78.0448 84.9312 73.7738 81.0144 74.4781Z" fill="#2FD0F6"/>
<path opacity="0.75" d="M68.1737 35.8036C66.0167 34.7812 65.6761 39.3703 67.4585 40.0745C69.2409 40.7902 74.2248 38.6433 68.1737 35.8036Z" fill="#2FD0F6"/>
</g>
<path d="M33.0788 86.0503C26.3527 92.3934 25.3777 93.3515 22.2862 103.776C20.2374 110.667 14.6241 112.555 11.0608 113.037C8.9116 110.864 6.93672 108.443 5.19079 105.778C-1.96284 94.8631 -3.90197 82.0432 -1.22298 70.3036C0.854807 70.2182 3.19021 70.4168 5.44705 71.2433C11.7624 73.5579 12.2755 75.8052 25.5335 74.5373C38.7844 73.274 39.805 79.7072 33.0788 86.0503Z" fill="url(#paint1_linear)"/>
<path d="M118 33.5737C107.059 31.2347 99.599 43.8717 92.1496 42.952C83.4328 41.8848 85.8788 28.7142 78.5517 14.8283C74.8826 7.87965 74.6269 3.06557 75.2829 0C94.2176 3.56514 109.984 16.327 118 33.5737Z" fill="url(#paint2_linear)"/>
<path opacity="0.5" d="M37.9074 41.0219C37.2485 45.5785 32.7423 41.0219 25.3652 39.6593C17.9882 38.2967 15.035 34.1871 18.3529 31.451C21.6708 28.7149 26.0947 26.6655 30.5303 29.0528C34.9542 31.451 38.6368 35.8985 37.9074 41.0219Z" fill="#30CFF6"/>
</g>
<defs>
<linearGradient id="paint0_linear" x1="68.4677" y1="0.0252419" x2="68.4677" y2="225.036" gradientUnits="userSpaceOnUse">
<stop stop-color="#17FFF3"/>
<stop offset="0.5" stop-color="#8B17FF"/>
<stop offset="0.9948" stop-color="#E600B0"/>
</linearGradient>
<linearGradient id="paint1_linear" x1="-10.452" y1="67.2818" x2="60.5507" y2="142.717" gradientUnits="userSpaceOnUse">
<stop stop-color="#25E3F5" stop-opacity="0.59"/>
<stop offset="1" stop-color="#55B8FF" stop-opacity="0"/>
</linearGradient>
<linearGradient id="paint2_linear" x1="91.9974" y1="-39.2263" x2="106.172" y2="134.813" gradientUnits="userSpaceOnUse">
<stop stop-color="#20EDF4"/>
<stop offset="1" stop-color="#27E0F5" stop-opacity="0"/>
</linearGradient>
<clipPath id="clip0">
<rect width="120" height="120" rx="60" fill="white"/>
</clipPath>
</defs>
</svg>
