<svg width="240" height="240" viewBox="0 0 240 240" xmlns="http://www.w3.org/2000/svg">
    <g clip-path="url(#clip0)">
        <g filter="url(#filter0_d)">
            <circle cx="120" cy="120" r="120" transform="rotate(-180 120 120)" fill="url(#paint0_linear)"/>
        </g>
        <path d="M192.372 -107.886L-142.239 13.6526L49.6284 541.886L384.239 420.347L192.372 -107.886Z"
              fill="url(#paint1_linear)"/>
        <g opacity="0.4">
            <path d="M46.7998 149.999C47.5717 157.73 20.4975 149.999 3.47715 149.999C-7.88293 149.999 -19.9555 152.075 -29 149.069C-28.9208 136.592 -27.0803 124.531 -23.7554 113.121C-19.1441 112.528 -11.3266 113.853 0.389732 122.949C21.2693 139.163 46.028 142.267 46.7998 149.999Z"
                  fill="url(#paint2_linear)"/>
            <path d="M132.163 190.039C133.079 198.353 54.5088 184.582 30.2328 197.38C12.0908 206.936 6.5962 212.912 -5.00057 213.193C-20.5384 196.483 -31.8732 175.63 -37.0243 152.166C-30.1178 153.952 -18.1714 157.571 0.96572 164.834C35.9128 178.075 130.894 178.502 132.163 190.039Z"
                  fill="url(#paint3_linear)"/>
            <path d="M199.384 223.305C189.39 233.449 177.733 241.971 164.888 248.437C161.445 245.353 158.06 241.873 152.915 240.053C139.754 235.407 104.961 226.924 111.908 222.277C118.874 217.63 141.297 220.735 167.6 219.193C183.531 218.243 193.783 220.992 199.384 223.305Z"
                  fill="#DE381F"/>
            <path d="M196.451 196.684C187.189 186.857 160.867 188.953 164.726 198.227C166.843 203.269 208.82 209.814 196.451 196.684Z"
                  fill="#DE3820"/>
            <path d="M98.9317 202.709C87.4331 200.158 79.5958 205.022 78.0521 208.898C76.5084 212.754 109.777 218.171 110.549 214.316C111.321 210.46 105.898 204.251 98.9317 202.709Z"
                  fill="#DC351A"/>
            <path d="M93.4899 170.146C91.1941 169.771 88.0671 172.46 89.6306 174.793C91.1743 177.107 102.772 171.709 93.4899 170.146Z"
                  fill="url(#paint4_linear)"/>
            <path d="M170.92 180.452C165.952 178.969 162.41 181.224 164.725 185.87C167.06 190.497 186.396 185.079 170.92 180.452Z"
                  fill="url(#paint5_linear)"/>
            <path d="M207.981 215.762C205.25 213.033 203.33 218.075 204.894 219.617C206.437 221.16 214.176 221.931 207.981 215.762Z"
                  fill="url(#paint6_linear)"/>
            <path d="M56.9516 208.377C51.5882 209.445 43.7905 213.024 50.757 217.651C57.7235 222.297 72.4084 205.292 56.9516 208.377Z"
                  fill="#DE381F"/>
            <path d="M19.2337 147.743C16.4431 144.955 14.5828 152.39 16.1463 153.161C17.6702 153.932 22.3211 150.828 19.2337 147.743Z"
                  fill="url(#paint7_linear)"/>
            <path d="M33.2183 81.3248C28.1477 78.76 21.1865 76.6845 20.0434 79.0121C18.9003 81.3248 40.663 96.9805 45.8216 93.4966C50.9802 90.0126 37.8053 83.6376 33.2183 81.3248Z"
                  fill="#DF3A21"/>
            <path d="M150.766 30.3354C144.379 34.5553 137.282 41.3125 139.198 44.2016C141.098 47.0808 173.876 32.0689 173.335 23.7124C172.794 15.3559 156.534 26.5131 150.766 30.3354Z"
                  fill="#DF3A21"/>
            <path d="M155.376 136.927C150.488 134.475 150.726 145.429 157.692 148.514C164.658 151.599 158.484 138.469 155.376 136.927Z"
                  fill="url(#paint8_linear)"/>
            <path d="M218.885 143.009C209.543 142.574 212.69 157.701 218.885 159.243C225.079 160.785 235.133 143.78 218.885 143.009Z"
                  fill="url(#paint9_linear)"/>
        </g>
        <path d="M46.9897 134.853C47.1037 135.094 47.1607 135.328 47.1607 135.556C47.1607 135.974 46.9897 136.329 46.6477 136.62C46.3184 136.911 45.9384 137.057 45.5077 137.057C45.2164 137.057 44.9504 136.981 44.7097 136.829C44.4691 136.677 44.2791 136.449 44.1397 136.145L43.2847 134.226H37.1287L36.2547 136.145C36.1154 136.449 35.9191 136.677 35.6657 136.829C35.4251 136.981 35.1591 137.057 34.8677 137.057C34.4371 137.057 34.0444 136.911 33.6897 136.62C33.3477 136.329 33.1767 135.974 33.1767 135.556C33.1767 135.328 33.2337 135.094 33.3477 134.853L38.3637 124.555C38.5284 124.213 38.7691 123.953 39.0857 123.776C39.4151 123.586 39.7761 123.491 40.1687 123.491C40.5487 123.491 40.9034 123.586 41.2327 123.776C41.5621 123.953 41.8091 124.213 41.9737 124.555L46.9897 134.853ZM38.3067 131.604H42.1067L40.2067 127.367L38.3067 131.604ZM56.5608 123.51C57.0675 123.51 57.4792 123.656 57.7958 123.947C58.1252 124.226 58.2898 124.587 58.2898 125.03V135.556C58.2898 136.037 58.1378 136.417 57.8338 136.696C57.5298 136.975 57.1245 137.114 56.6178 137.114C56.1492 137.114 55.7628 136.994 55.4588 136.753C55.1675 136.5 55.0028 136.158 54.9648 135.727C54.6988 136.17 54.3062 136.519 53.7868 136.772C53.2802 137.025 52.7165 137.152 52.0958 137.152C51.2978 137.152 50.5822 136.949 49.9488 136.544C49.3282 136.126 48.8405 135.543 48.4858 134.796C48.1312 134.049 47.9538 133.194 47.9538 132.231C47.9538 131.268 48.1248 130.426 48.4668 129.704C48.8215 128.969 49.3092 128.406 49.9298 128.013C50.5632 127.62 51.2852 127.424 52.0958 127.424C52.6912 127.424 53.2358 127.544 53.7298 127.785C54.2365 128.026 54.6292 128.349 54.9078 128.754V124.973C54.9078 124.53 55.0535 124.175 55.3448 123.909C55.6488 123.643 56.0542 123.51 56.5608 123.51ZM53.1218 134.625C53.7172 134.625 54.1732 134.422 54.4898 134.017C54.8065 133.612 54.9648 133.029 54.9648 132.269C54.9648 131.522 54.8065 130.952 54.4898 130.559C54.1732 130.154 53.7172 129.951 53.1218 129.951C52.5392 129.951 52.0895 130.147 51.7728 130.54C51.4562 130.933 51.2978 131.496 51.2978 132.231C51.2978 132.991 51.4562 133.58 51.7728 133.998C52.1022 134.416 52.5518 134.625 53.1218 134.625ZM64.6168 127.424C66.0608 127.424 67.1248 127.772 67.8088 128.469C68.5055 129.153 68.8538 130.198 68.8538 131.604V135.575C68.8538 136.056 68.7082 136.436 68.4168 136.715C68.1382 136.981 67.7455 137.114 67.2388 137.114C66.7955 137.114 66.4282 136.987 66.1368 136.734C65.8582 136.481 65.7062 136.139 65.6808 135.708C65.5035 136.164 65.2058 136.519 64.7878 136.772C64.3698 137.025 63.8695 137.152 63.2868 137.152C62.6408 137.152 62.0582 137.025 61.5388 136.772C61.0195 136.506 60.6078 136.145 60.3038 135.689C60.0125 135.22 59.8668 134.695 59.8668 134.112C59.8668 133.441 60.0378 132.909 60.3798 132.516C60.7345 132.111 61.2918 131.819 62.0518 131.642C62.8118 131.465 63.8378 131.376 65.1298 131.376H65.6428V131.148C65.6428 130.705 65.5415 130.388 65.3388 130.198C65.1362 129.995 64.7942 129.894 64.3128 129.894C63.7935 129.894 63.0335 130.071 62.0328 130.426C61.7415 130.527 61.4945 130.578 61.2918 130.578C60.9752 130.578 60.7218 130.464 60.5318 130.236C60.3418 130.008 60.2468 129.71 60.2468 129.343C60.2468 129.064 60.3038 128.836 60.4178 128.659C60.5318 128.482 60.7155 128.323 60.9688 128.184C61.4122 127.956 61.9695 127.772 62.6408 127.633C63.3122 127.494 63.9708 127.424 64.6168 127.424ZM64.0848 134.891C64.5408 134.891 64.9145 134.733 65.2058 134.416C65.4972 134.087 65.6428 133.669 65.6428 133.162V132.934H65.3388C64.5282 132.934 63.9518 133.01 63.6098 133.162C63.2678 133.301 63.0968 133.542 63.0968 133.884C63.0968 134.175 63.1855 134.416 63.3628 134.606C63.5528 134.796 63.7935 134.891 64.0848 134.891ZM76.9432 127.424C77.7412 127.424 78.4506 127.633 79.0712 128.051C79.7046 128.456 80.1922 129.033 80.5342 129.78C80.8889 130.527 81.0662 131.382 81.0662 132.345C81.0662 133.308 80.8889 134.156 80.5342 134.891C80.1922 135.613 79.7109 136.17 79.0902 136.563C78.4696 136.956 77.7539 137.152 76.9432 137.152C76.3479 137.152 75.7969 137.032 75.2902 136.791C74.7962 136.55 74.4099 136.227 74.1312 135.822V139.052C74.1312 139.495 73.9792 139.85 73.6752 140.116C73.3712 140.382 72.9722 140.515 72.4782 140.515C71.9589 140.515 71.5409 140.369 71.2242 140.078C70.9076 139.799 70.7492 139.438 70.7492 138.995V129.02C70.7492 128.551 70.8949 128.178 71.1862 127.899C71.4902 127.608 71.8956 127.462 72.4022 127.462C72.8836 127.462 73.2699 127.589 73.5612 127.842C73.8652 128.095 74.0362 128.431 74.0742 128.849C74.3402 128.406 74.7266 128.057 75.2332 127.804C75.7526 127.551 76.3226 127.424 76.9432 127.424ZM75.9172 134.625C76.4999 134.625 76.9432 134.429 77.2472 134.036C77.5639 133.643 77.7222 133.08 77.7222 132.345C77.7222 131.572 77.5639 130.983 77.2472 130.578C76.9306 130.16 76.4809 129.951 75.8982 129.951C75.3156 129.951 74.8659 130.154 74.5492 130.559C74.2326 130.964 74.0742 131.547 74.0742 132.307C74.0742 133.054 74.2326 133.631 74.5492 134.036C74.8659 134.429 75.3219 134.625 75.9172 134.625ZM88.0419 134.701C88.8906 134.752 89.3149 135.132 89.3149 135.841C89.3149 136.284 89.1439 136.614 88.8019 136.829C88.4599 137.044 87.9722 137.133 87.3389 137.095L86.8069 137.057C85.6669 136.968 84.7992 136.626 84.2039 136.031C83.6212 135.423 83.3299 134.581 83.3299 133.504V130.141H82.7789C81.7656 130.141 81.2589 129.723 81.2589 128.887C81.2589 128.064 81.7656 127.652 82.7789 127.652H83.3299V126.417C83.3299 125.936 83.4819 125.556 83.7859 125.277C84.0899 124.986 84.5016 124.84 85.0209 124.84C85.5402 124.84 85.9519 124.986 86.2559 125.277C86.5599 125.556 86.7119 125.936 86.7119 126.417V127.652H87.7569C88.7702 127.652 89.2769 128.064 89.2769 128.887C89.2769 129.723 88.7702 130.141 87.7569 130.141H86.7119V133.789C86.7119 134.03 86.7816 134.232 86.9209 134.397C87.0729 134.562 87.2629 134.65 87.4909 134.663L88.0419 134.701ZM91.9041 137.114C91.4228 137.114 91.0174 136.987 90.6881 136.734C90.3714 136.468 90.2131 136.075 90.2131 135.556V129.02C90.2131 128.501 90.3714 128.114 90.6881 127.861C91.0174 127.595 91.4228 127.462 91.9041 127.462C92.3854 127.462 92.7844 127.595 93.1011 127.861C93.4304 128.114 93.5951 128.501 93.5951 129.02V135.556C93.5951 136.075 93.4304 136.468 93.1011 136.734C92.7844 136.987 92.3854 137.114 91.9041 137.114ZM91.9041 126.132C91.3341 126.132 90.8781 125.986 90.5361 125.695C90.2068 125.391 90.0421 124.992 90.0421 124.498C90.0421 124.004 90.2068 123.611 90.5361 123.32C90.8781 123.029 91.3341 122.883 91.9041 122.883C92.4614 122.883 92.9111 123.029 93.2531 123.32C93.5951 123.611 93.7661 124.004 93.7661 124.498C93.7661 124.992 93.5951 125.391 93.2531 125.695C92.9238 125.986 92.4741 126.132 91.9041 126.132ZM101.808 128.412C101.947 128.095 102.137 127.861 102.378 127.709C102.631 127.557 102.904 127.481 103.195 127.481C103.613 127.481 103.98 127.62 104.297 127.899C104.626 128.178 104.791 128.513 104.791 128.906C104.791 129.121 104.74 129.33 104.639 129.533L101.314 136.145C101.162 136.462 100.94 136.709 100.649 136.886C100.37 137.051 100.06 137.133 99.7178 137.133C99.3758 137.133 99.0592 137.051 98.7678 136.886C98.4765 136.709 98.2548 136.462 98.1028 136.145L94.7778 129.533C94.6765 129.305 94.6258 129.102 94.6258 128.925C94.6258 128.52 94.7968 128.178 95.1388 127.899C95.4935 127.608 95.8988 127.462 96.3548 127.462C96.6588 127.462 96.9375 127.544 97.1908 127.709C97.4568 127.861 97.6595 128.095 97.7988 128.412L99.8128 132.763L101.808 128.412ZM113.232 133.998C113.523 133.998 113.758 134.112 113.935 134.34C114.125 134.568 114.22 134.866 114.22 135.233C114.22 135.74 113.973 136.126 113.479 136.392C113.048 136.607 112.535 136.791 111.94 136.943C111.357 137.082 110.819 137.152 110.325 137.152C109.286 137.152 108.381 136.956 107.608 136.563C106.835 136.17 106.24 135.607 105.822 134.872C105.404 134.137 105.195 133.276 105.195 132.288C105.195 131.351 105.391 130.515 105.784 129.78C106.189 129.033 106.747 128.456 107.456 128.051C108.178 127.633 108.989 127.424 109.888 127.424C110.762 127.424 111.528 127.614 112.187 127.994C112.846 128.374 113.352 128.912 113.707 129.609C114.074 130.306 114.258 131.123 114.258 132.06C114.258 132.351 114.188 132.579 114.049 132.744C113.922 132.896 113.732 132.972 113.479 132.972H108.463C108.552 133.58 108.748 134.017 109.052 134.283C109.356 134.549 109.806 134.682 110.401 134.682C110.718 134.682 111.009 134.65 111.275 134.587C111.541 134.511 111.839 134.41 112.168 134.283C112.358 134.207 112.542 134.144 112.719 134.093C112.909 134.03 113.08 133.998 113.232 133.998ZM109.983 129.704C109.54 129.704 109.185 129.85 108.919 130.141C108.653 130.42 108.495 130.831 108.444 131.376H111.427C111.351 130.261 110.87 129.704 109.983 129.704ZM123.08 137C122.56 137 122.161 136.861 121.883 136.582C121.604 136.303 121.465 135.898 121.465 135.366V125.22C121.465 124.701 121.617 124.289 121.921 123.985C122.237 123.668 122.662 123.51 123.194 123.51C123.738 123.51 124.169 123.668 124.486 123.985C124.802 124.289 124.961 124.701 124.961 125.22V134.169H129.331C130.433 134.169 130.984 134.644 130.984 135.594C130.984 136.075 130.844 136.43 130.566 136.658C130.3 136.886 129.888 137 129.331 137H123.08ZM136.461 127.424C137.905 127.424 138.969 127.772 139.653 128.469C140.349 129.153 140.698 130.198 140.698 131.604V135.575C140.698 136.056 140.552 136.436 140.261 136.715C139.982 136.981 139.589 137.114 139.083 137.114C138.639 137.114 138.272 136.987 137.981 136.734C137.702 136.481 137.55 136.139 137.525 135.708C137.347 136.164 137.05 136.519 136.632 136.772C136.214 137.025 135.713 137.152 135.131 137.152C134.485 137.152 133.902 137.025 133.383 136.772C132.863 136.506 132.452 136.145 132.148 135.689C131.856 135.22 131.711 134.695 131.711 134.112C131.711 133.441 131.882 132.909 132.224 132.516C132.578 132.111 133.136 131.819 133.896 131.642C134.656 131.465 135.682 131.376 136.974 131.376H137.487V131.148C137.487 130.705 137.385 130.388 137.183 130.198C136.98 129.995 136.638 129.894 136.157 129.894C135.637 129.894 134.877 130.071 133.877 130.426C133.585 130.527 133.338 130.578 133.136 130.578C132.819 130.578 132.566 130.464 132.376 130.236C132.186 130.008 132.091 129.71 132.091 129.343C132.091 129.064 132.148 128.836 132.262 128.659C132.376 128.482 132.559 128.323 132.813 128.184C133.256 127.956 133.813 127.772 134.485 127.633C135.156 127.494 135.815 127.424 136.461 127.424ZM135.929 134.891C136.385 134.891 136.758 134.733 137.05 134.416C137.341 134.087 137.487 133.669 137.487 133.162V132.934H137.183C136.372 132.934 135.796 133.01 135.454 133.162C135.112 133.301 134.941 133.542 134.941 133.884C134.941 134.175 135.029 134.416 135.207 134.606C135.397 134.796 135.637 134.891 135.929 134.891ZM148.882 127.424C149.997 127.424 150.826 127.76 151.371 128.431C151.916 129.09 152.188 130.097 152.188 131.452V135.556C152.188 136.037 152.036 136.417 151.732 136.696C151.428 136.975 151.016 137.114 150.497 137.114C149.978 137.114 149.566 136.975 149.262 136.696C148.958 136.417 148.806 136.037 148.806 135.556V131.604C148.806 131.047 148.705 130.641 148.502 130.388C148.312 130.135 148.021 130.008 147.628 130.008C147.121 130.008 146.716 130.173 146.412 130.502C146.121 130.819 145.975 131.249 145.975 131.794V135.556C145.975 136.037 145.823 136.417 145.519 136.696C145.215 136.975 144.803 137.114 144.284 137.114C143.765 137.114 143.353 136.975 143.049 136.696C142.745 136.417 142.593 136.037 142.593 135.556V128.982C142.593 128.539 142.751 128.178 143.068 127.899C143.385 127.608 143.796 127.462 144.303 127.462C144.784 127.462 145.164 127.595 145.443 127.861C145.734 128.127 145.88 128.475 145.88 128.906C146.209 128.425 146.634 128.057 147.153 127.804C147.672 127.551 148.249 127.424 148.882 127.424ZM162.4 127.462C162.907 127.462 163.312 127.608 163.616 127.899C163.92 128.178 164.072 128.551 164.072 129.02V135.86C164.072 137.405 163.603 138.577 162.666 139.375C161.741 140.173 160.38 140.572 158.581 140.572C157.884 140.572 157.226 140.509 156.605 140.382C155.984 140.255 155.459 140.072 155.028 139.831C154.8 139.704 154.616 139.54 154.477 139.337C154.35 139.134 154.287 138.906 154.287 138.653C154.287 138.286 154.376 137.988 154.553 137.76C154.743 137.532 154.984 137.418 155.275 137.418C155.503 137.418 155.915 137.513 156.51 137.703C156.903 137.83 157.251 137.925 157.555 137.988C157.859 138.064 158.169 138.102 158.486 138.102C159.259 138.102 159.822 137.937 160.177 137.608C160.544 137.291 160.728 136.785 160.728 136.088V135.366C160.449 135.784 160.05 136.12 159.531 136.373C159.012 136.614 158.448 136.734 157.84 136.734C157.029 136.734 156.307 136.544 155.674 136.164C155.041 135.784 154.547 135.246 154.192 134.549C153.837 133.84 153.66 133.023 153.66 132.098C153.66 131.173 153.837 130.356 154.192 129.647C154.547 128.938 155.041 128.393 155.674 128.013C156.307 127.62 157.029 127.424 157.84 127.424C158.461 127.424 159.031 127.551 159.55 127.804C160.069 128.057 160.468 128.406 160.747 128.849C160.772 128.418 160.931 128.083 161.222 127.842C161.526 127.589 161.919 127.462 162.4 127.462ZM158.866 134.207C159.461 134.207 159.924 134.023 160.253 133.656C160.582 133.289 160.747 132.769 160.747 132.098C160.747 131.427 160.582 130.901 160.253 130.521C159.924 130.141 159.461 129.951 158.866 129.951C158.283 129.951 157.827 130.141 157.498 130.521C157.169 130.888 157.004 131.414 157.004 132.098C157.004 132.757 157.169 133.276 157.498 133.656C157.84 134.023 158.296 134.207 158.866 134.207ZM173.779 127.462C174.298 127.462 174.71 127.601 175.014 127.88C175.318 128.159 175.47 128.539 175.47 129.02V135.594C175.47 136.037 175.312 136.405 174.995 136.696C174.678 136.975 174.267 137.114 173.76 137.114C173.304 137.114 172.93 136.994 172.639 136.753C172.348 136.5 172.196 136.164 172.183 135.746C171.892 136.202 171.518 136.55 171.062 136.791C170.619 137.032 170.106 137.152 169.523 137.152C168.32 137.152 167.427 136.823 166.844 136.164C166.261 135.493 165.97 134.479 165.97 133.124V129.02C165.97 128.539 166.122 128.159 166.426 127.88C166.73 127.601 167.142 127.462 167.661 127.462C168.18 127.462 168.592 127.601 168.896 127.88C169.2 128.159 169.352 128.539 169.352 129.02V133.2C169.352 134.112 169.745 134.568 170.53 134.568C170.986 134.568 171.36 134.403 171.651 134.074C171.942 133.745 172.088 133.314 172.088 132.782V129.02C172.088 128.539 172.24 128.159 172.544 127.88C172.848 127.601 173.26 127.462 173.779 127.462ZM181.79 127.424C183.234 127.424 184.298 127.772 184.982 128.469C185.678 129.153 186.027 130.198 186.027 131.604V135.575C186.027 136.056 185.881 136.436 185.59 136.715C185.311 136.981 184.918 137.114 184.412 137.114C183.968 137.114 183.601 136.987 183.31 136.734C183.031 136.481 182.879 136.139 182.854 135.708C182.676 136.164 182.379 136.519 181.961 136.772C181.543 137.025 181.042 137.152 180.46 137.152C179.814 137.152 179.231 137.025 178.712 136.772C178.192 136.506 177.781 136.145 177.477 135.689C177.185 135.22 177.04 134.695 177.04 134.112C177.04 133.441 177.211 132.909 177.553 132.516C177.907 132.111 178.465 131.819 179.225 131.642C179.985 131.465 181.011 131.376 182.303 131.376H182.816V131.148C182.816 130.705 182.714 130.388 182.512 130.198C182.309 129.995 181.967 129.894 181.486 129.894C180.966 129.894 180.206 130.071 179.206 130.426C178.914 130.527 178.667 130.578 178.465 130.578C178.148 130.578 177.895 130.464 177.705 130.236C177.515 130.008 177.42 129.71 177.42 129.343C177.42 129.064 177.477 128.836 177.591 128.659C177.705 128.482 177.888 128.323 178.142 128.184C178.585 127.956 179.142 127.772 179.814 127.633C180.485 127.494 181.144 127.424 181.79 127.424ZM181.258 134.891C181.714 134.891 182.087 134.733 182.379 134.416C182.67 134.087 182.816 133.669 182.816 133.162V132.934H182.512C181.701 132.934 181.125 133.01 180.783 133.162C180.441 133.301 180.27 133.542 180.27 133.884C180.27 134.175 180.358 134.416 180.536 134.606C180.726 134.796 180.966 134.891 181.258 134.891ZM196.225 127.462C196.732 127.462 197.137 127.608 197.441 127.899C197.745 128.178 197.897 128.551 197.897 129.02V135.86C197.897 137.405 197.428 138.577 196.491 139.375C195.566 140.173 194.205 140.572 192.406 140.572C191.709 140.572 191.051 140.509 190.43 140.382C189.809 140.255 189.284 140.072 188.853 139.831C188.625 139.704 188.441 139.54 188.302 139.337C188.175 139.134 188.112 138.906 188.112 138.653C188.112 138.286 188.201 137.988 188.378 137.76C188.568 137.532 188.809 137.418 189.1 137.418C189.328 137.418 189.74 137.513 190.335 137.703C190.728 137.83 191.076 137.925 191.38 137.988C191.684 138.064 191.994 138.102 192.311 138.102C193.084 138.102 193.647 137.937 194.002 137.608C194.369 137.291 194.553 136.785 194.553 136.088V135.366C194.274 135.784 193.875 136.12 193.356 136.373C192.837 136.614 192.273 136.734 191.665 136.734C190.854 136.734 190.132 136.544 189.499 136.164C188.866 135.784 188.372 135.246 188.017 134.549C187.662 133.84 187.485 133.023 187.485 132.098C187.485 131.173 187.662 130.356 188.017 129.647C188.372 128.938 188.866 128.393 189.499 128.013C190.132 127.62 190.854 127.424 191.665 127.424C192.286 127.424 192.856 127.551 193.375 127.804C193.894 128.057 194.293 128.406 194.572 128.849C194.597 128.418 194.756 128.083 195.047 127.842C195.351 127.589 195.744 127.462 196.225 127.462ZM192.691 134.207C193.286 134.207 193.749 134.023 194.078 133.656C194.407 133.289 194.572 132.769 194.572 132.098C194.572 131.427 194.407 130.901 194.078 130.521C193.749 130.141 193.286 129.951 192.691 129.951C192.108 129.951 191.652 130.141 191.323 130.521C190.994 130.888 190.829 131.414 190.829 132.098C190.829 132.757 190.994 133.276 191.323 133.656C191.665 134.023 192.121 134.207 192.691 134.207ZM207.471 133.998C207.763 133.998 207.997 134.112 208.174 134.34C208.364 134.568 208.459 134.866 208.459 135.233C208.459 135.74 208.212 136.126 207.718 136.392C207.288 136.607 206.775 136.791 206.179 136.943C205.597 137.082 205.058 137.152 204.564 137.152C203.526 137.152 202.62 136.956 201.847 136.563C201.075 136.17 200.479 135.607 200.061 134.872C199.643 134.137 199.434 133.276 199.434 132.288C199.434 131.351 199.631 130.515 200.023 129.78C200.429 129.033 200.986 128.456 201.695 128.051C202.417 127.633 203.228 127.424 204.127 127.424C205.001 127.424 205.768 127.614 206.426 127.994C207.085 128.374 207.592 128.912 207.946 129.609C208.314 130.306 208.497 131.123 208.497 132.06C208.497 132.351 208.428 132.579 208.288 132.744C208.162 132.896 207.972 132.972 207.718 132.972H202.702C202.791 133.58 202.987 134.017 203.291 134.283C203.595 134.549 204.045 134.682 204.64 134.682C204.957 134.682 205.248 134.65 205.514 134.587C205.78 134.511 206.078 134.41 206.407 134.283C206.597 134.207 206.781 134.144 206.958 134.093C207.148 134.03 207.319 133.998 207.471 133.998ZM204.222 129.704C203.779 129.704 203.424 129.85 203.158 130.141C202.892 130.42 202.734 130.831 202.683 131.376H205.666C205.59 130.261 205.109 129.704 204.222 129.704ZM72.0478 159.853C72.1618 160.094 72.2188 160.328 72.2188 160.556C72.2188 160.974 72.0478 161.329 71.7058 161.62C71.3765 161.911 70.9965 162.057 70.5658 162.057C70.2745 162.057 70.0085 161.981 69.7678 161.829C69.5272 161.677 69.3372 161.449 69.1978 161.145L68.3428 159.226H62.1868L61.3128 161.145C61.1735 161.449 60.9772 161.677 60.7238 161.829C60.4832 161.981 60.2172 162.057 59.9258 162.057C59.4952 162.057 59.1025 161.911 58.7478 161.62C58.4058 161.329 58.2348 160.974 58.2348 160.556C58.2348 160.328 58.2918 160.094 58.4058 159.853L63.4218 149.555C63.5865 149.213 63.8272 148.953 64.1438 148.776C64.4732 148.586 64.8342 148.491 65.2268 148.491C65.6068 148.491 65.9615 148.586 66.2908 148.776C66.6202 148.953 66.8672 149.213 67.0318 149.555L72.0478 159.853ZM63.3648 156.604H67.1648L65.2648 152.367L63.3648 156.604ZM79.3769 152.462C79.8076 152.424 80.1496 152.525 80.4029 152.766C80.6563 152.994 80.7829 153.336 80.7829 153.792C80.7829 154.299 80.6626 154.666 80.4219 154.894C80.1939 155.122 79.7759 155.268 79.1679 155.331L78.5979 155.388C77.9646 155.464 77.5086 155.667 77.2299 155.996C76.9639 156.313 76.8309 156.75 76.8309 157.307V160.556C76.8309 161.075 76.6663 161.468 76.3369 161.734C76.0203 161.987 75.6213 162.114 75.1399 162.114C74.6586 162.114 74.2533 161.987 73.9239 161.734C73.6073 161.468 73.4489 161.075 73.4489 160.556V153.982C73.4489 153.501 73.6073 153.127 73.9239 152.861C74.2533 152.595 74.6459 152.462 75.1019 152.462C75.5706 152.462 75.9443 152.589 76.2229 152.842C76.5143 153.095 76.6599 153.45 76.6599 153.906V154.267C76.8626 153.71 77.1919 153.279 77.6479 152.975C78.1166 152.671 78.6043 152.506 79.1109 152.481L79.3769 152.462ZM87.9399 159.701C88.7885 159.752 89.2129 160.132 89.2129 160.841C89.2129 161.284 89.0419 161.614 88.6999 161.829C88.3579 162.044 87.8702 162.133 87.2369 162.095L86.7049 162.057C85.5649 161.968 84.6972 161.626 84.1019 161.031C83.5192 160.423 83.2279 159.581 83.2279 158.504V155.141H82.6769C81.6635 155.141 81.1569 154.723 81.1569 153.887C81.1569 153.064 81.6635 152.652 82.6769 152.652H83.2279V151.417C83.2279 150.936 83.3799 150.556 83.6839 150.277C83.9879 149.986 84.3995 149.84 84.9189 149.84C85.4382 149.84 85.8499 149.986 86.1539 150.277C86.4579 150.556 86.6099 150.936 86.6099 151.417V152.652H87.6549C88.6682 152.652 89.1749 153.064 89.1749 153.887C89.1749 154.723 88.6682 155.141 87.6549 155.141H86.6099V158.789C86.6099 159.03 86.6795 159.232 86.8189 159.397C86.9709 159.562 87.1609 159.65 87.3889 159.663L87.9399 159.701ZM93.797 162.152C92.9484 162.152 92.2327 162.089 91.65 161.962C91.0674 161.835 90.5544 161.633 90.111 161.354C89.9337 161.265 89.7944 161.113 89.693 160.898C89.5917 160.683 89.541 160.442 89.541 160.176C89.541 159.834 89.6297 159.555 89.807 159.34C89.997 159.112 90.2314 158.998 90.51 158.998C90.7 158.998 90.8774 159.023 91.042 159.074C91.2067 159.112 91.4094 159.182 91.65 159.283C92.0554 159.422 92.41 159.53 92.714 159.606C93.0307 159.682 93.4297 159.72 93.911 159.72C94.253 159.72 94.519 159.676 94.709 159.587C94.9117 159.486 95.013 159.346 95.013 159.169C95.013 159.03 94.9624 158.922 94.861 158.846C94.7724 158.77 94.595 158.7 94.329 158.637C94.063 158.561 93.6134 158.46 92.98 158.333C91.8527 158.118 91.0357 157.795 90.529 157.364C90.035 156.921 89.788 156.3 89.788 155.502C89.788 154.919 89.9654 154.394 90.32 153.925C90.6874 153.456 91.1877 153.089 91.821 152.823C92.4544 152.557 93.1637 152.424 93.949 152.424C94.519 152.424 95.07 152.494 95.602 152.633C96.1467 152.772 96.628 152.969 97.046 153.222C97.4387 153.45 97.635 153.817 97.635 154.324C97.635 154.679 97.54 154.976 97.35 155.217C97.16 155.458 96.9257 155.578 96.647 155.578C96.3177 155.578 95.925 155.47 95.469 155.255C95.165 155.116 94.8927 155.014 94.652 154.951C94.424 154.875 94.1517 154.837 93.835 154.837C93.5184 154.837 93.2714 154.888 93.094 154.989C92.9167 155.078 92.828 155.211 92.828 155.388C92.828 155.591 92.9484 155.749 93.189 155.863C93.4424 155.977 93.9364 156.104 94.671 156.243C95.8997 156.458 96.7674 156.788 97.274 157.231C97.7807 157.662 98.034 158.289 98.034 159.112C98.034 160.037 97.6477 160.778 96.875 161.335C96.115 161.88 95.089 162.152 93.797 162.152ZM106.819 162.114C106.287 162.114 105.863 161.962 105.546 161.658C105.242 161.341 105.09 160.917 105.09 160.385V150.22C105.09 149.701 105.229 149.302 105.508 149.023C105.787 148.744 106.186 148.605 106.705 148.605H111.569C113.051 148.605 114.204 148.985 115.027 149.745C115.85 150.492 116.262 151.537 116.262 152.88C116.262 154.21 115.844 155.255 115.008 156.015C114.185 156.775 113.038 157.155 111.569 157.155H108.586V160.385C108.586 160.917 108.428 161.341 108.111 161.658C107.794 161.962 107.364 162.114 106.819 162.114ZM111.094 154.533C111.74 154.533 112.215 154.4 112.519 154.134C112.836 153.868 112.994 153.456 112.994 152.899C112.994 151.797 112.361 151.246 111.094 151.246H108.586V154.533H111.094ZM119.411 162.114C118.93 162.114 118.525 161.987 118.195 161.734C117.879 161.468 117.72 161.075 117.72 160.556V150.087C117.72 149.568 117.879 149.175 118.195 148.909C118.525 148.643 118.93 148.51 119.411 148.51C119.893 148.51 120.292 148.643 120.608 148.909C120.938 149.175 121.102 149.568 121.102 150.087V160.556C121.102 161.075 120.938 161.468 120.608 161.734C120.292 161.987 119.893 162.114 119.411 162.114ZM127.415 152.424C128.859 152.424 129.923 152.772 130.607 153.469C131.304 154.153 131.652 155.198 131.652 156.604V160.575C131.652 161.056 131.507 161.436 131.215 161.715C130.937 161.981 130.544 162.114 130.037 162.114C129.594 162.114 129.227 161.987 128.935 161.734C128.657 161.481 128.505 161.139 128.479 160.708C128.302 161.164 128.004 161.519 127.586 161.772C127.168 162.025 126.668 162.152 126.085 162.152C125.439 162.152 124.857 162.025 124.337 161.772C123.818 161.506 123.406 161.145 123.102 160.689C122.811 160.22 122.665 159.695 122.665 159.112C122.665 158.441 122.836 157.909 123.178 157.516C123.533 157.111 124.09 156.819 124.85 156.642C125.61 156.465 126.636 156.376 127.928 156.376H128.441V156.148C128.441 155.705 128.34 155.388 128.137 155.198C127.935 154.995 127.593 154.894 127.111 154.894C126.592 154.894 125.832 155.071 124.831 155.426C124.54 155.527 124.293 155.578 124.09 155.578C123.774 155.578 123.52 155.464 123.33 155.236C123.14 155.008 123.045 154.71 123.045 154.343C123.045 154.064 123.102 153.836 123.216 153.659C123.33 153.482 123.514 153.323 123.767 153.184C124.211 152.956 124.768 152.772 125.439 152.633C126.111 152.494 126.769 152.424 127.415 152.424ZM126.883 159.891C127.339 159.891 127.713 159.733 128.004 159.416C128.296 159.087 128.441 158.669 128.441 158.162V157.934H128.137C127.327 157.934 126.75 158.01 126.408 158.162C126.066 158.301 125.895 158.542 125.895 158.884C125.895 159.175 125.984 159.416 126.161 159.606C126.351 159.796 126.592 159.891 126.883 159.891ZM139.077 159.701C139.925 159.752 140.35 160.132 140.35 160.841C140.35 161.284 140.179 161.614 139.837 161.829C139.495 162.044 139.007 162.133 138.374 162.095L137.842 162.057C136.702 161.968 135.834 161.626 135.239 161.031C134.656 160.423 134.365 159.581 134.365 158.504V155.141H133.814C132.8 155.141 132.294 154.723 132.294 153.887C132.294 153.064 132.8 152.652 133.814 152.652H134.365V151.417C134.365 150.936 134.517 150.556 134.821 150.277C135.125 149.986 135.536 149.84 136.056 149.84C136.575 149.84 136.987 149.986 137.291 150.277C137.595 150.556 137.747 150.936 137.747 151.417V152.652H138.792C139.805 152.652 140.312 153.064 140.312 153.887C140.312 154.723 139.805 155.141 138.792 155.141H137.747V158.789C137.747 159.03 137.816 159.232 137.956 159.397C138.108 159.562 138.298 159.65 138.526 159.663L139.077 159.701ZM146.626 151.018C146.17 151.056 145.847 151.202 145.657 151.455C145.48 151.696 145.391 152.019 145.391 152.424V152.652H146.436C147.449 152.652 147.956 153.064 147.956 153.887C147.956 154.723 147.449 155.141 146.436 155.141H145.391V160.518C145.391 161.037 145.226 161.43 144.897 161.696C144.58 161.962 144.181 162.095 143.7 162.095C143.219 162.095 142.813 161.962 142.484 161.696C142.167 161.43 142.009 161.037 142.009 160.518V155.141H141.458C140.445 155.141 139.938 154.723 139.938 153.887C139.938 153.064 140.445 152.652 141.458 152.652H142.009C142.034 151.436 142.395 150.486 143.092 149.802C143.801 149.105 144.758 148.713 145.961 148.624L146.455 148.586C146.556 148.573 146.689 148.567 146.854 148.567C147.399 148.567 147.791 148.668 148.032 148.871C148.273 149.074 148.393 149.365 148.393 149.745C148.393 150.125 148.279 150.423 148.051 150.638C147.823 150.841 147.513 150.955 147.12 150.98L146.626 151.018ZM153.289 162.152C152.263 162.152 151.357 161.956 150.572 161.563C149.799 161.158 149.198 160.588 148.767 159.853C148.349 159.118 148.14 158.257 148.14 157.269C148.14 156.281 148.349 155.426 148.767 154.704C149.198 153.969 149.799 153.406 150.572 153.013C151.345 152.62 152.25 152.424 153.289 152.424C154.328 152.424 155.233 152.62 156.006 153.013C156.779 153.406 157.374 153.969 157.792 154.704C158.223 155.426 158.438 156.281 158.438 157.269C158.438 158.257 158.223 159.118 157.792 159.853C157.374 160.588 156.779 161.158 156.006 161.563C155.233 161.956 154.328 162.152 153.289 162.152ZM153.289 159.625C154.492 159.625 155.094 158.84 155.094 157.269C155.094 155.698 154.492 154.913 153.289 154.913C152.086 154.913 151.484 155.698 151.484 157.269C151.484 158.84 152.086 159.625 153.289 159.625ZM165.897 152.462C166.328 152.424 166.67 152.525 166.923 152.766C167.177 152.994 167.303 153.336 167.303 153.792C167.303 154.299 167.183 154.666 166.942 154.894C166.714 155.122 166.296 155.268 165.688 155.331L165.118 155.388C164.485 155.464 164.029 155.667 163.75 155.996C163.484 156.313 163.351 156.75 163.351 157.307V160.556C163.351 161.075 163.187 161.468 162.857 161.734C162.541 161.987 162.142 162.114 161.66 162.114C161.179 162.114 160.774 161.987 160.444 161.734C160.128 161.468 159.969 161.075 159.969 160.556V153.982C159.969 153.501 160.128 153.127 160.444 152.861C160.774 152.595 161.166 152.462 161.622 152.462C162.091 152.462 162.465 152.589 162.743 152.842C163.035 153.095 163.18 153.45 163.18 153.906V154.267C163.383 153.71 163.712 153.279 164.168 152.975C164.637 152.671 165.125 152.506 165.631 152.481L165.897 152.462ZM179.861 152.424C180.887 152.424 181.679 152.734 182.236 153.355C182.794 153.963 183.072 154.995 183.072 156.452V160.556C183.072 161.075 182.908 161.468 182.578 161.734C182.262 161.987 181.863 162.114 181.381 162.114C180.9 162.114 180.495 161.987 180.165 161.734C179.849 161.468 179.69 161.075 179.69 160.556V156.376C179.69 155.869 179.602 155.515 179.424 155.312C179.247 155.109 178.987 155.008 178.645 155.008C178.202 155.008 177.847 155.166 177.581 155.483C177.315 155.8 177.182 156.237 177.182 156.794V160.556C177.182 161.075 177.024 161.468 176.707 161.734C176.391 161.987 175.985 162.114 175.491 162.114C175.01 162.114 174.605 161.987 174.275 161.734C173.959 161.468 173.8 161.075 173.8 160.556V156.376C173.8 155.869 173.712 155.515 173.534 155.312C173.357 155.109 173.097 155.008 172.755 155.008C172.312 155.008 171.957 155.166 171.691 155.483C171.438 155.8 171.311 156.237 171.311 156.794V160.556C171.311 161.075 171.147 161.468 170.817 161.734C170.501 161.987 170.102 162.114 169.62 162.114C169.139 162.114 168.734 161.987 168.404 161.734C168.088 161.468 167.929 161.075 167.929 160.556V153.982C167.929 153.488 168.094 153.114 168.423 152.861C168.765 152.595 169.171 152.462 169.639 152.462C170.083 152.462 170.45 152.582 170.741 152.823C171.045 153.051 171.204 153.387 171.216 153.83C171.837 152.893 172.787 152.424 174.066 152.424C175.422 152.424 176.327 152.975 176.783 154.077C177.1 153.57 177.524 153.171 178.056 152.88C178.588 152.576 179.19 152.424 179.861 152.424Z"
              fill="#004189"/>
        <path d="M88.4166 83.1289H90.4729V69.9894H88.4166V68.6411H94.0956V69.9894H92.0367V83.0818H98.3203V80.456H99.7511V84.43H88.4166V83.1289Z"
              fill="#004189"/>
        <path d="M101.473 83.1737H103.373V74.3905H101.361V73.1339H104.892V83.1737H106.795V84.4303H101.473V83.1737Z"
              fill="#004189"/>
        <path d="M116.219 78.5695C116.219 75.2682 114.653 74.2341 112.664 74.2341C110.472 74.2341 109.198 75.852 109.198 78.5459C109.198 81.2633 110.652 82.9938 112.865 82.9938C114.653 82.9938 116.219 81.8943 116.219 78.5695ZM112.26 87.8004C114.452 87.8004 116.196 86.7663 116.196 84.2295V83.1064C116.196 82.6796 116.263 82.2974 116.263 82.2974H116.219C115.549 83.554 114.387 84.363 112.641 84.363C109.623 84.363 107.632 81.9597 107.632 78.5668C107.632 75.174 109.487 72.8623 112.505 72.8623C114.092 72.8623 115.68 73.4697 116.284 74.8598H116.328C116.328 74.8598 116.284 74.7027 116.284 74.365C116.284 73.5351 116.62 73.1293 117.582 73.1293H119.594V74.3886H118.208C117.895 74.3886 117.715 74.5457 117.715 74.8598V84.1588C117.715 87.7532 115.078 89.146 112.305 89.146C111.03 89.146 109.732 88.8083 108.638 88.248L109.219 87.0124C109.221 87.015 110.608 87.8004 112.26 87.8004Z"
              fill="#004189"/>
        <path d="M120.893 83.1734H122.793V69.8977H120.781V68.6411H124.315V74.8404C124.315 75.3562 124.226 75.762 124.226 75.762H124.27C124.719 74.7069 126.238 72.8639 128.787 72.8639C131.56 72.8639 132.542 74.4582 132.542 77.2437V83.1734H134.466V84.43H131.023V77.6469C131.023 75.8719 130.755 74.2985 128.586 74.2985C126.17 74.2985 124.315 76.3196 124.315 79.0161V83.1708H126.215V84.4274H120.893V83.1734Z"
              fill="#004189"/>
        <path d="M136.376 74.3915H134.364V73.1323H136.399V70.0117H137.898V73.1323H140.739V74.3915H137.898V80.185C137.898 82.837 139.574 83.1957 140.447 83.1957C140.76 83.1957 140.96 83.1512 140.96 83.1512V84.4759C140.96 84.4759 140.692 84.5204 140.311 84.5204C139.013 84.5204 136.376 84.0936 136.376 80.3212V74.3915Z"
              fill="#004189"/>
        <path d="M144.359 80.0298V81.1765C144.359 82.5012 145.99 83.2656 147.802 83.2656C149.837 83.2656 151.312 82.2551 151.312 80.4121C151.312 78.3439 149.412 77.6266 147.377 76.8621C145.321 76.0767 143.173 75.2442 143.173 72.4823C143.173 69.7203 145.386 68.3721 147.958 68.3721C150.194 68.3721 152.498 69.2491 152.498 70.8434V72.5268H150.999V71.3592C150.999 70.3486 149.368 69.8093 147.958 69.8093C146.17 69.8093 144.784 70.6863 144.784 72.3697C144.784 74.2782 146.483 74.8856 148.383 75.6264C150.663 76.4799 152.923 77.3569 152.923 80.2524C152.923 83.0379 150.71 84.7003 147.802 84.7003C145.542 84.7003 142.86 83.6897 142.86 81.5325V80.0272H144.359V80.0298Z"
              fill="#004189"/>
        <path d="M158.748 83.4441C161.007 83.4441 162.282 81.1743 162.282 79.2004V78.6611H161.633C160.716 78.6611 156.335 78.5721 156.335 81.1769C156.332 82.3419 157.182 83.4441 158.748 83.4441ZM161.542 77.5144H162.279V77.0432C162.279 74.9305 161.138 74.1896 159.574 74.1896C157.674 74.1896 156.308 75.2892 156.308 75.2892L155.592 74.1425C155.592 74.1425 157.111 72.8623 159.663 72.8623C162.391 72.8623 163.799 74.3231 163.799 77.106V82.677C163.799 83.0147 163.979 83.1718 164.291 83.1718H165.521V84.4284H163.689C162.728 84.4284 162.347 84.0017 162.347 83.1928V82.9912C162.347 82.4519 162.415 82.1142 162.415 82.1142H162.371C162.371 82.1142 161.409 84.6981 158.524 84.6981C156.689 84.6981 154.768 83.6431 154.768 81.3288C154.766 77.6715 159.642 77.5144 161.542 77.5144Z"
              fill="#004189"/>
        <path d="M167.153 83.1737H169.056V74.3905H167.041V73.1339H170.575V83.1737H172.475V84.4303H167.153V83.1737Z"
              fill="#004189"/>
        <path d="M175.024 69.8977H173.033V68.6411H176.543V81.4901C176.543 82.4116 176.788 83.1734 177.818 83.1734C178.222 83.1734 178.443 83.1289 178.443 83.1289V84.4326C178.443 84.4326 178.018 84.5007 177.57 84.5007C176.095 84.5007 175.021 83.7598 175.021 81.6026V69.8977H175.024Z"
              fill="#004189"/>
        <path d="M104.969 69.707C104.969 70.4923 104.578 70.8824 103.798 70.8824C103.019 70.8824 102.628 70.4897 102.628 69.707C102.628 68.9216 103.019 68.5315 103.798 68.5315C104.578 68.5315 104.969 68.9242 104.969 69.707Z"
              fill="#004189"/>
        <path d="M170.372 69.707C170.372 70.4923 169.981 70.8824 169.202 70.8824C168.42 70.8824 168.031 70.4897 168.031 69.707C168.031 68.9216 168.422 68.5315 169.202 68.5315C169.981 68.5315 170.372 68.9242 170.372 69.707Z"
              fill="#004189"/>
        <path d="M79.7141 65.5303C79.8141 65.8548 79.9115 66.1818 80.0062 66.5168C82.1855 74.2505 81.4696 81.4118 77.9401 87.2278C77.7848 87.481 77.5322 87.6604 77.24 87.7158C77.1742 87.729 77.1058 87.7343 77.04 87.7343C76.8136 87.7343 76.5926 87.663 76.4109 87.5259C76.3294 87.4652 68.1518 81.4302 58.4004 79.961C57.9845 79.8977 57.645 79.5918 57.5371 79.1829C57.4318 78.7741 57.5766 78.3415 57.9108 78.083C58.6478 77.508 59.3663 76.8987 60.0611 76.2604C59.7295 76.1971 59.3979 76.1417 59.061 76.0916C58.6451 76.0283 58.3056 75.7223 58.1977 75.3135C58.0924 74.9046 58.2372 74.472 58.5714 74.2136C62.8168 70.9059 66.2936 66.3032 68.7493 62.4337C61.5614 63.3437 56 69.4921 56 76.9435C56 85.0201 62.5326 91.5668 70.5917 91.5668C78.6508 91.5668 85.1833 85.0201 85.1833 76.9435C85.1833 72.325 83.0488 68.2102 79.7141 65.5303Z"
              fill="#004189"/>
        <path d="M61.7098 74.7188C68.1133 76.1718 73.3752 79.3863 75.4706 80.7998C80.1149 71.8813 75.898 61.8949 73.8626 58C72.1242 61.4862 67.8735 69.1652 61.7098 74.7188Z"
              fill="white"/>
        <path d="M90.6359 95.9511L89.7059 94.3194H89.4448V95.9511H88.3556V91.6287H90.1837C90.5361 91.6287 90.8355 91.6882 91.0818 91.8072C91.3323 91.9263 91.5191 92.0905 91.6423 92.2998C91.7654 92.5051 91.827 92.735 91.827 92.9895C91.827 93.2768 91.7421 93.5334 91.5722 93.7591C91.4066 93.9849 91.1603 94.145 90.8334 94.2394L91.8652 95.9511H90.6359ZM89.4448 93.5744H90.12C90.3195 93.5744 90.4682 93.5272 90.5658 93.4328C90.6677 93.3384 90.7187 93.205 90.7187 93.0326C90.7187 92.8684 90.6677 92.7391 90.5658 92.6446C90.4682 92.5502 90.3195 92.503 90.12 92.503H89.4448V93.5744Z"
              fill="white"/>
        <path d="M93.7273 92.4722V93.3466H95.186V94.1594H93.7273V95.1076H95.377V95.9511H92.6381V91.6287H95.377V92.4722H93.7273Z"
              fill="white"/>
        <path d="M98.9951 95.1876H97.3262L97.0587 95.9511H95.9186L97.5364 91.6287H98.7976L100.415 95.9511H99.2626L98.9951 95.1876ZM98.7148 94.3749L98.1606 92.7924L97.6129 94.3749H98.7148Z"
              fill="white"/>
        <path d="M102.71 91.6287C103.182 91.6287 103.594 91.719 103.946 91.8996C104.299 92.0802 104.57 92.3347 104.761 92.6631C104.957 92.9874 105.054 93.363 105.054 93.7899C105.054 94.2127 104.957 94.5883 104.761 94.9167C104.57 95.2451 104.296 95.4996 103.94 95.6802C103.587 95.8608 103.178 95.9511 102.71 95.9511H101.035V91.6287H102.71ZM102.64 95.0399C103.052 95.0399 103.373 94.9311 103.602 94.7135C103.832 94.496 103.946 94.1881 103.946 93.7899C103.946 93.3917 103.832 93.0818 103.602 92.8602C103.373 92.6385 103.052 92.5277 102.64 92.5277H102.124V95.0399H102.64Z"
              fill="white"/>
        <path d="M106.3 96.0004C106.109 96.0004 105.952 95.947 105.829 95.8403C105.71 95.7295 105.65 95.594 105.65 95.4339C105.65 95.2697 105.71 95.1322 105.829 95.0214C105.952 94.9106 106.109 94.8551 106.3 94.8551C106.487 94.8551 106.64 94.9106 106.759 95.0214C106.882 95.1322 106.943 95.2697 106.943 95.4339C106.943 95.594 106.882 95.7295 106.759 95.8403C106.64 95.947 106.487 96.0004 106.3 96.0004Z"
              fill="white"/>
        <path d="M115.346 91.6287L114.18 95.9511H112.862L112.148 93.1064L111.409 95.9511H110.091L108.957 91.6287H110.123L110.766 94.7751L111.562 91.6287H112.76L113.524 94.7751L114.174 91.6287H115.346Z"
              fill="white"/>
        <path d="M118.3 95.9511L117.37 94.3194H117.109V95.9511H116.019V91.6287H117.847C118.2 91.6287 118.499 91.6882 118.746 91.8072C118.996 91.9263 119.183 92.0905 119.306 92.2998C119.429 92.5051 119.491 92.735 119.491 92.9895C119.491 93.2768 119.406 93.5334 119.236 93.7591C119.07 93.9849 118.824 94.145 118.497 94.2394L119.529 95.9511H118.3ZM117.109 93.5744H117.784C117.983 93.5744 118.132 93.5272 118.23 93.4328C118.332 93.3384 118.383 93.205 118.383 93.0326C118.383 92.8684 118.332 92.7391 118.23 92.6446C118.132 92.5502 117.983 92.503 117.784 92.503H117.109V93.5744Z"
              fill="white"/>
        <path d="M121.391 91.6287V95.9511H120.302V91.6287H121.391Z" fill="white"/>
        <path d="M125.525 91.6287V92.4722H124.34V95.9511H123.251V92.4722H122.066V91.6287H125.525Z" fill="white"/>
        <path d="M127.288 92.4722V93.3466H128.746V94.1594H127.288V95.1076H128.937V95.9511H126.199V91.6287H128.937V92.4722H127.288Z"
              fill="white"/>
        <path d="M130.282 96.0004C130.09 96.0004 129.933 95.947 129.81 95.8403C129.691 95.7295 129.632 95.594 129.632 95.4339C129.632 95.2697 129.691 95.1322 129.81 95.0214C129.933 94.9106 130.09 94.8551 130.282 94.8551C130.468 94.8551 130.621 94.9106 130.74 95.0214C130.863 95.1322 130.925 95.2697 130.925 95.4339C130.925 95.594 130.863 95.7295 130.74 95.8403C130.621 95.947 130.468 96.0004 130.282 96.0004Z"
              fill="white"/>
        <path d="M134.263 95.1384H135.69V95.9511H133.174V91.6287H134.263V95.1384Z" fill="white"/>
        <path d="M137.426 92.4722V93.3466H138.885V94.1594H137.426V95.1076H139.076V95.9511H136.337V91.6287H139.076V92.4722H137.426Z"
              fill="white"/>
        <path d="M142.694 95.1876H141.025L140.758 95.9511H139.618L141.235 91.6287H142.497L144.114 95.9511H142.962L142.694 95.1876ZM142.414 94.3749L141.86 92.7924L141.312 94.3749H142.414Z"
              fill="white"/>
        <path d="M147.015 95.9511L146.085 94.3194H145.823V95.9511H144.734V91.6287H146.562C146.915 91.6287 147.214 91.6882 147.46 91.8072C147.711 91.9263 147.898 92.0905 148.021 92.2998C148.144 92.5051 148.206 92.735 148.206 92.9895C148.206 93.2768 148.121 93.5334 147.951 93.7591C147.785 93.9849 147.539 94.145 147.212 94.2394L148.244 95.9511H147.015ZM145.823 93.5744H146.499C146.698 93.5744 146.847 93.5272 146.944 93.4328C147.046 93.3384 147.097 93.205 147.097 93.0326C147.097 92.8684 147.046 92.7391 146.944 92.6446C146.847 92.5502 146.698 92.503 146.499 92.503H145.823V93.5744Z"
              fill="white"/>
        <path d="M153.017 95.9511H151.928L150.106 93.285V95.9511H149.017V91.6287H150.106L151.928 94.3071V91.6287H153.017V95.9511Z"
              fill="white"/>
        <path d="M154.443 96.0004C154.252 96.0004 154.095 95.947 153.972 95.8403C153.853 95.7295 153.794 95.594 153.794 95.4339C153.794 95.2697 153.853 95.1322 153.972 95.0214C154.095 94.9106 154.252 94.8551 154.443 94.8551C154.63 94.8551 154.783 94.9106 154.902 95.0214C155.025 95.1322 155.087 95.2697 155.087 95.4339C155.087 95.594 155.025 95.7295 154.902 95.8403C154.783 95.947 154.63 96.0004 154.443 96.0004Z"
              fill="white"/>
        <path d="M160.304 92.9956C160.224 92.8519 160.107 92.7432 159.954 92.6693C159.805 92.5913 159.629 92.5523 159.425 92.5523C159.073 92.5523 158.79 92.6652 158.578 92.8909C158.366 93.1126 158.26 93.4102 158.26 93.7838C158.26 94.1819 158.37 94.4939 158.591 94.7197C158.816 94.9413 159.124 95.0522 159.514 95.0522C159.782 95.0522 160.007 94.9865 160.19 94.8551C160.376 94.7238 160.512 94.535 160.597 94.2887H159.215V93.5128H161.585V94.4919C161.504 94.7546 161.366 94.9988 161.171 95.2246C160.979 95.4503 160.735 95.633 160.438 95.7726C160.141 95.9121 159.805 95.9819 159.432 95.9819C158.99 95.9819 158.595 95.8896 158.247 95.7048C157.903 95.516 157.633 95.2554 157.438 94.9229C157.247 94.5904 157.151 94.2107 157.151 93.7838C157.151 93.3568 157.247 92.9771 157.438 92.6446C157.633 92.308 157.903 92.0474 158.247 91.8627C158.591 91.6738 158.984 91.5794 159.425 91.5794C159.96 91.5794 160.41 91.7046 160.776 91.955C161.145 92.2054 161.389 92.5523 161.508 92.9956H160.304Z"
              fill="white"/>
        <path d="M164.596 95.9511L163.666 94.3194H163.404V95.9511H162.315V91.6287H164.143C164.496 91.6287 164.795 91.6882 165.041 91.8072C165.292 91.9263 165.479 92.0905 165.602 92.2998C165.725 92.5051 165.787 92.735 165.787 92.9895C165.787 93.2768 165.702 93.5334 165.532 93.7591C165.366 93.9849 165.12 94.145 164.793 94.2394L165.825 95.9511H164.596ZM163.404 93.5744H164.08C164.279 93.5744 164.428 93.5272 164.525 93.4328C164.627 93.3384 164.678 93.205 164.678 93.0326C164.678 92.8684 164.627 92.7391 164.525 92.6446C164.428 92.5502 164.279 92.503 164.08 92.503H163.404V93.5744Z"
              fill="white"/>
        <path d="M168.712 95.9942C168.292 95.9942 167.906 95.8998 167.553 95.711C167.205 95.5222 166.927 95.2595 166.719 94.9229C166.515 94.5822 166.413 94.2004 166.413 93.7776C166.413 93.3548 166.515 92.9751 166.719 92.6385C166.927 92.3019 167.205 92.0392 167.553 91.8503C167.906 91.6615 168.292 91.5671 168.712 91.5671C169.133 91.5671 169.517 91.6615 169.865 91.8503C170.218 92.0392 170.494 92.3019 170.693 92.6385C170.897 92.9751 170.999 93.3548 170.999 93.7776C170.999 94.2004 170.897 94.5822 170.693 94.9229C170.49 95.2595 170.214 95.5222 169.865 95.711C169.517 95.8998 169.133 95.9942 168.712 95.9942ZM168.712 95.0337C169.069 95.0337 169.354 94.9188 169.566 94.6889C169.783 94.459 169.891 94.1552 169.891 93.7776C169.891 93.3958 169.783 93.0921 169.566 92.8663C169.354 92.6364 169.069 92.5215 168.712 92.5215C168.352 92.5215 168.063 92.6344 167.846 92.8602C167.634 93.0859 167.528 93.3917 167.528 93.7776C167.528 94.1594 167.634 94.4652 167.846 94.695C168.063 94.9208 168.352 95.0337 168.712 95.0337Z"
              fill="white"/>
        <path d="M177.886 91.6287L176.72 95.9511H175.401L174.688 93.1064L173.949 95.9511H172.631L171.497 91.6287H172.662L173.306 94.7751L174.102 91.6287H175.299L176.064 94.7751L176.714 91.6287H177.886Z"
              fill="white"/>
        <path d="M179.069 96.0004C178.878 96.0004 178.721 95.947 178.597 95.8403C178.478 95.7295 178.419 95.594 178.419 95.4339C178.419 95.2697 178.478 95.1322 178.597 95.0214C178.721 94.9106 178.878 94.8551 179.069 94.8551C179.256 94.8551 179.408 94.9106 179.527 95.0214C179.65 95.1322 179.712 95.2697 179.712 95.4339C179.712 95.594 179.65 95.7295 179.527 95.8403C179.408 95.947 179.256 96.0004 179.069 96.0004Z"
              fill="white"/>
    </g>
    <rect x="2.5" y="2.5" width="235" height="235" rx="117.5" stroke="white" stroke-width="5"/>
    <defs>
        <filter id="filter0_d" x="-20" y="-10" width="280" height="280" filterUnits="userSpaceOnUse"
                color-interpolation-filters="sRGB">
            <feFlood flood-opacity="0" result="BackgroundImageFix"/>
            <feColorMatrix in="SourceAlpha" type="matrix" values="0 0 0 0 0 0 0 0 0 0 0 0 0 0 0 0 0 0 127 0"/>
            <feOffset dy="10"/>
            <feGaussianBlur stdDeviation="10"/>
            <feColorMatrix type="matrix" values="0 0 0 0 1 0 0 0 0 0.707246 0 0 0 0 0.0125 0 0 0 0.3 0"/>
            <feBlend mode="normal" in2="BackgroundImageFix" result="effect1_dropShadow"/>
            <feBlend mode="normal" in="SourceGraphic" in2="effect1_dropShadow" result="shape"/>
        </filter>
        <linearGradient id="paint0_linear" x1="172.909" y1="240" x2="120" y2="-11.4546" gradientUnits="userSpaceOnUse">
            <stop stop-color="#FFC94A"/>
            <stop offset="1" stop-color="#FF9900"/>
        </linearGradient>
        <linearGradient id="paint1_linear" x1="25.1043" y1="-47.0636" x2="216.981" y2="481.194"
                        gradientUnits="userSpaceOnUse">
            <stop stop-color="#FFF200"/>
            <stop offset="0.5" stop-color="#FF6A00"/>
            <stop offset="0.9948" stop-color="#E600B4"/>
        </linearGradient>
        <linearGradient id="paint2_linear" x1="-15.0435" y1="313.014" x2="33.6055" y2="-27.833"
                        gradientUnits="userSpaceOnUse">
            <stop stop-color="#E03C25"/>
            <stop offset="1" stop-color="#DD371D"/>
        </linearGradient>
        <linearGradient id="paint3_linear" x1="44.1614" y1="245.235" x2="144.767" y2="30.1612"
                        gradientUnits="userSpaceOnUse">
            <stop stop-color="#D52D03"/>
            <stop offset="1" stop-color="#E22B57" stop-opacity="0"/>
        </linearGradient>
        <linearGradient id="paint4_linear" x1="73.3849" y1="310.87" x2="122.034" y2="-29.9783"
                        gradientUnits="userSpaceOnUse">
            <stop stop-color="#FF3400"/>
            <stop offset="1" stop-color="#E22B57" stop-opacity="0"/>
        </linearGradient>
        <linearGradient id="paint5_linear" x1="152.246" y1="310.881" x2="200.896" y2="-29.9686"
                        gradientUnits="userSpaceOnUse">
            <stop stop-color="#DE381F"/>
            <stop offset="1" stop-color="#DE3820"/>
        </linearGradient>
        <linearGradient id="paint6_linear" x1="191.74" y1="327.758" x2="240.387" y2="-13.0834"
                        gradientUnits="userSpaceOnUse">
            <stop stop-color="#FF3400"/>
            <stop offset="1" stop-color="#EC5630"/>
        </linearGradient>
        <linearGradient id="paint7_linear" x1="-3.42429" y1="299.907" x2="45.2252" y2="-40.9422"
                        gradientUnits="userSpaceOnUse">
            <stop stop-color="#EC5630"/>
            <stop offset="1" stop-color="#E22B57" stop-opacity="0"/>
        </linearGradient>
        <linearGradient id="paint8_linear" x1="131.331" y1="319.14" x2="179.98" y2="-21.7086"
                        gradientUnits="userSpaceOnUse">
            <stop stop-color="#EC5630"/>
            <stop offset="1" stop-color="#EC5630"/>
        </linearGradient>
        <linearGradient id="paint9_linear" x1="195.502" y1="323.009" x2="244.152" y2="-17.84"
                        gradientUnits="userSpaceOnUse">
            <stop stop-color="#EC5630"/>
            <stop offset="1" stop-color="#E22B57" stop-opacity="0"/>
        </linearGradient>
        <clipPath id="clip0">
        </clipPath>
    </defs>
</svg>
