<svg width="240" height="240" viewBox="0 0 240 240" fill="none" xmlns="http://www.w3.org/2000/svg">
<g clip-path="url(#clip0)">
<g filter="url(#filter0_d)">
<circle cx="120" cy="120" r="120" transform="rotate(-180 120 120)" fill="url(#paint0_linear)"/>
</g>
<path d="M192.372 -107.886L-142.239 13.6526L49.6284 541.886L384.239 420.347L192.372 -107.886Z" fill="url(#paint1_linear)"/>
<g opacity="0.4">
<path d="M46.7998 149.999C47.5717 157.73 20.4975 149.999 3.47715 149.999C-7.88293 149.999 -19.9555 152.075 -29 149.069C-28.9208 136.592 -27.0803 124.531 -23.7554 113.121C-19.1441 112.528 -11.3266 113.853 0.389732 122.949C21.2693 139.163 46.028 142.267 46.7998 149.999Z" fill="url(#paint2_linear)"/>
<path d="M132.163 190.039C133.079 198.353 54.5088 184.582 30.2328 197.38C12.0908 206.936 6.5962 212.912 -5.00057 213.194C-20.5384 196.483 -31.8732 175.63 -37.0243 152.166C-30.1178 153.952 -18.1714 157.571 0.965721 164.834C35.9128 178.075 130.894 178.502 132.163 190.039Z" fill="url(#paint3_linear)"/>
<path d="M199.384 223.305C189.39 233.449 177.733 241.971 164.888 248.437C161.445 245.353 158.06 241.873 152.915 240.053C139.754 235.407 104.961 226.924 111.908 222.277C118.874 217.63 141.297 220.735 167.6 219.193C183.531 218.243 193.783 220.992 199.384 223.305Z" fill="#DE381F"/>
<path d="M196.451 196.684C187.189 186.857 160.867 188.953 164.726 198.227C166.843 203.269 208.82 209.814 196.451 196.684Z" fill="#DE3820"/>
<path d="M98.9317 202.709C87.4331 200.158 79.5958 205.022 78.0521 208.898C76.5084 212.754 109.777 218.172 110.549 214.316C111.321 210.46 105.898 204.251 98.9317 202.709Z" fill="#DC351A"/>
<path d="M93.4899 170.147C91.1941 169.771 88.0671 172.46 89.6306 174.793C91.1743 177.107 102.772 171.709 93.4899 170.147Z" fill="url(#paint4_linear)"/>
<path d="M170.92 180.452C165.952 178.969 162.41 181.224 164.725 185.87C167.06 190.497 186.396 185.079 170.92 180.452Z" fill="url(#paint5_linear)"/>
<path d="M207.981 215.762C205.25 213.033 203.33 218.075 204.894 219.617C206.437 221.16 214.176 221.931 207.981 215.762Z" fill="url(#paint6_linear)"/>
<path d="M56.9516 208.377C51.5882 209.445 43.7905 213.024 50.757 217.651C57.7235 222.297 72.4084 205.292 56.9516 208.377Z" fill="#DE381F"/>
<path d="M19.2337 147.743C16.4431 144.955 14.5828 152.39 16.1463 153.161C17.6702 153.932 22.3211 150.828 19.2337 147.743Z" fill="url(#paint7_linear)"/>
<path d="M34.2183 96.3248C29.1477 93.76 22.1865 91.6844 21.0434 94.012C19.9003 96.3248 41.663 111.98 46.8216 108.496C51.9802 105.013 38.8053 98.6375 34.2183 96.3248Z" fill="#DF3A21"/>
<path d="M150.766 30.3354C144.379 34.5553 137.282 41.3125 139.198 44.2016C141.098 47.0808 173.876 32.0689 173.335 23.7124C172.794 15.3559 156.534 26.5131 150.766 30.3354Z" fill="#DF3A21"/>
<path d="M155.376 136.927C150.488 134.475 150.726 145.429 157.692 148.514C164.658 151.599 158.484 138.469 155.376 136.927Z" fill="url(#paint8_linear)"/>
<path d="M218.885 143.009C209.543 142.574 212.69 157.701 218.885 159.243C225.079 160.786 235.133 143.78 218.885 143.009Z" fill="url(#paint9_linear)"/>
</g>
<path d="M43.6886 147.095C43.1566 147.095 42.7259 146.943 42.3966 146.639C42.0799 146.322 41.9216 145.904 41.9216 145.385V136.436H39.2426C38.6852 136.436 38.2672 136.322 37.9886 136.094C37.7226 135.853 37.5896 135.492 37.5896 135.011C37.5896 134.53 37.7226 134.175 37.9886 133.947C38.2672 133.719 38.6852 133.605 39.2426 133.605H48.1346C48.6919 133.605 49.1036 133.719 49.3696 133.947C49.6482 134.175 49.7876 134.53 49.7876 135.011C49.7876 135.492 49.6482 135.853 49.3696 136.094C49.1036 136.322 48.6919 136.436 48.1346 136.436H45.4556V145.385C45.4556 145.904 45.2909 146.322 44.9616 146.639C44.6449 146.943 44.2206 147.095 43.6886 147.095ZM57.9516 137.424C59.041 137.424 59.8516 137.76 60.3836 138.431C60.9156 139.09 61.1816 140.097 61.1816 141.452V145.556C61.1816 146.037 61.0296 146.417 60.7256 146.696C60.4216 146.975 60.01 147.114 59.4906 147.114C58.9713 147.114 58.5596 146.975 58.2556 146.696C57.9516 146.417 57.7996 146.037 57.7996 145.556V141.376C57.7996 140.464 57.407 140.008 56.6216 140.008C56.115 140.008 55.7096 140.173 55.4056 140.502C55.1143 140.819 54.9686 141.249 54.9686 141.794V145.556C54.9686 146.037 54.8166 146.417 54.5126 146.696C54.2086 146.975 53.797 147.114 53.2776 147.114C52.7583 147.114 52.3466 146.975 52.0426 146.696C51.7386 146.417 51.5866 146.037 51.5866 145.556V135.03C51.5866 134.587 51.745 134.226 52.0616 133.947C52.3783 133.656 52.7963 133.51 53.3156 133.51C53.8096 133.51 54.2086 133.643 54.5126 133.909C54.8166 134.175 54.9686 134.53 54.9686 134.973V138.773C55.3106 138.33 55.735 137.994 56.2416 137.766C56.7483 137.538 57.3183 137.424 57.9516 137.424ZM70.6905 143.998C70.9819 143.998 71.2162 144.112 71.3935 144.34C71.5835 144.568 71.6785 144.866 71.6785 145.233C71.6785 145.74 71.4315 146.126 70.9375 146.392C70.5069 146.607 69.9939 146.791 69.3985 146.943C68.8159 147.082 68.2775 147.152 67.7835 147.152C66.7449 147.152 65.8392 146.956 65.0665 146.563C64.2939 146.17 63.6985 145.607 63.2805 144.872C62.8625 144.137 62.6535 143.276 62.6535 142.288C62.6535 141.351 62.8499 140.515 63.2425 139.78C63.6479 139.033 64.2052 138.456 64.9145 138.051C65.6365 137.633 66.4472 137.424 67.3465 137.424C68.2205 137.424 68.9869 137.614 69.6455 137.994C70.3042 138.374 70.8109 138.912 71.1655 139.609C71.5329 140.306 71.7165 141.123 71.7165 142.06C71.7165 142.351 71.6469 142.579 71.5075 142.744C71.3809 142.896 71.1909 142.972 70.9375 142.972H65.9215C66.0102 143.58 66.2065 144.017 66.5105 144.283C66.8145 144.549 67.2642 144.682 67.8595 144.682C68.1762 144.682 68.4675 144.65 68.7335 144.587C68.9995 144.511 69.2972 144.41 69.6265 144.283C69.8165 144.207 70.0002 144.144 70.1775 144.093C70.3675 144.03 70.5385 143.998 70.6905 143.998ZM67.4415 139.704C66.9982 139.704 66.6435 139.85 66.3775 140.141C66.1115 140.42 65.9532 140.831 65.9025 141.376H68.8855C68.8095 140.261 68.3282 139.704 67.4415 139.704ZM90.817 133.51C91.2984 133.51 91.691 133.668 91.995 133.985C92.299 134.302 92.451 134.713 92.451 135.22V145.556C92.451 146.037 92.3117 146.417 92.033 146.696C91.7544 146.975 91.387 147.114 90.931 147.114C90.4877 147.114 90.1204 146.975 89.829 146.696C89.5504 146.417 89.411 146.037 89.411 145.556V139.97L87.245 143.96C87.0297 144.365 86.8017 144.657 86.561 144.834C86.3204 144.999 86.0354 145.081 85.706 145.081C85.3767 145.081 85.0917 144.999 84.851 144.834C84.6104 144.657 84.3824 144.365 84.167 143.96L82.02 140.084V145.556C82.02 146.025 81.8744 146.405 81.583 146.696C81.3044 146.975 80.937 147.114 80.481 147.114C80.0377 147.114 79.6704 146.975 79.379 146.696C79.1004 146.417 78.961 146.037 78.961 145.556V135.22C78.961 134.713 79.113 134.302 79.417 133.985C79.7337 133.668 80.1327 133.51 80.614 133.51C80.956 133.51 81.2664 133.611 81.545 133.814C81.8237 134.004 82.058 134.283 82.248 134.65L85.744 141.224L89.221 134.65C89.6137 133.89 90.1457 133.51 90.817 133.51ZM99.4012 147.152C98.3752 147.152 97.4695 146.956 96.6842 146.563C95.9115 146.158 95.3098 145.588 94.8792 144.853C94.4612 144.118 94.2522 143.257 94.2522 142.269C94.2522 141.281 94.4612 140.426 94.8792 139.704C95.3098 138.969 95.9115 138.406 96.6842 138.013C97.4568 137.62 98.3625 137.424 99.4012 137.424C100.44 137.424 101.346 137.62 102.118 138.013C102.891 138.406 103.486 138.969 103.904 139.704C104.335 140.426 104.55 141.281 104.55 142.269C104.55 143.257 104.335 144.118 103.904 144.853C103.486 145.588 102.891 146.158 102.118 146.563C101.346 146.956 100.44 147.152 99.4012 147.152ZM99.4012 144.625C100.605 144.625 101.206 143.84 101.206 142.269C101.206 140.698 100.605 139.913 99.4012 139.913C98.1978 139.913 97.5962 140.698 97.5962 142.269C97.5962 143.84 98.1978 144.625 99.4012 144.625ZM109.768 147.152C108.919 147.152 108.203 147.089 107.621 146.962C107.038 146.835 106.525 146.633 106.082 146.354C105.904 146.265 105.765 146.113 105.664 145.898C105.562 145.683 105.512 145.442 105.512 145.176C105.512 144.834 105.6 144.555 105.778 144.34C105.968 144.112 106.202 143.998 106.481 143.998C106.671 143.998 106.848 144.023 107.013 144.074C107.177 144.112 107.38 144.182 107.621 144.283C108.026 144.422 108.381 144.53 108.685 144.606C109.001 144.682 109.4 144.72 109.882 144.72C110.224 144.72 110.49 144.676 110.68 144.587C110.882 144.486 110.984 144.346 110.984 144.169C110.984 144.03 110.933 143.922 110.832 143.846C110.743 143.77 110.566 143.7 110.3 143.637C110.034 143.561 109.584 143.46 108.951 143.333C107.823 143.118 107.006 142.795 106.5 142.364C106.006 141.921 105.759 141.3 105.759 140.502C105.759 139.919 105.936 139.394 106.291 138.925C106.658 138.456 107.158 138.089 107.792 137.823C108.425 137.557 109.134 137.424 109.92 137.424C110.49 137.424 111.041 137.494 111.573 137.633C112.117 137.772 112.599 137.969 113.017 138.222C113.409 138.45 113.606 138.817 113.606 139.324C113.606 139.679 113.511 139.976 113.321 140.217C113.131 140.458 112.896 140.578 112.618 140.578C112.288 140.578 111.896 140.47 111.44 140.255C111.136 140.116 110.863 140.014 110.623 139.951C110.395 139.875 110.122 139.837 109.806 139.837C109.489 139.837 109.242 139.888 109.065 139.989C108.887 140.078 108.799 140.211 108.799 140.388C108.799 140.591 108.919 140.749 109.16 140.863C109.413 140.977 109.907 141.104 110.642 141.243C111.87 141.458 112.738 141.788 113.245 142.231C113.751 142.662 114.005 143.289 114.005 144.112C114.005 145.037 113.618 145.778 112.846 146.335C112.086 146.88 111.06 147.152 109.768 147.152ZM120.832 144.701C121.681 144.752 122.105 145.132 122.105 145.841C122.105 146.284 121.934 146.614 121.592 146.829C121.25 147.044 120.763 147.133 120.129 147.095L119.597 147.057C118.457 146.968 117.59 146.626 116.994 146.031C116.412 145.423 116.12 144.581 116.12 143.504V140.141H115.569C114.556 140.141 114.049 139.723 114.049 138.887C114.049 138.064 114.556 137.652 115.569 137.652H116.12V136.417C116.12 135.936 116.272 135.556 116.576 135.277C116.88 134.986 117.292 134.84 117.811 134.84C118.331 134.84 118.742 134.986 119.046 135.277C119.35 135.556 119.502 135.936 119.502 136.417V137.652H120.547C121.561 137.652 122.067 138.064 122.067 138.887C122.067 139.723 121.561 140.141 120.547 140.141H119.502V143.789C119.502 144.03 119.572 144.232 119.711 144.397C119.863 144.562 120.053 144.65 120.281 144.663L120.832 144.701ZM141.493 144.853C141.607 145.094 141.664 145.328 141.664 145.556C141.664 145.974 141.493 146.329 141.151 146.62C140.822 146.911 140.442 147.057 140.011 147.057C139.72 147.057 139.454 146.981 139.213 146.829C138.972 146.677 138.782 146.449 138.643 146.145L137.788 144.226H131.632L130.758 146.145C130.619 146.449 130.422 146.677 130.169 146.829C129.928 146.981 129.662 147.057 129.371 147.057C128.94 147.057 128.548 146.911 128.193 146.62C127.851 146.329 127.68 145.974 127.68 145.556C127.68 145.328 127.737 145.094 127.851 144.853L132.867 134.555C133.032 134.213 133.272 133.953 133.589 133.776C133.918 133.586 134.279 133.491 134.672 133.491C135.052 133.491 135.407 133.586 135.736 133.776C136.065 133.953 136.312 134.213 136.477 134.555L141.493 144.853ZM132.81 141.604H136.61L134.71 137.367L132.81 141.604ZM151.064 133.51C151.571 133.51 151.983 133.656 152.299 133.947C152.629 134.226 152.793 134.587 152.793 135.03V145.556C152.793 146.037 152.641 146.417 152.337 146.696C152.033 146.975 151.628 147.114 151.121 147.114C150.653 147.114 150.266 146.994 149.962 146.753C149.671 146.5 149.506 146.158 149.468 145.727C149.202 146.17 148.81 146.519 148.29 146.772C147.784 147.025 147.22 147.152 146.599 147.152C145.801 147.152 145.086 146.949 144.452 146.544C143.832 146.126 143.344 145.543 142.989 144.796C142.635 144.049 142.457 143.194 142.457 142.231C142.457 141.268 142.628 140.426 142.97 139.704C143.325 138.969 143.813 138.406 144.433 138.013C145.067 137.62 145.789 137.424 146.599 137.424C147.195 137.424 147.739 137.544 148.233 137.785C148.74 138.026 149.133 138.349 149.411 138.754V134.973C149.411 134.53 149.557 134.175 149.848 133.909C150.152 133.643 150.558 133.51 151.064 133.51ZM147.625 144.625C148.221 144.625 148.677 144.422 148.993 144.017C149.31 143.612 149.468 143.029 149.468 142.269C149.468 141.522 149.31 140.952 148.993 140.559C148.677 140.154 148.221 139.951 147.625 139.951C147.043 139.951 146.593 140.147 146.276 140.54C145.96 140.933 145.801 141.496 145.801 142.231C145.801 142.991 145.96 143.58 146.276 143.998C146.606 144.416 147.055 144.625 147.625 144.625ZM159.12 137.424C160.564 137.424 161.628 137.772 162.312 138.469C163.009 139.153 163.357 140.198 163.357 141.604V145.575C163.357 146.056 163.212 146.436 162.92 146.715C162.642 146.981 162.249 147.114 161.742 147.114C161.299 147.114 160.932 146.987 160.64 146.734C160.362 146.481 160.21 146.139 160.184 145.708C160.007 146.164 159.709 146.519 159.291 146.772C158.873 147.025 158.373 147.152 157.79 147.152C157.144 147.152 156.562 147.025 156.042 146.772C155.523 146.506 155.111 146.145 154.807 145.689C154.516 145.22 154.37 144.695 154.37 144.112C154.37 143.441 154.541 142.909 154.883 142.516C155.238 142.111 155.795 141.819 156.555 141.642C157.315 141.465 158.341 141.376 159.633 141.376H160.146V141.148C160.146 140.705 160.045 140.388 159.842 140.198C159.64 139.995 159.298 139.894 158.816 139.894C158.297 139.894 157.537 140.071 156.536 140.426C156.245 140.527 155.998 140.578 155.795 140.578C155.479 140.578 155.225 140.464 155.035 140.236C154.845 140.008 154.75 139.71 154.75 139.343C154.75 139.064 154.807 138.836 154.921 138.659C155.035 138.482 155.219 138.323 155.472 138.184C155.916 137.956 156.473 137.772 157.144 137.633C157.816 137.494 158.474 137.424 159.12 137.424ZM158.588 144.891C159.044 144.891 159.418 144.733 159.709 144.416C160.001 144.087 160.146 143.669 160.146 143.162V142.934H159.842C159.032 142.934 158.455 143.01 158.113 143.162C157.771 143.301 157.6 143.542 157.6 143.884C157.6 144.175 157.689 144.416 157.866 144.606C158.056 144.796 158.297 144.891 158.588 144.891ZM171.447 137.424C172.245 137.424 172.954 137.633 173.575 138.051C174.208 138.456 174.696 139.033 175.038 139.78C175.392 140.527 175.57 141.382 175.57 142.345C175.57 143.308 175.392 144.156 175.038 144.891C174.696 145.613 174.214 146.17 173.594 146.563C172.973 146.956 172.257 147.152 171.447 147.152C170.851 147.152 170.3 147.032 169.794 146.791C169.3 146.55 168.913 146.227 168.635 145.822V149.052C168.635 149.495 168.483 149.85 168.179 150.116C167.875 150.382 167.476 150.515 166.982 150.515C166.462 150.515 166.044 150.369 165.728 150.078C165.411 149.799 165.253 149.438 165.253 148.995V139.02C165.253 138.551 165.398 138.178 165.69 137.899C165.994 137.608 166.399 137.462 166.906 137.462C167.387 137.462 167.773 137.589 168.065 137.842C168.369 138.095 168.54 138.431 168.578 138.849C168.844 138.406 169.23 138.057 169.737 137.804C170.256 137.551 170.826 137.424 171.447 137.424ZM170.421 144.625C171.003 144.625 171.447 144.429 171.751 144.036C172.067 143.643 172.226 143.08 172.226 142.345C172.226 141.572 172.067 140.983 171.751 140.578C171.434 140.16 170.984 139.951 170.402 139.951C169.819 139.951 169.369 140.154 169.053 140.559C168.736 140.964 168.578 141.547 168.578 142.307C168.578 143.054 168.736 143.631 169.053 144.036C169.369 144.429 169.825 144.625 170.421 144.625ZM182.545 144.701C183.394 144.752 183.818 145.132 183.818 145.841C183.818 146.284 183.647 146.614 183.305 146.829C182.963 147.044 182.476 147.133 181.842 147.095L181.31 147.057C180.17 146.968 179.303 146.626 178.707 146.031C178.125 145.423 177.833 144.581 177.833 143.504V140.141H177.282C176.269 140.141 175.762 139.723 175.762 138.887C175.762 138.064 176.269 137.652 177.282 137.652H177.833V136.417C177.833 135.936 177.985 135.556 178.289 135.277C178.593 134.986 179.005 134.84 179.524 134.84C180.044 134.84 180.455 134.986 180.759 135.277C181.063 135.556 181.215 135.936 181.215 136.417V137.652H182.26C183.274 137.652 183.78 138.064 183.78 138.887C183.78 139.723 183.274 140.141 182.26 140.141H181.215V143.789C181.215 144.03 181.285 144.232 181.424 144.397C181.576 144.562 181.766 144.65 181.994 144.663L182.545 144.701ZM186.408 147.114C185.926 147.114 185.521 146.987 185.192 146.734C184.875 146.468 184.717 146.075 184.717 145.556V139.02C184.717 138.501 184.875 138.114 185.192 137.861C185.521 137.595 185.926 137.462 186.408 137.462C186.889 137.462 187.288 137.595 187.605 137.861C187.934 138.114 188.099 138.501 188.099 139.02V145.556C188.099 146.075 187.934 146.468 187.605 146.734C187.288 146.987 186.889 147.114 186.408 147.114ZM186.408 136.132C185.838 136.132 185.382 135.986 185.04 135.695C184.71 135.391 184.546 134.992 184.546 134.498C184.546 134.004 184.71 133.611 185.04 133.32C185.382 133.029 185.838 132.883 186.408 132.883C186.965 132.883 187.415 133.029 187.757 133.32C188.099 133.611 188.27 134.004 188.27 134.498C188.27 134.992 188.099 135.391 187.757 135.695C187.427 135.986 186.978 136.132 186.408 136.132ZM196.311 138.412C196.451 138.095 196.641 137.861 196.881 137.709C197.135 137.557 197.407 137.481 197.698 137.481C198.116 137.481 198.484 137.62 198.8 137.899C199.13 138.178 199.294 138.513 199.294 138.906C199.294 139.121 199.244 139.33 199.142 139.533L195.817 146.145C195.665 146.462 195.444 146.709 195.152 146.886C194.874 147.051 194.563 147.133 194.221 147.133C193.879 147.133 193.563 147.051 193.271 146.886C192.98 146.709 192.758 146.462 192.606 146.145L189.281 139.533C189.18 139.305 189.129 139.102 189.129 138.925C189.129 138.52 189.3 138.178 189.642 137.899C189.997 137.608 190.402 137.462 190.858 137.462C191.162 137.462 191.441 137.544 191.694 137.709C191.96 137.861 192.163 138.095 192.302 138.412L194.316 142.763L196.311 138.412ZM207.735 143.998C208.027 143.998 208.261 144.112 208.438 144.34C208.628 144.568 208.723 144.866 208.723 145.233C208.723 145.74 208.476 146.126 207.982 146.392C207.552 146.607 207.039 146.791 206.443 146.943C205.861 147.082 205.322 147.152 204.828 147.152C203.79 147.152 202.884 146.956 202.111 146.563C201.339 146.17 200.743 145.607 200.325 144.872C199.907 144.137 199.698 143.276 199.698 142.288C199.698 141.351 199.895 140.515 200.287 139.78C200.693 139.033 201.25 138.456 201.959 138.051C202.681 137.633 203.492 137.424 204.391 137.424C205.265 137.424 206.032 137.614 206.69 137.994C207.349 138.374 207.856 138.912 208.21 139.609C208.578 140.306 208.761 141.123 208.761 142.06C208.761 142.351 208.692 142.579 208.552 142.744C208.426 142.896 208.236 142.972 207.982 142.972H202.966C203.055 143.58 203.251 144.017 203.555 144.283C203.859 144.549 204.309 144.682 204.904 144.682C205.221 144.682 205.512 144.65 205.778 144.587C206.044 144.511 206.342 144.41 206.671 144.283C206.861 144.207 207.045 144.144 207.222 144.093C207.412 144.03 207.583 143.998 207.735 143.998ZM204.486 139.704C204.043 139.704 203.688 139.85 203.422 140.141C203.156 140.42 202.998 140.831 202.947 141.376H205.93C205.854 140.261 205.373 139.704 204.486 139.704ZM58.996 166C58.4767 166 58.0777 165.861 57.799 165.582C57.5204 165.303 57.381 164.898 57.381 164.366V154.22C57.381 153.701 57.533 153.289 57.837 152.985C58.1537 152.668 58.578 152.51 59.11 152.51C59.6547 152.51 60.0854 152.668 60.402 152.985C60.7187 153.289 60.877 153.701 60.877 154.22V163.169H65.247C66.349 163.169 66.9 163.644 66.9 164.594C66.9 165.075 66.7607 165.43 66.482 165.658C66.216 165.886 65.8044 166 65.247 166H58.996ZM72.3771 156.424C73.8211 156.424 74.8851 156.772 75.5691 157.469C76.2658 158.153 76.6141 159.198 76.6141 160.604V164.575C76.6141 165.056 76.4684 165.436 76.1771 165.715C75.8984 165.981 75.5058 166.114 74.9991 166.114C74.5558 166.114 74.1884 165.987 73.8971 165.734C73.6184 165.481 73.4664 165.139 73.4411 164.708C73.2638 165.164 72.9661 165.519 72.5481 165.772C72.1301 166.025 71.6298 166.152 71.0471 166.152C70.4011 166.152 69.8184 166.025 69.2991 165.772C68.7798 165.506 68.3681 165.145 68.0641 164.689C67.7728 164.22 67.6271 163.695 67.6271 163.112C67.6271 162.441 67.7981 161.909 68.1401 161.516C68.4948 161.111 69.0521 160.819 69.8121 160.642C70.5721 160.465 71.5981 160.376 72.8901 160.376H73.4031V160.148C73.4031 159.705 73.3018 159.388 73.0991 159.198C72.8964 158.995 72.5544 158.894 72.0731 158.894C71.5538 158.894 70.7938 159.071 69.7931 159.426C69.5018 159.527 69.2548 159.578 69.0521 159.578C68.7354 159.578 68.4821 159.464 68.2921 159.236C68.1021 159.008 68.0071 158.71 68.0071 158.343C68.0071 158.064 68.0641 157.836 68.1781 157.659C68.2921 157.482 68.4758 157.323 68.7291 157.184C69.1724 156.956 69.7298 156.772 70.4011 156.633C71.0724 156.494 71.7311 156.424 72.3771 156.424ZM71.8451 163.891C72.3011 163.891 72.6748 163.733 72.9661 163.416C73.2574 163.087 73.4031 162.669 73.4031 162.162V161.934H73.0991C72.2884 161.934 71.7121 162.01 71.3701 162.162C71.0281 162.301 70.8571 162.542 70.8571 162.884C70.8571 163.175 70.9458 163.416 71.1231 163.606C71.3131 163.796 71.5538 163.891 71.8451 163.891ZM84.7985 156.424C85.9132 156.424 86.7428 156.76 87.2875 157.431C87.8322 158.09 88.1045 159.097 88.1045 160.452V164.556C88.1045 165.037 87.9525 165.417 87.6485 165.696C87.3445 165.975 86.9328 166.114 86.4135 166.114C85.8942 166.114 85.4825 165.975 85.1785 165.696C84.8745 165.417 84.7225 165.037 84.7225 164.556V160.604C84.7225 160.047 84.6212 159.641 84.4185 159.388C84.2285 159.135 83.9372 159.008 83.5445 159.008C83.0378 159.008 82.6325 159.173 82.3285 159.502C82.0372 159.819 81.8915 160.249 81.8915 160.794V164.556C81.8915 165.037 81.7395 165.417 81.4355 165.696C81.1315 165.975 80.7198 166.114 80.2005 166.114C79.6812 166.114 79.2695 165.975 78.9655 165.696C78.6615 165.417 78.5095 165.037 78.5095 164.556V157.982C78.5095 157.539 78.6678 157.178 78.9845 156.899C79.3012 156.608 79.7128 156.462 80.2195 156.462C80.7008 156.462 81.0808 156.595 81.3595 156.861C81.6508 157.127 81.7965 157.475 81.7965 157.906C82.1258 157.425 82.5502 157.057 83.0695 156.804C83.5888 156.551 84.1652 156.424 84.7985 156.424ZM98.3164 156.462C98.8231 156.462 99.2284 156.608 99.5324 156.899C99.8364 157.178 99.9884 157.551 99.9884 158.02V164.86C99.9884 166.405 99.5197 167.577 98.5824 168.375C97.6577 169.173 96.2961 169.572 94.4974 169.572C93.8007 169.572 93.1421 169.509 92.5214 169.382C91.9007 169.255 91.3751 169.072 90.9444 168.831C90.7164 168.704 90.5327 168.54 90.3934 168.337C90.2667 168.134 90.2034 167.906 90.2034 167.653C90.2034 167.286 90.2921 166.988 90.4694 166.76C90.6594 166.532 90.9001 166.418 91.1914 166.418C91.4194 166.418 91.8311 166.513 92.4264 166.703C92.8191 166.83 93.1674 166.925 93.4714 166.988C93.7754 167.064 94.0857 167.102 94.4024 167.102C95.1751 167.102 95.7387 166.937 96.0934 166.608C96.4607 166.291 96.6444 165.785 96.6444 165.088V164.366C96.3657 164.784 95.9667 165.12 95.4474 165.373C94.9281 165.614 94.3644 165.734 93.7564 165.734C92.9457 165.734 92.2237 165.544 91.5904 165.164C90.9571 164.784 90.4631 164.246 90.1084 163.549C89.7537 162.84 89.5764 162.023 89.5764 161.098C89.5764 160.173 89.7537 159.356 90.1084 158.647C90.4631 157.938 90.9571 157.393 91.5904 157.013C92.2237 156.62 92.9457 156.424 93.7564 156.424C94.3771 156.424 94.9471 156.551 95.4664 156.804C95.9857 157.057 96.3847 157.406 96.6634 157.849C96.6887 157.418 96.8471 157.083 97.1384 156.842C97.4424 156.589 97.8351 156.462 98.3164 156.462ZM94.7824 163.207C95.3777 163.207 95.8401 163.023 96.1694 162.656C96.4987 162.289 96.6634 161.769 96.6634 161.098C96.6634 160.427 96.4987 159.901 96.1694 159.521C95.8401 159.141 95.3777 158.951 94.7824 158.951C94.1997 158.951 93.7437 159.141 93.4144 159.521C93.0851 159.888 92.9204 160.414 92.9204 161.098C92.9204 161.757 93.0851 162.276 93.4144 162.656C93.7564 163.023 94.2124 163.207 94.7824 163.207ZM109.696 156.462C110.215 156.462 110.627 156.601 110.931 156.88C111.235 157.159 111.387 157.539 111.387 158.02V164.594C111.387 165.037 111.228 165.405 110.912 165.696C110.595 165.975 110.183 166.114 109.677 166.114C109.221 166.114 108.847 165.994 108.556 165.753C108.264 165.5 108.112 165.164 108.1 164.746C107.808 165.202 107.435 165.55 106.979 165.791C106.535 166.032 106.022 166.152 105.44 166.152C104.236 166.152 103.343 165.823 102.761 165.164C102.178 164.493 101.887 163.479 101.887 162.124V158.02C101.887 157.539 102.039 157.159 102.343 156.88C102.647 156.601 103.058 156.462 103.578 156.462C104.097 156.462 104.509 156.601 104.813 156.88C105.117 157.159 105.269 157.539 105.269 158.02V162.2C105.269 163.112 105.661 163.568 106.447 163.568C106.903 163.568 107.276 163.403 107.568 163.074C107.859 162.745 108.005 162.314 108.005 161.782V158.02C108.005 157.539 108.157 157.159 108.461 156.88C108.765 156.601 109.176 156.462 109.696 156.462ZM117.706 156.424C119.15 156.424 120.214 156.772 120.898 157.469C121.595 158.153 121.943 159.198 121.943 160.604V164.575C121.943 165.056 121.798 165.436 121.506 165.715C121.228 165.981 120.835 166.114 120.328 166.114C119.885 166.114 119.518 165.987 119.226 165.734C118.948 165.481 118.796 165.139 118.77 164.708C118.593 165.164 118.295 165.519 117.877 165.772C117.459 166.025 116.959 166.152 116.376 166.152C115.73 166.152 115.148 166.025 114.628 165.772C114.109 165.506 113.697 165.145 113.393 164.689C113.102 164.22 112.956 163.695 112.956 163.112C112.956 162.441 113.127 161.909 113.469 161.516C113.824 161.111 114.381 160.819 115.141 160.642C115.901 160.465 116.927 160.376 118.219 160.376H118.732V160.148C118.732 159.705 118.631 159.388 118.428 159.198C118.226 158.995 117.884 158.894 117.402 158.894C116.883 158.894 116.123 159.071 115.122 159.426C114.831 159.527 114.584 159.578 114.381 159.578C114.065 159.578 113.811 159.464 113.621 159.236C113.431 159.008 113.336 158.71 113.336 158.343C113.336 158.064 113.393 157.836 113.507 157.659C113.621 157.482 113.805 157.323 114.058 157.184C114.502 156.956 115.059 156.772 115.73 156.633C116.402 156.494 117.06 156.424 117.706 156.424ZM117.174 163.891C117.63 163.891 118.004 163.733 118.295 163.416C118.587 163.087 118.732 162.669 118.732 162.162V161.934H118.428C117.618 161.934 117.041 162.01 116.699 162.162C116.357 162.301 116.186 162.542 116.186 162.884C116.186 163.175 116.275 163.416 116.452 163.606C116.642 163.796 116.883 163.891 117.174 163.891ZM132.142 156.462C132.648 156.462 133.054 156.608 133.358 156.899C133.662 157.178 133.814 157.551 133.814 158.02V164.86C133.814 166.405 133.345 167.577 132.408 168.375C131.483 169.173 130.121 169.572 128.323 169.572C127.626 169.572 126.967 169.509 126.347 169.382C125.726 169.255 125.2 169.072 124.77 168.831C124.542 168.704 124.358 168.54 124.219 168.337C124.092 168.134 124.029 167.906 124.029 167.653C124.029 167.286 124.117 166.988 124.295 166.76C124.485 166.532 124.725 166.418 125.017 166.418C125.245 166.418 125.656 166.513 126.252 166.703C126.644 166.83 126.993 166.925 127.297 166.988C127.601 167.064 127.911 167.102 128.228 167.102C129 167.102 129.564 166.937 129.919 166.608C130.286 166.291 130.47 165.785 130.47 165.088V164.366C130.191 164.784 129.792 165.12 129.273 165.373C128.753 165.614 128.19 165.734 127.582 165.734C126.771 165.734 126.049 165.544 125.416 165.164C124.782 164.784 124.288 164.246 123.934 163.549C123.579 162.84 123.402 162.023 123.402 161.098C123.402 160.173 123.579 159.356 123.934 158.647C124.288 157.938 124.782 157.393 125.416 157.013C126.049 156.62 126.771 156.424 127.582 156.424C128.202 156.424 128.772 156.551 129.292 156.804C129.811 157.057 130.21 157.406 130.489 157.849C130.514 157.418 130.672 157.083 130.964 156.842C131.268 156.589 131.66 156.462 132.142 156.462ZM128.608 163.207C129.203 163.207 129.665 163.023 129.995 162.656C130.324 162.289 130.489 161.769 130.489 161.098C130.489 160.427 130.324 159.901 129.995 159.521C129.665 159.141 129.203 158.951 128.608 158.951C128.025 158.951 127.569 159.141 127.24 159.521C126.91 159.888 126.746 160.414 126.746 161.098C126.746 161.757 126.91 162.276 127.24 162.656C127.582 163.023 128.038 163.207 128.608 163.207ZM143.388 162.998C143.679 162.998 143.913 163.112 144.091 163.34C144.281 163.568 144.376 163.866 144.376 164.233C144.376 164.74 144.129 165.126 143.635 165.392C143.204 165.607 142.691 165.791 142.096 165.943C141.513 166.082 140.975 166.152 140.481 166.152C139.442 166.152 138.536 165.956 137.764 165.563C136.991 165.17 136.396 164.607 135.978 163.872C135.56 163.137 135.351 162.276 135.351 161.288C135.351 160.351 135.547 159.515 135.94 158.78C136.345 158.033 136.902 157.456 137.612 157.051C138.334 156.633 139.144 156.424 140.044 156.424C140.918 156.424 141.684 156.614 142.343 156.994C143.001 157.374 143.508 157.912 143.863 158.609C144.23 159.306 144.414 160.123 144.414 161.06C144.414 161.351 144.344 161.579 144.205 161.744C144.078 161.896 143.888 161.972 143.635 161.972H138.619C138.707 162.58 138.904 163.017 139.208 163.283C139.512 163.549 139.961 163.682 140.557 163.682C140.873 163.682 141.165 163.65 141.431 163.587C141.697 163.511 141.994 163.41 142.324 163.283C142.514 163.207 142.697 163.144 142.875 163.093C143.065 163.03 143.236 162.998 143.388 162.998ZM140.139 158.704C139.695 158.704 139.341 158.85 139.075 159.141C138.809 159.42 138.65 159.831 138.6 160.376H141.583C141.507 159.261 141.025 158.704 140.139 158.704ZM164.445 163.853C164.559 164.094 164.616 164.328 164.616 164.556C164.616 164.974 164.445 165.329 164.103 165.62C163.774 165.911 163.394 166.057 162.963 166.057C162.672 166.057 162.406 165.981 162.165 165.829C161.925 165.677 161.735 165.449 161.595 165.145L160.74 163.226H154.584L153.71 165.145C153.571 165.449 153.375 165.677 153.121 165.829C152.881 165.981 152.615 166.057 152.323 166.057C151.893 166.057 151.5 165.911 151.145 165.62C150.803 165.329 150.632 164.974 150.632 164.556C150.632 164.328 150.689 164.094 150.803 163.853L155.819 153.555C155.984 153.213 156.225 152.953 156.541 152.776C156.871 152.586 157.232 152.491 157.624 152.491C158.004 152.491 158.359 152.586 158.688 152.776C159.018 152.953 159.265 153.213 159.429 153.555L164.445 163.853ZM155.762 160.604H159.562L157.662 156.367L155.762 160.604ZM171.774 156.462C172.205 156.424 172.547 156.525 172.8 156.766C173.054 156.994 173.18 157.336 173.18 157.792C173.18 158.299 173.06 158.666 172.819 158.894C172.591 159.122 172.173 159.268 171.565 159.331L170.995 159.388C170.362 159.464 169.906 159.667 169.627 159.996C169.361 160.313 169.228 160.75 169.228 161.307V164.556C169.228 165.075 169.064 165.468 168.734 165.734C168.418 165.987 168.019 166.114 167.537 166.114C167.056 166.114 166.651 165.987 166.321 165.734C166.005 165.468 165.846 165.075 165.846 164.556V157.982C165.846 157.501 166.005 157.127 166.321 156.861C166.651 156.595 167.043 156.462 167.499 156.462C167.968 156.462 168.342 156.589 168.62 156.842C168.912 157.095 169.057 157.45 169.057 157.906V158.267C169.26 157.71 169.589 157.279 170.045 156.975C170.514 156.671 171.002 156.506 171.508 156.481L171.774 156.462ZM180.337 163.701C181.186 163.752 181.61 164.132 181.61 164.841C181.61 165.284 181.439 165.614 181.097 165.829C180.755 166.044 180.268 166.133 179.634 166.095L179.102 166.057C177.962 165.968 177.095 165.626 176.499 165.031C175.917 164.423 175.625 163.581 175.625 162.504V159.141H175.074C174.061 159.141 173.554 158.723 173.554 157.887C173.554 157.064 174.061 156.652 175.074 156.652H175.625V155.417C175.625 154.936 175.777 154.556 176.081 154.277C176.385 153.986 176.797 153.84 177.316 153.84C177.836 153.84 178.247 153.986 178.551 154.277C178.855 154.556 179.007 154.936 179.007 155.417V156.652H180.052C181.066 156.652 181.572 157.064 181.572 157.887C181.572 158.723 181.066 159.141 180.052 159.141H179.007V162.789C179.007 163.03 179.077 163.232 179.216 163.397C179.368 163.562 179.558 163.65 179.786 163.663L180.337 163.701ZM186.195 166.152C185.346 166.152 184.63 166.089 184.048 165.962C183.465 165.835 182.952 165.633 182.509 165.354C182.331 165.265 182.192 165.113 182.091 164.898C181.989 164.683 181.939 164.442 181.939 164.176C181.939 163.834 182.027 163.555 182.205 163.34C182.395 163.112 182.629 162.998 182.908 162.998C183.098 162.998 183.275 163.023 183.44 163.074C183.604 163.112 183.807 163.182 184.048 163.283C184.453 163.422 184.808 163.53 185.112 163.606C185.428 163.682 185.827 163.72 186.309 163.72C186.651 163.72 186.917 163.676 187.107 163.587C187.309 163.486 187.411 163.346 187.411 163.169C187.411 163.03 187.36 162.922 187.259 162.846C187.17 162.77 186.993 162.7 186.727 162.637C186.461 162.561 186.011 162.46 185.378 162.333C184.25 162.118 183.433 161.795 182.927 161.364C182.433 160.921 182.186 160.3 182.186 159.502C182.186 158.919 182.363 158.394 182.718 157.925C183.085 157.456 183.585 157.089 184.219 156.823C184.852 156.557 185.561 156.424 186.347 156.424C186.917 156.424 187.468 156.494 188 156.633C188.544 156.772 189.026 156.969 189.444 157.222C189.836 157.45 190.033 157.817 190.033 158.324C190.033 158.679 189.938 158.976 189.748 159.217C189.558 159.458 189.323 159.578 189.045 159.578C188.715 159.578 188.323 159.47 187.867 159.255C187.563 159.116 187.29 159.014 187.05 158.951C186.822 158.875 186.549 158.837 186.233 158.837C185.916 158.837 185.669 158.888 185.492 158.989C185.314 159.078 185.226 159.211 185.226 159.388C185.226 159.591 185.346 159.749 185.587 159.863C185.84 159.977 186.334 160.104 187.069 160.243C188.297 160.458 189.165 160.788 189.672 161.231C190.178 161.662 190.432 162.289 190.432 163.112C190.432 164.037 190.045 164.778 189.273 165.335C188.513 165.88 187.487 166.152 186.195 166.152ZM86.3854 185.114C85.8534 185.114 85.4291 184.962 85.1124 184.658C84.8084 184.341 84.6564 183.917 84.6564 183.385V173.22C84.6564 172.701 84.7958 172.302 85.0744 172.023C85.3531 171.744 85.7521 171.605 86.2714 171.605H91.1354C92.6174 171.605 93.7701 171.985 94.5934 172.745C95.4168 173.492 95.8284 174.537 95.8284 175.88C95.8284 177.21 95.4104 178.255 94.5744 179.015C93.7511 179.775 92.6048 180.155 91.1354 180.155H88.1524V183.385C88.1524 183.917 87.9941 184.341 87.6774 184.658C87.3608 184.962 86.9301 185.114 86.3854 185.114ZM90.6604 177.533C91.3064 177.533 91.7814 177.4 92.0854 177.134C92.4021 176.868 92.5604 176.456 92.5604 175.899C92.5604 174.797 91.9271 174.246 90.6604 174.246H88.1524V177.533H90.6604ZM98.9778 185.114C98.4965 185.114 98.0912 184.987 97.7618 184.734C97.4452 184.468 97.2868 184.075 97.2868 183.556V173.087C97.2868 172.568 97.4452 172.175 97.7618 171.909C98.0912 171.643 98.4965 171.51 98.9778 171.51C99.4592 171.51 99.8582 171.643 100.175 171.909C100.504 172.175 100.669 172.568 100.669 173.087V183.556C100.669 184.075 100.504 184.468 100.175 184.734C99.8582 184.987 99.4592 185.114 98.9778 185.114ZM106.982 175.424C108.426 175.424 109.49 175.772 110.174 176.469C110.87 177.153 111.219 178.198 111.219 179.604V183.575C111.219 184.056 111.073 184.436 110.782 184.715C110.503 184.981 110.11 185.114 109.604 185.114C109.16 185.114 108.793 184.987 108.502 184.734C108.223 184.481 108.071 184.139 108.046 183.708C107.868 184.164 107.571 184.519 107.153 184.772C106.735 185.025 106.234 185.152 105.652 185.152C105.006 185.152 104.423 185.025 103.904 184.772C103.384 184.506 102.973 184.145 102.669 183.689C102.377 183.22 102.232 182.695 102.232 182.112C102.232 181.441 102.403 180.909 102.745 180.516C103.099 180.111 103.657 179.819 104.417 179.642C105.177 179.465 106.203 179.376 107.495 179.376H108.008V179.148C108.008 178.705 107.906 178.388 107.704 178.198C107.501 177.995 107.159 177.894 106.678 177.894C106.158 177.894 105.398 178.071 104.398 178.426C104.106 178.527 103.859 178.578 103.657 178.578C103.34 178.578 103.087 178.464 102.897 178.236C102.707 178.008 102.612 177.71 102.612 177.343C102.612 177.064 102.669 176.836 102.783 176.659C102.897 176.482 103.08 176.323 103.334 176.184C103.777 175.956 104.334 175.772 105.006 175.633C105.677 175.494 106.336 175.424 106.982 175.424ZM106.45 182.891C106.906 182.891 107.279 182.733 107.571 182.416C107.862 182.087 108.008 181.669 108.008 181.162V180.934H107.704C106.893 180.934 106.317 181.01 105.975 181.162C105.633 181.301 105.462 181.542 105.462 181.884C105.462 182.175 105.55 182.416 105.728 182.606C105.918 182.796 106.158 182.891 106.45 182.891ZM118.643 182.701C119.492 182.752 119.916 183.132 119.916 183.841C119.916 184.284 119.745 184.614 119.403 184.829C119.061 185.044 118.573 185.133 117.94 185.095L117.408 185.057C116.268 184.968 115.4 184.626 114.805 184.031C114.222 183.423 113.931 182.581 113.931 181.504V178.141H113.38C112.367 178.141 111.86 177.723 111.86 176.887C111.86 176.064 112.367 175.652 113.38 175.652H113.931V174.417C113.931 173.936 114.083 173.556 114.387 173.277C114.691 172.986 115.103 172.84 115.622 172.84C116.141 172.84 116.553 172.986 116.857 173.277C117.161 173.556 117.313 173.936 117.313 174.417V175.652H118.358C119.371 175.652 119.878 176.064 119.878 176.887C119.878 177.723 119.371 178.141 118.358 178.141H117.313V181.789C117.313 182.03 117.383 182.232 117.522 182.397C117.674 182.562 117.864 182.65 118.092 182.663L118.643 182.701ZM126.193 174.018C125.737 174.056 125.414 174.202 125.224 174.455C125.046 174.696 124.958 175.019 124.958 175.424V175.652H126.003C127.016 175.652 127.523 176.064 127.523 176.887C127.523 177.723 127.016 178.141 126.003 178.141H124.958V183.518C124.958 184.037 124.793 184.43 124.464 184.696C124.147 184.962 123.748 185.095 123.267 185.095C122.785 185.095 122.38 184.962 122.051 184.696C121.734 184.43 121.576 184.037 121.576 183.518V178.141H121.025C120.011 178.141 119.505 177.723 119.505 176.887C119.505 176.064 120.011 175.652 121.025 175.652H121.576C121.601 174.436 121.962 173.486 122.659 172.802C123.368 172.105 124.324 171.713 125.528 171.624L126.022 171.586C126.123 171.573 126.256 171.567 126.421 171.567C126.965 171.567 127.358 171.668 127.599 171.871C127.839 172.074 127.96 172.365 127.96 172.745C127.96 173.125 127.846 173.423 127.618 173.638C127.39 173.841 127.079 173.955 126.687 173.98L126.193 174.018ZM132.855 185.152C131.829 185.152 130.924 184.956 130.138 184.563C129.366 184.158 128.764 183.588 128.333 182.853C127.915 182.118 127.706 181.257 127.706 180.269C127.706 179.281 127.915 178.426 128.333 177.704C128.764 176.969 129.366 176.406 130.138 176.013C130.911 175.62 131.817 175.424 132.855 175.424C133.894 175.424 134.8 175.62 135.572 176.013C136.345 176.406 136.94 176.969 137.358 177.704C137.789 178.426 138.004 179.281 138.004 180.269C138.004 181.257 137.789 182.118 137.358 182.853C136.94 183.588 136.345 184.158 135.572 184.563C134.8 184.956 133.894 185.152 132.855 185.152ZM132.855 182.625C134.059 182.625 134.66 181.84 134.66 180.269C134.66 178.698 134.059 177.913 132.855 177.913C131.652 177.913 131.05 178.698 131.05 180.269C131.05 181.84 131.652 182.625 132.855 182.625ZM145.464 175.462C145.895 175.424 146.237 175.525 146.49 175.766C146.743 175.994 146.87 176.336 146.87 176.792C146.87 177.299 146.75 177.666 146.509 177.894C146.281 178.122 145.863 178.268 145.255 178.331L144.685 178.388C144.052 178.464 143.596 178.667 143.317 178.996C143.051 179.313 142.918 179.75 142.918 180.307V183.556C142.918 184.075 142.753 184.468 142.424 184.734C142.107 184.987 141.708 185.114 141.227 185.114C140.746 185.114 140.34 184.987 140.011 184.734C139.694 184.468 139.536 184.075 139.536 183.556V176.982C139.536 176.501 139.694 176.127 140.011 175.861C140.34 175.595 140.733 175.462 141.189 175.462C141.658 175.462 142.031 175.589 142.31 175.842C142.601 176.095 142.747 176.45 142.747 176.906V177.267C142.95 176.71 143.279 176.279 143.735 175.975C144.204 175.671 144.691 175.506 145.198 175.481L145.464 175.462ZM159.428 175.424C160.454 175.424 161.245 175.734 161.803 176.355C162.36 176.963 162.639 177.995 162.639 179.452V183.556C162.639 184.075 162.474 184.468 162.145 184.734C161.828 184.987 161.429 185.114 160.948 185.114C160.466 185.114 160.061 184.987 159.732 184.734C159.415 184.468 159.257 184.075 159.257 183.556V179.376C159.257 178.869 159.168 178.515 158.991 178.312C158.813 178.109 158.554 178.008 158.212 178.008C157.768 178.008 157.414 178.166 157.148 178.483C156.882 178.8 156.749 179.237 156.749 179.794V183.556C156.749 184.075 156.59 184.468 156.274 184.734C155.957 184.987 155.552 185.114 155.058 185.114C154.576 185.114 154.171 184.987 153.842 184.734C153.525 184.468 153.367 184.075 153.367 183.556V179.376C153.367 178.869 153.278 178.515 153.101 178.312C152.923 178.109 152.664 178.008 152.322 178.008C151.878 178.008 151.524 178.166 151.258 178.483C151.004 178.8 150.878 179.237 150.878 179.794V183.556C150.878 184.075 150.713 184.468 150.384 184.734C150.067 184.987 149.668 185.114 149.187 185.114C148.705 185.114 148.3 184.987 147.971 184.734C147.654 184.468 147.496 184.075 147.496 183.556V176.982C147.496 176.488 147.66 176.114 147.99 175.861C148.332 175.595 148.737 175.462 149.206 175.462C149.649 175.462 150.016 175.582 150.308 175.823C150.612 176.051 150.77 176.387 150.783 176.83C151.403 175.893 152.353 175.424 153.633 175.424C154.988 175.424 155.894 175.975 156.35 177.077C156.666 176.57 157.091 176.171 157.623 175.88C158.155 175.576 158.756 175.424 159.428 175.424Z" fill="#004189"/>
<path d="M73.0367 99.338H76.3376V78.2459H73.0367V76.0816H82.1529V78.2459H78.8478V99.2624H88.9346V95.0473H91.2314V101.427H73.0367V99.338Z" fill="#004189"/>
<path d="M93.9953 99.41H97.0452V85.3107H93.8154V83.2935H99.4842V99.41H102.538V101.427H93.9953V99.41Z" fill="#004189"/>
<path d="M117.666 92.019C117.666 86.7197 115.152 85.0598 111.96 85.0598C108.442 85.0598 106.396 87.6569 106.396 91.9812C106.396 96.3434 108.73 99.1212 112.282 99.1212C115.152 99.1212 117.666 97.3562 117.666 92.019ZM111.311 106.837C114.83 106.837 117.629 105.177 117.629 101.105V99.3019C117.629 98.6169 117.737 98.0033 117.737 98.0033H117.666C116.591 100.021 114.725 101.319 111.922 101.319C107.078 101.319 103.881 97.4612 103.881 92.0148C103.881 86.5684 106.86 82.8577 111.705 82.8577C114.253 82.8577 116.8 83.8326 117.771 86.0641H117.842C117.842 86.0641 117.771 85.812 117.771 85.2699C117.771 83.9377 118.311 83.2863 119.854 83.2863H123.084V85.3077H120.858C120.356 85.3077 120.068 85.5599 120.068 86.0641V100.991C120.068 106.761 115.834 108.997 111.383 108.997C109.337 108.997 107.253 108.455 105.496 107.556L106.429 105.572C106.433 105.576 108.659 106.837 111.311 106.837Z" fill="#004189"/>
<path d="M125.169 99.4095H128.219V78.0988H124.989V76.0816H130.662V86.033C130.662 86.8609 130.52 87.5123 130.52 87.5123H130.591C131.31 85.8187 133.749 82.8602 137.841 82.8602C142.292 82.8602 143.869 85.4195 143.869 89.8909V99.4095H146.957V101.427H141.43V90.5381C141.43 87.6888 141 85.1631 137.519 85.1631C133.641 85.1631 130.662 88.4074 130.662 92.736V99.4053H133.712V101.422H125.169V99.4095V99.4095Z" fill="#004189"/>
<path d="M150.023 85.3124H146.793V83.291H150.061V78.2817H152.466V83.291H157.026V85.3124H152.466V94.6124C152.466 98.8695 155.156 99.4453 156.558 99.4453C157.06 99.4453 157.382 99.3738 157.382 99.3738V101.5C157.382 101.5 156.951 101.572 156.34 101.572C154.257 101.572 150.023 100.887 150.023 94.831V85.3124V85.3124Z" fill="#004189"/>
<path d="M162.838 94.3633V96.204C162.838 98.3304 165.457 99.5575 168.364 99.5575C171.632 99.5575 174 97.9354 174 94.9769C174 91.6569 170.95 90.5054 167.682 89.2783C164.382 88.0176 160.934 86.6812 160.934 82.2476C160.934 77.814 164.486 75.6497 168.615 75.6497C172.205 75.6497 175.903 77.0575 175.903 79.6168V82.319H173.498V80.4447C173.498 78.8226 170.879 77.9569 168.615 77.9569C165.745 77.9569 163.52 79.3647 163.52 82.0669C163.52 85.1305 166.247 86.1055 169.297 87.2948C172.958 88.6648 176.585 90.0726 176.585 94.7205C176.585 99.1919 173.033 101.86 168.364 101.86C164.737 101.86 160.432 100.238 160.432 96.7755V94.3591H162.838V94.3633Z" fill="#004189"/>
<path d="M185.936 99.844C189.563 99.844 191.609 96.2005 191.609 93.0318V92.1661H190.567C189.094 92.1661 182.062 92.0232 182.062 96.2047C182.057 98.0748 183.421 99.844 185.936 99.844ZM190.421 90.3254H191.605V89.569C191.605 86.1776 189.772 84.9883 187.262 84.9883C184.212 84.9883 182.02 86.7534 182.02 86.7534L180.869 84.9127C180.869 84.9127 183.308 82.8577 187.404 82.8577C191.784 82.8577 194.044 85.2026 194.044 89.6699V98.6127C194.044 99.1548 194.332 99.407 194.834 99.407H196.809V101.424H193.868C192.324 101.424 191.713 100.739 191.713 99.4406V99.117C191.713 98.2513 191.822 97.7092 191.822 97.7092H191.751C191.751 97.7092 190.207 101.857 185.576 101.857C182.631 101.857 179.547 100.163 179.547 96.4484C179.543 90.5776 187.371 90.3254 190.421 90.3254Z" fill="#004189"/>
<path d="M199.428 99.41H202.483V85.3107H199.249V83.2935H204.922V99.41H207.971V101.427H199.428V99.41Z" fill="#004189"/>
<path d="M212.063 78.0988H208.866V76.0816H214.502V96.7073C214.502 98.1866 214.895 99.4095 216.547 99.4095C217.196 99.4095 217.551 99.3381 217.551 99.3381V101.431C217.551 101.431 216.87 101.54 216.15 101.54C213.782 101.54 212.058 100.351 212.058 96.888V78.0988H212.063Z" fill="#004189"/>
<path d="M99.6065 77.7925C99.6065 79.0533 98.979 79.6795 97.7281 79.6795C96.4772 79.6795 95.8496 79.0491 95.8496 77.7925C95.8496 76.5318 96.4772 75.9056 97.7281 75.9056C98.979 75.9056 99.6065 76.536 99.6065 77.7925Z" fill="#004189"/>
<path d="M204.595 77.7925C204.595 79.0533 203.967 79.6795 202.716 79.6795C201.461 79.6795 200.838 79.0491 200.838 77.7925C200.838 76.5318 201.465 75.9056 202.716 75.9056C203.967 75.9056 204.595 76.536 204.595 77.7925Z" fill="#004189"/>
<path d="M59.0669 71.0881C59.2274 71.6089 59.3838 72.1339 59.5359 72.6716C63.0341 85.0861 61.885 96.5817 56.2193 105.918C55.97 106.324 55.5644 106.612 55.0954 106.701C54.9898 106.722 54.88 106.731 54.7743 106.731C54.411 106.731 54.0561 106.617 53.7646 106.396C53.6336 106.299 40.5066 96.6113 24.8532 94.2529C24.1856 94.1513 23.6406 93.6601 23.4674 93.0038C23.2984 92.3476 23.5308 91.6532 24.0673 91.2382C25.2503 90.3152 26.4037 89.3371 27.5191 88.3125C26.9868 88.2108 26.4544 88.1219 25.9136 88.0415C25.2461 87.9398 24.7011 87.4487 24.5278 86.7924C24.3588 86.1361 24.5912 85.4417 25.1278 85.0268C31.9426 79.7172 37.5238 72.3287 41.4657 66.1172C29.9273 67.578 21 77.4477 21 89.4091C21 102.374 31.4864 112.883 44.4232 112.883C57.36 112.883 67.8464 102.374 67.8464 89.4091C67.8464 81.9952 64.4199 75.3899 59.0669 71.0881Z" fill="#004189"/>
<path d="M30.1659 85.8378C40.445 88.1702 48.8917 93.3303 52.2553 95.5993C59.7105 81.283 52.9414 65.2523 49.674 59C46.8836 64.5961 40.0601 76.9229 30.1659 85.8378Z" fill="white"/>
<path d="M76.5989 119.921L75.1061 117.302H74.6869V119.921H72.9385V112.982H75.873C76.4387 112.982 76.9193 113.078 77.3147 113.269C77.7168 113.46 78.0168 113.724 78.2144 114.06C78.4121 114.389 78.5109 114.758 78.5109 115.167C78.5109 115.628 78.3746 116.04 78.102 116.402C77.8361 116.765 77.4408 117.022 76.9159 117.173L78.5723 119.921H76.5989ZM74.6869 116.106H75.7707C76.0911 116.106 76.3297 116.03 76.4865 115.878C76.6501 115.727 76.7318 115.513 76.7318 115.236C76.7318 114.972 76.6501 114.765 76.4865 114.613C76.3297 114.462 76.0911 114.386 75.7707 114.386H74.6869V116.106Z" fill="white"/>
<path d="M81.5614 114.336V115.74H83.9029V117.045H81.5614V118.567H84.2096V119.921H79.813V112.982H84.2096V114.336H81.5614Z" fill="white"/>
<path d="M90.0174 118.695H87.3386L86.9091 119.921H85.0789L87.676 112.982H89.7005L92.2975 119.921H90.4469L90.0174 118.695ZM89.5675 117.391L88.678 114.85L87.7987 117.391H89.5675Z" fill="white"/>
<path d="M95.9816 112.982C96.7382 112.982 97.3994 113.127 97.9652 113.417C98.5309 113.707 98.9672 114.116 99.2739 114.643C99.5875 115.163 99.7443 115.766 99.7443 116.452C99.7443 117.13 99.5875 117.733 99.2739 118.26C98.9672 118.788 98.5275 119.196 97.9549 119.486C97.3892 119.776 96.7314 119.921 95.9816 119.921H93.2925V112.982H95.9816ZM95.8691 118.458C96.5303 118.458 97.0449 118.283 97.413 117.934C97.7811 117.585 97.9652 117.091 97.9652 116.452C97.9652 115.812 97.7811 115.315 97.413 114.959C97.0449 114.603 96.5303 114.425 95.8691 114.425H95.0409V118.458H95.8691Z" fill="white"/>
<path d="M101.744 120C101.437 120 101.185 119.914 100.987 119.743C100.796 119.565 100.701 119.348 100.701 119.091C100.701 118.827 100.796 118.606 100.987 118.428C101.185 118.251 101.437 118.162 101.744 118.162C102.044 118.162 102.289 118.251 102.48 118.428C102.678 118.606 102.777 118.827 102.777 119.091C102.777 119.348 102.678 119.565 102.48 119.743C102.289 119.914 102.044 120 101.744 120Z" fill="white"/>
<path d="M116.264 112.982L114.393 119.921H112.277L111.132 115.354L109.945 119.921H107.829L106.009 112.982H107.88L108.913 118.033L110.191 112.982H112.113L113.34 118.033L114.383 112.982H116.264Z" fill="white"/>
<path d="M121.006 119.921L119.513 117.302H119.094V119.921H117.346V112.982H120.28C120.846 112.982 121.327 113.078 121.722 113.269C122.124 113.46 122.424 113.724 122.622 114.06C122.819 114.389 122.918 114.758 122.918 115.167C122.918 115.628 122.782 116.04 122.509 116.402C122.243 116.765 121.848 117.022 121.323 117.173L122.98 119.921H121.006ZM119.094 116.106H120.178C120.498 116.106 120.737 116.03 120.894 115.878C121.057 115.727 121.139 115.513 121.139 115.236C121.139 114.972 121.057 114.765 120.894 114.613C120.737 114.462 120.498 114.386 120.178 114.386H119.094V116.106Z" fill="white"/>
<path d="M125.969 112.982V119.921H124.22V112.982H125.969Z" fill="white"/>
<path d="M132.604 112.982V114.336H130.702V119.921H128.953V114.336H127.052V112.982H132.604Z" fill="white"/>
<path d="M135.434 114.336V115.74H137.776V117.045H135.434V118.567H138.082V119.921H133.686V112.982H138.082V114.336H135.434Z" fill="white"/>
<path d="M140.24 120C139.933 120 139.681 119.914 139.483 119.743C139.292 119.565 139.197 119.348 139.197 119.091C139.197 118.827 139.292 118.606 139.483 118.428C139.681 118.251 139.933 118.162 140.24 118.162C140.54 118.162 140.785 118.251 140.976 118.428C141.174 118.606 141.273 118.827 141.273 119.091C141.273 119.348 141.174 119.565 140.976 119.743C140.785 119.914 140.54 120 140.24 120Z" fill="white"/>
<path d="M146.632 118.616H148.922V119.921H144.883V112.982H146.632V118.616Z" fill="white"/>
<path d="M151.709 114.336V115.74H154.05V117.045H151.709V118.567H154.357V119.921H149.961V112.982H154.357V114.336H151.709Z" fill="white"/>
<path d="M160.165 118.695H157.486L157.057 119.921H155.226L157.824 112.982H159.848L162.445 119.921H160.594L160.165 118.695ZM159.715 117.391L158.826 114.85L157.946 117.391H159.715Z" fill="white"/>
<path d="M167.1 119.921L165.608 117.302H165.188V119.921H163.44V112.982H166.375C166.94 112.982 167.421 113.078 167.816 113.269C168.218 113.46 168.518 113.724 168.716 114.06C168.914 114.389 169.013 114.758 169.013 115.167C169.013 115.628 168.876 116.04 168.604 116.402C168.338 116.765 167.942 117.022 167.417 117.173L169.074 119.921H167.1ZM165.188 116.106H166.272C166.593 116.106 166.831 116.03 166.988 115.878C167.152 115.727 167.233 115.513 167.233 115.236C167.233 114.972 167.152 114.765 166.988 114.613C166.831 114.462 166.593 114.386 166.272 114.386H165.188V116.106Z" fill="white"/>
<path d="M176.736 119.921H174.987L172.063 115.641V119.921H170.315V112.982H172.063L174.987 117.282V112.982H176.736V119.921Z" fill="white"/>
<path d="M179.026 120C178.719 120 178.467 119.914 178.269 119.743C178.078 119.565 177.983 119.348 177.983 119.091C177.983 118.827 178.078 118.606 178.269 118.428C178.467 118.251 178.719 118.162 179.026 118.162C179.325 118.162 179.571 118.251 179.762 118.428C179.959 118.606 180.058 118.827 180.058 119.091C180.058 119.348 179.959 119.565 179.762 119.743C179.571 119.914 179.325 120 179.026 120Z" fill="white"/>
<path d="M188.434 115.177C188.304 114.946 188.117 114.771 187.871 114.653C187.633 114.528 187.35 114.465 187.023 114.465C186.457 114.465 186.004 114.646 185.663 115.009C185.322 115.364 185.152 115.842 185.152 116.442C185.152 117.081 185.329 117.582 185.683 117.944C186.045 118.3 186.539 118.478 187.166 118.478C187.595 118.478 187.957 118.372 188.25 118.162C188.55 117.951 188.768 117.648 188.904 117.252H186.685V116.007H190.489V117.578C190.359 118 190.138 118.392 189.824 118.755C189.518 119.117 189.126 119.41 188.648 119.634C188.171 119.858 187.633 119.97 187.033 119.97C186.324 119.97 185.69 119.822 185.131 119.526C184.579 119.222 184.146 118.804 183.833 118.27C183.526 117.737 183.372 117.127 183.372 116.442C183.372 115.756 183.526 115.147 183.833 114.613C184.146 114.073 184.579 113.654 185.131 113.358C185.683 113.055 186.314 112.903 187.023 112.903C187.882 112.903 188.604 113.104 189.19 113.506C189.783 113.908 190.175 114.465 190.366 115.177H188.434Z" fill="white"/>
<path d="M195.322 119.921L193.83 117.302H193.41V119.921H191.662V112.982H194.596C195.162 112.982 195.643 113.078 196.038 113.269C196.44 113.46 196.74 113.724 196.938 114.06C197.135 114.389 197.234 114.758 197.234 115.167C197.234 115.628 197.098 116.04 196.825 116.402C196.56 116.765 196.164 117.022 195.639 117.173L197.296 119.921H195.322ZM193.41 116.106H194.494C194.814 116.106 195.053 116.03 195.21 115.878C195.373 115.727 195.455 115.513 195.455 115.236C195.455 114.972 195.373 114.765 195.21 114.613C195.053 114.462 194.814 114.386 194.494 114.386H193.41V116.106Z" fill="white"/>
<path d="M201.931 119.99C201.256 119.99 200.636 119.839 200.07 119.535C199.511 119.232 199.065 118.811 198.731 118.27C198.403 117.723 198.24 117.111 198.24 116.432C198.24 115.753 198.403 115.144 198.731 114.603C199.065 114.063 199.511 113.641 200.07 113.338C200.636 113.035 201.256 112.883 201.931 112.883C202.606 112.883 203.223 113.035 203.782 113.338C204.347 113.641 204.791 114.063 205.111 114.603C205.438 115.144 205.602 115.753 205.602 116.432C205.602 117.111 205.438 117.723 205.111 118.27C204.784 118.811 204.341 119.232 203.782 119.535C203.223 119.839 202.606 119.99 201.931 119.99ZM201.931 118.448C202.504 118.448 202.96 118.264 203.301 117.895C203.649 117.526 203.823 117.038 203.823 116.432C203.823 115.819 203.649 115.331 203.301 114.969C202.96 114.6 202.504 114.416 201.931 114.416C201.352 114.416 200.888 114.597 200.54 114.959C200.2 115.322 200.029 115.812 200.029 116.432C200.029 117.045 200.2 117.536 200.54 117.905C200.888 118.267 201.352 118.448 201.931 118.448Z" fill="white"/>
<path d="M216.656 112.982L214.785 119.921H212.668L211.523 115.354L210.337 119.921H208.221L206.401 112.982H208.272L209.304 118.033L210.582 112.982H212.505L213.732 118.033L214.775 112.982H216.656Z" fill="white"/>
<path d="M218.555 120C218.249 120 217.996 119.914 217.799 119.743C217.608 119.565 217.512 119.348 217.512 119.091C217.512 118.827 217.608 118.606 217.799 118.428C217.996 118.251 218.249 118.162 218.555 118.162C218.855 118.162 219.101 118.251 219.291 118.428C219.489 118.606 219.588 118.827 219.588 119.091C219.588 119.348 219.489 119.565 219.291 119.743C219.101 119.914 218.855 120 218.555 120Z" fill="white"/>
</g>
<defs>
<filter id="filter0_d" x="-20" y="-10" width="280" height="280" filterUnits="userSpaceOnUse" color-interpolation-filters="sRGB">
<feFlood flood-opacity="0" result="BackgroundImageFix"/>
<feColorMatrix in="SourceAlpha" type="matrix" values="0 0 0 0 0 0 0 0 0 0 0 0 0 0 0 0 0 0 127 0"/>
<feOffset dy="10"/>
<feGaussianBlur stdDeviation="10"/>
<feColorMatrix type="matrix" values="0 0 0 0 1 0 0 0 0 0.707246 0 0 0 0 0.0125 0 0 0 0.3 0"/>
<feBlend mode="normal" in2="BackgroundImageFix" result="effect1_dropShadow"/>
<feBlend mode="normal" in="SourceGraphic" in2="effect1_dropShadow" result="shape"/>
</filter>
<linearGradient id="paint0_linear" x1="172.909" y1="240" x2="120" y2="-11.4546" gradientUnits="userSpaceOnUse">
<stop stop-color="#FFC94A"/>
<stop offset="1" stop-color="#FF9900"/>
</linearGradient>
<linearGradient id="paint1_linear" x1="25.1043" y1="-47.0636" x2="216.981" y2="481.194" gradientUnits="userSpaceOnUse">
<stop stop-color="#FFF200"/>
<stop offset="0.5" stop-color="#FF6A00"/>
<stop offset="0.9948" stop-color="#E600B4"/>
</linearGradient>
<linearGradient id="paint2_linear" x1="-15.0435" y1="313.014" x2="33.6055" y2="-27.833" gradientUnits="userSpaceOnUse">
<stop stop-color="#E03C25"/>
<stop offset="1" stop-color="#DD371D"/>
</linearGradient>
<linearGradient id="paint3_linear" x1="44.1614" y1="245.235" x2="144.767" y2="30.1612" gradientUnits="userSpaceOnUse">
<stop stop-color="#D52D03"/>
<stop offset="1" stop-color="#E22B57" stop-opacity="0"/>
</linearGradient>
<linearGradient id="paint4_linear" x1="73.3849" y1="310.87" x2="122.034" y2="-29.9783" gradientUnits="userSpaceOnUse">
<stop stop-color="#FF3400"/>
<stop offset="1" stop-color="#E22B57" stop-opacity="0"/>
</linearGradient>
<linearGradient id="paint5_linear" x1="152.246" y1="310.881" x2="200.896" y2="-29.9686" gradientUnits="userSpaceOnUse">
<stop stop-color="#DE381F"/>
<stop offset="1" stop-color="#DE3820"/>
</linearGradient>
<linearGradient id="paint6_linear" x1="191.74" y1="327.758" x2="240.387" y2="-13.0834" gradientUnits="userSpaceOnUse">
<stop stop-color="#FF3400"/>
<stop offset="1" stop-color="#EC5630"/>
</linearGradient>
<linearGradient id="paint7_linear" x1="-3.42429" y1="299.907" x2="45.2252" y2="-40.9422" gradientUnits="userSpaceOnUse">
<stop stop-color="#EC5630"/>
<stop offset="1" stop-color="#E22B57" stop-opacity="0"/>
</linearGradient>
<linearGradient id="paint8_linear" x1="131.331" y1="319.14" x2="179.98" y2="-21.7086" gradientUnits="userSpaceOnUse">
<stop stop-color="#EC5630"/>
<stop offset="1" stop-color="#EC5630"/>
</linearGradient>
<linearGradient id="paint9_linear" x1="195.502" y1="323.009" x2="244.152" y2="-17.84" gradientUnits="userSpaceOnUse">
<stop stop-color="#EC5630"/>
<stop offset="1" stop-color="#E22B57" stop-opacity="0"/>
</linearGradient>
<clipPath id="clip0">
<rect width="240" height="240" rx="120" fill="white"/>
</clipPath>
</defs>
</svg>
