<svg width="100" height="100" viewBox="0 0 100 100" fill="none" xmlns="http://www.w3.org/2000/svg">
<path d="M99.9977 49.9996C99.9977 52.9208 99.7451 55.787 99.2619 58.5653C98.9984 60.0589 98.6799 61.5304 98.2955 62.98C96.1651 70.9307 92.1238 78.0908 86.6989 83.955C84.7331 86.0855 82.5807 88.0402 80.2636 89.7973C78.1331 91.4226 75.8599 92.8831 73.4769 94.157C70.2483 95.8811 66.811 97.2539 63.209 98.2422C59.003 99.3953 54.5774 99.9993 50.009 99.9993C47.9115 99.9993 45.8469 99.8675 43.8263 99.6149C26.8925 97.5284 12.5723 86.964 5.25853 72.3034C2.40329 66.593 0.613283 60.2675 0.141069 53.5797C0.0532156 52.3936 0.00927734 51.1966 0.00927734 49.9996C0.00927734 42.4552 1.6785 35.3061 4.66553 28.8928C7.33408 23.1604 11.0679 18.021 15.5923 13.7271C19.7764 9.75174 24.6522 6.49018 30.0223 4.15108C36.1391 1.48253 42.9038 0 49.998 0C71.5551 0 89.9275 13.6393 96.9448 32.7694C98.6909 37.5354 99.7342 42.6309 99.9538 47.957C99.9867 48.6269 99.9977 49.3078 99.9977 49.9996Z" fill="url(#paint0_radial)"/>
<path d="M5.24932 72.3038C4.90888 71.6229 4.57943 70.9201 4.27194 70.2173C1.99873 65.0888 0.571115 59.5211 0.142828 53.6679C0.142828 53.6349 0.142818 53.613 0.131836 53.58C1.14215 53.4483 2.52585 53.9095 3.53617 56.7537C4.843 60.4546 10.9269 69.4705 5.24932 72.3038Z" fill="#E33E14"/>
<path d="M44.5201 63.8035C44.4542 64.2098 44.3114 64.5941 44.1028 64.9456C42.5104 67.8008 36.9647 69.2064 30.782 68.1412C25.4009 67.2078 21.1071 64.66 19.7234 61.8926C19.3171 61.08 19.1633 60.2564 19.3061 59.4327C19.932 55.8308 25.983 54.9632 32.9454 56.1822C39.9078 57.3792 45.146 60.2015 44.5201 63.8035Z" fill="#E33E14"/>
<path d="M29.7057 39.9955L29.6947 40.0065C28.311 42.093 23.9952 40.1822 18.9765 36.8987C14.8804 34.2191 11.9592 31.5506 11.7616 29.519C11.7176 29.0577 11.8165 28.6185 12.0691 28.2231C13.4528 26.1147 18.9436 25.9719 23.9732 29.2664C29.0028 32.5609 31.0894 37.887 29.7057 39.9955Z" fill="#E33E14"/>
<path d="M85.0977 70.7882C81.0455 74.1705 76.1916 75.0381 74.2698 72.721C74.1709 72.6002 74.0831 72.4794 74.0062 72.3476C72.5347 69.9426 74.2917 65.6268 78.1353 62.4311C82.0448 59.1696 86.6901 58.2471 88.7437 60.2567C88.8205 60.3336 88.8974 60.4105 88.9633 60.4874C90.8851 62.8045 89.161 67.4168 85.0977 70.7882Z" fill="#E33E14"/>
<path d="M55.8638 43.0592C51.7676 46.2988 47.6055 48.0888 45.2225 45.0798C44.9919 44.7943 44.8052 44.4868 44.6404 44.1573C43.125 41.1044 44.6185 36.6788 48.3303 33.7467C52.4265 30.5071 58.0162 28.9806 61.8268 33.8016C61.8488 33.8346 61.8817 33.8675 61.8927 33.9004C64.133 36.8765 59.927 39.8525 55.8638 43.0592Z" fill="#E33E14"/>
<path d="M39.5016 88.3039C38.9086 88.8749 37.7336 89.1934 35.8886 89.1056C29.1239 88.8091 21.7772 80.5728 23.8307 77.9262C23.8637 77.8823 23.8966 77.8493 23.9296 77.8164C26.06 75.4114 31.3971 79.7382 34.1206 81.1658C38.6121 83.5159 41.072 86.7994 39.5016 88.3039Z" fill="#E33E14"/>
<path d="M66.0334 82.2311C66.0444 83.7905 63.9249 85.4378 60.5865 85.5806C54.4807 85.8441 50.9995 84.6691 50.1758 82.4947C50.088 82.2641 50.0331 82.0225 50.0001 81.7589C49.7036 79.1123 55.2933 79.5626 58.2364 79.4089C63.7602 79.1123 66.0224 80.6278 66.0334 82.2311Z" fill="#E33E14"/>
<path d="M84.5379 47.1447C83.868 48.144 82.5721 48.8249 80.8919 48.8249C75.5987 48.8249 68.5375 45.0033 69.427 41.4671C69.5259 41.0608 69.6796 40.7094 69.8553 40.4239C71.2171 38.2276 74.6543 39.2928 77.9598 39.9956C84.5708 41.4013 85.9874 45.0033 84.5379 47.1447Z" fill="#E33E14"/>
<path d="M67.3511 21.1726C67.2852 21.0189 67.2522 20.8431 67.2303 20.6565C67.0985 19.152 68.581 16.9556 71.4692 16.1649C73.3471 15.6488 75.8838 15.7147 77.4542 16.6811C78.1461 17.1094 78.6402 17.7024 78.8269 18.515C79.2662 20.5357 68.2845 23.5117 67.3511 21.1726Z" fill="#E33E14"/>
<path d="M37.1741 16.4948C36.8007 16.7145 36.3614 16.6486 35.8892 16.1764C32.6496 12.9368 32.3641 7.64358 34.1211 6.76505C34.813 6.41363 35.417 6.30382 35.9331 6.35873C39.4473 6.75407 39.0629 15.3527 37.1741 16.4948Z" fill="#E33E14"/>
<path d="M92.6416 34.9985C92.4109 35.1084 92.1364 35.1303 91.8399 35.0534C90.6099 34.735 89.0066 32.8461 88.5234 30.0019C88.2489 28.3327 89.0835 26.7293 90.1707 26.2242C91.3787 25.6531 92.9051 26.4438 93.5201 30.0019C93.8825 32.0225 93.8276 34.4055 92.6416 34.9985Z" fill="#E33E14"/>
<path d="M86.7011 83.9551C82.9124 88.0513 78.4428 91.5105 73.4791 94.1461C72.919 93.8716 72.4139 93.4652 72.2162 92.8832C72.0405 92.3671 72.1174 91.7082 72.6555 90.8736C74.7091 87.634 76.7736 82.6373 81.4738 82.3408C82.8465 82.2529 83.9337 82.4177 84.8012 82.7251C85.6358 83.0326 86.2508 83.4719 86.7011 83.9551Z" fill="#E33E14"/>
<path d="M63.2001 98.2316C58.9941 99.3847 54.5685 99.9887 50.0001 99.9887C47.9026 99.9887 45.838 99.8569 43.8174 99.6044C43.8174 99.0113 43.9272 98.3744 44.2896 97.8363C44.641 97.3202 45.2231 96.9029 46.1785 96.7491C49.7036 96.1561 51.4716 93.806 56.4683 94.1025C59.06 94.2563 60.872 95.5192 62.0031 96.6942C62.5632 97.2872 62.9475 97.8363 63.2001 98.2316Z" fill="#E33E14"/>
<path d="M56.8084 7.12757C56.5558 8.37949 54.4364 8.82973 53.4151 8.35752C53.1954 8.25869 53.0307 8.11592 52.9429 7.94022C52.3498 6.76518 56.2264 4.56884 56.7645 6.46867C56.8304 6.71027 56.8414 6.9299 56.8084 7.12757Z" fill="#E33E14"/>
<path d="M41.4788 73.2258C40.161 72.5669 39.1287 72.0507 39.4252 74.6973C39.7217 77.3439 41.7753 77.9369 43.5433 77.9369C45.3004 77.9369 42.6538 73.8188 41.4788 73.2258Z" fill="#E03B11"/>
<path d="M17.0662 71.4684C15.8911 71.1719 15.8911 73.2364 15.0126 75.29C14.1341 77.3436 15.3091 78.8151 17.0662 78.8151C18.8342 78.8151 19.4163 72.0504 17.0662 71.4684Z" fill="#E03B11"/>
<path d="M11.7721 44.9921C10.641 44.476 9.42201 43.8171 9.1255 44.9921C8.82899 46.1672 11.4756 49.4068 12.9471 49.4068C14.4187 49.4068 15.0007 46.4637 11.7721 44.9921Z" fill="#E03B11"/>
<path d="M99.9997 49.9997C99.9997 52.9209 99.7472 55.7871 99.264 58.5655C98.8357 58.4007 98.3964 58.1042 97.9352 57.643C94.9921 54.6999 97.2214 50.5269 97.9352 49.1102C98.7259 47.5289 99.5165 47.6716 99.9558 47.9462C99.9888 48.627 99.9997 49.3079 99.9997 49.9997Z" fill="#E03B11"/>
<path d="M69.7121 53.2286C68.0099 53.0199 67.0655 54.4036 69.7121 55.5786C72.3587 56.7647 72.0622 53.5251 69.7121 53.2286Z" fill="#E03B11"/>
<path d="M6.47935 39.9949C5.68867 40.3903 5.60082 42.0485 7.6544 41.763C9.70798 41.4665 8.23642 39.1164 6.47935 39.9949Z" fill="#E03B11"/>
<path d="M48.2432 19.4156C47.3647 19.7121 46.1896 20.5906 48.2432 20.8871C50.2968 21.1727 49.1217 19.1191 48.2432 19.4156Z" fill="#E03B11"/>
<path d="M53.2398 19.4157C52.1636 18.7898 52.0648 21.7658 52.9434 22.9408C53.8219 24.1159 56.765 21.4693 53.2398 19.4157Z" fill="#E03B11"/>
<path d="M62.6516 89.1165C62.0147 89.2593 61.7731 90.2915 63.5302 90.8845C65.2982 91.4666 65.2982 88.5235 62.6516 89.1165Z" fill="#E03B11"/>
<path d="M37.063 94.1129C36.1845 94.4094 35.295 94.9914 37.063 95.5844C38.8311 96.1665 37.9416 93.8164 37.063 94.1129Z" fill="#E03B11"/>
<path d="M38.5354 50.8781C37.0419 50.9549 40.3034 52.9317 41.182 53.2282C42.0605 53.5247 44.7071 50.5816 38.5354 50.8781Z" fill="#E03B11"/>
<path d="M86.7666 43.2353C86.0309 43.8063 87.3597 47.0569 88.5347 46.7604C89.7098 46.4639 89.4132 41.1707 86.7666 43.2353Z" fill="#E03B11"/>
<path d="M63.1129 63.8475C62.9811 64.3526 62.8164 64.8468 62.6516 65.2861C61.7951 67.5812 56.7325 68.4817 55.3927 67.4275C55.3598 67.4055 55.3268 67.3726 55.2939 67.3396C54.1188 66.1646 55.261 63.2105 55.8869 61.7499C56.7654 59.6964 61.1801 58.2248 62.6516 58.8069C63.8377 59.301 63.6839 61.706 63.1129 63.8475Z" fill="#E33E14"/>
<path d="M11.7616 29.5301C11.7176 29.0689 11.8165 28.6296 12.0691 28.2342C13.4528 26.1258 18.9436 25.983 23.9732 29.2775C29.0028 32.572 31.0894 37.8981 29.7057 40.0066L29.6947 40.0176C29.7716 38.7327 29.2335 36.9317 27.3556 34.4169C22.4578 27.8828 13.5296 25.6316 11.7616 29.5301Z" fill="#E0270B"/>
<path d="M44.5201 63.8041C44.4542 64.2104 44.3114 64.5948 44.1028 64.9462C43.982 64.441 42.8948 60.4766 37.942 58.8184C32.8026 57.1052 25.8841 55.5788 21.766 58.8184C20.4482 59.8507 19.8881 60.9159 19.7234 61.8823C19.3171 61.0696 19.1633 60.246 19.3061 59.4224C19.932 55.8204 25.983 54.9528 32.9454 56.1718C39.9078 57.3798 45.146 60.2021 44.5201 63.8041Z" fill="#E0270B"/>
<path d="M52.6461 32.9341C47.1772 34.8229 44.8711 40.182 44.6404 44.1573C43.125 41.1044 44.6185 36.6788 48.3303 33.7467C52.4265 30.5071 58.0162 28.9806 61.8268 33.8016C61.8488 33.8346 61.8817 33.8675 61.8927 33.9004C60.2455 32.6266 57.2474 31.3527 52.6461 32.9341Z" fill="#E0270B"/>
<path d="M63.1121 63.8475C63.0572 61.717 62.5301 59.312 60.3008 59.9929C58.0166 60.6957 55.4249 64.8358 55.403 67.4275C55.37 67.4055 55.3371 67.3726 55.3041 67.3396C54.1291 66.1646 55.2712 63.2105 55.8972 61.7499C56.7757 59.6964 61.1904 58.2248 62.6619 58.8069C63.8369 59.301 63.6832 61.706 63.1121 63.8475Z" fill="#E0270B"/>
<path d="M84.5373 47.1447C85.2072 43.2681 78.9915 42.0162 75.8837 40.8851C72.8088 39.765 70.7003 40.1603 69.8438 40.4239C71.2055 38.2276 74.6428 39.2928 77.9483 39.9956C84.5702 41.4013 85.9869 45.0033 84.5373 47.1447Z" fill="#E0270B"/>
<path d="M67.3508 21.1727C67.2849 21.0189 67.2519 20.8432 67.23 20.6565C69.0859 21.8865 73.841 20.8871 76.4656 19.7011C78.3435 18.8445 78.036 17.5926 77.4539 16.6921C78.1458 17.1204 78.64 17.7134 78.8267 18.5261C79.2659 20.5357 68.2842 23.5118 67.3508 21.1727Z" fill="#E0270B"/>
<path d="M37.1741 16.4948C36.8007 16.7145 36.3614 16.6486 35.8892 16.1764C32.6496 12.9368 32.3641 7.64358 34.1211 6.76505C34.813 6.41363 35.417 6.30382 35.9331 6.35873C35.2193 6.49051 34.1211 7.11646 34.1211 9.70814C34.1211 12.6952 35.5597 15.1441 37.1741 16.4948Z" fill="#E0270B"/>
<path d="M56.8084 7.12757C56.7096 6.62242 56.3143 6.13922 55.0074 6.46867C53.9422 6.73223 53.5359 7.54488 53.4151 8.35752C53.1954 8.25869 53.0307 8.11592 52.9429 7.94022C52.3498 6.76518 56.2264 4.56884 56.7645 6.46867C56.8304 6.71027 56.8414 6.9299 56.8084 7.12757Z" fill="#E0270B"/>
<path d="M39.5018 88.3039C39.2492 86.7225 37.7996 85.1851 35.2958 83.8124C32.0562 82.0443 29.7061 80.2873 27.6525 78.8157C26.5763 78.047 25.0937 77.8383 23.9297 77.8164C26.0601 75.4114 31.3972 79.7382 34.1207 81.1658C38.6122 83.5159 41.0721 86.7994 39.5018 88.3039Z" fill="#E0270B"/>
<path d="M66.0334 82.2309C65.5612 81.0559 64.1336 80.5727 61.7615 80.5727H53.5253C50.3735 80.5727 50.1758 82.3956 50.1758 82.4835C50.088 82.2529 50.0331 82.0113 50.0001 81.7477C49.7036 79.1011 55.2933 79.5514 58.2364 79.3976C63.7602 79.1121 66.0224 80.6276 66.0334 82.2309Z" fill="#E0270B"/>
<path d="M62.0031 96.7052C62.5632 97.2762 62.9475 97.8363 63.2001 98.2317C58.9941 99.3847 54.5685 99.9887 50.0001 99.9887C47.9026 99.9887 45.838 99.8569 43.8174 99.6044C43.8174 99.0114 43.9272 98.3744 44.2896 97.8363C54.0633 100.142 59.6969 98.001 62.0031 96.7052Z" fill="#E0270B"/>
<path d="M86.7007 83.9555C82.912 88.0517 78.4424 91.5109 73.4787 94.1465C72.9186 93.872 72.4135 93.4657 72.2158 92.8836C80.4192 89.8088 83.9662 84.2411 84.8008 82.7366C85.6355 83.0331 86.2504 83.4723 86.7007 83.9555Z" fill="#E0270B"/>
<path d="M88.7437 60.2563C88.0848 60.0256 83.3955 58.7188 77.9376 64.9894C75.1812 68.1631 74.2258 70.623 74.0062 72.3471C72.5347 69.9421 74.2917 65.6263 78.1353 62.4306C82.0448 59.1801 86.6901 58.2466 88.7437 60.2563Z" fill="#E0270B"/>
<path d="M91.8399 35.043C90.6099 34.7246 89.0066 32.8357 88.5234 29.9914C88.2489 28.3222 89.0835 26.7189 90.1707 26.2137C89.6985 26.8397 89.2592 27.7951 89.4019 29.1129C89.6545 31.2434 90.4562 33.3738 91.8399 35.043Z" fill="#E0270B"/>
<path d="M5.24932 72.3038C4.90888 71.6229 4.57943 70.9201 4.27194 70.2173C5.6776 68.9434 7.0613 66.6153 5.30423 62.9364C3.12985 58.379 2.07561 54.4586 0.142828 53.6679C0.142828 53.6349 0.142818 53.613 0.131836 53.58C1.14215 53.4483 2.52585 53.9095 3.53617 56.7537C4.843 60.4546 10.9269 69.4705 5.24932 72.3038Z" fill="#E0270B"/>
<path opacity="0.35" d="M99.9994 49.9999C99.9994 52.921 99.7468 55.7872 99.2636 58.5656C97.5834 68.2734 93.1029 77.0258 86.6896 83.9553C82.9009 88.0514 78.4314 91.5107 73.4676 94.1463C70.239 95.8704 66.8017 97.2431 63.1997 98.2315C58.9937 99.3845 54.5681 99.9885 49.9997 99.9885C47.9022 99.9885 45.8376 99.8568 43.817 99.6042C26.8832 97.5176 12.5631 86.9533 5.24925 72.2927C2.39401 66.5822 0.603988 60.2568 0.131775 53.5689C0.0439215 52.3829 0 51.1859 0 49.9889C0 42.4445 1.66923 35.2954 4.65625 28.8821C5.13944 72.1829 94.5525 83.0657 96.9465 32.7476C98.6926 37.5137 99.7359 42.6092 99.9555 47.9353C99.9884 48.6272 99.9994 49.308 99.9994 49.9999Z" fill="url(#paint1_linear)"/>
<path opacity="0.45" d="M80.2656 89.7974C78.1351 91.4227 75.8619 92.8833 73.4788 94.1572C70.2502 95.8813 66.813 97.254 63.211 98.2424C59.005 99.3955 54.5793 99.9994 50.0109 99.9994C47.9134 99.9994 45.8489 99.8677 43.8283 99.6151C26.8945 97.5286 12.5743 86.9642 5.26048 72.3036C2.40524 66.5931 0.615236 60.2677 0.143022 53.5798C0.0551687 52.3938 0.0112305 51.1968 0.0112305 49.9998C0.0112305 42.4554 1.68046 35.3063 4.66748 28.893C7.33603 23.1606 11.0698 18.0211 15.5943 13.7273C1.64751 80.2434 52.9431 89.457 80.2656 89.7974Z" fill="url(#paint2_linear)"/>
<path d="M99.9989 49.9996C99.9989 52.9208 99.7463 55.787 99.2631 58.5653C98.9995 60.0589 98.6811 61.5304 98.2967 62.98C96.5616 22.765 69.327 -0.0988343 30.0234 4.15108C36.1402 1.48253 42.905 0 49.9991 0C71.5562 0 89.9286 13.6393 96.9459 32.7694C98.692 37.5354 99.7353 42.6309 99.955 47.957C99.9879 48.6269 99.9989 49.3078 99.9989 49.9996Z" fill="url(#paint3_linear)"/>
<defs>
<radialGradient id="paint0_radial" cx="0" cy="0" r="1" gradientUnits="userSpaceOnUse" gradientTransform="translate(47.7954 23.529) scale(76.3456 76.3455)">
<stop stop-color="#EC7430"/>
<stop offset="1" stop-color="#EC5630"/>
</radialGradient>
<linearGradient id="paint1_linear" x1="7.29482" y1="76.4261" x2="95.7168" y2="35.0579" gradientUnits="userSpaceOnUse">
<stop stop-color="#FF9900"/>
<stop offset="1" stop-color="#FF9900" stop-opacity="0"/>
</linearGradient>
<linearGradient id="paint2_linear" x1="40.3422" y1="122.314" x2="39.8544" y2="-1.59392" gradientUnits="userSpaceOnUse">
<stop stop-color="#EC5630"/>
<stop offset="1" stop-color="#EC5630"/>
</linearGradient>
<linearGradient id="paint3_linear" x1="94.4741" y1="-0.0220696" x2="64.0559" y2="33.6807" gradientUnits="userSpaceOnUse">
<stop stop-color="#EC5630"/>
<stop offset="1" stop-color="#EC5630" stop-opacity="0"/>
</linearGradient>
</defs>
</svg>
