<svg width="80" height="80" viewBox="0 0 80 80" fill="none" xmlns="http://www.w3.org/2000/svg">
<path d="M79.9996 39.9998C79.9996 42.3367 79.7975 44.6297 79.4109 46.8524C79.2001 48.0472 78.9453 49.2244 78.6378 50.3841C76.9335 56.7447 73.7005 62.4728 69.3605 67.1642C67.7879 68.8685 66.066 70.4323 64.2123 71.838C62.5079 73.1382 60.6893 74.3067 58.7829 75.3258C56.2 76.7051 53.4502 77.8032 50.5686 78.5939C47.2038 79.5164 43.6633 79.9996 40.0086 79.9996C38.3306 79.9996 36.6789 79.8942 35.0624 79.6921C21.5154 78.0229 10.0592 69.5714 4.20819 57.8429C1.924 53.2745 0.491993 48.2141 0.114223 42.8638C0.0439397 41.915 0.00878906 40.9574 0.00878906 39.9998C0.00878906 33.9643 1.34417 28.245 3.73379 23.1144C5.86863 18.5284 8.85566 14.4168 12.4752 10.9818C15.8225 7.80146 19.7232 5.19221 24.0192 3.32093C28.9127 1.18609 34.3244 6.10352e-05 39.9998 6.10352e-05C57.2455 6.10352e-05 71.9434 10.9115 77.5572 26.2156C78.9541 30.0284 79.7887 34.1048 79.9644 38.3657C79.9908 38.9016 79.9996 39.4463 79.9996 39.9998Z" fill="url(#paint0_radial)"/>
<path d="M4.19945 57.8428C3.92711 57.2981 3.66355 56.7358 3.41756 56.1736C1.59899 52.0708 0.456892 47.6166 0.114263 42.934C0.114263 42.9077 0.114254 42.8901 0.105469 42.8638C0.913723 42.7583 2.02068 43.1273 2.82894 45.4027C3.8744 48.3634 8.74149 55.5762 4.19945 57.8428Z" fill="#FFB403"/>
<path d="M35.6163 51.0427C35.5636 51.3677 35.4494 51.6752 35.2824 51.9563C34.0086 54.2405 29.5719 55.3651 24.6258 54.5129C20.3209 53.7661 16.8859 51.7279 15.7789 49.514C15.4538 48.8639 15.3309 48.205 15.4451 47.5461C15.9458 44.6645 20.7866 43.9704 26.3565 44.9456C31.9264 45.9032 36.117 48.1611 35.6163 51.0427Z" fill="#FFB403"/>
<path d="M23.7643 31.9966L23.7555 32.0053C22.6485 33.6746 19.1959 32.1459 15.1809 29.5191C11.904 27.3755 9.56709 25.2406 9.40896 23.6153C9.37381 23.2463 9.4529 22.8949 9.65496 22.5786C10.7619 20.8919 15.1546 20.7776 19.1783 23.4133C23.202 26.0489 24.8712 30.3098 23.7643 31.9966Z" fill="#FFB403"/>
<path d="M68.0777 56.6302C64.8359 59.3361 60.9528 60.0301 59.4153 58.1764C59.3362 58.0797 59.266 57.9831 59.2045 57.8777C58.0272 55.9537 59.4329 52.501 62.5078 49.9445C65.6354 47.3353 69.3516 46.5973 70.9945 48.205C71.0559 48.2665 71.1174 48.328 71.1701 48.3895C72.7076 50.2432 71.3283 53.9331 68.0777 56.6302Z" fill="#FFB403"/>
<path d="M44.6914 34.4476C41.4145 37.0392 38.0848 38.4712 36.1784 36.0641C35.9939 35.8356 35.8445 35.5897 35.7127 35.3261C34.5004 32.8838 35.6952 29.3433 38.6646 26.9976C41.9416 24.4059 46.4133 23.1847 49.4618 27.0415C49.4794 27.0678 49.5058 27.0942 49.5146 27.1206C51.3068 29.5014 47.942 31.8822 44.6914 34.4476Z" fill="#FFB403"/>
<path d="M31.601 70.6431C31.1266 71.1 30.1866 71.3547 28.7106 71.2845C23.2988 71.0473 17.4214 64.4582 19.0643 62.341C19.0907 62.3058 19.117 62.2795 19.1434 62.2531C20.8477 60.3291 25.1174 63.7905 27.2962 64.9326C30.8894 66.8127 32.8573 69.4395 31.601 70.6431Z" fill="#FFB403"/>
<path d="M52.8259 65.7847C52.8347 67.0322 51.1392 68.35 48.4684 68.4642C43.5838 68.6751 40.7988 67.7351 40.1399 65.9955C40.0696 65.8111 40.0257 65.6178 39.9993 65.4069C39.7621 63.2897 44.2339 63.6499 46.5883 63.5269C51.0074 63.2897 52.8172 64.502 52.8259 65.7847Z" fill="#FFB403"/>
<path d="M67.6293 37.7153C67.0934 38.5148 66.0567 39.0595 64.7126 39.0595C60.478 39.0595 54.829 36.0022 55.5406 33.1733C55.6197 32.8482 55.7427 32.5671 55.8833 32.3387C56.9727 30.5816 59.7225 31.4338 62.3669 31.996C67.6557 33.1206 68.789 36.0022 67.6293 37.7153Z" fill="#FFB403"/>
<path d="M53.8805 16.9383C53.8278 16.8153 53.8014 16.6747 53.7838 16.5254C53.6784 15.3218 54.8644 13.5647 57.175 12.9321C58.6773 12.5192 60.7067 12.5719 61.963 13.3451C62.5165 13.6877 62.9118 14.1621 63.0612 14.8122C63.4126 16.4287 54.6272 18.8095 53.8805 16.9383Z" fill="#FFB403"/>
<path d="M29.7391 13.1959C29.4404 13.3716 29.089 13.3189 28.7113 12.9411C26.1196 10.3494 25.8912 6.11489 27.2968 5.41206C27.8503 5.13093 28.3335 5.04308 28.7464 5.08701C31.5577 5.40328 31.2502 12.2822 29.7391 13.1959Z" fill="#FFB403"/>
<path d="M74.1135 27.9986C73.9291 28.0864 73.7094 28.104 73.4722 28.0425C72.4882 27.7877 71.2056 26.2766 70.819 24.0012C70.5994 22.6659 71.2671 21.3832 72.1368 20.9791C73.1032 20.5222 74.3244 21.1548 74.8164 24.0012C75.1063 25.6177 75.0624 27.5242 74.1135 27.9986Z" fill="#FFB403"/>
<path d="M69.3605 67.1638C66.3295 70.4407 62.7539 73.2081 58.7829 75.3166C58.3348 75.097 57.9307 74.7719 57.7726 74.3063C57.632 73.8934 57.6935 73.3663 58.124 72.6986C59.7669 70.1069 61.4185 66.1095 65.1786 65.8723C66.2768 65.8021 67.1466 65.9338 67.8406 66.1798C68.5083 66.4258 69.0003 66.7772 69.3605 67.1638Z" fill="#FFB403"/>
<path d="M50.5599 78.5854C47.1951 79.5078 43.6546 79.991 39.9999 79.991C38.3219 79.991 36.6702 79.8856 35.0537 79.6835C35.0537 79.2091 35.1416 78.6996 35.4315 78.2691C35.7126 77.8562 36.1782 77.5223 36.9426 77.3993C39.7627 76.9249 41.1771 75.0449 45.1745 75.2821C47.2478 75.4051 48.6974 76.4154 49.6023 77.3554C50.0503 77.8298 50.3578 78.2691 50.5599 78.5854Z" fill="#FFB403"/>
<path d="M45.4468 5.70163C45.2448 6.70317 43.5492 7.06336 42.7322 6.68559C42.5564 6.60652 42.4247 6.49231 42.3544 6.35175C41.88 5.41171 44.9812 3.65464 45.4117 5.17451C45.4644 5.36779 45.4732 5.5435 45.4468 5.70163Z" fill="#FFB403"/>
<path d="M33.1823 58.5814C32.1281 58.0543 31.3023 57.6413 31.5395 59.7586C31.7767 61.8759 33.4195 62.3503 34.834 62.3503C36.2396 62.3503 34.1224 59.0558 33.1823 58.5814Z" fill="#FFBC1D"/>
<path d="M13.6525 57.1759C12.7124 56.9386 12.7124 58.5903 12.0096 60.2332C11.3068 61.876 12.2468 63.0533 13.6525 63.0533C15.0669 63.0533 15.5325 57.6415 13.6525 57.1759Z" fill="#FFBC1D"/>
<path d="M9.41787 35.9945C8.51298 35.5816 7.5378 35.0544 7.30059 35.9945C7.06339 36.9345 9.18066 39.5262 10.3579 39.5262C11.5351 39.5262 12.0008 37.1717 9.41787 35.9945Z" fill="#FFBC1D"/>
<path d="M79.9995 40.0003C79.9995 42.3372 79.7974 44.6302 79.4109 46.8529C79.0682 46.7211 78.7168 46.4839 78.3479 46.1149C75.9934 43.7604 77.7768 40.422 78.3479 39.2887C78.9804 38.0236 79.6129 38.1378 79.9644 38.3574C79.9907 38.9021 79.9995 39.4468 79.9995 40.0003Z" fill="#FFBC1D"/>
<path d="M55.7694 42.5831C54.4076 42.4162 53.6521 43.5232 55.7694 44.4632C57.8866 45.412 57.6494 42.8203 55.7694 42.5831Z" fill="#FFBC1D"/>
<path d="M5.18358 31.9968C4.55103 32.3131 4.48076 33.6397 6.12362 33.4113C7.76648 33.1741 6.58924 31.294 5.18358 31.9968Z" fill="#FFBC1D"/>
<path d="M38.5942 15.5329C37.8913 15.7701 36.9513 16.4729 38.5942 16.7101C40.237 16.9385 39.297 15.2957 38.5942 15.5329Z" fill="#FFBC1D"/>
<path d="M42.5914 15.5333C41.7304 15.0325 41.6514 17.4133 42.3542 18.3534C43.057 19.2934 45.4115 17.1761 42.5914 15.5333Z" fill="#FFBC1D"/>
<path d="M50.1201 71.2939C49.6106 71.4081 49.4173 72.2339 50.823 72.7083C52.2374 73.1739 52.2374 70.8194 50.1201 71.2939Z" fill="#FFBC1D"/>
<path d="M29.6512 75.2909C28.9484 75.5281 28.2368 75.9938 29.6512 76.4682C31.0657 76.9338 30.354 75.0537 29.6512 75.2909Z" fill="#FFBC1D"/>
<path d="M30.8283 40.703C29.6335 40.7645 32.2428 42.3458 32.9456 42.583C33.6484 42.8202 35.7657 40.4658 30.8283 40.703Z" fill="#FFBC1D"/>
<path d="M69.4133 34.5888C68.8247 35.0457 69.8877 37.6461 70.8278 37.4089C71.7678 37.1717 71.5306 32.9372 69.4133 34.5888Z" fill="#FFBC1D"/>
<path d="M50.4897 51.0777C50.3843 51.4819 50.2525 51.8772 50.1207 52.2286C49.4355 54.0647 45.3854 54.7851 44.3136 53.9417C44.2872 53.9242 44.2609 53.8978 44.2345 53.8715C43.2945 52.9314 44.2082 50.5682 44.7089 49.3997C45.4118 47.7569 48.9435 46.5796 50.1207 47.0452C51.0696 47.4406 50.9465 49.3646 50.4897 51.0777Z" fill="#FFB403"/>
<path d="M9.40896 23.6236C9.37381 23.2546 9.4529 22.9032 9.65496 22.5869C10.7619 20.9001 15.1546 20.7859 19.1783 23.4215C23.202 26.0571 24.8712 30.318 23.7643 32.0048L23.7555 32.0136C23.817 30.9857 23.3865 29.5449 21.8842 27.533C17.9659 22.3058 10.8234 20.5048 9.40896 23.6236Z" fill="#FFA51D"/>
<path d="M35.6163 51.0427C35.5636 51.3678 35.4494 51.6753 35.2824 51.9564C35.1858 51.5523 34.316 48.3808 30.3538 47.0542C26.2423 45.6837 20.7075 44.4625 17.413 47.0542C16.3587 47.88 15.9107 48.7322 15.7789 49.5053C15.4538 48.8552 15.3309 48.1963 15.4451 47.5374C15.9458 44.6558 20.7866 43.9617 26.3565 44.9369C31.9264 45.9033 36.117 48.1611 35.6163 51.0427Z" fill="#FFA51D"/>
<path d="M42.1173 26.3474C37.7422 27.8585 35.8972 32.1458 35.7127 35.3261C34.5004 32.8838 35.6952 29.3433 38.6646 26.9976C41.9416 24.4059 46.4133 23.1847 49.4618 27.0415C49.4794 27.0678 49.5058 27.0942 49.5146 27.1206C48.1968 26.1015 45.7983 25.0824 42.1173 26.3474Z" fill="#FFA51D"/>
<path d="M50.4897 51.0777C50.4458 49.3734 50.0241 47.4494 48.2406 47.9941C46.4133 48.5563 44.34 51.8684 44.3224 53.9417C44.296 53.9242 44.2697 53.8978 44.2433 53.8715C43.3033 52.9314 44.217 50.5682 44.7177 49.3997C45.4206 47.7569 48.9523 46.5796 50.1295 47.0452C51.0696 47.4406 50.9465 49.3646 50.4897 51.0777Z" fill="#FFA51D"/>
<path d="M67.6298 37.7153C68.1657 34.6141 63.1932 33.6125 60.707 32.7076C58.247 31.8115 56.5603 32.1278 55.875 32.3387C56.9644 30.5816 59.7142 31.4338 62.3586 31.996C67.6562 33.1206 68.7895 36.0022 67.6298 37.7153Z" fill="#FFA51D"/>
<path d="M53.8808 16.9384C53.8281 16.8154 53.8018 16.6749 53.7842 16.5255C55.2689 17.5095 59.073 16.71 61.1727 15.7612C62.675 15.0759 62.429 14.0744 61.9634 13.354C62.5168 13.6966 62.9122 14.171 63.0615 14.8212C63.4129 16.4289 54.6276 18.8097 53.8808 16.9384Z" fill="#FFA51D"/>
<path d="M29.7391 13.1959C29.4404 13.3716 29.089 13.3189 28.7113 12.9411C26.1196 10.3494 25.8912 6.11489 27.2968 5.41206C27.8503 5.13093 28.3335 5.04308 28.7464 5.08701C28.1754 5.19243 27.2968 5.6932 27.2968 7.76654C27.2968 10.1562 28.4477 12.1153 29.7391 13.1959Z" fill="#FFA51D"/>
<path d="M45.4468 5.70163C45.3678 5.29751 45.0515 4.91095 44.006 5.17451C43.1539 5.38536 42.8288 6.03548 42.7322 6.68559C42.5564 6.60652 42.4247 6.49231 42.3544 6.35175C41.88 5.41171 44.9812 3.65464 45.4117 5.17451C45.4644 5.36779 45.4732 5.5435 45.4468 5.70163Z" fill="#FFA51D"/>
<path d="M31.6007 70.6431C31.3987 69.378 30.239 68.1481 28.2359 67.0499C25.6442 65.6355 23.7642 64.2298 22.1213 63.0526C21.2603 62.4376 20.0743 62.2707 19.1431 62.2531C20.8474 60.3291 25.1171 63.7905 27.2959 64.9326C30.8891 66.8127 32.857 69.4395 31.6007 70.6431Z" fill="#FFA51D"/>
<path d="M52.826 65.7847C52.4482 64.8447 51.3061 64.4582 49.4085 64.4582H42.8194C40.298 64.4582 40.1399 65.9165 40.1399 65.9868C40.0696 65.8023 40.0257 65.609 39.9993 65.3982C39.7621 63.2809 44.2339 63.6411 46.5883 63.5181C51.0074 63.2897 52.8172 64.5021 52.826 65.7847Z" fill="#FFA51D"/>
<path d="M49.6023 77.364C50.0503 77.8209 50.3578 78.2689 50.5599 78.5852C47.1951 79.5076 43.6546 79.9908 39.9999 79.9908C38.3219 79.9908 36.6702 79.8854 35.0537 79.6833C35.0537 79.2089 35.1416 78.6994 35.4315 78.2689C43.2505 80.1138 47.7574 78.4007 49.6023 77.364Z" fill="#FFA51D"/>
<path d="M69.3604 67.1644C66.3294 70.4413 62.7538 73.2087 58.7828 75.3172C58.3347 75.0976 57.9306 74.7725 57.7725 74.3069C64.3351 71.847 67.1728 67.3928 67.8405 66.1892C68.5082 66.4264 69.0002 66.7778 69.3604 67.1644Z" fill="#FFA51D"/>
<path d="M70.9945 48.2048C70.4673 48.0203 66.716 46.9749 62.3496 51.9913C60.1445 54.5303 59.3802 56.4982 59.2045 57.8775C58.0272 55.9535 59.4329 52.5009 62.5078 49.9443C65.6354 47.3438 69.3516 46.5971 70.9945 48.2048Z" fill="#FFA51D"/>
<path d="M73.4722 28.0339C72.4882 27.7791 71.2056 26.268 70.819 23.9926C70.5994 22.6573 71.2671 21.3746 72.1368 20.9705C71.7591 21.4712 71.4076 22.2356 71.5219 23.2898C71.7239 24.9942 72.3652 26.6985 73.4722 28.0339Z" fill="#FFA51D"/>
<path d="M4.19945 57.8428C3.92711 57.2981 3.66355 56.7358 3.41756 56.1736C4.54208 55.1545 5.64904 53.292 4.24338 50.3489C2.50388 46.703 1.66049 43.5666 0.114263 42.934C0.114263 42.9077 0.114254 42.8901 0.105469 42.8638C0.913723 42.7583 2.02068 43.1273 2.82894 45.4027C3.8744 48.3634 8.74149 55.5762 4.19945 57.8428Z" fill="#FFA51D"/>
<path opacity="0.35" d="M79.9996 39.9996C79.9996 42.3365 79.7975 44.6295 79.4109 46.8522C78.0668 54.6185 74.4823 61.6204 69.3517 67.164C66.3207 70.4409 62.7451 73.2083 58.7741 75.3168C56.1912 76.6961 53.4414 77.7942 50.5598 78.5849C47.195 79.5074 43.6545 79.9906 39.9998 79.9906C38.3218 79.9906 36.6701 79.8852 35.0536 79.6831C21.5066 78.0139 10.0505 69.5624 4.1994 57.8339C1.91521 53.2655 0.483191 48.2051 0.10542 42.8549C0.0351372 41.906 0 40.9484 0 39.9908C0 33.9553 1.33538 28.236 3.725 23.1053C4.11156 57.746 75.642 66.4523 77.5572 26.1978C78.9541 30.0106 79.7887 34.0871 79.9644 38.348C79.9908 38.9014 79.9996 39.4461 79.9996 39.9996Z" fill="url(#paint1_linear)"/>
<path opacity="0.45" d="M64.2123 71.8378C62.5079 73.1381 60.6893 74.3065 58.7829 75.3256C56.2 76.7049 53.4502 77.8031 50.5686 78.5938C47.2038 79.5163 43.6633 79.9994 40.0086 79.9994C38.3306 79.9994 36.6789 79.894 35.0624 79.692C21.5154 78.0228 10.0592 69.5712 4.20819 57.8428C1.924 53.2744 0.491993 48.214 0.114223 42.8637C0.0439396 41.9149 0.00878906 40.9573 0.00878906 39.9997C0.00878906 33.9641 1.34417 28.2449 3.73379 23.1142C5.86863 18.5283 8.85566 14.4167 12.4752 10.9816C1.31781 64.1946 42.3543 71.5655 64.2123 71.8378Z" fill="url(#paint2_linear)"/>
<path d="M79.9999 39.9998C79.9999 42.3367 79.7978 44.6297 79.4113 46.8524C79.2004 48.0472 78.9456 49.2244 78.6382 50.3841C77.2501 18.2121 55.4624 -0.0790676 24.0195 3.32087C28.913 1.18602 34.3248 0 40.0001 0C57.2458 0 71.9437 10.9114 77.5575 26.2155C78.9544 30.0284 79.789 34.1048 79.9648 38.3657C79.9911 38.9016 79.9999 39.4463 79.9999 39.9998Z" fill="url(#paint3_linear)"/>
<defs>
<radialGradient id="paint0_radial" cx="0" cy="0" r="1" gradientUnits="userSpaceOnUse" gradientTransform="translate(38.2377 18.8233) scale(61.0765)">
<stop stop-color="#FFE46A"/>
<stop offset="1" stop-color="#FFA44A"/>
</radialGradient>
<linearGradient id="paint1_linear" x1="5.83586" y1="61.1406" x2="76.5735" y2="28.046" gradientUnits="userSpaceOnUse">
<stop stop-color="#FFB300"/>
<stop offset="1" stop-color="#E27437" stop-opacity="0.2"/>
</linearGradient>
<linearGradient id="paint2_linear" x1="32.2736" y1="97.8515" x2="31.8833" y2="-1.27536" gradientUnits="userSpaceOnUse">
<stop stop-color="#FF7A00"/>
<stop offset="1" stop-color="#CC622E" stop-opacity="0.2"/>
</linearGradient>
<linearGradient id="paint3_linear" x1="75.5801" y1="-0.0176557" x2="51.2455" y2="26.9446" gradientUnits="userSpaceOnUse">
<stop stop-color="#FFB300"/>
<stop offset="1" stop-color="#FFF49A" stop-opacity="0.2"/>
</linearGradient>
</defs>
</svg>
