<svg width="90" height="90" viewBox="0 0 90 90" fill="none" xmlns="http://www.w3.org/2000/svg">
<path d="M90.0002 44.9994C90.0002 47.6284 89.7729 50.208 89.338 52.7085C89.1008 54.0527 88.8142 55.3771 88.4683 56.6817C86.5509 63.8373 82.9138 70.2813 78.0313 75.5591C76.2622 77.4765 74.3251 79.2357 72.2396 80.8171C70.3223 82.2799 68.2764 83.5944 66.1316 84.7408C63.2259 86.2925 60.1324 87.528 56.8906 88.4175C53.1052 89.4553 49.1222 89.9988 45.0107 89.9988C43.1229 89.9988 41.2648 89.8802 39.4463 89.6529C24.206 87.7751 11.3179 78.2672 4.73553 65.0727C2.16583 59.9333 0.554832 54.2405 0.129842 48.2214C0.0507746 47.154 0.0112305 46.0767 0.0112305 44.9994C0.0112305 38.2095 1.51352 31.7753 4.20183 26.0034C6.60351 20.8442 9.96389 16.2188 14.0359 12.3543C17.8015 8.77652 22.1897 5.84113 27.0228 3.73595C32.5278 1.33427 38.6161 0 45.0008 0C64.402 0 80.9371 12.2753 87.2526 29.4923C88.8241 33.7817 89.763 38.3676 89.9607 43.1611C89.9903 43.764 90.0002 44.3768 90.0002 44.9994Z" fill="url(#paint0_radial)"/>
<path d="M4.72484 65.0724C4.41845 64.4596 4.12195 63.8271 3.84521 63.1946C1.79933 58.579 0.514489 53.5681 0.129034 48.3002C0.129034 48.2705 0.129024 48.2508 0.119141 48.2211C1.02842 48.1025 2.27374 48.5176 3.18302 51.0774C4.35916 54.4082 9.83459 62.5225 4.72484 65.0724Z" fill="#0057B7"/>
<path d="M40.0675 57.4225C40.0082 57.7882 39.8798 58.1341 39.692 58.4504C38.2589 61.0201 33.2677 62.2852 27.7033 61.3265C22.8604 60.4864 18.996 58.1934 17.7507 55.7028C17.385 54.9714 17.2466 54.2301 17.3751 53.4889C17.9384 50.2471 23.3842 49.4663 29.6504 50.5634C35.9165 51.6407 40.6309 54.1807 40.0675 57.4225Z" fill="#0057B7"/>
<path d="M26.7349 35.9956L26.725 36.0054C25.4796 37.8833 21.5955 36.1636 17.0787 33.2084C13.3922 30.7969 10.7632 28.3952 10.5853 26.5667C10.5457 26.1516 10.6347 25.7563 10.862 25.4005C12.1073 23.5029 17.0491 23.3744 21.5757 26.3394C26.1023 29.3045 27.9802 34.0979 26.7349 35.9956Z" fill="#0057B7"/>
<path d="M76.5872 63.7085C72.9402 66.7526 68.5716 67.5334 66.842 65.448C66.7531 65.3393 66.674 65.2306 66.6048 65.1119C65.2805 62.9475 66.8618 59.0633 70.321 56.1872C73.8396 53.2518 78.0203 52.4216 79.8685 54.2303C79.9377 54.2994 80.0068 54.3686 80.0661 54.4378C81.7957 56.5232 80.244 60.6743 76.5872 63.7085Z" fill="#0057B7"/>
<path d="M50.277 38.7531C46.5905 41.6687 42.8446 43.2797 40.6999 40.5717C40.4924 40.3147 40.3243 40.038 40.1761 39.7415C38.8122 36.9939 40.1563 33.0108 43.4969 30.3719C47.1835 27.4563 52.2142 26.0825 55.6437 30.4213C55.6635 30.451 55.6931 30.4806 55.703 30.5103C57.7193 33.1887 53.9339 35.8671 50.277 38.7531Z" fill="#0057B7"/>
<path d="M35.5507 79.4729C35.017 79.9868 33.9595 80.2735 32.2991 80.1944C26.2109 79.9275 19.5988 72.5149 21.447 70.133C21.4767 70.0935 21.5063 70.0638 21.536 70.0342C23.4534 67.8697 28.2567 71.7638 30.7078 73.0487C34.7502 75.1637 36.9641 78.1189 35.5507 79.4729Z" fill="#0057B7"/>
<path d="M59.4293 74.0077C59.4392 75.4111 57.5317 76.8936 54.5271 77.0221C49.0319 77.2593 45.8989 76.2018 45.1576 74.2449C45.0785 74.0373 45.0291 73.8199 44.9995 73.5827C44.7326 71.2008 49.7633 71.606 52.4121 71.4676C57.3835 71.2008 59.4195 72.5647 59.4293 74.0077Z" fill="#0057B7"/>
<path d="M76.0835 42.4297C75.4806 43.3291 74.3143 43.9418 72.8022 43.9418C68.0383 43.9418 61.6833 40.5024 62.4838 37.3199C62.5728 36.9542 62.7112 36.638 62.8693 36.381C64.0948 34.4043 67.1884 35.363 70.1633 35.9955C76.1132 37.2606 77.3881 40.5024 76.0835 42.4297Z" fill="#0057B7"/>
<path d="M60.616 19.0552C60.5567 18.9169 60.527 18.7587 60.5073 18.5907C60.3887 17.2367 61.723 15.26 64.3223 14.5484C66.0124 14.0839 68.2954 14.1432 69.7088 15.0129C70.3314 15.3984 70.7762 15.9321 70.9442 16.6635C71.3396 18.482 61.4561 21.1604 60.616 19.0552Z" fill="#0057B7"/>
<path d="M33.4556 14.8449C33.1196 15.0426 32.7242 14.9833 32.2992 14.5583C29.3836 11.6427 29.1266 6.87887 30.708 6.08819C31.3307 5.77192 31.8743 5.67308 32.3388 5.7225C35.5015 6.07831 35.1556 13.8171 33.4556 14.8449Z" fill="#0057B7"/>
<path d="M83.3773 31.4984C83.1697 31.5972 82.9226 31.617 82.6558 31.5478C81.5488 31.2612 80.1059 29.5612 79.671 27.0014C79.4239 25.4991 80.175 24.0561 81.1535 23.6015C82.2407 23.0876 83.6145 23.7992 84.1679 27.0014C84.4941 28.82 84.4447 30.9647 83.3773 31.4984Z" fill="#0057B7"/>
<path d="M78.0302 75.5588C74.6204 79.2453 70.5978 82.3586 66.1305 84.7306C65.6264 84.4835 65.1718 84.1178 64.9939 83.594C64.8358 83.1295 64.905 82.5365 65.3892 81.7854C67.2374 78.8697 69.0955 74.3727 73.3257 74.1059C74.5611 74.0268 75.5396 74.1751 76.3204 74.4518C77.0715 74.7286 77.625 75.1239 78.0302 75.5588Z" fill="#0057B7"/>
<path d="M56.8799 88.4076C53.0945 89.4453 49.1115 89.9889 44.9999 89.9889C43.1122 89.9889 41.2541 89.8703 39.4355 89.643C39.4355 89.1093 39.5344 88.5361 39.8605 88.0518C40.1768 87.5872 40.7006 87.2117 41.5605 87.0733C44.7331 86.5396 46.3243 84.4245 50.8213 84.6914C53.1538 84.8298 54.7846 85.9664 55.8026 87.0239C56.3066 87.5576 56.6526 88.0518 56.8799 88.4076Z" fill="#0057B7"/>
<path d="M51.1271 6.41432C50.8998 7.54104 48.9923 7.94626 48.0731 7.52127C47.8754 7.43232 47.7272 7.30383 47.6481 7.1457C47.1144 6.08816 50.6033 4.11147 51.0876 5.82131C51.1469 6.03875 51.1568 6.23642 51.1271 6.41432Z" fill="#0057B7"/>
<path d="M37.3308 65.9031C36.1448 65.3101 35.2157 64.8456 35.4826 67.2275C35.7494 69.6094 37.5976 70.1431 39.1889 70.1431C40.7702 70.1431 38.3883 66.4368 37.3308 65.9031Z" fill="#0357B4"/>
<path d="M15.3598 64.3212C14.3023 64.0544 14.3023 65.9125 13.5116 67.7607C12.7209 69.6089 13.7784 70.9333 15.3598 70.9333C16.951 70.9333 17.4749 64.845 15.3598 64.3212Z" fill="#0357B4"/>
<path d="M10.5955 40.4925C9.57746 40.028 8.48039 39.435 8.21354 40.4925C7.94668 41.55 10.3286 44.4657 11.653 44.4657C12.9774 44.4657 13.5012 41.8169 10.5955 40.4925Z" fill="#0357B4"/>
<path d="M89.9991 44.9992C89.9991 47.6282 89.7718 50.2078 89.3369 52.7083C88.9515 52.5601 88.5561 52.2932 88.141 51.8781C85.4923 49.2294 87.4986 45.4736 88.141 44.1987C88.8526 42.7755 89.5642 42.9039 89.9596 43.151C89.9892 43.7638 89.9991 44.3766 89.9991 44.9992Z" fill="#0357B4"/>
<path d="M62.7405 47.905C61.2085 47.7173 60.3586 48.9626 62.7405 50.0201C65.1224 51.0875 64.8555 48.1719 62.7405 47.905Z" fill="#0357B4"/>
<path d="M5.83171 35.995C5.1201 36.3508 5.04104 37.8432 6.88924 37.5863C8.73745 37.3194 7.41306 35.2044 5.83171 35.995Z" fill="#0357B4"/>
<path d="M43.4187 17.4739C42.628 17.7408 41.5705 18.5315 43.4187 18.7983C45.2669 19.0553 44.2094 17.2071 43.4187 17.4739Z" fill="#0357B4"/>
<path d="M47.9151 17.4738C46.9465 16.9105 46.8576 19.5889 47.6483 20.6464C48.439 21.7039 51.0877 19.322 47.9151 17.4738Z" fill="#0357B4"/>
<path d="M56.3854 80.2044C55.8122 80.3329 55.5947 81.2619 57.1761 81.7956C58.7673 82.3194 58.7673 79.6707 56.3854 80.2044Z" fill="#0357B4"/>
<path d="M33.3571 84.7011C32.5664 84.968 31.7659 85.4918 33.3571 86.0255C34.9484 86.5493 34.1478 84.4343 33.3571 84.7011Z" fill="#0357B4"/>
<path d="M34.6809 45.7898C33.3367 45.859 36.2721 47.638 37.0628 47.9049C37.8535 48.1717 40.2354 45.5229 34.6809 45.7898Z" fill="#0357B4"/>
<path d="M78.0897 38.9108C77.4275 39.4247 78.6235 42.3502 79.681 42.0834C80.7385 41.8165 80.4716 37.0527 78.0897 38.9108Z" fill="#0357B4"/>
<path d="M56.8005 57.4624C56.6819 57.917 56.5337 58.3618 56.3854 58.7571C55.6145 60.8228 51.0582 61.6332 49.8524 60.6844C49.8228 60.6646 49.7931 60.635 49.7635 60.6053C48.7059 59.5478 49.7338 56.8891 50.2972 55.5746C51.0879 53.7264 55.061 52.402 56.3854 52.9259C57.4528 53.3706 57.3144 55.5351 56.8005 57.4624Z" fill="#0057B7"/>
<path d="M10.5853 26.5769C10.5457 26.1618 10.6347 25.7664 10.862 25.4106C12.1073 23.513 17.0491 23.3845 21.5757 26.3495C26.1023 29.3146 27.9802 34.1081 26.7349 36.0057L26.725 36.0156C26.7942 34.8592 26.3099 33.2383 24.6198 30.975C20.2118 25.0943 12.1765 23.0682 10.5853 26.5769Z" fill="#1B70DC"/>
<path d="M40.0675 57.4232C40.0082 57.7889 39.8798 58.1348 39.692 58.4511C39.5833 57.9965 38.6048 54.4285 34.1473 52.9361C29.5219 51.3943 23.2953 50.0205 19.589 52.9361C18.403 53.8652 17.8989 54.8239 17.7507 55.6936C17.385 54.9622 17.2466 54.221 17.3751 53.4797C17.9384 50.2379 23.3842 49.4572 29.6504 50.5542C35.9165 51.6414 40.6309 54.1815 40.0675 57.4232Z" fill="#1B70DC"/>
<path d="M47.3811 29.6406C42.4592 31.3405 40.3836 36.1636 40.1761 39.7415C38.8122 36.9939 40.1563 33.0108 43.4969 30.3719C47.1835 27.4563 52.2142 26.0825 55.6437 30.4213C55.6635 30.451 55.6931 30.4806 55.703 30.5103C54.2205 29.3638 51.5223 28.2173 47.3811 29.6406Z" fill="#1B70DC"/>
<path d="M56.8004 57.4624C56.751 55.545 56.2765 53.3805 54.2702 53.9933C52.2144 54.6258 49.882 58.3519 49.8622 60.6844C49.8325 60.6646 49.8029 60.635 49.7732 60.6053C48.7157 59.5478 49.7436 56.8891 50.307 55.5746C51.0976 53.7264 55.0708 52.402 56.3952 52.9259C57.4527 53.3706 57.3143 55.5351 56.8004 57.4624Z" fill="#1B70DC"/>
<path d="M76.083 42.4297C76.6859 38.9408 71.0918 37.8141 68.2948 36.7961C65.5274 35.788 63.6298 36.1438 62.8589 36.381C64.0844 34.4043 67.178 35.363 70.1529 35.9955C76.1126 37.2606 77.3876 40.5024 76.083 42.4297Z" fill="#1B70DC"/>
<path d="M60.6156 19.055C60.5563 18.9167 60.5266 18.7585 60.5068 18.5905C62.1771 19.6975 66.4567 18.7981 68.8188 17.7307C70.5089 16.9597 70.2322 15.833 69.7083 15.0226C70.331 15.408 70.7758 15.9417 70.9438 16.6731C71.3391 18.4818 61.4557 21.1602 60.6156 19.055Z" fill="#1B70DC"/>
<path d="M33.4556 14.8449C33.1196 15.0426 32.7242 14.9833 32.2992 14.5583C29.3836 11.6427 29.1266 6.87887 30.708 6.08819C31.3307 5.77192 31.8743 5.67308 32.3388 5.7225C31.6963 5.8411 30.708 6.40446 30.708 8.73696C30.708 11.4253 32.0027 13.6293 33.4556 14.8449Z" fill="#1B70DC"/>
<path d="M51.1271 6.41432C51.0382 5.95968 50.6824 5.52481 49.5062 5.82131C48.5475 6.05851 48.1818 6.78989 48.0731 7.52127C47.8754 7.43232 47.7272 7.30383 47.6481 7.1457C47.1144 6.08816 50.6033 4.11147 51.0876 5.82131C51.1469 6.03875 51.1568 6.23642 51.1271 6.41432Z" fill="#1B70DC"/>
<path d="M35.5514 79.4729C35.3241 78.0497 34.0195 76.666 31.766 75.4306C28.8504 73.8393 26.7353 72.258 24.8871 70.9336C23.9185 70.2417 22.5843 70.054 21.5366 70.0342C23.454 67.8697 28.2574 71.7638 30.7085 73.0487C34.7508 75.1637 36.9647 78.1189 35.5514 79.4729Z" fill="#1B70DC"/>
<path d="M59.4293 74.0073C59.0044 72.9498 57.7195 72.5149 55.5847 72.5149H48.1721C45.3355 72.5149 45.1576 74.1556 45.1576 74.2346C45.0785 74.0271 45.0291 73.8097 44.9995 73.5725C44.7326 71.1905 49.7633 71.5958 52.4121 71.4574C57.3835 71.2004 59.4195 72.5643 59.4293 74.0073Z" fill="#1B70DC"/>
<path d="M55.8026 87.0336C56.3066 87.5475 56.6526 88.0516 56.8799 88.4074C53.0945 89.4451 49.1115 89.9887 44.9999 89.9887C43.1122 89.9887 41.2541 89.8701 39.4355 89.6428C39.4355 89.1091 39.5344 88.5359 39.8605 88.0516C48.6568 90.1271 53.7271 88.1998 55.8026 87.0336Z" fill="#1B70DC"/>
<path d="M78.0304 75.559C74.6206 79.2455 70.5981 82.3588 66.1307 84.7308C65.6267 84.4837 65.172 84.1181 64.9941 83.5942C72.3771 80.8269 75.5694 75.8159 76.3206 74.4619C77.0717 74.7288 77.6252 75.1241 78.0304 75.559Z" fill="#1B70DC"/>
<path d="M79.8685 54.2302C79.2755 54.0226 75.0552 52.8465 70.1431 58.4899C67.6624 61.3463 66.8025 63.5602 66.6048 65.1119C65.2805 62.9474 66.8618 59.0632 70.321 56.1871C73.8396 53.2616 78.0203 52.4215 79.8685 54.2302Z" fill="#1B70DC"/>
<path d="M82.6558 31.5385C81.5488 31.2518 80.1059 29.5519 79.671 26.9921C79.4239 25.4898 80.175 24.0468 81.1535 23.5922C80.7285 24.1555 80.3332 25.0154 80.4616 26.2014C80.689 28.1188 81.4105 30.0362 82.6558 31.5385Z" fill="#1B70DC"/>
<path d="M4.72484 65.0724C4.41845 64.4596 4.12195 63.8271 3.84521 63.1946C5.1103 62.0481 6.35562 59.9528 4.77426 56.6418C2.81733 52.5402 1.86852 49.0118 0.129034 48.3002C0.129034 48.2705 0.129024 48.2508 0.119141 48.2211C1.02842 48.1025 2.27374 48.5176 3.18302 51.0774C4.35916 54.4082 9.83459 62.5225 4.72484 65.0724Z" fill="#1B70DC"/>
<path opacity="0.35" d="M89.9989 44.9996C89.9989 47.6286 89.7715 50.2081 89.3367 52.7087C87.8245 61.4456 83.792 69.3228 78.0201 75.5592C74.6103 79.2458 70.5877 82.3591 66.1204 84.7311C63.2147 86.2828 60.1211 87.5182 56.8794 88.4077C53.094 89.4455 49.1109 89.9891 44.9994 89.9891C43.1117 89.9891 41.2536 89.8705 39.435 89.6432C24.1947 87.7653 11.3067 78.2574 4.7243 65.063C2.1546 59.9236 0.543586 54.2307 0.118597 48.2117C0.0395291 47.1443 0 46.067 0 44.9897C0 38.1997 1.50229 31.7656 4.1906 25.9937C4.62547 64.9642 85.0966 74.7587 87.2512 29.4726C88.8227 33.7621 89.7617 38.348 89.9593 43.1415C89.989 43.7641 89.9989 44.3769 89.9989 44.9996Z" fill="url(#paint1_linear)"/>
<path opacity="0.45" d="M72.2387 80.8173C70.3213 82.28 68.2754 83.5945 66.1306 84.741C63.2249 86.2927 60.1314 87.5281 56.8896 88.4177C53.1043 89.4554 49.1212 89.999 45.0097 89.999C43.1219 89.999 41.2639 89.8804 39.4453 89.6531C24.205 87.7752 11.3169 78.2673 4.73455 65.0729C2.16485 59.9335 0.553855 54.2406 0.128866 48.2216C0.049798 47.1542 0.0102539 46.0769 0.0102539 44.9996C0.0102539 38.2096 1.51255 31.7755 4.20085 26.0036C6.60253 20.8444 9.96291 16.2189 14.0349 12.3545C1.48289 72.2186 47.6486 80.5109 72.2387 80.8173Z" fill="url(#paint2_linear)"/>
<path d="M89.999 44.9994C89.999 47.6284 89.7716 50.208 89.3368 52.7085C89.0996 54.0527 88.8129 55.3771 88.467 56.6817C86.9054 20.4884 62.3944 -0.0889504 27.0215 3.73595C32.5266 1.33427 38.6148 0 44.9995 0C64.4007 0 80.9358 12.2753 87.2513 29.4923C88.8228 33.7817 89.7618 38.3676 89.9594 43.1611C89.9891 43.764 89.999 44.3768 89.999 44.9994Z" fill="url(#paint3_linear)"/>
<defs>
<radialGradient id="paint0_radial" cx="0" cy="0" r="1" gradientUnits="userSpaceOnUse" gradientTransform="translate(43.0185 21.176) scale(68.7106)">
<stop stop-color="#53ACFF"/>
<stop offset="1" stop-color="#006BE2"/>
</radialGradient>
<linearGradient id="paint1_linear" x1="6.56529" y1="68.783" x2="86.1446" y2="31.5519" gradientUnits="userSpaceOnUse">
<stop stop-color="#0A69D2" stop-opacity="0"/>
<stop offset="1" stop-color="#004189"/>
</linearGradient>
<linearGradient id="paint2_linear" x1="36.3079" y1="110.082" x2="35.8689" y2="-1.43453" gradientUnits="userSpaceOnUse">
<stop stop-color="#0079FF"/>
<stop offset="1" stop-color="#0A69D2"/>
</linearGradient>
<linearGradient id="paint3_linear" x1="85.0267" y1="-0.0198625" x2="57.6505" y2="30.3124" gradientUnits="userSpaceOnUse">
<stop stop-color="#0A69D2"/>
<stop offset="1" stop-color="#0A69D2" stop-opacity="0"/>
</linearGradient>
</defs>
</svg>
