<svg width="100" height="100" viewBox="0 0 100 100" fill="none" xmlns="http://www.w3.org/2000/svg">
<path d="M99.9978 50.0001C99.9978 52.9212 99.7452 55.7875 99.262 58.5659C98.9985 60.0594 98.68 61.5309 98.2956 62.9805C96.1652 70.9313 92.1239 78.0914 86.6989 83.9557C84.7331 86.0862 82.5807 88.0409 80.2636 89.798C78.1331 91.4233 75.8599 92.8839 73.4768 94.1578C70.2482 95.8819 66.8109 97.2546 63.2089 98.243C59.0029 99.3961 54.5772 100 50.0088 100C47.9113 100 45.8467 99.8683 43.8261 99.6157C26.8922 97.5292 12.5719 86.9647 5.25807 72.304C2.40281 66.5935 0.612798 60.268 0.140582 53.5801C0.0527275 52.3941 0.00878906 51.1971 0.00878906 50.0001C0.00878906 42.4556 1.67802 35.3065 4.66506 28.8931C7.33363 23.1607 11.0674 18.0212 15.5919 13.7273C19.776 9.75193 24.6519 6.49035 30.022 4.15123C36.1388 1.48266 42.9036 0.00012207 49.9978 0.00012207C71.555 0.00012207 89.9275 13.6395 96.9448 32.7697C98.6909 37.5358 99.7342 42.6313 99.9539 47.9575C99.9868 48.6274 99.9978 49.3082 99.9978 50.0001Z" fill="url(#paint0_radial)"/>
<path d="M5.24983 72.3041C4.9094 71.6232 4.57995 70.9204 4.27246 70.2175C1.99923 65.089 0.571606 59.5213 0.143317 53.668C0.143317 53.6351 0.143306 53.6131 0.132324 53.5802C1.14265 53.4484 2.52636 53.9096 3.53668 56.7539C4.84351 60.4547 10.9274 69.4708 5.24983 72.3041Z" fill="#4700DD"/>
<path d="M44.5212 63.804C44.4553 64.2103 44.3126 64.5947 44.1039 64.9461C42.5115 67.8014 36.9657 69.207 30.783 68.1418C25.4019 67.2083 21.1081 64.6606 19.7244 61.8932C19.318 61.0805 19.1643 60.2569 19.3071 59.4333C19.933 55.8312 25.984 54.9637 32.9464 56.1827C39.9089 57.3797 45.1472 60.202 44.5212 63.804Z" fill="#4700DD"/>
<path d="M29.7063 39.9961L29.6953 40.0071C28.3116 42.0936 23.9957 40.1828 18.9771 36.8992C14.8809 34.2197 11.9597 31.5511 11.762 29.5195C11.7181 29.0582 11.817 28.619 12.0696 28.2236C13.4533 26.1151 18.9441 25.9724 23.9738 29.2669C29.0034 32.5614 31.09 37.8876 29.7063 39.9961Z" fill="#4700DD"/>
<path d="M85.0988 70.7886C81.0465 74.171 76.1925 75.0386 74.2707 72.7214C74.1719 72.6006 74.0841 72.4798 74.0072 72.348C72.5356 69.943 74.2927 65.6272 78.1363 62.4315C82.0458 59.1699 86.6911 58.2474 88.7447 60.2571C88.8216 60.334 88.8985 60.4109 88.9643 60.4877C90.8862 62.8049 89.162 67.4172 85.0988 70.7886Z" fill="#4700DD"/>
<path d="M55.8648 43.0601C51.7686 46.2997 47.6065 48.0898 45.2235 45.0808C44.9928 44.7952 44.8061 44.4877 44.6414 44.1583C43.1259 41.1054 44.6195 36.6797 48.3313 33.7476C52.4275 30.508 58.0172 28.9815 61.8279 33.8025C61.8499 33.8354 61.8828 33.8684 61.8938 33.9013C64.1341 36.8774 59.9281 39.8534 55.8648 43.0601Z" fill="#4700DD"/>
<path d="M39.5022 88.3045C38.9092 88.8755 37.7341 89.194 35.8892 89.1061C29.1244 88.8096 21.7776 80.5733 23.8312 77.9267C23.8642 77.8828 23.8971 77.8498 23.9301 77.8169C26.0605 75.4119 31.3977 79.7387 34.1211 81.1663C38.6127 83.5164 41.0726 86.8 39.5022 88.3045Z" fill="#4700DD"/>
<path d="M66.034 82.2317C66.045 83.7911 63.9255 85.4383 60.587 85.5811C54.4812 85.8447 50.9999 84.6696 50.1763 82.4952C50.0885 82.2646 50.0335 82.023 50.0006 81.7594C49.7041 79.1128 55.2938 79.5631 58.2369 79.4093C63.7608 79.1128 66.023 80.6283 66.034 82.2317Z" fill="#4700DD"/>
<path d="M84.5389 47.1449C83.869 48.1442 82.5732 48.8251 80.893 48.8251C75.5998 48.8251 68.5385 45.0034 69.428 41.4673C69.5268 41.061 69.6806 40.7095 69.8563 40.424C71.218 38.2277 74.6553 39.2929 77.9609 39.9957C84.5719 41.4014 85.9885 45.0034 84.5389 47.1449Z" fill="#4700DD"/>
<path d="M67.3516 21.1729C67.2857 21.0191 67.2527 20.8434 67.2307 20.6567C67.099 19.1522 68.5815 16.9559 71.4697 16.1652C73.3476 15.6491 75.8844 15.7149 77.4548 16.6813C78.1466 17.1096 78.6408 17.7026 78.8275 18.5153C79.2668 20.5359 68.285 23.512 67.3516 21.1729Z" fill="#4700DD"/>
<path d="M37.1736 16.4949C36.8002 16.7145 36.3609 16.6486 35.8887 16.1764C32.6491 12.9368 32.3636 7.64359 34.1207 6.76505C34.8125 6.41364 35.4165 6.30382 35.9327 6.35873C39.4468 6.75407 39.0625 15.3528 37.1736 16.4949Z" fill="#4700DD"/>
<path d="M92.6426 34.9996C92.4119 35.1094 92.1374 35.1314 91.8409 35.0545C90.6109 34.736 89.0076 32.8471 88.5244 30.0029C88.2499 28.3336 89.0845 26.7303 90.1717 26.2251C91.3797 25.6541 92.9061 26.4448 93.5211 30.0029C93.8835 32.0235 93.8286 34.4066 92.6426 34.9996Z" fill="#4700DD"/>
<path d="M86.7012 83.9557C82.9125 88.0519 78.4429 91.5112 73.4791 94.1468C72.919 93.8723 72.4139 93.4659 72.2162 92.8839C72.0405 92.3678 72.1174 91.7089 72.6555 90.8742C74.7091 87.6346 76.7736 82.6379 81.4738 82.3414C82.8466 82.2535 83.9337 82.4183 84.8013 82.7258C85.6359 83.0333 86.2509 83.4725 86.7012 83.9557Z" fill="#4700DD"/>
<path d="M63.2012 98.2319C58.9952 99.385 54.5695 99.989 50.0011 99.989C47.9036 99.989 45.839 99.8572 43.8184 99.6046C43.8184 99.0116 43.9282 98.3747 44.2906 97.8366C44.642 97.3204 45.224 96.9031 46.1794 96.7494C49.7046 96.1564 51.4727 93.8063 56.4694 94.1028C59.0611 94.2565 60.8731 95.5194 62.0042 96.6945C62.5643 97.2875 62.9486 97.8366 63.2012 98.2319Z" fill="#4700DD"/>
<path d="M56.8089 7.12758C56.5563 8.3795 54.4369 8.82976 53.4156 8.35754C53.1959 8.2587 53.0312 8.11594 52.9434 7.94023C52.3503 6.76518 56.2269 4.56883 56.765 6.46868C56.8309 6.71027 56.8419 6.92991 56.8089 7.12758Z" fill="#4700DD"/>
<path d="M41.4788 73.2266C40.161 72.5677 39.1287 72.0516 39.4252 74.6982C39.7217 77.3448 41.7753 77.9378 43.5434 77.9378C45.3004 77.9378 42.6539 73.8196 41.4788 73.2266Z" fill="#4700DD"/>
<path d="M17.0657 71.4693C15.8907 71.1728 15.8907 73.2374 15.0121 75.291C14.1336 77.3446 15.3086 78.8161 17.0657 78.8161C18.8338 78.8161 19.4158 72.0514 17.0657 71.4693Z" fill="#4700DD"/>
<path d="M11.7726 44.9929C10.6415 44.4767 9.4225 43.8178 9.12599 44.9929C8.82948 46.1679 11.4761 49.4075 12.9476 49.4075C14.4192 49.4075 15.0012 46.4644 11.7726 44.9929Z" fill="#4700DD"/>
<path d="M99.9993 50.0005C99.9993 52.9216 99.7467 55.7879 99.2635 58.5663C98.8352 58.4015 98.3959 58.105 97.9347 57.6438C94.9916 54.7007 97.2209 50.5276 97.9347 49.111C98.7254 47.5296 99.5161 47.6724 99.9553 47.9469C99.9883 48.6278 99.9993 49.3086 99.9993 50.0005Z" fill="#4700DD"/>
<path d="M69.7116 53.2288C68.0094 53.0202 67.065 54.4039 69.7116 55.5789C72.3582 56.7649 72.0617 53.5253 69.7116 53.2288Z" fill="#4700DD"/>
<path d="M6.47935 39.9955C5.68867 40.3909 5.60082 42.0491 7.65441 41.7636C9.708 41.4671 8.23644 39.117 6.47935 39.9955Z" fill="#4700DD"/>
<path d="M48.2432 19.4163C47.3647 19.7128 46.1896 20.5914 48.2432 20.8879C50.2968 21.1734 49.1218 19.1198 48.2432 19.4163Z" fill="#4700DD"/>
<path d="M53.2394 19.4163C52.1631 18.7904 52.0643 21.7664 52.9429 22.9415C53.8214 24.1165 56.7645 21.4699 53.2394 19.4163Z" fill="#4700DD"/>
<path d="M62.6516 89.1173C62.0147 89.2601 61.7731 90.2924 63.5302 90.8854C65.2982 91.4674 65.2983 88.5243 62.6516 89.1173Z" fill="#4700DD"/>
<path d="M37.0635 94.114C36.185 94.4105 35.2955 94.9925 37.0635 95.5856C38.8316 96.1676 37.9421 93.8175 37.0635 94.114Z" fill="#4700DD"/>
<path d="M38.5349 50.8784C37.0414 50.9553 40.303 52.932 41.1815 53.2285C42.06 53.525 44.7066 50.5819 38.5349 50.8784Z" fill="#4700DD"/>
<path d="M86.7671 43.2355C86.0313 43.8066 87.3602 47.0572 88.5352 46.7607C89.7103 46.4642 89.4137 41.171 86.7671 43.2355Z" fill="#4700DD"/>
<path d="M63.1129 63.8483C62.9811 64.3535 62.8164 64.8477 62.6517 65.287C61.7951 67.5821 56.7325 68.4826 55.3927 67.4284C55.3598 67.4064 55.3268 67.3735 55.2939 67.3405C54.1188 66.1655 55.261 63.2114 55.8869 61.7508C56.7655 59.6972 61.1801 58.2257 62.6517 58.8077C63.8377 59.3019 63.684 61.7069 63.1129 63.8483Z" fill="#4700DD"/>
<path d="M11.762 29.5301C11.7181 29.0689 11.817 28.6296 12.0696 28.2343C13.4533 26.1258 18.9441 25.983 23.9738 29.2775C29.0034 32.5721 31.09 37.8982 29.7063 40.0067L29.6953 40.0177C29.7722 38.7328 29.2341 36.9318 27.3562 34.417C22.4583 27.8828 13.5301 25.6316 11.762 29.5301Z" fill="#651DFF"/>
<path d="M44.5212 63.8042C44.4553 64.2106 44.3126 64.5949 44.1039 64.9464C43.9831 64.4412 42.8959 60.4768 37.9431 58.8185C32.8037 57.1054 25.8851 55.5789 21.767 58.8185C20.4492 59.8508 19.8891 60.916 19.7244 61.8824C19.318 61.0698 19.1643 60.2462 19.3071 59.4225C19.933 55.8205 25.984 54.9529 32.9464 56.1719C39.9089 57.3799 45.1472 60.2022 44.5212 63.8042Z" fill="#651DFF"/>
<path d="M52.6471 32.9349C47.1782 34.8238 44.872 40.1829 44.6414 44.1583C43.1259 41.1054 44.6195 36.6797 48.3313 33.7476C52.4275 30.508 58.0172 28.9815 61.8279 33.8025C61.8499 33.8354 61.8828 33.8684 61.8938 33.9013C60.2465 32.6274 57.2485 31.3536 52.6471 32.9349Z" fill="#651DFF"/>
<path d="M63.1122 63.8483C63.0573 61.7179 62.5301 59.3129 60.3008 59.9937C58.0166 60.6966 55.4249 64.8367 55.403 67.4284C55.37 67.4064 55.3371 67.3735 55.3041 67.3405C54.1291 66.1655 55.2712 63.2114 55.8972 61.7508C56.7757 59.6972 61.1904 58.2257 62.6619 58.8077C63.837 59.3019 63.6832 61.7069 63.1122 63.8483Z" fill="#651DFF"/>
<path d="M84.5383 47.1449C85.2082 43.2683 78.9925 42.0164 75.8847 40.8853C72.8098 39.7651 70.7013 40.1605 69.8447 40.424C71.2065 38.2277 74.6438 39.2929 77.9493 39.9957C84.5713 41.4014 85.9879 45.0034 84.5383 47.1449Z" fill="#651DFF"/>
<path d="M67.3523 21.1728C67.2864 21.0191 67.2534 20.8434 67.2314 20.6567C69.0874 21.8866 73.8425 20.8873 76.4671 19.7013C78.345 18.8447 78.0375 17.5928 77.4555 16.6923C78.1473 17.1205 78.6415 17.7136 78.8282 18.5262C79.2675 20.5359 68.2857 23.5119 67.3523 21.1728Z" fill="#651DFF"/>
<path d="M37.1736 16.4949C36.8002 16.7145 36.3609 16.6486 35.8887 16.1764C32.6491 12.9368 32.3636 7.64359 34.1207 6.76505C34.8125 6.41364 35.4165 6.30382 35.9327 6.35873C35.2188 6.49051 34.1207 7.11647 34.1207 9.70816C34.1207 12.6952 35.5593 15.1441 37.1736 16.4949Z" fill="#651DFF"/>
<path d="M56.8089 7.12758C56.7101 6.62242 56.3148 6.13922 55.0079 6.46868C53.9427 6.73224 53.5364 7.54489 53.4156 8.35754C53.1959 8.2587 53.0312 8.11594 52.9434 7.94023C52.3503 6.76518 56.2269 4.56883 56.765 6.46868C56.8309 6.71027 56.8419 6.92991 56.8089 7.12758Z" fill="#651DFF"/>
<path d="M39.5028 88.3045C39.2502 86.7231 37.8006 85.1856 35.2968 83.8129C32.0572 82.0449 29.7071 80.2878 27.6535 78.8162C26.5773 78.0475 25.0947 77.8388 23.9307 77.8169C26.0611 75.4119 31.3983 79.7387 34.1217 81.1663C38.6133 83.5164 41.0732 86.8 39.5028 88.3045Z" fill="#651DFF"/>
<path d="M66.034 82.2316C65.5618 81.0565 64.1342 80.5733 61.7621 80.5733H53.5258C50.374 80.5733 50.1763 82.3963 50.1763 82.4841C50.0885 82.2535 50.0335 82.0119 50.0006 81.7484C49.7041 79.1018 55.2938 79.552 58.2369 79.3983C63.7608 79.1127 66.023 80.6282 66.034 82.2316Z" fill="#651DFF"/>
<path d="M62.0042 96.7056C62.5643 97.2766 62.9486 97.8367 63.2012 98.232C58.9952 99.3851 54.5695 99.9891 50.0011 99.9891C47.9036 99.9891 45.839 99.8573 43.8184 99.6048C43.8184 99.0117 43.9282 98.3748 44.2906 97.8367C54.0644 100.143 59.698 98.0014 62.0042 96.7056Z" fill="#651DFF"/>
<path d="M86.7018 83.9558C82.913 88.052 78.4435 91.5112 73.4797 94.1469C72.9196 93.8723 72.4145 93.466 72.2168 92.884C80.4202 89.8091 83.9673 84.2413 84.8019 82.7368C85.6365 83.0333 86.2515 83.4726 86.7018 83.9558Z" fill="#651DFF"/>
<path d="M88.7447 60.2569C88.0858 60.0263 83.3966 58.7194 77.9386 64.99C75.1822 68.1637 74.2268 70.6237 74.0072 72.3478C72.5356 69.9428 74.2927 65.627 78.1363 62.4313C82.0458 59.1807 86.6911 58.2472 88.7447 60.2569Z" fill="#651DFF"/>
<path d="M91.8409 35.0428C90.6109 34.7244 89.0076 32.8355 88.5244 29.9912C88.2499 28.322 89.0845 26.7187 90.1717 26.2135C89.6994 26.8395 89.2602 27.7949 89.4029 29.1127C89.6555 31.2432 90.4572 33.3736 91.8409 35.0428Z" fill="#651DFF"/>
<path d="M5.24983 72.3041C4.9094 71.6232 4.57995 70.9204 4.27246 70.2175C5.67812 68.9436 7.06183 66.6155 5.30474 62.9366C3.13035 58.3792 2.07611 54.4587 0.143317 53.668C0.143317 53.6351 0.143306 53.6131 0.132324 53.5802C1.14265 53.4484 2.52636 53.9096 3.53668 56.7539C4.84351 60.4547 10.9274 69.4708 5.24983 72.3041Z" fill="#651DFF"/>
<path opacity="0.35" d="M100 49.9999C100 52.921 99.7474 55.7873 99.2642 58.5657C97.584 68.2735 93.1034 77.026 86.6901 83.9555C82.9014 88.0517 78.4318 91.511 73.468 94.1466C70.2394 95.8707 66.8021 97.2434 63.2001 98.2318C58.9941 99.3849 54.5684 99.9889 50 99.9889C47.9025 99.9889 45.8379 99.8571 43.8172 99.6045C26.8834 97.518 12.5631 86.9535 5.24928 72.2929C2.39402 66.5824 0.603992 60.2569 0.131776 53.569C0.0439217 52.3829 0 51.1859 0 49.9889C0 42.4444 1.66923 35.2953 4.65628 28.882C5.13947 72.1831 94.553 83.066 96.947 32.7475C98.6931 37.5136 99.7364 42.6092 99.9561 47.9353C99.989 48.6272 100 49.308 100 49.9999Z" fill="url(#paint1_linear)"/>
<path opacity="0.45" d="M80.266 89.7984C78.1355 91.4237 75.8623 92.8842 73.4792 94.1581C70.2506 95.8823 66.8133 97.255 63.2113 98.2433C59.0053 99.3964 54.5796 100 50.0112 100C47.9137 100 45.8491 99.8686 43.8285 99.6161C26.8946 97.5295 12.5744 86.9651 5.26051 72.3044C2.40525 66.5939 0.615239 60.2684 0.143023 53.5805C0.0551689 52.3945 0.0112305 51.1974 0.0112305 50.0004C0.0112305 42.456 1.68046 35.3068 4.6675 28.8935C7.33607 23.161 11.0699 18.0215 15.5944 13.7277C1.64752 80.2442 52.9434 89.4579 80.266 89.7984Z" fill="url(#paint2_linear)"/>
<path d="M100 50.0001C100 52.9212 99.7477 55.7875 99.2645 58.5659C99.0009 60.0594 98.6824 61.531 98.298 62.9805C96.5629 22.7653 69.3282 -0.0987129 30.0244 4.15123C36.1413 1.48266 42.906 0.00012207 50.0002 0.00012207C71.5574 0.00012207 89.9299 13.6395 96.9473 32.7697C98.6934 37.5358 99.7367 42.6313 99.9563 47.9575C99.9893 48.6274 100 49.3083 100 50.0001Z" fill="url(#paint3_linear)"/>
<defs>
<radialGradient id="paint0_radial" cx="0" cy="0" r="1" gradientUnits="userSpaceOnUse" gradientTransform="translate(47.7952 23.5293) scale(76.346)">
<stop stop-color="#9260FF"/>
<stop offset="1" stop-color="#5200FF"/>
</radialGradient>
<linearGradient id="paint1_linear" x1="7.29486" y1="76.4263" x2="95.7174" y2="35.0578" gradientUnits="userSpaceOnUse">
<stop stop-color="#270078" stop-opacity="0.81"/>
<stop offset="1" stop-color="#651DFF" stop-opacity="0.27"/>
</linearGradient>
<linearGradient id="paint2_linear" x1="40.3424" y1="122.316" x2="39.8546" y2="-1.59366" gradientUnits="userSpaceOnUse">
<stop stop-color="#651DFF"/>
<stop offset="1" stop-color="#4700DD" stop-opacity="0.25"/>
</linearGradient>
<linearGradient id="paint3_linear" x1="94.4754" y1="-0.0219477" x2="64.057" y2="33.681" gradientUnits="userSpaceOnUse">
<stop stop-color="#651DFF"/>
<stop offset="1" stop-color="#0A69D2" stop-opacity="0"/>
</linearGradient>
</defs>
</svg>
