<svg width="302" height="301" viewBox="0 0 302 301" fill="none" xmlns="http://www.w3.org/2000/svg">
<path d="M301.993 150.499C301.993 159.292 301.232 167.919 299.778 176.282C298.985 180.778 298.026 185.207 296.869 189.57C290.456 213.502 278.292 235.054 261.963 252.705C256.046 259.118 249.568 265.002 242.593 270.29C236.181 275.183 229.338 279.579 222.165 283.413C212.447 288.603 202.101 292.735 191.259 295.71C178.599 299.181 165.278 300.999 151.527 300.999C145.214 300.999 139 300.602 132.918 299.842C81.9473 293.561 38.8439 261.762 16.8294 217.634C8.23522 200.445 2.84734 181.406 1.42599 161.275C1.16155 157.705 1.0293 154.102 1.0293 150.499C1.0293 127.791 6.05363 106.272 15.0445 86.9676C23.0768 69.7129 34.3154 54.2432 47.934 41.3187C60.5278 29.3528 75.2041 19.5355 91.3679 12.4948C109.779 4.46242 130.141 0 151.494 0C216.381 0 271.681 41.0543 292.803 98.636C298.059 112.982 301.199 128.319 301.86 144.351C301.96 146.367 301.993 148.417 301.993 150.499Z" fill="url(#paint0_radial)"/>
<path d="M16.7961 217.635C15.7714 215.586 14.7798 213.47 13.8542 211.355C7.0119 195.918 2.7148 179.159 1.42567 161.541C1.42567 161.442 1.42563 161.376 1.39258 161.276C4.43361 160.88 8.59853 162.268 11.6396 170.829C15.5731 181.969 33.8854 209.107 16.7961 217.635Z" fill="#FFB403"/>
<path d="M134.998 192.053C134.8 193.277 134.37 194.433 133.742 195.491C128.949 204.086 112.256 208.317 93.6465 205.11C77.4497 202.301 64.5253 194.632 60.3604 186.302C59.1374 183.856 58.6746 181.377 59.1043 178.898C60.9885 168.056 79.2016 165.444 100.158 169.113C121.115 172.716 136.882 181.211 134.998 192.053Z" fill="#FFB403"/>
<path d="M90.4081 120.387L90.375 120.42C86.2101 126.7 73.2196 120.949 58.1136 111.065C45.7842 103 36.9916 94.9675 36.3966 88.8523C36.2644 87.464 36.5619 86.1418 37.3222 84.9518C41.4871 78.6053 58.0144 78.1756 73.1535 88.092C88.2925 98.0085 94.5729 114.04 90.4081 120.387Z" fill="#FFB403"/>
<path d="M257.135 213.074C244.938 223.255 230.328 225.866 224.543 218.891C224.246 218.528 223.981 218.164 223.75 217.768C219.321 210.529 224.609 197.538 236.178 187.919C247.946 178.102 261.928 175.325 268.109 181.374C268.341 181.605 268.572 181.837 268.77 182.068C274.555 189.043 269.365 202.926 257.135 213.074Z" fill="#FFB403"/>
<path d="M169.145 129.612C156.815 139.363 144.287 144.751 137.115 135.694C136.42 134.834 135.859 133.909 135.363 132.917C130.801 123.728 135.297 110.407 146.469 101.581C158.799 91.8298 175.623 87.2351 187.093 101.746C187.159 101.845 187.259 101.945 187.292 102.044C194.035 111.002 181.375 119.96 169.145 129.612Z" fill="#FFB403"/>
<path d="M119.891 265.795C118.106 267.514 114.569 268.473 109.016 268.208C88.6542 267.316 66.5406 242.525 72.7218 234.558C72.821 234.426 72.9201 234.327 73.0193 234.228C79.4319 226.989 95.4965 240.013 103.694 244.31C117.213 251.383 124.618 261.267 119.891 265.795Z" fill="#FFB403"/>
<path d="M199.752 247.52C199.785 252.214 193.406 257.172 183.357 257.602C164.979 258.395 154.5 254.858 152.021 248.314C151.757 247.619 151.591 246.892 151.492 246.099C150.6 238.133 167.425 239.488 176.283 239.025C192.91 238.133 199.719 242.694 199.752 247.52Z" fill="#FFB403"/>
<path d="M255.45 141.907C253.433 144.915 249.533 146.964 244.476 146.964C228.543 146.964 207.289 135.461 209.966 124.817C210.264 123.594 210.727 122.537 211.256 121.677C215.354 115.066 225.701 118.273 235.65 120.388C255.549 124.619 259.813 135.461 255.45 141.907Z" fill="#FFB403"/>
<path d="M203.719 63.7336C203.521 63.2708 203.421 62.7419 203.355 62.18C202.959 57.6515 207.421 51.0405 216.115 48.6605C221.767 47.1069 229.402 47.3053 234.129 50.2141C236.212 51.5032 237.699 53.2882 238.261 55.7343C239.583 61.8164 206.529 70.7743 203.719 63.7336Z" fill="#FFB403"/>
<path d="M112.885 49.6526C111.761 50.3137 110.439 50.1153 109.018 48.694C99.2665 38.9428 98.4071 23.0103 103.696 20.3659C105.778 19.3081 107.596 18.9776 109.15 19.1428C119.727 20.3328 118.57 46.2149 112.885 49.6526Z" fill="#FFB403"/>
<path d="M279.844 105.35C279.15 105.681 278.324 105.747 277.431 105.515C273.729 104.557 268.903 98.8713 267.449 90.3101C266.622 85.2858 269.135 80.4597 272.407 78.9392C276.043 77.2204 280.638 79.6003 282.489 90.3101C283.579 96.3922 283.414 103.565 279.844 105.35Z" fill="#FFB403"/>
<path d="M261.964 252.709C250.56 265.039 237.106 275.451 222.166 283.384C220.48 282.558 218.959 281.335 218.364 279.583C217.835 278.029 218.067 276.046 219.686 273.534C225.868 263.783 232.082 248.743 246.229 247.85C250.361 247.586 253.634 248.082 256.245 249.007C258.757 249.933 260.608 251.255 261.964 252.709Z" fill="#FFB403"/>
<path d="M191.224 295.681C178.564 299.152 165.243 300.97 151.493 300.97C145.179 300.97 138.965 300.573 132.883 299.813C132.883 298.028 133.213 296.111 134.304 294.491C135.362 292.937 137.114 291.681 139.99 291.219C150.6 289.434 155.922 282.36 170.962 283.252C178.763 283.715 184.217 287.516 187.621 291.053C189.307 292.838 190.464 294.491 191.224 295.681Z" fill="#FFB403"/>
<path d="M171.986 21.4556C171.226 25.2239 164.847 26.5791 161.773 25.1578C161.111 24.8603 160.616 24.4305 160.351 23.9017C158.566 20.3648 170.234 13.7538 171.854 19.4723C172.052 20.1995 172.086 20.8606 171.986 21.4556Z" fill="#FFB403"/>
<path d="M125.839 220.408C121.873 218.424 118.765 216.871 119.658 224.837C120.55 232.803 126.732 234.588 132.053 234.588C137.342 234.588 129.376 222.193 125.839 220.408Z" fill="#FFBC1D"/>
<path d="M52.3602 215.122C48.8233 214.23 48.8234 220.444 46.179 226.625C43.5346 232.806 47.0714 237.236 52.3602 237.236C57.682 237.236 59.4339 216.874 52.3602 215.122Z" fill="#FFBC1D"/>
<path d="M36.4269 135.424C33.0223 133.871 29.3532 131.888 28.4607 135.424C27.5682 138.961 35.5344 148.713 39.9637 148.713C44.3931 148.713 46.145 139.854 36.4269 135.424Z" fill="#FFBC1D"/>
<path d="M301.989 150.498C301.989 159.291 301.229 167.918 299.775 176.281C298.485 175.785 297.163 174.893 295.775 173.504C286.916 164.646 293.626 152.085 295.775 147.821C298.155 143.061 300.535 143.49 301.857 144.317C301.956 146.366 301.989 148.416 301.989 150.498Z" fill="#FFBC1D"/>
<path d="M210.825 160.215C205.701 159.587 202.858 163.752 210.825 167.289C218.791 170.859 217.898 161.108 210.825 160.215Z" fill="#FFBC1D"/>
<path d="M20.495 120.386C18.1151 121.576 17.8506 126.567 24.0319 125.708C30.2131 124.815 25.7837 117.741 20.495 120.386Z" fill="#FFBC1D"/>
<path d="M146.203 58.439C143.558 59.3318 140.02 61.9772 146.203 62.8701C152.387 63.7298 148.849 57.5462 146.203 58.439Z" fill="#FFBC1D"/>
<path d="M161.242 58.442C158.002 56.5579 157.705 65.5158 160.349 69.0527C162.994 72.5895 171.852 64.6233 161.242 58.442Z" fill="#FFBC1D"/>
<path d="M189.571 268.24C187.653 268.67 186.925 271.779 192.216 273.564C197.54 275.317 197.54 266.455 189.571 268.24Z" fill="#FFBC1D"/>
<path d="M112.55 283.281C109.906 284.174 107.23 285.927 112.55 287.712C117.87 289.465 115.193 282.389 112.55 283.281Z" fill="#FFBC1D"/>
<path d="M116.981 153.145C112.486 153.376 122.303 159.326 124.947 160.219C127.592 161.111 135.558 152.252 116.981 153.145Z" fill="#FFBC1D"/>
<path d="M262.157 130.137C259.942 131.856 263.942 141.64 267.479 140.747C271.016 139.855 270.123 123.922 262.157 130.137Z" fill="#FFBC1D"/>
<path d="M190.96 192.182C190.564 193.702 190.068 195.19 189.572 196.512C186.994 203.42 171.755 206.131 167.723 202.958C167.624 202.891 167.524 202.792 167.425 202.693C163.888 199.156 167.326 190.264 169.21 185.868C171.855 179.687 185.143 175.257 189.572 177.009C193.142 178.497 192.679 185.736 190.96 192.182Z" fill="#FFB403"/>
<path d="M36.3966 88.8875C36.2644 87.4992 36.5619 86.177 37.3222 84.987C41.4871 78.6404 58.0144 78.2107 73.1535 88.1272C88.2925 98.0437 94.5729 114.075 90.4081 120.422L90.375 120.455C90.6063 116.588 88.9867 111.167 83.3343 103.597C68.5919 83.9292 41.7184 77.153 36.3966 88.8875Z" fill="#FFA51D"/>
<path d="M134.998 192.053C134.8 193.276 134.37 194.433 133.742 195.491C133.378 193.97 130.106 182.037 115.198 177.046C99.7286 171.889 78.9041 167.295 66.5086 177.046C62.542 180.153 60.8562 183.359 60.3604 186.268C59.1374 183.822 58.6746 181.343 59.1043 178.864C60.9885 168.022 79.2016 165.411 100.158 169.08C121.115 172.716 136.882 181.211 134.998 192.053Z" fill="#FFA51D"/>
<path d="M159.46 99.1349C142.998 104.82 136.057 120.951 135.363 132.917C130.801 123.728 135.297 110.407 146.469 101.581C158.799 91.8298 175.623 87.2351 187.093 101.746C187.159 101.845 187.259 101.945 187.292 102.044C182.333 98.2094 173.309 94.375 159.46 99.1349Z" fill="#FFA51D"/>
<path d="M190.96 192.182C190.795 185.769 189.208 178.53 182.498 180.579C175.623 182.695 167.822 195.157 167.756 202.958C167.657 202.891 167.558 202.792 167.459 202.693C163.922 199.156 167.359 190.264 169.244 185.868C171.888 179.687 185.176 175.257 189.605 177.009C193.142 178.497 192.679 185.736 190.96 192.182Z" fill="#FFA51D"/>
<path d="M255.449 141.907C257.465 130.239 238.756 126.47 229.402 123.066C220.146 119.694 213.8 120.884 211.222 121.677C215.32 115.066 225.667 118.273 235.616 120.388C255.548 124.619 259.812 135.461 255.449 141.907Z" fill="#FFA51D"/>
<path d="M203.721 63.7308C203.523 63.268 203.424 62.7392 203.357 62.1772C208.944 65.8794 223.256 62.8714 231.156 59.3014C236.809 56.7232 235.883 52.9549 234.131 50.2444C236.214 51.5335 237.701 53.3185 238.263 55.7646C239.585 61.8136 206.531 70.7715 203.721 63.7308Z" fill="#FFA51D"/>
<path d="M112.885 49.6526C111.761 50.3137 110.439 50.1153 109.018 48.694C99.2665 38.9428 98.4071 23.0103 103.696 20.3659C105.778 19.3081 107.596 18.9776 109.15 19.1428C107.001 19.5395 103.696 21.4236 103.696 29.2246C103.696 38.2156 108.026 45.5868 112.885 49.6526Z" fill="#FFA51D"/>
<path d="M171.986 21.4556C171.689 19.9351 170.499 18.4807 166.565 19.4723C163.359 20.2656 162.136 22.7117 161.773 25.1578C161.111 24.8603 160.616 24.4305 160.351 23.9017C158.566 20.3648 170.234 13.7538 171.854 19.4723C172.052 20.1995 172.086 20.8606 171.986 21.4556Z" fill="#FFA51D"/>
<path d="M119.893 265.795C119.133 261.035 114.77 256.408 107.233 252.276C97.482 246.954 90.4083 241.665 84.227 237.236C80.9877 234.922 76.5253 234.294 73.0215 234.228C79.4341 226.989 95.4987 240.013 103.696 244.31C117.216 251.383 124.62 261.267 119.893 265.795Z" fill="#FFA51D"/>
<path d="M199.752 247.52C198.331 243.983 194.034 242.529 186.894 242.529H162.103C152.616 242.529 152.021 248.016 152.021 248.281C151.757 247.586 151.591 246.859 151.492 246.066C150.6 238.1 167.425 239.455 176.283 238.992C192.91 238.133 199.719 242.694 199.752 247.52Z" fill="#FFA51D"/>
<path d="M187.621 291.085C189.307 292.804 190.464 294.49 191.224 295.68C178.564 299.15 165.243 300.968 151.493 300.968C145.179 300.968 138.965 300.572 132.883 299.811C132.883 298.027 133.213 296.109 134.304 294.49C163.723 301.431 180.68 294.985 187.621 291.085Z" fill="#FFA51D"/>
<path d="M261.962 252.707C250.559 265.037 237.105 275.449 222.165 283.382C220.479 282.556 218.958 281.333 218.363 279.581C243.055 270.325 253.732 253.567 256.244 249.038C258.756 249.931 260.607 251.253 261.962 252.707Z" fill="#FFA51D"/>
<path d="M268.109 181.377C266.126 180.683 252.012 176.75 235.583 195.624C227.287 205.177 224.411 212.581 223.75 217.771C219.321 210.532 224.609 197.541 236.178 187.922C247.946 178.138 261.928 175.328 268.109 181.377Z" fill="#FFA51D"/>
<path d="M277.431 105.481C273.729 104.523 268.903 98.8372 267.449 90.2759C266.622 85.2516 269.135 80.4256 272.407 78.905C270.986 80.7892 269.663 83.665 270.093 87.6316C270.853 94.0442 273.266 100.457 277.431 105.481Z" fill="#FFA51D"/>
<path d="M16.7961 217.635C15.7714 215.586 14.7798 213.47 13.8542 211.355C18.0852 207.52 22.2501 200.513 16.9614 189.439C10.4165 175.721 7.2433 163.921 1.42567 161.541C1.42567 161.442 1.42563 161.376 1.39258 161.276C4.43361 160.88 8.59853 162.268 11.6396 170.829C15.5731 181.969 33.8854 209.107 16.7961 217.635Z" fill="#FFA51D"/>
<path opacity="0.35" d="M301.99 150.499C301.99 159.292 301.229 167.919 299.775 176.282C294.717 205.503 281.231 231.848 261.927 252.705C250.523 265.035 237.07 275.447 222.129 283.38C212.411 288.57 202.065 292.702 191.223 295.677C178.563 299.147 165.242 300.965 151.491 300.965C145.178 300.965 138.964 300.569 132.881 299.809C81.9111 293.528 38.8078 261.729 16.7933 217.601C8.19909 200.412 2.81116 181.373 1.3898 161.242C1.12537 157.672 0.993164 154.069 0.993164 150.466C0.993164 127.757 6.0175 106.239 15.0084 86.9346C16.4628 217.27 285.594 250.028 292.8 98.5699C298.056 112.916 301.196 128.253 301.857 144.285C301.956 146.367 301.99 148.417 301.99 150.499Z" fill="url(#paint1_linear)"/>
<path opacity="0.45" d="M242.59 270.293C236.178 275.185 229.335 279.581 222.162 283.415C212.444 288.605 202.098 292.737 191.256 295.712C178.596 299.183 165.275 301.001 151.524 301.001C145.211 301.001 138.997 300.604 132.915 299.844C81.9443 293.563 38.841 261.764 16.8265 217.636C8.23229 200.447 2.84441 181.408 1.42306 161.277C1.15862 157.707 1.02637 154.104 1.02637 150.501C1.02637 127.793 6.0507 106.274 15.0416 86.9697C23.0739 69.715 34.3125 54.2453 47.931 41.3208C5.95153 241.535 160.35 269.268 242.59 270.293Z" fill="url(#paint2_linear)"/>
<path d="M301.99 150.499C301.99 159.292 301.23 167.919 299.775 176.282C298.982 180.778 298.023 185.207 296.866 189.57C291.644 68.523 209.668 -0.297492 91.3652 12.4948C109.777 4.46242 130.138 0 151.492 0C216.378 0 271.679 41.0543 292.801 98.636C298.056 112.982 301.197 128.319 301.858 144.351C301.957 146.367 301.99 148.417 301.99 150.499Z" fill="url(#paint3_linear)"/>
<defs>
<radialGradient id="paint0_radial" cx="0" cy="0" r="1" gradientUnits="userSpaceOnUse" gradientTransform="translate(144.865 70.8226) scale(229.799 229.8)">
<stop stop-color="#FFE46A"/>
<stop offset="1" stop-color="#FFA44A"/>
</radialGradient>
<linearGradient id="paint1_linear" x1="22.9504" y1="230.042" x2="289.1" y2="105.526" gradientUnits="userSpaceOnUse">
<stop stop-color="#FFB300"/>
<stop offset="1" stop-color="#E27437" stop-opacity="0.2"/>
</linearGradient>
<linearGradient id="paint2_linear" x1="122.422" y1="368.169" x2="120.954" y2="-4.79617" gradientUnits="userSpaceOnUse">
<stop stop-color="#FF7A00"/>
<stop offset="1" stop-color="#CC622E" stop-opacity="0.2"/>
</linearGradient>
<linearGradient id="paint3_linear" x1="285.36" y1="-0.0664296" x2="193.801" y2="101.378" gradientUnits="userSpaceOnUse">
<stop stop-color="#FFB300"/>
<stop offset="1" stop-color="#FFF49A" stop-opacity="0.2"/>
</linearGradient>
</defs>
</svg>
