<svg width="303" height="302" viewBox="0 0 303 302" fill="none" xmlns="http://www.w3.org/2000/svg">
<path d="M302.844 151.546C302.467 285.87 138.918 351.684 45.474 258.24C-49.9998 163.694 17.1769 -0.000244141 151.675 -0.000244141C239.35 -0.000244141 303.047 72.2792 302.844 151.546Z" fill="url(#paint0_radial)"/>
<g opacity="0.5">
<path opacity="0.5" d="M0.826172 136.034C3.63849 135.802 6.9437 135.802 10.6258 136.295C21.9041 137.774 39.1838 144.181 57.4494 166.361C60.3487 169.898 63.045 173.232 65.6834 176.479C94.9373 212.691 108.303 229.246 195.572 237.161C223.144 239.655 242.221 248.875 255.442 260.066C256.08 259.457 256.689 258.877 257.298 258.239C243.758 246.7 224.13 237.161 195.804 234.61C109.637 226.782 97.3437 211.59 67.6839 174.856C65.0745 171.608 62.3782 168.274 59.4499 164.737C40.5755 141.804 22.5709 135.222 10.7997 133.715C7.20462 133.251 3.95744 133.222 1.14514 133.425C1.00018 134.295 0.884155 135.164 0.826172 136.034Z" fill="#FAFF03"/>
<path opacity="0.5" d="M1.60872 172.42C1.72469 173.261 1.84059 174.102 1.98555 174.913C15.4093 174.71 27.3834 180.19 37.7339 191.294C43.7645 197.76 48.9252 203.819 53.4771 209.154C75.8886 235.422 89.4283 251.281 155.967 262.008C181.742 266.154 200.703 275.2 212.445 288.885C213.257 288.537 214.069 288.16 214.881 287.783C202.762 273.315 183.105 263.777 156.373 259.486C90.762 248.903 78.2081 234.204 55.4196 207.501C50.8387 202.138 45.6489 196.049 39.5894 189.555C27.1225 176.131 13.5248 172.188 1.60872 172.42Z" fill="#FAFF03"/>
<path opacity="0.5" d="M11.3791 208.342C11.756 209.24 12.1329 210.168 12.5388 211.067C23.3532 212.893 32.6309 218.576 40.256 228.115C61.015 254.063 74.7867 267.458 111.231 278.302C135.875 285.608 146.283 294.77 150.603 301.931H151.067C151.908 301.931 152.72 301.931 153.561 301.902C147.907 291.116 133.932 282.332 111.985 275.808C76.2363 265.197 62.6966 252.005 42.2856 226.491C32.7179 214.575 21.5556 209.762 11.3791 208.342Z" fill="#FAFF03"/>
<path opacity="0.5" d="M157.88 168.971C167.361 185.468 191.106 191.73 226.246 199.413C256.659 206.053 272.113 219.476 279.796 229.827C280.289 229.015 280.782 228.203 281.274 227.392C280.579 226.464 279.796 225.536 278.955 224.55C271.011 215.388 255.5 203.182 226.797 196.891C192.324 189.353 169.072 183.235 160.113 167.695C154.401 157.721 154.633 144.095 160.838 124.785C166.085 108.491 173.971 92.1394 181.568 76.3382C192.962 52.651 203.979 29.8045 204.675 9.8284C203.805 9.50948 202.964 9.1905 202.095 8.87158C201.718 28.5288 190.7 51.4333 179.248 75.2075C171.594 91.0956 163.679 107.506 158.373 124.003C151.937 144.037 151.763 158.33 157.88 168.971Z" fill="#FAFF03"/>
<path opacity="0.5" d="M191.715 143.688C197.717 154.995 216.36 159.634 248.658 164.244C272.142 167.607 288.117 175.435 298.584 183.089C298.787 182.133 298.989 181.147 299.192 180.19C288.436 172.594 272.403 165.027 249.035 161.693C218.302 157.315 199.457 152.763 194.006 142.47C190.469 135.773 192.121 126.118 199.399 111.216C200.993 107.969 202.559 104.808 204.067 101.735C217.78 74.1337 228.971 51.6063 225.231 19.4531C224.304 18.9313 223.405 18.4094 222.448 17.9165C226.797 50.1277 216.041 71.8143 201.747 100.575C200.211 103.649 198.645 106.809 197.05 110.056C189.396 125.828 187.743 136.179 191.715 143.688Z" fill="#FAFF03"/>
<path opacity="0.5" d="M260.196 121.914C263.588 123.219 267.415 124.697 271.503 126.408C287.015 132.989 296.553 140.092 301.917 145.108C301.888 143.891 301.801 142.673 301.714 141.455C295.944 136.468 286.667 130.061 272.489 124.059C268.372 122.32 264.516 120.841 261.095 119.536C240.8 111.766 232.392 108.548 238.075 76.5688C241.844 55.346 241.032 39.0809 239.466 28.6145C238.48 27.8897 237.495 27.1939 236.48 26.498C238.219 36.5876 239.553 53.6064 235.552 76.134C229.493 110.172 239.756 114.115 260.196 121.914Z" fill="#FAFF03"/>
<path opacity="0.5" d="M261.588 82.5711C268.054 92.5446 281.303 96.0528 292.176 97.1835C291.828 96.2558 291.451 95.3279 291.074 94.4002C281.013 93.1825 269.358 89.8193 263.734 81.1504C259.008 73.8732 259.182 63.7836 264.284 51.0847C263.647 50.3599 263.038 49.6641 262.371 48.9683C256.485 63.0588 256.224 74.3371 261.588 82.5711Z" fill="#FAFF03"/>
<path opacity="0.5" d="M3.46518 119.103C26.4276 114.522 36.0822 99.7645 45.4759 85.442C47.4764 82.3688 49.564 79.2086 51.7095 76.2513C53.3331 74.0188 54.8697 71.7573 56.3194 69.5829C67.0757 53.6947 77.2523 38.6764 128.918 30.4424C153.794 26.4703 171.073 18.4973 180.235 6.69715C181.134 5.53743 181.888 4.40676 182.555 3.30502C181.656 3.10207 180.757 2.92811 179.858 2.75415C179.336 3.59495 178.728 4.43576 178.061 5.30554C172.001 12.9887 158.49 23.1362 128.512 27.92C75.7446 36.328 65.2781 51.7812 54.2028 68.1622C52.7532 70.3077 51.2456 72.5401 49.622 74.7436C47.4185 77.7589 45.331 80.9482 43.3015 84.0504C34.4006 97.6481 25.2389 111.623 4.04507 116.319C3.87111 117.218 3.63913 118.146 3.46518 119.103Z" fill="#FAFF03"/>
<path opacity="0.5" d="M14.1918 87.1508C30.109 82.8018 38.7778 71.7555 47.8816 60.1583C58.1451 47.1115 69.7423 32.3251 93.9804 24.381C119.784 15.9151 132.222 7.15922 138.224 0.548828C136.89 0.6648 135.527 0.780814 134.194 0.954772C127.902 6.89833 115.928 14.4945 93.1976 21.9456C68.2347 30.1217 56.3475 45.256 45.8811 58.5928C37.1542 69.6971 29.3841 79.5837 15.6994 84.0486C15.1776 85.0633 14.6847 86.107 14.1918 87.1508Z" fill="#FAFF03"/>
<path opacity="0.5" d="M53.7089 112.983C58.6087 88.4259 92.6174 53.0834 123.64 40.2106C139.557 33.6292 153.126 33.6002 162.896 40.0947C168.898 44.0957 164.578 56.4466 157.997 75.1181C155.01 83.584 151.647 93.1517 148.835 103.27C146.602 111.301 145.182 120.231 143.79 128.842C139.731 154.066 135.904 177.898 113.434 180.537C112.072 180.71 110.68 180.768 109.288 180.768C95.8356 180.768 80.9042 173.462 69.423 160.995C56.4052 146.876 50.5197 128.929 53.7089 112.983ZM71.3366 159.256C83.4846 172.419 99.4887 179.58 113.144 177.985C133.7 175.579 137.382 152.674 141.268 128.436C142.659 119.738 144.109 110.75 146.37 102.574C149.212 92.3689 152.604 82.7433 155.59 74.2483C161.099 58.6211 165.854 45.1394 161.505 42.2401C150.11 34.6439 135.179 38.2391 124.655 42.588C94.8209 54.939 60.9281 90.0785 56.2602 113.476C53.2159 128.61 58.8696 145.745 71.3366 159.256Z" fill="#FAFF03"/>
<path opacity="0.5" d="M80.0343 88.108C95.3135 70.1614 119.088 52.7656 139.035 52.7656C139.992 52.7656 140.89 52.7946 141.818 52.8816C143.674 53.0266 145.065 53.9543 145.848 55.491C150.545 64.7107 132.251 95.2982 132.077 95.5882C127.467 103.271 126.597 114.173 125.785 124.726C124.567 140.382 123.408 155.169 109.665 156.415C108.273 156.531 106.882 156.618 105.519 156.618C85.6299 156.618 68.3211 143.601 63.5083 124.378C61.5077 116.347 67.8282 102.431 80.0343 88.108ZM66.0017 123.74C70.8435 143.021 89.109 155.691 109.462 153.835C121.059 152.791 122.074 139.686 123.263 124.523C124.104 113.68 124.973 102.46 129.931 94.2545C137.324 81.9905 146.457 62.2173 143.616 56.6507C143.21 55.8969 142.601 55.4909 141.644 55.4329C122.045 53.7803 97.575 71.4661 82.0058 89.7607C70.4956 103.271 64.2041 116.608 66.0017 123.74Z" fill="#FAFF03"/>
<path opacity="0.5" d="M85.6583 117.36C86.905 104.081 101.691 84.5107 113.289 84.5107C114.39 84.5107 115.028 85.0615 115.376 85.5254C116.768 87.381 115.724 91.0631 113.607 97.9344C112.216 102.428 110.65 107.531 110.302 111.648C110.157 113.301 110.157 114.953 110.128 116.548C110.07 121.129 109.983 125.449 106.968 127.913C105.373 129.218 103.112 129.856 100.068 129.856C98.1542 129.856 95.9218 129.595 93.3704 129.131C87.7748 128 85.0494 123.854 85.6583 117.36ZM93.8053 126.551C99.6329 127.652 103.402 127.449 105.315 125.884C107.403 124.173 107.461 120.607 107.519 116.461C107.548 114.837 107.577 113.156 107.722 111.416C108.07 107.009 109.693 101.761 111.143 97.1226C112.245 93.5275 113.926 88.1348 113.346 87.062H113.318C103.228 87.062 89.3403 105.82 88.2386 117.592C87.7457 122.723 89.6303 125.739 93.8053 126.551Z" fill="#FAFF03"/>
</g>
<path opacity="0.65" d="M302.845 151.545C302.816 160.533 301.975 169.637 300.236 178.741C298.177 189.584 294.843 200.427 290.204 211.097C248.02 308.194 120.306 333.099 45.4748 258.268C36.5739 249.455 29.0938 240.032 22.9473 230.203C234.19 326.286 300.961 144.993 300.961 144.993L302.845 151.545Z" fill="url(#paint1_linear)"/>
<defs>
<radialGradient id="paint0_radial" cx="0" cy="0" r="1" gradientUnits="userSpaceOnUse" gradientTransform="translate(154.337 93.0947) scale(151.055)">
<stop stop-color="#EC5630"/>
<stop offset="1" stop-color="#E33E14"/>
</radialGradient>
<linearGradient id="paint1_linear" x1="192.796" y1="312.51" x2="155.485" y2="160.692" gradientUnits="userSpaceOnUse">
<stop stop-color="#E0270B"/>
<stop offset="1" stop-color="#BB2600" stop-opacity="0.29"/>
</linearGradient>
</defs>
</svg>
