<svg width="300" height="300" viewBox="0 0 300 300" fill="none" xmlns="http://www.w3.org/2000/svg">
<path d="M300 149.999C300 158.762 299.242 167.361 297.793 175.696C297.002 180.176 296.047 184.591 294.894 188.94C288.502 212.792 276.378 234.272 260.104 251.865C254.206 258.256 247.749 264.121 240.798 269.392C234.406 274.268 227.587 278.649 220.438 282.471C210.752 287.643 200.44 291.761 189.634 294.726C177.016 298.186 163.739 299.998 150.034 299.998C143.742 299.998 137.548 299.602 131.486 298.845C80.6847 292.585 37.7243 260.892 15.7829 216.91C7.21718 199.779 1.84717 180.802 0.430531 160.739C0.166971 157.181 0.0351562 153.59 0.0351562 149.999C0.0351562 127.366 5.04282 105.918 14.0039 86.6784C22.0095 69.4811 33.2108 54.0628 46.7842 41.1813C59.3363 29.2552 73.9639 19.4705 90.074 12.4532C108.424 4.44758 128.719 0 150.001 0C214.672 0 269.789 40.9178 290.841 98.308C296.079 112.606 299.209 127.893 299.868 143.871C299.967 145.881 300 147.923 300 149.999Z" fill="url(#paint0_radial)"/>
<path d="M15.7489 216.907C14.7276 214.865 13.7393 212.756 12.8168 210.648C5.99716 195.262 1.71432 178.559 0.429462 161C0.429462 160.901 0.429429 160.835 0.396484 160.736C3.42743 160.341 7.57853 161.724 10.6095 170.257C14.5299 181.36 32.7815 208.407 15.7489 216.907Z" fill="#4700DD"/>
<path d="M133.558 191.407C133.36 192.626 132.932 193.779 132.306 194.833C127.529 203.399 110.892 207.616 92.3439 204.42C76.2008 201.62 63.3193 193.976 59.1682 185.674C57.9492 183.236 57.488 180.765 57.9163 178.294C59.7942 167.488 77.9469 164.886 98.8341 168.543C119.721 172.134 135.436 180.601 133.558 191.407Z" fill="#4700DD"/>
<path d="M89.1175 119.983L89.0845 120.016C84.9334 126.276 71.986 120.543 56.9301 110.693C44.6416 102.654 35.8782 94.6485 35.2852 88.5536C35.1534 87.1699 35.4499 85.8521 36.2077 84.6661C40.3588 78.3407 56.8313 77.9124 71.9201 87.7959C87.009 97.6794 93.2685 113.658 89.1175 119.983Z" fill="#4700DD"/>
<path d="M255.292 212.362C243.135 222.509 228.573 225.112 222.808 218.16C222.511 217.798 222.248 217.436 222.017 217.04C217.603 209.825 222.874 196.878 234.405 187.291C246.133 177.506 260.069 174.739 266.229 180.768C266.46 180.998 266.691 181.229 266.888 181.46C272.654 188.411 267.481 202.248 255.292 212.362Z" fill="#4700DD"/>
<path d="M167.592 129.176C155.304 138.895 142.817 144.265 135.668 135.238C134.977 134.381 134.416 133.459 133.922 132.47C129.376 123.312 133.856 110.035 144.992 101.239C157.28 91.5197 174.049 86.9404 185.481 101.403C185.547 101.502 185.646 101.601 185.679 101.7C192.4 110.628 179.782 119.556 167.592 129.176Z" fill="#4700DD"/>
<path d="M118.503 264.909C116.724 266.622 113.199 267.577 107.664 267.314C87.3703 266.424 65.33 241.715 71.4908 233.776C71.5896 233.644 71.6884 233.545 71.7872 233.446C78.1786 226.231 94.1899 239.211 102.36 243.494C115.835 250.545 123.215 260.395 118.503 264.909Z" fill="#4700DD"/>
<path d="M198.101 246.69C198.134 251.368 191.775 256.31 181.76 256.738C163.442 257.529 152.999 254.004 150.528 247.481C150.264 246.789 150.1 246.064 150.001 245.273C149.111 237.334 165.88 238.684 174.71 238.223C191.281 237.334 198.068 241.88 198.101 246.69Z" fill="#4700DD"/>
<path d="M253.613 141.43C251.603 144.428 247.715 146.471 242.675 146.471C226.795 146.471 205.612 135.006 208.28 124.397C208.577 123.178 209.038 122.124 209.565 121.268C213.65 114.679 223.962 117.874 233.878 119.983C253.711 124.2 257.961 135.006 253.613 141.43Z" fill="#4700DD"/>
<path d="M202.052 63.5174C201.854 63.0562 201.755 62.5291 201.689 61.969C201.294 57.4555 205.742 50.8665 214.406 48.4945C220.04 46.9461 227.65 47.1437 232.361 50.0429C234.437 51.3277 235.919 53.1068 236.479 55.5447C237.797 61.6066 204.852 70.5347 202.052 63.5174Z" fill="#4700DD"/>
<path d="M111.52 49.4802C110.4 50.1391 109.082 49.9414 107.665 48.5248C97.9463 38.806 97.0898 22.9265 102.361 20.2909C104.437 19.2366 106.249 18.9072 107.797 19.0719C118.339 20.2579 117.186 46.0539 111.52 49.4802Z" fill="#4700DD"/>
<path d="M277.926 104.994C277.234 105.323 276.41 105.389 275.521 105.159C271.831 104.203 267.021 98.5365 265.571 90.0038C264.748 84.9961 267.251 80.1862 270.513 78.6707C274.137 76.9575 278.716 79.3296 280.561 90.0038C281.648 96.0657 281.484 103.215 277.926 104.994Z" fill="#4700DD"/>
<path d="M260.102 251.865C248.736 264.153 235.327 274.531 220.436 282.438C218.756 281.614 217.241 280.395 216.648 278.649C216.121 277.101 216.351 275.124 217.965 272.62C224.126 262.901 230.32 247.911 244.42 247.022C248.538 246.758 251.8 247.252 254.403 248.175C256.907 249.097 258.751 250.415 260.102 251.865Z" fill="#4700DD"/>
<path d="M189.6 294.691C176.982 298.15 163.705 299.962 150 299.962C143.708 299.962 137.514 299.567 131.452 298.809C131.452 297.03 131.782 295.119 132.869 293.505C133.923 291.956 135.669 290.705 138.535 290.243C149.111 288.464 154.415 281.414 169.405 282.304C177.18 282.765 182.616 286.553 186.009 290.079C187.689 291.858 188.842 293.505 189.6 294.691Z" fill="#4700DD"/>
<path d="M170.424 21.3788C169.666 25.1346 163.308 26.4853 160.244 25.0687C159.585 24.7722 159.091 24.3439 158.827 23.8167C157.048 20.2916 168.678 13.7026 170.292 19.4021C170.49 20.1269 170.523 20.7858 170.424 21.3788Z" fill="#4700DD"/>
<path d="M124.433 219.679C120.48 217.703 117.383 216.154 118.273 224.094C119.162 232.034 125.323 233.813 130.627 233.813C135.898 233.813 127.959 221.458 124.433 219.679Z" fill="#4700DD"/>
<path d="M51.198 214.407C47.6729 213.518 47.6729 219.712 45.0373 225.872C42.4017 232.033 45.9268 236.448 51.198 236.448C56.5022 236.448 58.2483 216.153 51.198 214.407Z" fill="#4700DD"/>
<path d="M35.3163 134.979C31.9229 133.43 28.266 131.454 27.3765 134.979C26.487 138.504 34.4267 148.223 38.8414 148.223C43.256 148.223 45.0021 139.393 35.3163 134.979Z" fill="#4700DD"/>
<path d="M299.998 150.001C299.998 158.764 299.24 167.363 297.79 175.698C296.506 175.204 295.188 174.314 293.804 172.93C284.975 164.101 291.663 151.582 293.804 147.332C296.176 142.588 298.548 143.016 299.866 143.84C299.965 145.883 299.998 147.925 299.998 150.001Z" fill="#4700DD"/>
<path d="M209.134 159.688C204.028 159.062 201.195 163.213 209.134 166.738C217.074 170.296 216.185 160.577 209.134 159.688Z" fill="#4700DD"/>
<path d="M19.439 119.985C17.067 121.171 16.8034 126.146 22.9642 125.289C29.1249 124.4 24.7102 117.349 19.439 119.985Z" fill="#4700DD"/>
<path d="M144.73 58.2492C142.094 59.1387 138.569 61.7743 144.73 62.6639C150.89 63.5204 147.365 57.3597 144.73 58.2492Z" fill="#4700DD"/>
<path d="M159.717 58.2493C156.488 56.3714 156.192 65.2995 158.828 68.8246C161.463 72.3497 170.292 64.41 159.717 58.2493Z" fill="#4700DD"/>
<path d="M187.954 267.351C186.043 267.779 185.318 270.876 190.59 272.655C195.894 274.401 195.894 265.572 187.954 267.351Z" fill="#4700DD"/>
<path d="M111.189 282.339C108.553 283.228 105.885 284.975 111.189 286.754C116.493 288.5 113.825 281.449 111.189 282.339Z" fill="#4700DD"/>
<path d="M115.604 152.635C111.124 152.865 120.908 158.795 123.544 159.685C126.18 160.574 134.119 151.745 115.604 152.635Z" fill="#4700DD"/>
<path d="M260.301 129.707C258.094 131.42 262.08 141.172 265.606 140.283C269.131 139.393 268.241 123.514 260.301 129.707Z" fill="#4700DD"/>
<path d="M189.336 191.541C188.941 193.057 188.447 194.539 187.952 195.857C185.383 202.743 170.195 205.444 166.176 202.282C166.077 202.216 165.978 202.117 165.879 202.018C162.354 198.493 165.78 189.631 167.658 185.249C170.294 179.088 183.538 174.674 187.952 176.42C191.511 177.902 191.049 185.117 189.336 191.541Z" fill="#4700DD"/>
<path d="M35.2852 88.5883C35.1534 87.2046 35.4499 85.8868 36.2077 84.7008C40.3588 78.3753 56.8313 77.947 71.9201 87.8306C87.009 97.7141 93.2685 113.692 89.1175 120.018L89.0845 120.051C89.3151 116.196 87.7008 110.793 82.0672 103.249C67.3737 83.6465 40.5893 76.8928 35.2852 88.5883Z" fill="#651DFF"/>
<path d="M133.558 191.41C133.36 192.629 132.932 193.782 132.306 194.837C131.944 193.321 128.682 181.428 113.824 176.453C98.4058 171.314 77.6504 166.734 65.296 176.453C61.3426 179.55 59.6624 182.746 59.1682 185.645C57.9492 183.207 57.488 180.736 57.9163 178.265C59.7942 167.459 77.9469 164.857 98.8341 168.513C119.721 172.137 135.436 180.604 133.558 191.41Z" fill="#651DFF"/>
<path d="M157.939 98.8006C141.533 104.467 134.614 120.544 133.922 132.47C129.376 123.312 133.856 110.035 144.992 101.239C157.28 91.5197 174.049 86.9404 185.481 101.403C185.547 101.502 185.646 101.601 185.679 101.7C180.737 97.8781 171.743 94.0565 157.939 98.8006Z" fill="#651DFF"/>
<path d="M189.336 191.541C189.172 185.15 187.59 177.935 180.902 179.978C174.05 182.086 166.275 194.507 166.209 202.282C166.11 202.216 166.011 202.117 165.912 202.018C162.387 198.493 165.814 189.631 167.691 185.249C170.327 179.088 183.571 174.674 187.986 176.42C191.511 177.902 191.049 185.117 189.336 191.541Z" fill="#651DFF"/>
<path d="M253.612 141.43C255.621 129.8 236.974 126.045 227.651 122.651C218.426 119.291 212.101 120.477 209.531 121.268C213.616 114.679 223.928 117.874 233.845 119.983C253.711 124.2 257.961 135.006 253.612 141.43Z" fill="#651DFF"/>
<path d="M202.052 63.517C201.854 63.0558 201.755 62.5287 201.689 61.9686C207.257 65.6585 221.522 62.6604 229.396 59.1024C235.03 56.5327 234.107 52.7769 232.361 50.0754C234.437 51.3603 235.919 53.1393 236.479 55.5773C237.797 61.6062 204.852 70.5343 202.052 63.517Z" fill="#651DFF"/>
<path d="M111.52 49.4802C110.4 50.1391 109.082 49.9414 107.665 48.5248C97.9463 38.806 97.0898 22.9265 102.361 20.2909C104.437 19.2366 106.249 18.9072 107.797 19.0719C105.656 19.4673 102.361 21.3451 102.361 29.1201C102.361 38.0812 106.677 45.428 111.52 49.4802Z" fill="#651DFF"/>
<path d="M170.424 21.3788C170.127 19.8633 168.941 18.4138 165.021 19.4021C161.825 20.1928 160.606 22.6307 160.244 25.0687C159.585 24.7722 159.091 24.3439 158.827 23.8167C157.048 20.2916 168.678 13.7026 170.292 19.4021C170.49 20.1269 170.523 20.7858 170.424 21.3788Z" fill="#651DFF"/>
<path d="M118.506 264.909C117.748 260.165 113.4 255.552 105.888 251.434C96.1694 246.13 89.1191 240.859 82.9584 236.444C79.7298 234.138 75.2822 233.512 71.79 233.446C78.1814 226.231 94.1927 239.211 102.363 243.494C115.838 250.545 123.217 260.395 118.506 264.909Z" fill="#651DFF"/>
<path d="M198.101 246.69C196.684 243.164 192.401 241.715 185.285 241.715H160.576C151.121 241.715 150.528 247.184 150.528 247.447C150.264 246.755 150.1 246.031 150.001 245.24C149.111 237.3 165.88 238.651 174.71 238.19C191.281 237.333 198.068 241.88 198.101 246.69Z" fill="#651DFF"/>
<path d="M186.009 290.111C187.689 291.824 188.842 293.504 189.6 294.69C176.982 298.149 163.705 299.961 150 299.961C143.708 299.961 137.514 299.566 131.452 298.808C131.452 297.029 131.782 295.118 132.869 293.504C162.19 300.423 179.091 293.998 186.009 290.111Z" fill="#651DFF"/>
<path d="M260.102 251.862C248.736 264.151 235.327 274.529 220.436 282.435C218.756 281.612 217.24 280.393 216.647 278.647C241.257 269.422 251.899 252.719 254.402 248.206C256.906 249.095 258.751 250.413 260.102 251.862Z" fill="#651DFF"/>
<path d="M266.229 180.765C264.253 180.073 250.185 176.153 233.811 194.965C225.542 204.486 222.676 211.865 222.017 217.038C217.603 209.823 222.874 196.875 234.405 187.288C246.133 177.537 260.069 174.736 266.229 180.765Z" fill="#651DFF"/>
<path d="M275.521 105.126C271.831 104.17 267.021 98.5038 265.571 89.971C264.748 84.9634 267.251 80.1534 270.513 78.6379C269.096 80.5158 267.779 83.382 268.207 87.3354C268.965 93.7268 271.37 100.118 275.521 105.126Z" fill="#651DFF"/>
<path d="M15.7489 216.907C14.7276 214.865 13.7393 212.756 12.8168 210.648C17.0338 206.826 21.1848 199.842 15.9136 188.805C9.39051 175.133 6.22779 163.372 0.429462 161C0.429462 160.901 0.429429 160.835 0.396484 160.736C3.42743 160.341 7.57853 161.724 10.6095 170.257C14.5299 181.36 32.7815 208.407 15.7489 216.907Z" fill="#651DFF"/>
<path opacity="0.35" d="M299.998 149.998C299.998 158.762 299.24 167.36 297.79 175.695C292.75 204.819 279.308 231.076 260.068 251.864C248.702 264.153 235.294 274.531 220.403 282.437C210.717 287.61 200.405 291.728 189.599 294.693C176.981 298.152 163.704 299.964 149.999 299.964C143.706 299.964 137.513 299.569 131.451 298.811C80.6495 292.552 37.6892 260.858 15.7477 216.877C7.18202 199.745 1.81196 180.769 0.395325 160.706C0.131764 157.147 0 153.556 0 149.965C0 127.332 5.00767 105.885 13.9687 86.645C15.4183 216.547 283.657 249.196 290.839 98.2417C296.077 112.54 299.207 127.826 299.866 143.805C299.965 145.88 299.998 147.923 299.998 149.998Z" fill="url(#paint1_linear)"/>
<path opacity="0.45" d="M240.796 269.391C234.404 274.266 227.585 278.648 220.436 282.47C210.75 287.642 200.438 291.76 189.632 294.725C177.014 298.185 163.737 299.997 150.032 299.997C143.74 299.997 137.546 299.601 131.484 298.843C80.6827 292.584 37.7224 260.891 15.7809 216.909C7.21522 199.778 1.84522 180.801 0.428578 160.738C0.165018 157.18 0.0332031 153.589 0.0332031 149.998C0.0332031 127.364 5.04087 105.917 14.0019 86.6773C22.0076 69.48 33.2089 54.0617 46.7823 41.1802C4.94203 240.728 158.828 268.369 240.796 269.391Z" fill="url(#paint2_linear)"/>
<defs>
<radialGradient id="paint0_radial" cx="0" cy="0" r="1" gradientUnits="userSpaceOnUse" gradientTransform="translate(143.393 70.5871) scale(229.036 229.036)">
<stop stop-color="#9260FF"/>
<stop offset="1" stop-color="#5200FF"/>
</radialGradient>
<linearGradient id="paint1_linear" x1="21.8844" y1="229.277" x2="287.15" y2="105.173" gradientUnits="userSpaceOnUse">
<stop stop-color="#270078" stop-opacity="0.81"/>
<stop offset="1" stop-color="#651DFF" stop-opacity="0.27"/>
</linearGradient>
<linearGradient id="paint2_linear" x1="121.026" y1="366.942" x2="119.563" y2="-4.78345" gradientUnits="userSpaceOnUse">
<stop stop-color="#651DFF"/>
<stop offset="1" stop-color="#4700DD" stop-opacity="0.25"/>
</linearGradient>
</defs>
</svg>
