<svg width="333" height="332" viewBox="0 0 333 332" fill="none" xmlns="http://www.w3.org/2000/svg">
<path d="M0.670044 165.64C0.670044 299.128 150.115 376.027 258.658 303.215C354.455 239 357.049 98.7587 263.222 31.2296C263.222 31.2296 263.197 31.2046 263.147 31.1797C263.022 31.105 263.022 31.0801 262.997 31.0552C262.922 30.9804 262.848 30.9306 262.773 30.9057C154.829 -46.3915 0.670044 29.7594 0.670044 165.64Z" fill="url(#paint0_radial)"/>
<path d="M124.493 253.23C124.493 263.77 221.014 235.687 253.188 248.371C277.231 257.84 284.937 264.568 299.503 263.322C316.662 240.247 327.985 212.563 331.203 182.461C322.798 185.651 308.332 191.831 285.361 203.567C243.411 224.972 124.493 238.603 124.493 253.23Z" fill="url(#paint1_linear)"/>
<path d="M48.3739 280.815C60.969 293.598 75.659 304.338 91.8456 312.486C96.1853 308.599 100.45 304.214 106.935 301.921C123.52 296.065 167.366 285.375 158.612 279.519C149.833 273.664 121.575 277.576 88.4287 275.632C68.3514 274.436 55.4321 277.9 48.3739 280.815Z" fill="#E33E14"/>
<path d="M62.0913 254.2C73.7636 241.816 106.935 244.457 102.071 256.144C99.4028 262.498 46.5033 270.746 62.0913 254.2Z" fill="#DE3820"/>
<path d="M203.457 271.72C217.947 268.505 227.824 274.635 229.769 279.519C231.715 284.378 189.789 291.206 188.817 286.347C187.844 281.488 194.678 273.663 203.457 271.72Z" fill="#DC351A"/>
<path d="M209.293 187.969C218.945 185.552 236.578 189.913 236.578 195.768C236.578 201.624 213.184 208.427 203.432 205.512C193.705 202.571 189.814 192.828 209.293 187.969Z" fill="url(#paint2_radial)"/>
<path d="M154.046 59.8842C159.281 51.4228 174.964 42.2574 179.046 46.4559C183.128 50.6544 171.097 71.84 162.073 76.5476C153.049 81.22 143.467 76.9466 154.046 59.8842Z" fill="url(#paint3_radial)"/>
<path d="M192.731 206.459C195.624 205.985 199.565 209.374 197.595 212.314C195.649 215.23 181.034 208.427 192.731 206.459Z" fill="url(#paint4_linear)"/>
<path d="M94.2659 233.746C100.526 231.877 104.99 234.718 102.072 240.573C99.1294 246.404 74.7622 239.577 94.2659 233.746Z" fill="url(#paint5_linear)"/>
<path d="M48.4478 263.943C51.8896 260.504 54.3089 266.858 52.3386 268.802C50.3932 270.745 40.6413 271.717 48.4478 263.943Z" fill="url(#paint6_linear)"/>
<path d="M137.188 327.588C146.665 329.283 156.442 330.155 166.393 330.155C200.537 330.155 232.287 319.839 258.649 302.146C239.121 296.515 206.648 301.125 174.175 316.524C159.061 323.726 146.665 326.641 137.188 327.588Z" fill="url(#paint7_linear)"/>
<path d="M130.329 309.72C135.292 309.72 135.193 312.636 135.193 315.576C135.193 318.492 130.329 319.464 127.386 315.576C124.493 311.664 126.439 309.72 130.329 309.72Z" fill="#E33E14"/>
<path d="M142.999 312.637C144.919 312.313 145.917 317.496 142.999 318.493C140.081 319.465 137.163 313.609 142.999 312.637Z" fill="url(#paint8_linear)"/>
<path d="M254.135 259.063C260.894 260.408 270.721 264.919 261.942 270.75C253.162 276.605 234.656 255.175 254.135 259.063Z" fill="#E33E14"/>
<path d="M286.308 178.225C289.825 174.712 292.169 184.081 290.199 185.053C288.279 186.025 282.418 182.113 286.308 178.225Z" fill="url(#paint9_linear)"/>
<path d="M114.742 164.595C120.902 161.505 120.603 175.31 111.824 179.197C103.044 183.085 110.826 166.539 114.742 164.595Z" fill="url(#paint10_linear)"/>
<path d="M19.1926 181.139C30.9647 180.591 26.9991 199.653 19.1926 201.597C11.3862 203.541 -1.28375 182.111 19.1926 181.139Z" fill="url(#paint11_linear)"/>
<path opacity="0.45" d="M73.2651 302.885C79.201 306.922 85.3863 310.56 91.846 313.824C105.938 320.926 121.176 326.084 137.213 328.925C146.691 330.619 156.468 331.491 166.419 331.491C200.563 331.491 232.312 321.175 258.675 303.483C274.413 292.942 288.205 279.785 299.478 264.61C301.922 261.321 304.267 257.932 306.461 254.443C319.705 233.587 328.409 209.54 331.178 183.75C331.801 177.894 332.125 171.913 332.125 165.908C332.125 165.509 332.125 165.111 332.125 164.737C332.026 151.779 330.454 139.17 327.536 127.085C306.836 181.706 267.279 244.301 191.834 277.991C182.456 282.178 172.529 285.915 162.029 289.13C130.579 298.748 100.875 302.785 73.2651 302.885Z" fill="url(#paint12_linear)"/>
<path d="M262.764 30.9055C262.889 31.0056 262.989 31.0555 263.039 31.1056C262.989 31.0555 262.864 30.9555 262.764 30.9055Z" fill="url(#paint13_linear)"/>
<defs>
<radialGradient id="paint0_radial" cx="0" cy="0" r="1" gradientUnits="userSpaceOnUse" gradientTransform="translate(130.113 94.0274) rotate(180) scale(173.054 172.899)">
<stop stop-color="#FFC56F"/>
<stop offset="1" stop-color="#FF5E2C"/>
</radialGradient>
<linearGradient id="paint1_linear" x1="242.339" y1="310.237" x2="86.662" y2="54.6985" gradientUnits="userSpaceOnUse">
<stop stop-color="#E03B11"/>
<stop offset="1" stop-color="#E22B57" stop-opacity="0"/>
</linearGradient>
<radialGradient id="paint2_radial" cx="0" cy="0" r="1" gradientUnits="userSpaceOnUse" gradientTransform="translate(211.529 165.587) rotate(-98.1373) scale(216.946 217.133)">
<stop stop-color="#EC5630"/>
<stop offset="1" stop-color="#DE3920"/>
</radialGradient>
<radialGradient id="paint3_radial" cx="0" cy="0" r="1" gradientUnits="userSpaceOnUse" gradientTransform="translate(140.047 42.2784) rotate(-142.332) scale(216.946 217.132)">
<stop stop-color="#EC5630"/>
<stop offset="1" stop-color="#DE3920"/>
</radialGradient>
<linearGradient id="paint4_linear" x1="218.068" y1="383.798" x2="156.76" y2="-45.7394" gradientUnits="userSpaceOnUse">
<stop stop-color="#FF3400"/>
<stop offset="1" stop-color="#E22B57" stop-opacity="0"/>
</linearGradient>
<linearGradient id="paint5_linear" x1="117.798" y1="398.112" x2="56.4903" y2="-31.4277" gradientUnits="userSpaceOnUse">
<stop stop-color="#DE381F"/>
<stop offset="1" stop-color="#DE3820"/>
</linearGradient>
<linearGradient id="paint6_linear" x1="68.9154" y1="405.081" x2="7.60924" y2="-24.4487" gradientUnits="userSpaceOnUse">
<stop stop-color="#FF3400"/>
<stop offset="1" stop-color="#EC5630"/>
</linearGradient>
<linearGradient id="paint7_linear" x1="207.994" y1="385.236" x2="146.686" y2="-44.2996" gradientUnits="userSpaceOnUse">
<stop stop-color="#EC5630"/>
<stop offset="1" stop-color="#EC5630" stop-opacity="0"/>
</linearGradient>
<linearGradient id="paint8_linear" x1="153.328" y1="393.039" x2="92.0196" y2="-36.4999" gradientUnits="userSpaceOnUse">
<stop stop-color="#EC5630"/>
<stop offset="1" stop-color="#E22B57" stop-opacity="0"/>
</linearGradient>
<linearGradient id="paint9_linear" x1="314.862" y1="369.984" x2="253.554" y2="-59.5563" gradientUnits="userSpaceOnUse">
<stop stop-color="#EC5630"/>
<stop offset="1" stop-color="#E22B57" stop-opacity="0"/>
</linearGradient>
<linearGradient id="paint10_linear" x1="145.044" y1="394.221" x2="83.736" y2="-35.3178" gradientUnits="userSpaceOnUse">
<stop stop-color="#EC5630"/>
<stop offset="1" stop-color="#EC5630"/>
</linearGradient>
<linearGradient id="paint11_linear" x1="48.6589" y1="407.976" x2="-12.649" y2="-21.5638" gradientUnits="userSpaceOnUse">
<stop stop-color="#EC5630"/>
<stop offset="1" stop-color="#E22B57" stop-opacity="0"/>
</linearGradient>
<linearGradient id="paint12_linear" x1="219.225" y1="323.178" x2="193.922" y2="176.093" gradientUnits="userSpaceOnUse">
<stop stop-color="#E70E00"/>
<stop offset="1" stop-color="#E22B2B" stop-opacity="0"/>
</linearGradient>
<linearGradient id="paint13_linear" x1="262.769" y1="30.812" x2="263.048" y2="31.2029" gradientUnits="userSpaceOnUse">
<stop stop-color="#FAD1E2"/>
<stop offset="1" stop-color="#F9DDF9" stop-opacity="0"/>
</linearGradient>
</defs>
</svg>
