<svg width="383" height="274" viewBox="0 0 383 274" fill="none" xmlns="http://www.w3.org/2000/svg">
<path d="M335.82 137.547C335.481 258.641 188.04 317.973 103.799 233.732C17.7291 148.498 78.2893 0.926758 199.54 0.926758C278.58 0.926758 336.003 66.0872 335.82 137.547Z" fill="url(#paint0_radial)"/>
<g opacity="0.5">
<path opacity="0.5" d="M334.983 123.566C332.448 123.357 329.468 123.357 326.149 123.801C315.981 125.134 300.404 130.91 283.937 150.905C281.323 154.094 278.893 157.1 276.514 160.027C250.142 192.673 238.092 207.597 159.419 214.733C134.562 216.981 117.364 225.292 105.445 235.381C104.87 234.832 104.321 234.31 103.772 233.735C115.979 223.332 133.674 214.733 159.21 212.433C236.89 205.376 247.972 191.68 274.711 158.564C277.063 155.636 279.494 152.63 282.134 149.442C299.149 128.767 315.38 122.834 325.992 121.475C329.233 121.057 332.16 121.03 334.696 121.213C334.826 121.998 334.931 122.782 334.983 123.566Z" fill="#4800E2"/>
<path opacity="0.5" d="M334.277 156.368C334.173 157.126 334.068 157.884 333.938 158.616C321.836 158.433 311.041 163.373 301.71 173.383C296.274 179.212 291.621 184.675 287.518 189.484C267.314 213.164 255.107 227.461 195.122 237.132C171.886 240.87 154.792 249.025 144.207 261.362C143.475 261.048 142.743 260.708 142.011 260.368C152.937 247.326 170.658 238.727 194.756 234.858C253.905 225.318 265.223 212.067 285.767 187.994C289.896 183.159 294.575 177.67 300.038 171.815C311.277 159.713 323.535 156.159 334.277 156.368Z" fill="#4800E2"/>
<path opacity="0.5" d="M325.469 188.752C325.13 189.563 324.79 190.399 324.424 191.209C314.675 192.856 306.311 197.979 299.437 206.578C280.722 229.971 268.307 242.046 235.453 251.822C213.236 258.408 203.853 266.668 199.958 273.124H199.54C198.782 273.124 198.05 273.124 197.292 273.097C202.389 263.374 214.987 255.455 234.773 249.574C267 240.008 279.206 228.115 297.607 205.114C306.232 194.372 316.295 190.033 325.469 188.752Z" fill="#4800E2"/>
<path opacity="0.5" d="M193.398 153.257C184.851 168.129 163.444 173.775 131.766 180.701C104.348 186.687 90.4166 198.788 83.4903 208.119C83.0459 207.388 82.6016 206.656 82.1572 205.924C82.7845 205.087 83.4902 204.251 84.2482 203.362C91.4098 195.103 105.393 184.099 131.269 178.427C162.347 171.632 183.309 166.117 191.385 152.107C196.534 143.116 196.325 130.831 190.732 113.424C186.001 98.7346 178.892 83.9932 172.044 69.7484C161.772 48.3942 151.839 27.798 151.212 9.78933C151.996 9.50182 152.754 9.21427 153.538 8.92676C153.878 26.6479 163.81 47.2964 174.134 68.729C181.035 83.0522 188.17 97.846 192.953 112.718C198.756 130.779 198.913 143.665 193.398 153.257Z" fill="#4800E2"/>
<path opacity="0.5" d="M162.895 130.466C157.485 140.659 140.678 144.841 111.561 148.997C90.39 152.029 75.9883 159.086 66.5528 165.986C66.3698 165.124 66.1869 164.235 66.0039 163.373C75.7009 156.525 90.1548 149.703 111.221 146.697C138.927 142.75 155.916 138.647 160.83 129.368C164.019 123.33 162.529 114.626 155.969 101.192C154.531 98.2644 153.12 95.4154 151.76 92.6448C139.398 67.7621 129.309 47.4535 132.68 18.4672C133.517 17.9967 134.327 17.5262 135.189 17.0819C131.269 46.1205 140.966 65.6711 153.851 91.5994C155.237 94.3699 156.648 97.2189 158.086 100.146C164.986 114.365 166.476 123.696 162.895 130.466Z" fill="#4800E2"/>
<path opacity="0.5" d="M101.159 110.836C98.1014 112.013 94.6512 113.346 90.9659 114.888C76.9824 120.821 68.3833 127.225 63.5479 131.746C63.574 130.649 63.6524 129.551 63.7308 128.453C68.9322 123.957 77.2961 118.181 90.0772 112.771C93.7887 111.202 97.265 109.869 100.349 108.693C118.645 101.688 126.225 98.7871 121.102 69.9576C117.704 50.8251 118.436 36.162 119.848 26.7265C120.736 26.073 121.625 25.4458 122.54 24.8185C120.972 33.9143 119.769 49.2569 123.376 69.5656C128.839 100.251 119.586 103.805 101.159 110.836Z" fill="#4800E2"/>
<path opacity="0.5" d="M99.9045 75.3671C94.0759 84.3584 82.1311 87.521 72.3296 88.5404C72.6432 87.704 72.983 86.8675 73.3228 86.0311C82.3925 84.9334 92.8997 81.9015 97.9703 74.0864C102.231 67.526 102.074 58.4301 97.4738 46.9819C98.0488 46.3285 98.5976 45.7013 99.1988 45.074C104.505 57.7767 104.74 67.9441 99.9045 75.3671Z" fill="#4800E2"/>
<path opacity="0.5" d="M332.606 108.3C311.905 104.17 303.202 90.866 294.733 77.9542C292.93 75.1836 291.048 72.3347 289.114 69.6687C287.65 67.6561 286.265 65.6173 284.958 63.657C275.261 49.3338 266.087 35.7946 219.51 28.3716C197.084 24.7908 181.506 17.6031 173.247 6.96516C172.437 5.91967 171.757 4.90036 171.156 3.90714C171.966 3.72418 172.776 3.56735 173.587 3.41052C174.057 4.16851 174.606 4.9265 175.207 5.71062C180.67 12.637 192.85 21.785 219.876 26.0977C267.446 33.6775 276.881 47.6087 286.866 62.3763C288.173 64.3105 289.532 66.323 290.995 68.3095C292.982 71.0278 294.864 73.9029 296.693 76.6996C304.718 88.958 312.977 101.556 332.083 105.79C332.24 106.601 332.449 107.437 332.606 108.3Z" fill="#4800E2"/>
<path opacity="0.5" d="M322.934 79.4968C308.584 75.5762 300.769 65.6179 292.562 55.163C283.309 43.4012 272.855 30.0712 251.004 22.9096C227.742 15.2775 216.529 7.38399 211.118 1.42468C212.32 1.52923 213.549 1.63382 214.751 1.79064C220.423 7.14879 231.218 13.9967 251.709 20.714C274.214 28.0848 284.93 41.7285 294.366 53.7517C302.233 63.7622 309.238 72.6751 321.575 76.7002C322.045 77.615 322.489 78.5559 322.934 79.4968Z" fill="#4800E2"/>
<path opacity="0.5" d="M287.309 102.786C282.892 80.6476 252.233 48.7862 224.266 37.1812C209.916 31.2481 197.684 31.222 188.876 37.0767C183.465 40.6837 187.36 51.8182 193.293 68.6506C195.985 76.2827 199.017 84.908 201.552 94.0299C203.565 101.27 204.846 109.32 206.1 117.083C209.76 139.823 213.21 161.307 233.466 163.686C234.695 163.843 235.949 163.895 237.204 163.895C249.331 163.895 262.792 157.308 273.143 146.069C284.878 133.34 290.184 117.161 287.309 102.786ZM271.417 144.501C260.466 156.368 246.038 162.823 233.727 161.386C215.196 159.216 211.877 138.568 208.374 116.717C207.12 108.876 205.813 100.773 203.774 93.4026C201.213 84.2023 198.155 75.5247 195.462 67.8665C190.496 53.7785 186.21 41.6246 190.13 39.0109C200.402 32.1629 213.863 35.4039 223.351 39.3245C250.246 50.459 280.801 82.1375 285.009 103.23C287.753 116.874 282.656 132.321 271.417 144.501Z" fill="#4800E2"/>
<path opacity="0.5" d="M263.577 80.3602C249.803 64.1812 228.37 48.4988 210.388 48.4988C209.525 48.4988 208.715 48.5249 207.878 48.6034C206.206 48.734 204.951 49.5704 204.245 50.9557C200.011 59.2674 216.504 86.8422 216.66 87.1036C220.816 94.03 221.6 103.858 222.332 113.372C223.43 127.486 224.476 140.816 236.865 141.94C238.119 142.044 239.374 142.123 240.602 142.123C258.532 142.123 274.136 130.387 278.475 113.058C280.279 105.818 274.581 93.272 263.577 80.3602ZM276.227 112.483C271.863 129.864 255.396 141.286 237.048 139.613C226.593 138.673 225.678 126.858 224.606 113.189C223.848 103.413 223.064 93.2981 218.595 85.9013C211.93 74.8452 203.696 57.0195 206.258 52.0012C206.624 51.3216 207.173 50.9556 208.035 50.9034C225.704 49.4135 247.764 65.3574 261.8 81.85C272.176 94.03 277.848 106.053 276.227 112.483Z" fill="#4800E2"/>
<path opacity="0.5" d="M258.507 106.731C257.383 94.7602 244.053 77.1176 233.598 77.1176C232.605 77.1176 232.03 77.6141 231.716 78.0323C230.461 79.7051 231.402 83.0245 233.31 89.2191C234.565 93.2704 235.976 97.8706 236.29 101.582C236.421 103.072 236.421 104.562 236.447 105.999C236.499 110.129 236.577 114.023 239.296 116.245C240.733 117.421 242.772 117.996 245.516 117.996C247.242 117.996 249.254 117.761 251.554 117.343C256.599 116.324 259.056 112.586 258.507 106.731ZM251.162 115.017C245.909 116.01 242.511 115.827 240.786 114.415C238.904 112.873 238.851 109.658 238.799 105.921C238.773 104.457 238.747 102.941 238.616 101.373C238.303 97.4001 236.839 92.6692 235.532 88.4872C234.539 85.2462 233.023 80.3847 233.546 79.4176H233.572C242.667 79.4176 255.187 96.3284 256.181 106.94C256.625 111.566 254.926 114.285 251.162 115.017Z" fill="#4800E2"/>
</g>
<path opacity="0.65" d="M335.819 137.546C335.793 145.648 335.035 153.855 333.467 162.062C331.611 171.838 328.606 181.613 324.424 191.232C286.394 278.766 171.259 301.218 103.798 233.757C95.7743 225.811 89.0309 217.317 83.4897 208.456C273.926 295.075 334.12 131.639 334.12 131.639L335.819 137.546Z" fill="url(#paint1_linear)"/>
<path d="M335.985 137.79C335.866 140.606 335.866 143.634 335.985 144.644C360.97 160.978 371.023 175.357 367.531 187.092C363.57 200.418 338.585 206.037 301.789 204.197C268.212 202.532 224.83 194.7 178.649 180.901C132.147 167.003 91.2902 149.6 62.2448 132.42C30.8469 113.873 13.2413 95.6236 17.1537 82.372C21.1651 68.8718 46.7934 63.2777 84.4064 65.3413C85.8178 63.2031 87.3036 61.1147 88.8636 59.0511C40.3307 55.6201 6.18427 62.9048 0.835742 80.9548C-4.51278 98.98 20.0013 123.743 62.3438 147.486C92.2559 164.268 131.107 180.504 174.589 193.507C218.02 206.485 259.298 214.192 293.42 216.579C341.928 219.985 376.025 212.725 381.373 194.675C386.028 179.111 368.299 158.451 335.985 137.79Z" fill="#7E41FF"/>
<path d="M152.907 206.782C170.488 206.782 184.74 192.53 184.74 174.949C184.74 157.368 170.488 143.116 152.907 143.116C135.326 143.116 121.074 157.368 121.074 174.949C121.074 192.53 135.326 206.782 152.907 206.782Z" fill="url(#paint2_radial)"/>
<defs>
<radialGradient id="paint0_radial" cx="0" cy="0" r="1" gradientUnits="userSpaceOnUse" gradientTransform="translate(201.94 84.8524) scale(136.177)">
<stop stop-color="#A277FF"/>
<stop offset="1" stop-color="#6115D8"/>
</radialGradient>
<linearGradient id="paint1_linear" x1="236.609" y1="282.657" x2="202.973" y2="145.791" gradientUnits="userSpaceOnUse">
<stop stop-color="#2E018E"/>
<stop offset="1" stop-color="#651DFF"/>
</linearGradient>
<radialGradient id="paint2_radial" cx="0" cy="0" r="1" gradientUnits="userSpaceOnUse" gradientTransform="translate(158.819 162.35) scale(31.8378)">
<stop stop-color="#B493FB"/>
<stop offset="1" stop-color="#3A00B7"/>
</radialGradient>
</defs>
</svg>
