<svg width="300" height="300" viewBox="0 0 300 300" fill="none" xmlns="http://www.w3.org/2000/svg">
<path d="M299.378 163.585C292.602 237.11 231.303 299.998 150.007 299.998C48.4996 299.998 -23.309 201.038 7.00755 105.051C17.446 71.7866 39.5354 42.6147 69.6142 23.4364C75.844 19.4866 82.4304 15.9412 89.3022 12.8717C167.269 -21.7491 259.004 15.965 289.867 96.0807C298.522 118.614 301.399 141.576 299.378 163.585Z" fill="url(#paint0_radial)"/>
<path d="M220.516 282.295C199.473 293.573 175.41 299.974 149.849 299.974C91.6172 299.974 41.1371 266.733 16.3369 218.169C26.8467 223.546 46.2255 232.089 68.743 235.586C101.414 240.655 140.956 234.016 159.55 243.534C190.556 259.404 195.597 277.631 220.516 282.295Z" fill="url(#paint1_linear)"/>
<path d="M94.3272 213.526C65.4848 215.501 25.4194 201.843 6.77764 194.728C2.37876 180.595 0.000976562 165.58 0.000976562 150.019C0.000976562 144.427 0.310098 138.907 0.904541 133.482C9.03652 143.118 27.6782 163.225 51.1231 175.598C82.8663 192.373 133.109 210.885 94.3272 213.526Z" fill="url(#paint2_linear)"/>
<path d="M299.719 150.019C299.719 166.842 296.961 182.998 291.848 198.084C277.368 197.775 254.945 191.802 229.622 165.462C185.538 119.586 120.316 110.759 119.436 95.7683C118.556 80.7779 186.442 93.1271 227.863 116.065C257.656 132.578 279.722 144.499 299.6 143.976C299.671 145.974 299.719 147.997 299.719 150.019Z" fill="url(#paint3_linear)"/>
<path d="M88.596 66.6698C70.6439 58.2942 49.8146 56.9617 48.9348 64.0286C48.0551 71.0956 61.2754 94.0095 85.0769 89.6076C108.855 85.1818 101.816 72.8326 88.596 66.6698Z" fill="#6F06FA"/>
<path d="M197.412 208.68C189.684 204.421 163.029 189.264 179.792 220.149C186.379 232.284 215.055 218.388 197.412 208.68Z" fill="#6F06FA"/>
<path d="M161.272 192.781C157.658 193.043 159.513 200.728 163.032 201.609C166.575 202.489 173.637 191.901 161.272 192.781Z" fill="#6F06FA"/>
<path opacity="0.55" d="M292.626 196.134C289.916 204.962 284.899 216.574 278.55 227.138C210.998 339.733 42.6276 316.534 6.2002 192.303C24.9133 217.859 50.0463 237.203 83.4539 246.626C202.533 280.128 263.546 234.967 292.626 196.134Z" fill="url(#paint4_linear)"/>
<path d="M289.868 96.0835C298.547 118.593 301.401 141.578 299.38 163.588C294.814 124.78 275.602 61.6769 201.558 32.2671C147.297 10.7094 101.858 14.2309 69.5918 23.4393C75.8216 19.4895 82.408 15.9441 89.2797 12.8746C167.271 -21.7462 259.005 15.9917 289.868 96.0835Z" fill="url(#paint5_linear)"/>
<defs>
<radialGradient id="paint0_radial" cx="0" cy="0" r="1" gradientUnits="userSpaceOnUse" gradientTransform="translate(146.018 91.772) scale(149.927 150.032)">
<stop stop-color="#AA83FF"/>
<stop offset="1" stop-color="#7534FF"/>
</radialGradient>
<linearGradient id="paint1_linear" x1="131.968" y1="305.757" x2="43.8823" y2="71.423" gradientUnits="userSpaceOnUse">
<stop stop-color="#6F04FA"/>
<stop offset="1" stop-color="#5231B1" stop-opacity="0"/>
</linearGradient>
<linearGradient id="paint2_linear" x1="120.511" y1="361.515" x2="-3.92642" y2="45.3477" gradientUnits="userSpaceOnUse">
<stop stop-color="#6E00FF"/>
<stop offset="1" stop-color="#6F06FA"/>
</linearGradient>
<linearGradient id="paint3_linear" x1="236.589" y1="16.653" x2="285.395" y2="168.917" gradientUnits="userSpaceOnUse">
<stop stop-color="#783AFF"/>
<stop offset="1" stop-color="#6F06FA" stop-opacity="0.79"/>
</linearGradient>
<linearGradient id="paint4_linear" x1="165.114" y1="336.522" x2="148.342" y2="184.799" gradientUnits="userSpaceOnUse">
<stop stop-color="#471AA3"/>
<stop offset="1" stop-color="#4C2EA3" stop-opacity="0.1"/>
</linearGradient>
<linearGradient id="paint5_linear" x1="337.761" y1="-94.9477" x2="171.897" y2="108.71" gradientUnits="userSpaceOnUse">
<stop stop-color="#4B08DB"/>
<stop offset="1" stop-color="#8B55FF" stop-opacity="0"/>
</linearGradient>
</defs>
</svg>
