<svg width="299" height="297" viewBox="0 0 299 297" fill="none" xmlns="http://www.w3.org/2000/svg">
<path d="M297.925 162.125C291.188 234.798 230.251 296.958 149.434 296.958C48.526 296.958 -22.859 199.143 7.27871 104.268C17.6556 71.3888 39.6147 42.5547 69.5161 23.5984C75.7091 19.6943 82.2567 16.19 89.0879 13.1561C166.595 -21.0639 257.788 16.2135 288.47 95.4016C297.074 117.674 299.934 140.37 297.925 162.125Z" fill="url(#paint0_radial)"/>
<path d="M219.66 279.458C198.741 290.606 174.82 296.933 149.41 296.933C91.5218 296.933 41.3394 264.077 16.6855 216.075C27.1333 221.39 46.3978 229.834 68.7825 233.291C101.26 238.3 140.569 231.739 159.054 241.146C189.877 256.833 194.888 274.849 219.66 279.458Z" fill="url(#paint1_linear)"/>
<path d="M94.2185 211.487C65.5463 213.439 25.7172 199.939 7.18542 192.907C2.81249 178.937 0.44873 164.096 0.44873 148.715C0.44873 143.188 0.756029 137.732 1.34697 132.369C9.43097 141.895 27.9627 161.768 51.2693 173.998C82.8253 190.579 132.771 208.876 94.2185 211.487Z" fill="url(#paint2_linear)"/>
<path d="M277.218 224.942C271.616 234.232 264.998 242.864 257.552 250.696C238.429 245.498 217.108 236.09 199.829 221.532C169.077 195.638 164.775 184.043 93.7916 161.371C44.2711 145.543 18.199 119.554 6.97119 105.278C10.4695 93.8952 15.3152 83.0765 21.3427 73.0339C35.407 88.1566 66.5848 117.79 106.083 131.714C160.426 150.905 169.171 149.141 218.243 193.615C239.138 212.595 260.081 221.25 277.218 224.942Z" fill="url(#paint3_linear)"/>
<path d="M298.397 148.716C298.397 165.344 295.655 181.313 290.573 196.224C276.177 195.919 253.887 190.015 228.713 163.98C184.889 118.636 120.052 109.91 119.177 95.0932C118.303 80.2763 185.788 92.4826 226.964 115.155C256.582 131.477 278.517 143.26 298.278 142.742C298.349 144.718 298.397 146.717 298.397 148.716Z" fill="url(#paint4_linear)"/>
<path d="M88.5251 66.3303C70.6779 58.0512 49.9704 56.7341 49.0957 63.7196C48.2211 70.705 61.3642 93.355 85.0266 89.0037C108.665 84.629 101.668 72.422 88.5251 66.3303Z" fill="url(#paint5_linear)"/>
<path d="M217.322 244.202C209.639 239.992 183.14 225.01 199.806 255.539C206.353 267.534 234.862 253.799 217.322 244.202Z" fill="#0A69D2"/>
<path d="M181.392 228.493C177.799 228.752 179.643 236.349 183.141 237.219C186.664 238.089 193.684 227.623 181.392 228.493Z" fill="url(#paint6_linear)"/>
<path opacity="0.45" d="M290.508 195.634C287.08 205.724 282.589 215.296 277.176 224.28C271.574 233.57 264.955 242.202 257.51 250.034C246.565 261.534 233.778 271.271 219.642 278.797C198.723 289.945 174.802 296.272 149.392 296.272C91.5038 296.272 41.3215 263.416 16.6676 215.414C12.862 208.029 9.67097 200.291 7.1654 192.248C2.79247 178.278 0.428711 163.437 0.428711 148.056C0.428711 142.529 0.736009 137.072 1.32695 131.71C2.34336 122.397 4.23434 113.318 6.92901 104.593C7.02356 104.264 7.14176 103.911 7.23631 103.582C28.8882 80.4625 69.7573 93.7271 90.251 124.066C121.003 169.646 194.516 305.444 290.508 195.634Z" fill="url(#paint7_linear)"/>
<path opacity="0.55" d="M291.212 194.298C288.518 203.023 283.53 214.5 277.219 224.943C210.065 336.234 42.6882 313.303 6.47559 190.511C25.0783 215.77 50.063 234.891 83.2736 244.205C201.65 277.319 262.304 232.681 291.212 194.298Z" fill="url(#paint8_linear)"/>
<path d="M288.47 95.4024C297.098 117.651 299.934 140.37 297.925 162.125C293.387 123.766 274.288 61.3941 200.681 32.3248C146.74 11.0167 101.569 14.4974 69.4927 23.5992C75.6857 19.6951 82.2333 16.1908 89.0645 13.1568C166.595 -21.0631 257.789 16.2378 288.47 95.4024Z" fill="url(#paint9_linear)"/>
<defs>
<radialGradient id="paint0_radial" cx="0" cy="0" r="1" gradientUnits="userSpaceOnUse" gradientTransform="translate(145.47 91.1428) scale(149.042 148.295)">
<stop stop-color="#55B8FF"/>
<stop offset="1" stop-color="#0A69D2"/>
</radialGradient>
<linearGradient id="paint1_linear" x1="156.107" y1="343.731" x2="33.6253" y2="30.7454" gradientUnits="userSpaceOnUse">
<stop stop-color="#0A69D2"/>
<stop offset="1" stop-color="#004FA6"/>
</linearGradient>
<linearGradient id="paint2_linear" x1="120.248" y1="357.762" x2="-2.23323" y2="44.7775" gradientUnits="userSpaceOnUse">
<stop stop-color="#0A69D2"/>
<stop offset="1" stop-color="#0A69D2" stop-opacity="0"/>
</linearGradient>
<linearGradient id="paint3_linear" x1="205.108" y1="324.556" x2="82.6265" y2="11.5708" gradientUnits="userSpaceOnUse">
<stop stop-color="#0A42D2"/>
<stop offset="1" stop-color="#0A69D2" stop-opacity="0.31"/>
</linearGradient>
<linearGradient id="paint4_linear" x1="278.515" y1="295.827" x2="156.034" y2="-17.1575" gradientUnits="userSpaceOnUse">
<stop stop-color="#0A69D2"/>
<stop offset="1" stop-color="#0A69D2" stop-opacity="0.57"/>
</linearGradient>
<linearGradient id="paint5_linear" x1="178.712" y1="334.903" x2="56.2242" y2="21.9009" gradientUnits="userSpaceOnUse">
<stop stop-color="#0A69D2"/>
<stop offset="1" stop-color="#0A69D2" stop-opacity="0.37"/>
</linearGradient>
<linearGradient id="paint6_linear" x1="218.478" y1="319.329" x2="95.9905" y2="6.32602" gradientUnits="userSpaceOnUse">
<stop stop-color="#0A69D2"/>
<stop offset="1" stop-color="#0A69D2" stop-opacity="0"/>
</linearGradient>
<linearGradient id="paint7_linear" x1="117.618" y1="300.845" x2="161.194" y2="84.9976" gradientUnits="userSpaceOnUse">
<stop stop-color="#0A69D2" stop-opacity="0"/>
<stop offset="1" stop-color="#0A69D2" stop-opacity="0.42"/>
</linearGradient>
<linearGradient id="paint8_linear" x1="164.452" y1="333.06" x2="147.967" y2="183.073" gradientUnits="userSpaceOnUse">
<stop stop-color="#0A69D2"/>
<stop offset="1" stop-color="#0A69D2" stop-opacity="0"/>
</linearGradient>
<linearGradient id="paint9_linear" x1="336.08" y1="-93.4171" x2="172.329" y2="108.801" gradientUnits="userSpaceOnUse">
<stop stop-color="#0A69D2"/>
<stop offset="1" stop-color="#0A69D2" stop-opacity="0"/>
</linearGradient>
</defs>
</svg>
