<svg width="366" height="274" viewBox="0 0 366 274" fill="none" xmlns="http://www.w3.org/2000/svg">
<path d="M321.397 149.189C315.206 216.154 259.209 273.433 184.945 273.433C92.2185 273.433 26.6212 183.3 54.3155 95.8758C63.851 65.5786 84.0297 39.009 111.507 21.5415C117.198 17.944 123.214 14.7149 129.492 11.9192C200.715 -19.6133 284.514 14.7365 312.708 87.7055C320.615 108.229 323.243 129.142 321.397 149.189Z" fill="url(#paint0_radial)"/>
<path d="M249.478 257.308C230.255 267.581 208.273 273.411 184.923 273.411C131.728 273.411 85.6145 243.135 62.9595 198.903C72.5601 203.801 90.2628 211.581 110.833 214.767C140.677 219.383 176.799 213.336 193.785 222.005C222.109 236.46 226.714 253.061 249.478 257.308Z" fill="url(#paint1_linear)"/>
<path d="M134.206 194.678C107.859 196.477 71.2588 184.038 54.2296 177.558C50.2112 164.685 48.0391 151.01 48.0391 136.836C48.0391 131.744 48.3214 126.716 48.8645 121.774C56.293 130.552 73.3223 148.864 94.7392 160.134C123.737 175.412 169.633 192.273 134.206 194.678Z" fill="url(#paint2_linear)"/>
<path d="M128.971 60.9191C112.572 53.2906 93.544 52.077 92.7403 58.5136C91.9367 64.9501 104.013 85.82 125.756 81.8108C147.477 77.7798 141.048 66.5321 128.971 60.9191Z" fill="url(#paint3_linear)"/>
<path d="M247.328 224.823C240.268 220.944 215.919 207.139 231.232 235.269C237.249 246.321 263.445 233.665 247.328 224.823Z" fill="#0A69D2"/>
<path d="M214.313 210.347C211.011 210.585 212.705 217.585 215.92 218.387C219.157 219.189 225.608 209.545 214.313 210.347Z" fill="url(#paint4_linear)"/>
<path opacity="0.45" d="M314.581 180.066C311.432 189.363 307.305 198.183 302.331 206.462C297.183 215.022 291.101 222.976 284.259 230.193C274.202 240.79 262.451 249.762 249.462 256.697C230.239 266.97 208.257 272.799 184.907 272.799C131.712 272.799 85.5988 242.524 62.9438 198.292C59.4467 191.487 56.5144 184.357 54.212 176.945C50.1936 164.072 48.0215 150.397 48.0215 136.224C48.0215 131.131 48.3039 126.103 48.8469 121.162C49.7809 112.58 51.5186 104.214 53.9948 96.1741C54.0816 95.8707 54.1903 95.5456 54.2771 95.2422C74.1736 73.9388 111.729 86.1617 130.561 114.118C158.82 156.118 226.372 281.251 314.581 180.066Z" fill="url(#paint5_linear)"/>
<path opacity="0.55" d="M315.229 178.834C312.753 186.874 308.17 197.45 302.37 207.072C240.661 309.623 86.8547 288.493 53.5781 175.345C70.6725 198.62 93.6316 216.239 124.15 224.821C232.928 255.335 288.664 214.202 315.229 178.834Z" fill="url(#paint6_linear)"/>
<path d="M312.708 87.7054C320.636 108.207 323.243 129.142 321.396 149.188C317.226 113.842 299.675 56.368 232.036 29.5816C182.469 9.94698 140.96 13.1544 111.485 21.5414C117.176 17.9439 123.192 14.7148 129.47 11.9191C200.715 -19.6134 284.514 14.7581 312.708 87.7054Z" fill="url(#paint7_linear)"/>
<path d="M356.726 151.41C358.003 142.514 342.428 130.368 318.417 120.396L321.455 118.558C349.354 130.7 367.29 145.564 365.607 157.041C363.73 170.219 338.694 178.665 300.424 181.402C269.39 183.631 229.649 182.126 186.465 176.378C183.273 175.967 180.08 175.517 176.849 175.048C169.71 174.012 162.667 172.878 155.779 171.666C116.29 164.764 81.1157 155.301 54.2996 144.938C51.6489 143.921 49.0563 142.866 46.5604 141.829C45.4576 141.36 44.3741 140.91 43.31 140.441C15.4103 128.28 -0.764505 115.258 0.880065 103.781C2.64072 91.3855 24.9102 83.1737 59.4268 79.9672C59.0785 80.9643 58.7496 81.981 58.44 82.9977C30.1728 85.4612 12.334 91.5614 10.999 100.927C9.64468 110.429 25.5679 121.613 52.7904 132.21C53.7191 132.562 54.6285 132.914 55.5765 133.266C56.8148 133.735 58.0724 134.204 59.3494 134.673C89.5901 145.662 131.633 155.848 178.629 162.711C180.97 163.063 183.292 163.395 185.594 163.708C196.023 165.135 206.258 166.328 216.183 167.325C250.603 170.707 281.521 171.431 305.532 169.652C335.966 167.403 355.333 161.166 356.726 151.41Z" fill="#59A8FF"/>
<path d="M359.867 76.8648C356.427 64.8335 333.723 59.7876 299.752 61.3904C300.236 62.36 300.699 63.3099 301.144 64.2993C328.814 62.8547 346.862 66.4166 349.451 75.4796C352.079 84.6812 338.321 97.9393 313.53 112.246C312.351 112.939 311.134 113.631 309.897 114.324C308.738 114.977 307.559 115.63 306.342 116.263C277.975 131.639 237.822 147.905 192.297 161.559C190.036 162.231 187.794 162.904 185.572 163.557C175.447 166.506 165.515 169.177 155.815 171.591C122.772 179.823 92.7245 184.948 68.8991 186.709C37.8855 189.005 17.4223 185.582 14.6591 175.885C12.1664 167.159 24.3786 154.831 46.7355 141.375C45.6341 140.9 44.552 140.444 43.4892 139.97C17.5962 156.156 3.41301 171.552 6.62065 182.791C10.35 195.852 36.7454 200.66 75.5849 197.732C106.405 195.396 145.071 188.194 186.461 176.34C189.553 175.45 192.664 174.559 195.775 173.61C202.692 171.532 209.475 169.395 216.141 167.198C254.768 154.395 288.661 139.633 313.839 125.168C315.945 123.961 317.993 122.754 319.984 121.547C321.008 120.933 322.013 120.3 323.017 119.687C348.91 103.52 363.094 88.1243 359.867 76.8648Z" fill="#1182FF"/>
<defs>
<radialGradient id="paint0_radial" cx="0" cy="0" r="1" gradientUnits="userSpaceOnUse" gradientTransform="translate(181.302 83.7812) scale(136.958 136.648)">
<stop stop-color="#55B8FF"/>
<stop offset="1" stop-color="#0A69D2"/>
</radialGradient>
<linearGradient id="paint1_linear" x1="191.077" y1="316.533" x2="77.9854" y2="28.3403" gradientUnits="userSpaceOnUse">
<stop stop-color="#0A69D2"/>
<stop offset="1" stop-color="#004FA6"/>
</linearGradient>
<linearGradient id="paint2_linear" x1="158.125" y1="329.466" x2="45.0341" y2="41.2737" gradientUnits="userSpaceOnUse">
<stop stop-color="#0A69D2"/>
<stop offset="1" stop-color="#0A69D2" stop-opacity="0"/>
</linearGradient>
<linearGradient id="paint3_linear" x1="211.841" y1="308.386" x2="98.7501" y2="20.1933" gradientUnits="userSpaceOnUse">
<stop stop-color="#0A69D2"/>
<stop offset="1" stop-color="#0A69D2" stop-opacity="0.37"/>
</linearGradient>
<linearGradient id="paint4_linear" x1="248.39" y1="294.044" x2="135.299" y2="5.85116" gradientUnits="userSpaceOnUse">
<stop stop-color="#0A69D2"/>
<stop offset="1" stop-color="#0A69D2" stop-opacity="0"/>
</linearGradient>
<linearGradient id="paint5_linear" x1="155.71" y1="277.013" x2="195.965" y2="78.1609" gradientUnits="userSpaceOnUse">
<stop stop-color="#0A69D2" stop-opacity="0"/>
<stop offset="1" stop-color="#0A69D2" stop-opacity="0.42"/>
</linearGradient>
<linearGradient id="paint6_linear" x1="198.746" y1="306.698" x2="183.515" y2="168.5" gradientUnits="userSpaceOnUse">
<stop stop-color="#0A69D2"/>
<stop offset="1" stop-color="#0A69D2" stop-opacity="0"/>
</linearGradient>
<linearGradient id="paint7_linear" x1="356.458" y1="-86.285" x2="205.481" y2="99.644" gradientUnits="userSpaceOnUse">
<stop stop-color="#0A69D2"/>
<stop offset="1" stop-color="#0A69D2" stop-opacity="0"/>
</linearGradient>
</defs>
</svg>
