<svg width="190" height="190" viewBox="0 0 190 190" fill="none" xmlns="http://www.w3.org/2000/svg">
<g clip-path="url(#clip0)">
<path d="M190 95C190 100.542 189.505 105.984 188.615 111.229C188.12 114.099 187.526 116.87 186.734 119.641C182.677 134.781 174.958 148.339 164.667 159.521C160.906 163.578 156.849 167.24 152.396 170.604C148.339 173.672 143.984 176.443 139.531 178.917C133.396 182.182 126.865 184.755 120.036 186.635C112.021 188.812 103.609 190 95 190C91.0417 190 87.0833 189.703 83.224 189.307C51.0625 185.349 23.849 165.26 9.89583 137.453C4.45312 126.568 1.08854 114.594 0.197917 101.828C0.0989583 99.5521 0 97.276 0 95C0 80.651 3.16667 67.0938 8.90625 54.9219C13.9531 44.0365 21.0781 34.2396 29.6875 26.125C37.6042 18.5052 46.8073 12.3698 57 7.91667C68.6771 2.77083 81.5417 0 95 0C135.969 0 170.901 25.9271 184.161 62.2448C187.526 71.349 189.505 80.9479 189.901 91.1406C190 92.4271 190 93.7135 190 95Z" fill="url(#paint0_radial)"/>
<path d="M67.0534 51.8946C67.6394 51.8946 68.1417 51.8109 68.7276 51.8109C68.4765 48.4625 68.3091 45.1141 68.058 41.682C67.472 41.682 66.9697 41.7657 66.3838 41.7657C66.3838 41.4309 66.3 41.096 66.3 40.7612C67.8905 40.6775 69.3973 40.5938 70.9878 40.5101C70.9878 40.8449 70.9878 41.1797 71.0715 41.5146C70.4855 41.5146 69.9833 41.5983 69.3973 41.5983C69.5647 44.9467 69.8159 48.2951 69.9833 51.6434C71.6575 51.5597 73.3317 51.476 75.0059 51.3923C75.0059 50.7226 74.9222 50.053 74.9222 49.3833C75.3407 49.3833 75.6755 49.3833 76.0941 49.2996C76.1778 50.3041 76.1778 51.3086 76.2615 52.3968C73.248 52.4805 70.2344 52.6479 67.3046 52.8991C67.1371 52.5642 67.0534 52.2294 67.0534 51.8946Z" fill="#222222" fill-opacity="0.7"/>
<path d="M77.4335 51.3924C77.9357 51.3924 78.438 51.3924 78.9402 51.3087C78.8565 49.0486 78.7728 46.7884 78.6891 44.5283C78.1869 44.5283 77.6009 44.5283 77.0986 44.612C77.0986 44.2771 77.0986 43.9423 77.0986 43.6075C78.0194 43.6075 79.0239 43.5237 79.9447 43.5237C80.0285 46.1187 80.1122 48.7137 80.1959 51.225C80.6981 51.225 81.2004 51.225 81.7026 51.225C81.7026 51.5599 81.7026 51.8947 81.7026 52.2295C80.2796 52.2295 78.8565 52.3132 77.5172 52.397C77.4335 52.0621 77.4335 51.7273 77.4335 51.3924Z" fill="#222222" fill-opacity="0.7"/>
<path d="M89.1529 47.6255C89.1529 45.1142 87.8973 44.2771 86.2231 44.2771C84.4652 44.2771 83.4607 45.5328 83.4607 47.6255C83.5444 49.7182 84.7163 51.0576 86.4742 50.9739C87.8973 51.0576 89.1529 50.2205 89.1529 47.6255ZM86.0556 54.7408C87.8136 54.7408 89.1529 53.9037 89.1529 51.9784C89.1529 51.7273 89.1529 51.3924 89.1529 51.1413C89.1529 50.8065 89.2366 50.5553 89.2366 50.5553C88.7344 51.5599 87.8136 52.1458 86.3905 52.1458C83.9629 52.1458 82.3724 50.3879 82.2887 47.7929C82.205 45.1979 83.7118 43.3563 86.1394 43.3563C87.395 43.3563 88.7344 43.7749 89.2366 44.8631C89.2366 44.8631 89.2366 44.7794 89.2366 44.4445C89.2366 43.7749 89.4878 43.5237 90.3248 43.5237C90.9108 43.5237 91.4131 43.5237 91.999 43.5237C91.999 43.8586 91.999 44.1934 91.999 44.5283C91.6642 44.5283 91.2456 44.5283 90.9108 44.5283C90.6597 44.5283 90.4923 44.612 90.4923 44.8631C90.4923 47.2907 90.4923 49.6345 90.4923 52.0621C90.4923 54.8245 88.3995 55.9127 86.2231 55.9127C85.2186 55.9127 84.214 55.6616 83.2932 55.2431C83.4607 54.9082 83.5444 54.5734 83.7118 54.3223C83.6281 54.1548 84.7163 54.7408 86.0556 54.7408Z" fill="#222222" fill-opacity="0.7"/>
<path d="M92.8364 51.1413C93.3386 51.1413 93.8409 51.1413 94.3431 51.1413C94.3431 47.7092 94.4268 44.3608 94.4268 40.9287C93.8409 40.9287 93.3386 40.9287 92.7527 40.9287C92.7527 40.5939 92.7527 40.259 92.7527 39.9242C93.7572 39.9242 94.678 39.9242 95.6825 39.9242C95.6825 41.5147 95.5988 43.1052 95.5988 44.6956C95.5988 45.1142 95.5151 45.3653 95.5151 45.3653C95.8499 44.5282 97.1056 43.1889 99.1983 43.1889C101.458 43.2726 102.212 44.5282 102.128 46.621C102.044 48.1277 102.044 49.6345 101.961 51.225C102.463 51.225 102.965 51.225 103.467 51.3087C103.467 51.6435 103.467 51.9784 103.467 52.3132C102.547 52.3132 101.626 52.2295 100.705 52.2295C100.789 50.4716 100.789 48.7137 100.872 47.0395C100.872 45.7002 100.705 44.4445 98.9472 44.4445C97.0218 44.3608 95.4314 45.9513 95.4314 48.044C95.4314 49.1322 95.4314 50.1368 95.3477 51.225C95.8499 51.225 96.3522 51.225 96.8544 51.225C96.8544 51.5598 96.8544 51.8947 96.8544 52.2295C95.4314 52.2295 94.0083 52.1458 92.6689 52.1458C92.8364 51.8109 92.8364 51.4761 92.8364 51.1413Z" fill="#222222" fill-opacity="0.7"/>
<path d="M105.476 44.6955C104.974 44.6955 104.388 44.6118 103.886 44.6118C103.886 44.2769 103.886 43.9421 103.886 43.6072C104.472 43.6072 104.974 43.6909 105.56 43.6909C105.56 42.8539 105.644 42.1005 105.644 41.2634C106.062 41.2634 106.481 41.2634 106.899 41.3471C106.899 42.1842 106.816 42.9376 106.816 43.7747C107.569 43.7747 108.322 43.8584 109.159 43.8584C109.159 44.1932 109.159 44.528 109.076 44.8629C108.322 44.8629 107.569 44.7792 106.816 44.7792C106.732 46.2859 106.648 47.7927 106.648 49.2158C106.564 51.2248 107.904 51.5596 108.573 51.6434C108.825 51.6434 108.992 51.6434 108.992 51.6434C108.992 51.9782 108.992 52.313 108.908 52.6479C108.908 52.6479 108.657 52.6479 108.406 52.6479C107.402 52.5642 105.309 52.1456 105.393 49.2995C105.309 47.7927 105.393 46.2022 105.476 44.6955Z" fill="#222222" fill-opacity="0.7"/>
<path d="M111.671 49.3834C111.671 49.7182 111.671 49.9694 111.587 50.3042C111.503 51.3087 112.759 51.9784 114.182 52.0621C115.772 52.1458 117.028 51.4761 117.112 50.0531C117.195 48.4626 115.772 47.7929 114.182 47.1232C112.591 46.3699 110.834 45.7002 111.001 43.5237C111.085 41.431 113.01 40.4265 115.103 40.5939C116.944 40.6776 118.786 41.5147 118.702 42.7703C118.702 43.1889 118.619 43.6074 118.619 44.026C118.2 44.026 117.781 43.9423 117.363 43.9423C117.363 43.6074 117.447 43.3563 117.447 43.0215C117.53 42.2681 116.191 41.7658 115.019 41.6821C113.596 41.5984 112.34 42.1844 112.34 43.44C112.257 44.9468 113.596 45.449 115.103 46.1187C116.861 46.8721 118.702 47.7092 118.451 49.9694C118.284 52.1458 116.442 53.234 114.098 53.0666C112.34 52.9829 110.248 52.0621 110.331 50.3879C110.331 49.9694 110.415 49.6345 110.415 49.216C110.917 49.2997 111.252 49.3834 111.671 49.3834Z" fill="#222222" fill-opacity="0.7"/>
<path d="M122.888 52.8989C124.646 53.0663 125.901 51.3921 125.985 49.8854C125.985 49.7179 125.985 49.6342 126.069 49.4668C125.901 49.4668 125.734 49.4668 125.566 49.3831C124.813 49.2994 121.297 48.8808 121.13 50.8899C121.046 51.8944 121.716 52.8152 122.888 52.8989ZM125.566 48.546C125.734 48.546 125.985 48.546 126.152 48.6297C126.152 48.546 126.152 48.3786 126.152 48.2949C126.32 46.7044 125.483 46.0347 124.227 45.8673C122.72 45.6999 121.548 46.4533 121.548 46.4533C121.381 46.1184 121.213 45.8673 121.046 45.5325C121.046 45.5325 122.385 44.6117 124.394 44.8628C126.571 45.1139 127.659 46.2859 127.408 48.4623C127.241 49.8854 127.073 51.3084 126.989 52.7315C126.989 52.9826 127.073 53.15 127.324 53.15C127.659 53.15 127.994 53.2337 128.329 53.2337C128.329 53.5686 128.245 53.9034 128.245 54.1545C127.743 54.0708 127.241 54.0708 126.822 53.9871C126.069 53.9034 125.817 53.5686 125.817 52.8989C125.817 52.8152 125.817 52.8152 125.817 52.7315C125.901 52.3129 125.901 52.0618 125.901 52.0618C125.901 52.0618 124.897 53.9871 122.637 53.736C121.213 53.5686 119.707 52.6478 119.874 50.8899C120.125 48.2112 124.06 48.3786 125.566 48.546Z" fill="#222222" fill-opacity="0.7"/>
<path d="M129.585 53.4013C130.087 53.485 130.589 53.485 131.091 53.5687C131.343 51.3086 131.594 49.0484 131.845 46.872C131.343 46.7883 130.757 46.7046 130.254 46.7046C130.254 46.3697 130.338 46.0349 130.338 45.7838C131.259 45.8675 132.263 46.0349 133.184 46.1186C132.849 48.7136 132.598 51.2249 132.263 53.8199C132.766 53.9036 133.268 53.9036 133.77 53.9873C133.77 54.3221 133.686 54.657 133.686 54.9081C132.263 54.7407 130.924 54.5733 129.501 54.4058C129.501 53.9873 129.585 53.7362 129.585 53.4013Z" fill="#222222" fill-opacity="0.7"/>
<path d="M137.202 44.0257C136.7 43.942 136.114 43.8583 135.612 43.8583C135.612 43.5235 135.696 43.1886 135.696 42.9375C136.616 43.0212 137.621 43.1886 138.542 43.2723C138.123 46.537 137.621 49.8017 137.202 53.0663C137.119 53.736 137.202 54.4057 138.039 54.4894C138.374 54.5731 138.542 54.4894 138.542 54.4894C138.458 54.8242 138.458 55.1591 138.374 55.4939C138.374 55.4939 138.039 55.4939 137.705 55.4102C136.533 55.2428 135.779 54.5731 135.947 52.8989C136.365 49.9691 136.784 46.9556 137.202 44.0257C137.119 44.0257 137.119 44.0257 137.202 44.0257Z" fill="#222222" fill-opacity="0.7"/>
<path d="M79.9446 40.9285C79.9446 41.5145 79.6935 41.8493 79.0238 41.8493C78.3541 41.8493 78.0193 41.5982 78.0193 41.0122C78.0193 40.4263 78.2704 40.0914 78.9401 40.0914C79.5261 40.0914 79.8609 40.3426 79.9446 40.9285Z" fill="#222222" fill-opacity="0.7"/>
<path d="M133.351 43.3563C133.268 43.9422 132.933 44.1934 132.263 44.1097C131.594 44.0259 131.342 43.6911 131.426 43.1051C131.51 42.5192 131.845 42.268 132.514 42.3518C133.184 42.4355 133.435 42.7703 133.351 43.3563Z" fill="#222222" fill-opacity="0.7"/>
<path d="M58.9338 38.9197C59.0175 39.1708 59.1012 39.422 59.2687 39.6731C61.6125 45.449 61.3614 50.9739 59.0175 55.7453C58.9338 55.9127 58.7664 56.0802 58.5153 56.1639C58.4316 56.1639 58.4316 56.1639 58.3478 56.1639C58.1804 56.1639 58.013 56.1639 57.8456 56.0802C57.7619 56.0802 50.8977 51.9784 42.9453 51.9784C42.6105 51.9784 42.2756 51.811 42.1919 51.4761C42.0245 51.1413 42.1082 50.8065 42.3593 50.5553C42.8616 50.0531 43.3638 49.4671 43.8661 48.9648C43.615 48.9648 43.2801 48.9648 43.029 48.9648C42.6942 48.9648 42.3593 48.7974 42.2756 48.4626C42.1082 48.1278 42.1919 47.7929 42.443 47.5418C45.5403 44.5282 47.9679 40.6776 49.6421 37.4966C43.7824 38.836 39.848 44.1934 40.6851 49.8856C41.6059 56.0802 47.3819 60.2656 53.6601 59.596C59.8546 58.9263 64.5423 53.5689 64.1238 47.3744C63.8727 43.7749 61.8636 40.7613 58.9338 38.9197Z" fill="#222222" fill-opacity="0.7"/>
<path d="M45.0381 47.5417C50.3118 47.9602 54.8321 50.0529 56.59 50.9738C59.6873 43.7747 55.5855 36.4083 53.5765 33.6459C52.4045 36.492 49.4747 42.6865 45.0381 47.5417Z" fill="#222222" fill-opacity="0.7"/>
<path d="M69.3977 61.6887C69.1466 61.2702 68.8954 60.8517 68.5606 60.5168C68.4769 60.5168 68.3932 60.5168 68.3932 60.5168C68.3932 60.9354 68.4769 61.3539 68.4769 61.7725C68.2258 61.7725 67.8909 61.7725 67.6398 61.8562C67.5561 60.7679 67.4724 59.6797 67.3887 58.5078C67.8909 58.5078 68.3095 58.4241 68.8117 58.4241C69.0629 58.4241 69.314 58.4241 69.4814 58.5078C69.6488 58.5915 69.8162 58.6752 69.9 58.8426C69.9837 59.01 70.0674 59.1775 70.0674 59.3449C70.0674 59.596 70.0674 59.7634 69.9 59.9308C69.8162 60.0983 69.5651 60.2657 69.314 60.3494C69.6488 60.7679 69.8999 61.1865 70.1511 61.605C70.0674 61.605 69.7325 61.605 69.3977 61.6887ZM68.3932 59.9308C68.5606 59.9308 68.728 59.9308 68.8954 59.9308C69.0629 59.9308 69.1466 59.8471 69.2303 59.7634C69.314 59.6797 69.314 59.596 69.314 59.4286C69.314 59.2612 69.2303 59.1775 69.1466 59.1775C69.0629 59.0937 68.9791 59.0937 68.8117 59.0937C68.6443 59.0937 68.4769 59.0937 68.3095 59.0937C68.3932 59.3449 68.3932 59.596 68.3932 59.9308Z" fill="#222222" fill-opacity="0.7"/>
<path d="M71.6573 58.8424C71.6573 59.0935 71.6573 59.2609 71.6573 59.512C72.0759 59.512 72.4107 59.512 72.8293 59.4283C72.8293 59.5958 72.8293 59.8469 72.8293 60.0143C72.4107 60.0143 72.0759 60.0143 71.6573 60.098C71.6573 60.3491 71.6573 60.6003 71.6573 60.8514C72.0759 60.8514 72.4944 60.7677 72.913 60.7677C72.913 61.0188 72.913 61.1862 72.913 61.4374C72.2433 61.4374 71.4899 61.5211 70.8202 61.5211C70.7365 60.4329 70.6528 59.3446 70.6528 58.1727C71.4062 58.1727 72.0759 58.089 72.8293 58.089C72.8293 58.3401 72.8293 58.5075 72.8293 58.7587C72.4944 58.7587 72.0759 58.8424 71.6573 58.8424Z" fill="#222222" fill-opacity="0.7"/>
<path d="M75.8431 60.7677C75.4246 60.7677 75.006 60.7677 74.5875 60.8514C74.5038 61.0188 74.5038 61.2699 74.4201 61.4374C74.0852 61.4374 73.8341 61.4374 73.4993 61.5211C73.8341 60.4329 74.2527 59.2609 74.5875 58.1727C74.9223 58.1727 75.2572 58.1727 75.592 58.089C76.0943 59.1772 76.5128 60.2654 77.0151 61.3537C76.6802 61.3537 76.4291 61.3537 76.0943 61.3537C76.0106 61.1025 75.9268 60.9351 75.8431 60.7677ZM75.592 60.098C75.4246 59.6795 75.2572 59.2609 75.0897 58.9261C75.006 59.3446 74.8386 59.7632 74.7549 60.1817C75.006 60.1817 75.3409 60.098 75.592 60.098Z" fill="#222222" fill-opacity="0.7"/>
<path d="M78.6058 57.9216C78.9406 57.9216 79.2754 58.0053 79.6103 58.0891C79.8614 58.2565 80.1125 58.4239 80.28 58.675C80.4474 58.9261 80.5311 59.1773 80.5311 59.5121C80.5311 59.8469 80.4474 60.0981 80.3637 60.3492C80.1963 60.6003 80.0288 60.7678 79.7777 60.9352C79.5266 61.1026 79.1917 61.1863 78.8569 61.1863C78.4384 61.1863 78.0198 61.1863 77.6013 61.27C77.5175 60.1818 77.5175 59.0936 77.4338 57.9216C77.7687 57.9216 78.1872 57.9216 78.6058 57.9216ZM78.6895 60.5166C79.0243 60.5166 79.2754 60.4329 79.4429 60.2655C79.6103 60.0981 79.694 59.8469 79.694 59.5121C79.694 59.1773 79.6103 59.0099 79.4429 58.8424C79.2754 58.675 79.0243 58.5913 78.6895 58.5913C78.5221 58.5913 78.4384 58.5913 78.2709 58.5913C78.2709 59.261 78.3546 59.847 78.3546 60.5166C78.4384 60.5166 78.5221 60.5166 78.6895 60.5166Z" fill="#222222" fill-opacity="0.7"/>
<path d="M81.535 61.1864C81.3676 61.1864 81.2838 61.1864 81.2001 61.1027C81.1164 61.019 81.0327 60.9353 81.0327 60.7679C81.0327 60.6005 81.0327 60.5168 81.2001 60.433C81.2838 60.3493 81.4513 60.2656 81.535 60.2656C81.7024 60.2656 81.7861 60.2656 81.8698 60.3493C81.9535 60.433 82.0372 60.5168 82.0372 60.6842C82.0372 60.7679 81.9535 60.9353 81.8698 61.019C81.7861 61.1027 81.7024 61.1864 81.535 61.1864Z" fill="#222222" fill-opacity="0.7"/>
<path d="M88.4833 57.6704C88.1485 58.7586 87.8973 59.9306 87.5625 61.0188C87.2277 61.0188 86.8928 61.0188 86.558 61.0188C86.3906 60.2654 86.1394 59.5957 85.972 58.8423C85.8046 59.5957 85.6372 60.3491 85.4698 61.0188C85.1349 61.0188 84.8001 61.0188 84.4652 61.0188C84.1304 59.9306 83.8793 58.8423 83.5444 57.6704C83.8793 57.6704 84.1304 57.6704 84.4652 57.6704C84.6327 58.5075 84.8001 59.2609 84.9675 60.098C85.1349 59.2609 85.386 58.5075 85.5535 57.6704C85.8883 57.6704 86.1394 57.6704 86.4743 57.6704C86.6417 58.5075 86.8928 59.2609 87.0602 60.098C87.2277 59.2609 87.3951 58.5075 87.5625 57.6704C87.8973 57.6704 88.2322 57.6704 88.4833 57.6704Z" fill="#222222" fill-opacity="0.7"/>
<path d="M90.827 61.0188C90.5759 60.6002 90.3247 60.1817 90.0736 59.7631C89.9899 59.7631 89.9062 59.7631 89.9062 59.7631C89.9062 60.1817 89.9062 60.6002 89.9062 61.0188C89.6551 61.0188 89.3202 61.0188 89.0691 61.0188C89.0691 59.9306 89.0691 58.7586 89.0691 57.6704C89.5713 57.6704 89.9899 57.6704 90.4922 57.6704C90.7433 57.6704 90.9944 57.7541 91.1618 57.8378C91.3293 57.9215 91.4967 58.089 91.5804 58.2564C91.6641 58.4238 91.7478 58.5912 91.7478 58.7586C91.7478 59.0098 91.6641 59.1772 91.5804 59.3446C91.413 59.512 91.2455 59.6794 90.9944 59.6794C91.2455 60.098 91.4967 60.6002 91.8315 61.0188C91.413 61.0188 91.0781 61.0188 90.827 61.0188ZM89.9062 59.1772C90.0736 59.1772 90.241 59.1772 90.4084 59.1772C90.5759 59.1772 90.6596 59.1772 90.7433 59.0935C90.827 59.0098 90.827 58.926 90.827 58.7586C90.827 58.5912 90.827 58.5075 90.7433 58.4238C90.6596 58.3401 90.5759 58.3401 90.4084 58.3401C90.241 58.3401 90.0736 58.3401 89.9062 58.3401C89.9062 58.5912 89.9062 58.926 89.9062 59.1772Z" fill="#222222" fill-opacity="0.7"/>
<path d="M93.2546 57.6704C93.2546 58.7586 93.2546 59.9306 93.2546 61.0188C93.0034 61.0188 92.6686 61.0188 92.4175 61.0188C92.4175 59.9306 92.4175 58.7586 92.4175 57.6704C92.6686 57.6704 92.9197 57.6704 93.2546 57.6704Z" fill="#222222" fill-opacity="0.7"/>
<path d="M96.4358 57.7542C96.4358 58.0054 96.4358 58.1728 96.4358 58.4239C96.1009 58.4239 95.8498 58.4239 95.515 58.4239C95.515 59.3447 95.515 60.1818 95.515 61.1026C95.2639 61.1026 94.929 61.1026 94.6779 61.1026C94.6779 60.1818 94.6779 59.3447 94.6779 58.4239C94.343 58.4239 94.0919 58.4239 93.7571 58.4239C93.7571 58.1728 93.7571 58.0054 93.7571 57.7542C94.6779 57.6705 95.515 57.7542 96.4358 57.7542Z" fill="#222222" fill-opacity="0.7"/>
<path d="M97.7751 58.4238C97.7751 58.6749 97.7751 58.8423 97.7751 59.0935C98.1936 59.0935 98.5285 59.0935 98.947 59.0935C98.947 59.2609 98.947 59.512 98.947 59.6794C98.5285 59.6794 98.1936 59.6794 97.7751 59.6794C97.7751 59.9306 97.7751 60.1817 97.7751 60.4328C98.1936 60.4328 98.6122 60.4328 99.0307 60.4328C99.0307 60.6839 99.0307 60.8514 99.0307 61.1025C98.361 61.1025 97.6077 61.1025 96.938 61.0188C96.938 59.9306 97.0217 58.7586 97.0217 57.6704C97.7751 57.6704 98.4448 57.6704 99.1981 57.7541C99.1981 58.0052 99.1981 58.1727 99.1981 58.4238C98.6959 58.4238 98.1936 58.4238 97.7751 58.4238Z" fill="#222222" fill-opacity="0.7"/>
<path d="M100.035 61.1864C99.8678 61.1864 99.7841 61.1027 99.7004 61.019C99.6167 60.9353 99.533 60.8516 99.533 60.6842C99.533 60.5168 99.6167 60.433 99.7004 60.3493C99.7841 60.2656 99.9515 60.2656 100.035 60.2656C100.203 60.2656 100.286 60.3493 100.37 60.433C100.454 60.5168 100.537 60.6005 100.537 60.7679C100.537 60.8516 100.454 61.019 100.37 61.1027C100.286 61.1864 100.203 61.1864 100.035 61.1864Z" fill="#222222" fill-opacity="0.7"/>
<path d="M103.132 60.6002C103.467 60.6002 103.886 60.6002 104.22 60.6839C104.22 60.8514 104.22 61.1025 104.22 61.2699C103.551 61.2699 102.965 61.1862 102.295 61.1862C102.295 60.098 102.379 58.9261 102.379 57.8378C102.63 57.8378 102.965 57.8378 103.216 57.8378C103.216 58.8423 103.216 59.6794 103.132 60.6002Z" fill="#222222" fill-opacity="0.7"/>
<path d="M105.727 58.6749C105.727 58.9261 105.727 59.0935 105.727 59.3446C106.146 59.3446 106.481 59.3446 106.899 59.4283C106.899 59.5957 106.899 59.8469 106.899 60.0143C106.481 60.0143 106.146 60.0143 105.727 59.9306C105.727 60.1817 105.727 60.4328 105.727 60.684C106.146 60.684 106.564 60.684 106.983 60.7677C106.983 61.0188 106.983 61.1862 106.983 61.4373C106.313 61.4373 105.56 61.3536 104.89 61.3536C104.974 60.2654 104.974 59.1772 105.058 58.0052C105.811 58.0052 106.481 58.089 107.234 58.089C107.234 58.3401 107.234 58.5075 107.234 58.7586C106.564 58.6749 106.146 58.6749 105.727 58.6749Z" fill="#222222" fill-opacity="0.7"/>
<path d="M109.662 60.9351C109.243 60.9351 108.825 60.8514 108.406 60.8514C108.322 61.0188 108.239 61.2699 108.155 61.4374C107.82 61.4374 107.569 61.4374 107.234 61.3537C107.736 60.2654 108.155 59.1772 108.657 58.089C108.992 58.089 109.327 58.089 109.662 58.1727C109.997 59.3446 110.331 60.4329 110.75 61.6048C110.415 61.6048 110.164 61.6048 109.829 61.5211C109.829 61.3537 109.745 61.1862 109.662 60.9351ZM109.494 60.3491C109.411 59.9306 109.243 59.512 109.159 59.0935C108.992 59.512 108.825 59.9306 108.657 60.2654C108.908 60.2654 109.243 60.3491 109.494 60.3491Z" fill="#222222" fill-opacity="0.7"/>
<path d="M113.01 61.7723C112.759 61.3537 112.592 60.9352 112.34 60.4329C112.257 60.4329 112.173 60.4329 112.173 60.4329C112.173 60.8515 112.089 61.27 112.089 61.6886C111.838 61.6886 111.503 61.6886 111.252 61.6048C111.336 60.5166 111.42 59.4284 111.42 58.2565C111.922 58.2565 112.34 58.3402 112.843 58.3402C113.094 58.3402 113.345 58.4239 113.512 58.5076C113.68 58.5913 113.847 58.7587 113.931 58.9261C114.015 59.0936 114.015 59.261 114.015 59.4284C114.015 59.6795 113.931 59.8469 113.763 60.0144C113.596 60.1818 113.429 60.2655 113.178 60.3492C113.429 60.7678 113.68 61.27 113.847 61.6886C113.596 61.7723 113.261 61.7723 113.01 61.7723ZM112.173 59.8469C112.34 59.8469 112.508 59.8469 112.675 59.8469C112.843 59.8469 112.926 59.8469 113.01 59.7632C113.094 59.6795 113.178 59.5958 113.178 59.4284C113.178 59.261 113.178 59.1773 113.094 59.0936C113.01 59.0099 112.926 59.0099 112.759 58.9261C112.592 58.9261 112.424 58.9261 112.257 58.9261C112.173 59.3447 112.173 59.5958 112.173 59.8469Z" fill="#222222" fill-opacity="0.7"/>
<path d="M117.614 62.1073C117.363 62.1073 117.028 62.0236 116.777 62.0236C116.358 61.2702 115.94 60.6005 115.521 59.8471C115.438 60.5168 115.438 61.1865 115.354 61.8562C115.103 61.8562 114.768 61.8562 114.517 61.7725C114.601 60.6842 114.684 59.596 114.768 58.4241C115.019 58.4241 115.354 58.4241 115.605 58.5078C116.024 59.2612 116.442 59.9308 116.861 60.6842C116.944 60.0146 116.944 59.3449 117.028 58.5915C117.279 58.5915 117.614 58.6752 117.865 58.6752C117.782 59.8471 117.698 61.0191 117.614 62.1073Z" fill="#222222" fill-opacity="0.7"/>
<path d="M118.702 62.1908C118.535 62.1908 118.451 62.107 118.367 62.0233C118.284 61.9396 118.284 61.8559 118.284 61.6885C118.284 61.5211 118.367 61.4374 118.451 61.3537C118.535 61.27 118.702 61.27 118.786 61.27C118.953 61.27 119.037 61.3537 119.121 61.4374C119.204 61.5211 119.288 61.6048 119.205 61.7722C119.205 61.8559 119.121 62.0233 119.037 62.107C118.953 62.1908 118.87 62.2745 118.702 62.1908Z" fill="#222222" fill-opacity="0.7"/>
<path d="M123.474 60.3492C123.39 60.2655 123.306 60.1818 123.223 60.0981C123.139 60.0144 122.971 60.0144 122.804 59.9307C122.553 59.9307 122.302 59.9307 122.134 60.0981C121.967 60.2655 121.883 60.4329 121.799 60.7678C121.799 61.1026 121.799 61.3537 121.967 61.5211C122.134 61.6886 122.385 61.856 122.637 61.856C122.804 61.856 123.055 61.856 123.139 61.7723C123.306 61.6886 123.39 61.5211 123.474 61.3537C123.139 61.3537 122.72 61.27 122.385 61.27C122.385 61.1026 122.385 60.8515 122.469 60.684C123.055 60.7678 123.725 60.7678 124.311 60.8515C124.311 61.1026 124.227 61.3537 124.227 61.6049C124.143 61.7723 124.06 61.9397 123.892 62.1071C123.725 62.2745 123.557 62.3582 123.306 62.4419C123.055 62.5257 122.804 62.5257 122.553 62.5257C122.218 62.5257 121.883 62.3582 121.632 62.1908C121.381 62.0234 121.213 61.7723 121.046 61.5211C120.962 61.27 120.879 60.9352 120.879 60.6003C120.879 60.2655 121.046 60.0144 121.213 59.7632C121.381 59.5121 121.632 59.3447 121.883 59.261C122.134 59.1773 122.469 59.0936 122.804 59.0936C123.223 59.0936 123.557 59.261 123.808 59.5121C124.06 59.7632 124.227 60.0144 124.311 60.3492C124.06 60.4329 123.725 60.3492 123.474 60.3492Z" fill="#222222" fill-opacity="0.7"/>
<path d="M126.571 62.9443C126.404 62.5258 126.153 62.0235 125.985 61.605C125.901 61.605 125.818 61.605 125.818 61.605C125.734 62.0235 125.734 62.4421 125.65 62.8606C125.399 62.8606 125.064 62.7769 124.813 62.7769C124.897 61.6887 125.064 60.6005 125.148 59.4285C125.65 59.5122 126.069 59.5122 126.571 59.5959C126.822 59.5959 127.073 59.6797 127.241 59.8471C127.408 59.9308 127.576 60.0982 127.659 60.2656C127.743 60.433 127.743 60.6005 127.743 60.7679C127.743 61.019 127.659 61.1864 127.492 61.3538C127.325 61.5213 127.157 61.605 126.906 61.6887C127.157 62.1909 127.325 62.6095 127.576 63.1117C127.157 63.028 126.822 62.9443 126.571 62.9443ZM125.818 61.019C125.985 61.019 126.153 61.019 126.32 61.1027C126.487 61.1027 126.571 61.1027 126.655 61.019C126.739 60.9353 126.822 60.8516 126.822 60.6842C126.822 60.5168 126.822 60.433 126.739 60.3493C126.655 60.2656 126.571 60.1819 126.404 60.1819C126.236 60.1819 126.069 60.1819 125.901 60.0982C125.901 60.433 125.818 60.7679 125.818 61.019Z" fill="#222222" fill-opacity="0.7"/>
<path d="M129.669 63.3629C129.334 63.3629 129.083 63.1955 128.832 63.0281C128.581 62.8607 128.413 62.6095 128.246 62.3584C128.078 62.1073 128.078 61.7724 128.078 61.4376C128.078 61.1028 128.246 60.8516 128.413 60.6005C128.581 60.3494 128.832 60.182 129.167 60.0982C129.418 60.0145 129.753 59.9308 130.087 60.0145C130.422 60.0145 130.673 60.1819 130.925 60.3494C131.176 60.5168 131.343 60.7679 131.51 61.019C131.678 61.2702 131.678 61.605 131.678 61.9399C131.678 62.2747 131.511 62.5258 131.343 62.7769C131.176 63.0281 130.925 63.1955 130.673 63.2792C130.339 63.3629 130.004 63.3629 129.669 63.3629ZM129.753 62.6095C130.004 62.6095 130.255 62.6095 130.422 62.4421C130.59 62.2747 130.757 62.0236 130.757 61.7724C130.757 61.5213 130.757 61.2702 130.59 61.019C130.422 60.8516 130.255 60.6842 129.92 60.6842C129.669 60.6842 129.418 60.6842 129.25 60.8516C129.083 61.019 128.999 61.2702 128.915 61.5213C128.915 61.7724 128.915 62.0236 129.083 62.2747C129.25 62.4421 129.501 62.5258 129.753 62.6095Z" fill="#222222" fill-opacity="0.7"/>
<path d="M137.202 60.8516C136.784 61.9399 136.281 62.9444 135.863 64.0326C135.528 63.9489 135.193 63.9489 134.858 63.8652C134.775 63.1118 134.691 62.3584 134.607 61.605C134.356 62.2747 134.021 63.0281 133.77 63.6978C133.435 63.6141 133.101 63.6141 132.766 63.5303C132.598 62.3584 132.431 61.2702 132.263 60.0983C132.598 60.0983 132.849 60.182 133.184 60.182C133.268 61.0191 133.352 61.8562 133.352 62.6095C133.686 61.8562 133.938 61.0191 134.272 60.2657C134.607 60.2657 134.858 60.3494 135.193 60.3494C135.277 61.1865 135.361 62.0236 135.444 62.8607C135.696 62.1073 136.03 61.2702 136.281 60.5168C136.616 60.7679 136.867 60.8516 137.202 60.8516Z" fill="#222222" fill-opacity="0.7"/>
<path d="M137.621 64.3674C137.454 64.3674 137.37 64.2837 137.286 64.2C137.203 64.1163 137.203 64.0326 137.203 63.8652C137.203 63.7815 137.286 63.6141 137.37 63.5304C137.454 63.4467 137.621 63.4467 137.789 63.4467C137.956 63.4467 138.04 63.5304 138.123 63.6141C138.207 63.6978 138.207 63.8652 138.207 63.9489C138.207 64.0326 138.123 64.2 138.04 64.2C137.872 64.3674 137.789 64.3674 137.621 64.3674Z" fill="#222222" fill-opacity="0.7"/>
<path opacity="0.35" d="M190 95C190 100.542 189.505 105.984 188.615 111.229C185.448 129.635 176.938 146.26 164.766 159.422C157.542 167.24 149.031 173.771 139.63 178.818C133.495 182.083 126.964 184.656 120.135 186.536C112.12 188.714 103.708 189.901 95.099 189.901C91.1406 189.901 87.1823 189.604 83.3229 189.208C51.1615 185.25 23.9479 165.161 9.99479 137.354C4.55208 126.469 1.1875 114.495 0.296875 101.828C0.0989583 99.5521 0 97.276 0 95C0 80.651 3.16667 67.0937 8.80729 54.9219C28.1042 201.578 179.609 157.839 184.161 62.2448C187.526 71.349 189.505 80.9479 189.901 91.1406C190 92.4271 190 93.7135 190 95Z" fill="url(#paint1_linear)"/>
<path opacity="0.45" d="M152.495 170.604C148.438 173.672 144.083 176.443 139.63 178.917C133.495 182.182 126.964 184.755 120.135 186.635C112.12 188.813 103.708 190 95.0989 190C91.1406 190 87.1823 189.703 83.3229 189.307C51.1614 185.349 23.9479 165.26 9.99479 137.453C4.55208 126.568 1.1875 114.594 0.296875 101.828C0.0989583 99.5521 0 97.276 0 95C0 80.651 3.16667 67.0938 8.90625 54.9219C13.9531 44.0365 21.0781 34.2396 29.6875 26.125C-20.7812 166.349 100.641 170.01 152.495 170.604Z" fill="url(#paint2_linear)"/>
<path d="M190 95C190 100.542 189.505 105.984 188.615 111.229C188.12 114.099 187.526 116.87 186.734 119.641C183.469 43.2448 131.714 -0.197916 57 7.91667C68.6771 2.77083 81.5417 0 95 0C135.969 0 170.901 25.9271 184.161 62.2448C187.526 71.349 189.505 80.9479 189.901 91.1406C190 92.4271 190 93.7135 190 95Z" fill="url(#paint3_linear)"/>
<path d="M26.7188 109.844C27.9062 107.073 29.0937 104.203 30.2812 101.333C30.875 101.333 31.3698 101.234 31.9635 101.234C33.151 104.005 34.3385 106.875 35.526 109.745C34.9323 109.745 34.2396 109.745 33.6458 109.745C33.349 109.151 33.151 108.458 32.8542 107.865C31.6667 107.865 30.4792 107.865 29.2917 107.964C28.9948 108.557 28.7969 109.25 28.5 109.844C27.9062 109.844 27.3125 109.844 26.7188 109.844ZM29.9844 106.281C30.6771 106.281 31.4687 106.281 32.1615 106.182C31.7656 105.292 31.4687 104.401 31.0729 103.511C30.6771 104.401 30.3802 105.292 29.9844 106.281Z" fill="#222222" fill-opacity="0.7"/>
<path d="M36.8125 109.745C36.8125 106.875 36.8125 104.005 36.8125 101.135C37.901 101.135 38.9896 101.036 40.0781 101.036C41.3646 101.036 42.4531 101.333 43.2448 102.125C44.0365 102.917 44.4323 104.005 44.4323 105.292C44.4323 106.578 44.0365 107.568 43.1458 108.458C42.3542 109.349 41.2656 109.745 39.9792 109.745C38.9896 109.646 37.901 109.745 36.8125 109.745ZM38.5938 107.964C39.0885 107.964 39.5833 107.964 39.9792 107.964C40.7708 107.964 41.3646 107.667 41.7604 107.172C42.2552 106.677 42.4531 105.984 42.4531 105.292C42.4531 104.5 42.2552 103.906 41.7604 103.411C41.2656 102.917 40.6719 102.719 39.9792 102.719C39.4844 102.719 38.9896 102.719 38.5938 102.719C38.5938 104.5 38.5938 106.182 38.5938 107.964Z" fill="#222222" fill-opacity="0.7"/>
<path d="M45.323 109.646C46.5105 106.677 47.698 103.609 48.8855 100.641C49.4793 100.641 49.974 100.641 50.5678 100.542C51.7553 103.51 52.9428 106.578 54.1303 109.547C53.5365 109.547 52.8438 109.547 52.2501 109.547C51.9532 108.854 51.7553 108.161 51.4584 107.568C50.2709 107.568 49.0834 107.568 47.8959 107.568C47.599 108.26 47.4011 108.953 47.1042 109.547C46.6095 109.646 46.0157 109.646 45.323 109.646ZM48.6876 105.885C49.3803 105.885 50.172 105.885 50.8647 105.885C50.4688 104.896 50.172 103.906 49.7761 103.016C49.3803 103.906 48.9845 104.896 48.6876 105.885Z" fill="#222222" fill-opacity="0.7"/>
<path d="M55.4167 109.547C55.4167 106.479 55.4167 103.51 55.4167 100.443C56.5053 100.443 57.6928 100.344 58.7813 100.344C59.7709 100.344 60.5626 100.641 61.1563 101.135C61.7501 101.729 62.047 102.521 62.047 103.412C62.047 104.401 61.7501 105.193 61.0574 105.787C60.4636 106.38 59.573 106.677 58.6824 106.677C58.1876 106.677 57.7918 106.677 57.297 106.677C57.297 107.568 57.297 108.458 57.297 109.448C56.7032 109.547 56.1095 109.547 55.4167 109.547ZM57.297 104.995C57.7918 104.995 58.2865 104.995 58.7813 104.995C59.2761 104.995 59.573 104.896 59.8699 104.599C60.1668 104.302 60.2657 104.005 60.2657 103.609C60.2657 103.115 60.1668 102.818 59.8699 102.62C59.573 102.422 59.2761 102.224 58.7813 102.323C58.2865 102.323 57.7917 102.323 57.3959 102.323C57.297 103.115 57.297 104.104 57.297 104.995Z" fill="#222222" fill-opacity="0.7"/>
<path d="M65.3127 109.448C65.3127 106.974 65.3127 104.5 65.3127 102.026C64.422 102.026 63.6304 102.026 62.7397 102.026C62.7397 101.432 62.7397 100.74 62.7397 100.146C65.0158 100.047 67.2918 100.047 69.6668 100.047C69.6668 100.641 69.6668 101.333 69.6668 101.927C68.7762 101.927 67.9845 101.927 67.0939 101.927C67.0939 104.401 67.0939 106.875 67.0939 109.349C66.5002 109.448 65.9064 109.448 65.3127 109.448Z" fill="#222222" fill-opacity="0.7"/>
<path d="M71.1511 109.448C71.1511 106.38 71.1511 103.214 71.1511 100.146C71.7449 100.146 72.3386 100.146 72.9324 100.146C72.9324 103.312 72.9324 106.38 72.9324 109.547C72.4376 109.448 71.7449 109.448 71.1511 109.448Z" fill="#222222" fill-opacity="0.7"/>
<path d="M77.6822 109.448C76.5937 106.281 75.4062 103.115 74.3176 100.047C75.0103 100.047 75.703 100.047 76.2968 100.047C76.9895 102.224 77.7812 104.401 78.4739 106.677C79.1666 104.5 79.9583 102.224 80.651 100.047C81.3437 100.047 81.9374 100.047 82.6301 100.047C81.5416 103.214 80.3541 106.38 79.2655 109.547C78.7708 109.448 78.276 109.448 77.6822 109.448Z" fill="#222222" fill-opacity="0.7"/>
<path d="M84.0156 109.448C84.0156 106.281 84.0156 103.115 84.0156 99.9479C86.0937 99.9479 88.1719 99.9479 90.25 99.9479C90.25 100.542 90.25 101.234 90.25 101.828C88.7656 101.828 87.2812 101.828 85.7969 101.828C85.7969 102.422 85.7969 103.115 85.7969 103.708C87.0833 103.708 88.3698 103.708 89.7552 103.708C89.7552 104.302 89.7552 104.995 89.7552 105.589C88.4687 105.589 87.1823 105.589 85.7969 105.589C85.7969 106.281 85.7969 106.875 85.7969 107.568C87.2812 107.568 88.7656 107.568 90.349 107.568C90.349 108.161 90.349 108.854 90.349 109.448C88.1719 109.448 86.0937 109.448 84.0156 109.448Z" fill="#222222" fill-opacity="0.7"/>
<path d="M95.4949 109.448C95.4949 106.281 95.4949 103.115 95.4949 99.9479C96.0886 99.9479 96.6824 99.9479 97.2761 99.9479C97.2761 102.521 97.2761 104.995 97.2761 107.568C98.6615 107.568 100.047 107.568 101.432 107.568C101.432 108.161 101.432 108.854 101.432 109.448C99.4532 109.448 97.474 109.448 95.4949 109.448Z" fill="#222222" fill-opacity="0.7"/>
<path d="M102.125 109.448C103.313 106.281 104.5 103.115 105.688 99.9479C106.281 99.9479 106.776 99.9479 107.37 99.9479C108.557 103.115 109.745 106.281 110.932 109.448C110.339 109.448 109.646 109.448 109.052 109.448C108.755 108.755 108.557 108.063 108.26 107.37C107.073 107.37 105.885 107.37 104.698 107.37C104.401 108.063 104.203 108.755 103.906 109.448C103.411 109.448 102.818 109.448 102.125 109.448ZM105.391 105.49C106.083 105.49 106.875 105.49 107.568 105.49C107.172 104.5 106.875 103.411 106.479 102.422C106.182 103.411 105.786 104.401 105.391 105.49Z" fill="#222222" fill-opacity="0.7"/>
<path d="M112.219 109.448C112.219 106.281 112.219 103.115 112.219 100.047C112.812 100.047 113.307 100.047 113.901 100.047C115.187 102.026 116.474 103.906 117.76 105.885C117.76 104.005 117.76 102.026 117.76 100.146C118.354 100.146 118.948 100.146 119.542 100.146C119.542 103.312 119.542 106.38 119.542 109.547C119.047 109.547 118.552 109.547 117.958 109.547C116.573 107.568 115.286 105.589 113.901 103.51C113.901 105.49 113.901 107.469 113.901 109.448C113.406 109.448 112.812 109.448 112.219 109.448Z" fill="#222222" fill-opacity="0.7"/>
<path d="M125.677 109.646C124.39 109.646 123.302 109.151 122.51 108.26C121.719 107.37 121.323 106.182 121.323 104.797C121.323 103.411 121.719 102.323 122.609 101.432C123.401 100.542 124.489 100.047 125.677 100.047C126.37 100.047 126.963 100.146 127.458 100.443C127.953 100.641 128.448 101.036 128.943 101.432C128.547 101.927 128.151 102.422 127.755 102.917C127.359 102.62 127.062 102.323 126.765 102.224C126.469 102.026 126.073 102.026 125.578 102.026C124.885 102.026 124.39 102.323 123.896 102.818C123.401 103.411 123.203 104.104 123.203 104.896C123.203 105.786 123.401 106.479 123.896 106.974C124.39 107.568 124.984 107.865 125.677 107.865C126.37 107.865 126.963 107.667 127.359 107.37C127.359 106.974 127.359 106.479 127.359 106.083C126.765 106.083 126.172 106.083 125.479 106.083C125.479 105.49 125.479 104.896 125.479 104.302C126.667 104.302 127.854 104.302 129.042 104.401C129.042 105.688 129.042 107.073 129.042 108.359C128.151 109.151 126.963 109.646 125.677 109.646Z" fill="#222222" fill-opacity="0.7"/>
<path d="M134.385 109.646C133.297 109.646 132.406 109.25 131.713 108.557C131.12 107.865 130.724 106.875 130.724 105.49C130.724 103.708 130.724 102.026 130.724 100.245C131.318 100.245 131.911 100.245 132.505 100.245C132.505 101.927 132.505 103.708 132.505 105.391C132.505 106.083 132.703 106.677 133 107.073C133.297 107.469 133.792 107.667 134.286 107.667C134.88 107.667 135.276 107.469 135.573 107.073C135.87 106.677 136.068 106.182 136.068 105.49C136.068 103.708 136.068 102.026 136.068 100.245C136.661 100.245 137.255 100.245 137.849 100.344C137.849 102.026 137.849 103.708 137.849 105.49C137.849 106.875 137.552 107.865 136.859 108.557C136.463 109.349 135.573 109.646 134.385 109.646Z" fill="#222222" fill-opacity="0.7"/>
<path d="M139.234 109.547C140.422 106.479 141.609 103.51 142.797 100.542C143.391 100.542 143.885 100.542 144.479 100.641C145.667 103.708 146.854 106.677 148.042 109.646C147.448 109.646 146.755 109.646 146.161 109.646C145.865 108.953 145.667 108.359 145.37 107.667C144.182 107.667 142.995 107.667 141.807 107.667C141.51 108.359 141.313 109.052 141.016 109.646C140.422 109.547 139.828 109.547 139.234 109.547ZM142.5 105.885C143.193 105.885 143.984 105.885 144.677 105.885C144.281 104.896 143.984 103.906 143.589 103.016C143.193 103.906 142.896 104.896 142.5 105.885Z" fill="#222222" fill-opacity="0.7"/>
<path d="M153.287 109.844C152 109.844 150.912 109.448 150.12 108.557C149.328 107.667 148.932 106.578 148.932 105.292C148.932 104.005 149.328 102.917 150.219 102.125C151.01 101.234 152.099 100.838 153.287 100.937C153.979 100.937 154.573 101.135 155.068 101.333C155.563 101.531 156.057 101.828 156.552 102.323C156.156 102.818 155.76 103.213 155.365 103.708C154.969 103.411 154.672 103.115 154.375 103.016C154.078 102.818 153.682 102.818 153.188 102.719C152.495 102.719 152 102.917 151.505 103.51C151.01 104.005 150.813 104.698 150.813 105.391C150.813 106.182 151.01 106.875 151.505 107.37C152 107.865 152.594 108.161 153.287 108.161C153.979 108.161 154.573 107.963 154.969 107.667C154.969 107.271 154.969 106.875 154.969 106.479C154.375 106.479 153.781 106.479 153.089 106.479C153.089 105.885 153.089 105.391 153.089 104.797C154.276 104.797 155.464 104.896 156.651 104.896C156.651 106.182 156.651 107.37 156.651 108.656C155.76 109.448 154.672 109.844 153.287 109.844Z" fill="#222222" fill-opacity="0.7"/>
<path d="M158.63 109.745C158.63 106.875 158.63 104.104 158.63 101.234C160.708 101.333 162.787 101.432 164.865 101.531C164.865 102.026 164.865 102.62 164.865 103.115C163.38 103.016 161.896 103.016 160.412 102.917C160.412 103.511 160.412 104.104 160.412 104.599C161.698 104.599 162.985 104.698 164.37 104.698C164.37 105.193 164.37 105.787 164.37 106.281C163.083 106.281 161.797 106.182 160.412 106.182C160.412 106.776 160.412 107.37 160.412 107.964C161.896 107.964 163.38 108.063 164.964 108.063C164.964 108.557 164.964 109.151 164.964 109.646C162.787 109.844 160.708 109.745 158.63 109.745Z" fill="#222222" fill-opacity="0.7"/>
<path d="M43.2446 124.786C44.4321 121.917 45.6196 118.948 46.8071 115.979C47.4009 115.979 47.8957 115.979 48.4894 115.979C49.6769 118.948 50.8644 122.016 52.0519 125.083C51.4582 125.083 50.7655 125.083 50.1717 124.984C49.8748 124.292 49.6769 123.599 49.38 122.906C48.1925 122.906 47.005 122.807 45.8175 122.807C45.5207 123.5 45.3228 124.094 45.0259 124.786C44.5311 124.786 43.9373 124.786 43.2446 124.786ZM46.6092 121.125C47.3019 121.125 48.0936 121.125 48.7863 121.224C48.3905 120.234 48.0936 119.245 47.6978 118.354C47.3019 119.245 46.9061 120.234 46.6092 121.125Z" fill="#222222" fill-opacity="0.7"/>
<path d="M53.3386 125.083C53.3386 122.115 53.3386 119.047 53.3386 116.078C54.6251 116.078 55.9115 116.078 57.099 116.078C58.1876 116.078 58.9792 116.375 59.474 117.068C59.9688 117.563 60.1667 118.354 60.1667 119.245C60.1667 120.63 59.573 121.62 58.3855 122.016C59.0782 123.104 59.7709 124.193 60.4636 125.38C59.7709 125.38 59.0782 125.38 58.2865 125.281C57.6928 124.292 57.099 123.302 56.5053 122.313C56.0105 122.313 55.5157 122.313 55.1199 122.313C55.1199 123.302 55.1199 124.292 55.1199 125.182C54.6251 125.083 54.0313 125.083 53.3386 125.083ZM55.2188 120.432C55.8126 120.432 56.4063 120.432 57.099 120.432C57.4949 120.432 57.8907 120.333 58.0886 120.136C58.2865 119.938 58.4845 119.542 58.4845 119.146C58.4845 118.75 58.3855 118.354 58.0886 118.156C57.7917 117.958 57.4949 117.859 57.0001 117.859C56.4063 117.859 55.8126 117.859 55.2188 117.859C55.2188 118.75 55.2188 119.542 55.2188 120.432Z" fill="#222222" fill-opacity="0.7"/>
<path d="M63.9272 125.38C63.9272 122.906 63.9272 120.432 63.9272 118.057C63.0365 118.057 62.2449 118.057 61.3542 118.057C61.3542 117.464 61.3542 116.771 61.3542 116.177C63.6303 116.177 65.9063 116.177 68.2813 116.177C68.2813 116.771 68.2813 117.464 68.2813 118.057C67.3907 118.057 66.599 118.057 65.7084 118.057C65.7084 120.531 65.7084 123.005 65.7084 125.479C65.1147 125.38 64.5209 125.38 63.9272 125.38Z" fill="#222222" fill-opacity="0.7"/>
<path d="M72.6355 125.677C71.2501 125.677 70.0626 125.182 69.073 124.094C69.4688 123.599 69.7657 123.104 70.1615 122.609C70.9532 123.401 71.8438 123.797 72.6355 123.797C73.0313 123.797 73.3282 123.698 73.5261 123.599C73.724 123.401 73.823 123.203 73.823 122.906C73.823 122.609 73.724 122.411 73.5261 122.214C73.3282 122.016 72.8334 121.818 72.1407 121.62C71.6459 121.521 71.2501 121.323 70.9532 121.224C70.6563 121.125 70.3595 120.927 70.1615 120.729C69.8647 120.531 69.6667 120.234 69.5678 119.937C69.4688 119.641 69.3699 119.245 69.3699 118.75C69.3699 117.859 69.6667 117.266 70.1615 116.672C70.6563 116.177 71.448 115.88 72.2397 115.88C73.4272 115.88 74.4168 116.276 75.3074 117.068C75.0105 117.562 74.7136 118.057 74.3178 118.651C73.5261 118.057 72.8334 117.76 72.1407 117.76C71.8438 117.76 71.547 117.859 71.349 117.958C71.1511 118.156 71.0522 118.354 71.0522 118.552C71.0522 118.849 71.1511 119.047 71.349 119.245C71.547 119.443 72.0417 119.542 72.8334 119.839C73.724 120.135 74.4168 120.432 74.8126 120.927C75.2084 121.323 75.4063 121.917 75.4063 122.708C75.4063 123.599 75.1095 124.292 74.6147 124.885C74.3178 125.38 73.5261 125.677 72.6355 125.677Z" fill="#222222" fill-opacity="0.7"/>
<path d="M80.8489 125.578C80.8489 122.411 80.8489 119.245 80.8489 116.177C81.9374 116.177 83.1249 116.177 84.2135 116.177C85.203 116.177 85.9947 116.474 86.5885 117.068C87.1822 117.662 87.4791 118.453 87.4791 119.443C87.4791 120.531 87.1822 121.323 86.4895 121.917C85.8958 122.51 85.0051 122.807 84.1145 122.807C83.6197 122.807 83.2239 122.807 82.7291 122.807C82.7291 123.797 82.7291 124.688 82.7291 125.677C82.0364 125.578 81.4426 125.578 80.8489 125.578ZM82.6301 120.927C83.1249 120.927 83.6197 120.927 84.1145 120.927C84.6093 120.927 84.9062 120.828 85.203 120.531C85.4999 120.234 85.5989 119.938 85.5989 119.443C85.5989 118.948 85.4999 118.651 85.203 118.354C84.9062 118.057 84.6093 117.958 84.1145 117.958C83.6197 117.958 83.1249 117.958 82.7291 117.958C82.6301 119.047 82.6301 119.938 82.6301 120.927Z" fill="#222222" fill-opacity="0.7"/>
<path d="M88.7656 125.677C88.7656 122.51 88.7656 119.344 88.7656 116.177C89.3594 116.177 89.9531 116.177 90.5469 116.177C90.5469 118.75 90.5469 121.224 90.5469 123.797C91.9323 123.797 93.3177 123.797 94.7031 123.797C94.7031 124.391 94.7031 125.083 94.7031 125.677C92.724 125.677 90.7448 125.677 88.7656 125.677Z" fill="#222222" fill-opacity="0.7"/>
<path d="M95.3958 125.677C96.5833 122.511 97.7708 119.344 98.9583 116.078C99.552 116.078 100.047 116.078 100.641 116.078C101.828 119.245 103.016 122.412 104.203 125.578C103.609 125.578 102.917 125.578 102.323 125.578C102.026 124.886 101.828 124.193 101.531 123.5C100.344 123.5 99.1562 123.5 97.9687 123.5C97.6718 124.193 97.4739 124.886 97.177 125.677C96.6822 125.677 95.9895 125.677 95.3958 125.677ZM98.6614 121.719C99.3541 121.719 100.146 121.719 100.838 121.719C100.443 120.729 100.146 119.641 99.7499 118.651C99.4531 119.641 99.0572 120.63 98.6614 121.719Z" fill="#222222" fill-opacity="0.7"/>
<path d="M107.469 125.677C107.469 123.203 107.469 120.63 107.469 118.156C106.578 118.156 105.786 118.156 104.896 118.156C104.896 117.563 104.896 116.87 104.896 116.276C107.172 116.276 109.448 116.276 111.823 116.276C111.823 116.87 111.823 117.563 111.823 118.156C110.932 118.156 110.141 118.156 109.25 118.156C109.25 120.63 109.25 123.203 109.25 125.677C108.656 125.578 108.062 125.677 107.469 125.677Z" fill="#222222" fill-opacity="0.7"/>
<path d="M113.208 125.578C113.208 122.411 113.208 119.344 113.208 116.177C115.286 116.177 117.463 116.177 119.542 116.177C119.542 116.771 119.542 117.464 119.542 118.057C118.057 118.057 116.573 118.057 115.088 118.057C115.088 118.75 115.088 119.344 115.088 120.036C116.375 120.036 117.76 120.036 119.047 120.036C119.047 120.63 119.047 121.323 119.047 121.917C117.76 121.917 116.375 121.917 115.088 121.917C115.088 123.104 115.088 124.391 115.088 125.578C114.396 125.578 113.802 125.578 113.208 125.578Z" fill="#222222" fill-opacity="0.7"/>
<path d="M128.151 124.094C127.26 125.083 126.271 125.479 124.984 125.578C123.698 125.578 122.708 125.182 121.818 124.193C121.026 123.302 120.531 122.115 120.531 120.828C120.531 119.443 120.927 118.354 121.818 117.365C122.708 116.375 123.698 115.979 124.984 115.979C126.271 115.979 127.26 116.474 128.151 117.365C128.943 118.255 129.438 119.443 129.438 120.729C129.438 122.016 129.042 123.104 128.151 124.094ZM123.203 122.807C123.698 123.401 124.292 123.599 124.984 123.599C125.677 123.599 126.271 123.302 126.766 122.708C127.26 122.115 127.458 121.422 127.458 120.63C127.458 119.839 127.26 119.146 126.766 118.552C126.271 117.958 125.677 117.76 124.984 117.76C124.292 117.76 123.698 118.057 123.203 118.651C122.708 119.245 122.51 119.937 122.51 120.729C122.51 121.62 122.807 122.312 123.203 122.807Z" fill="#222222" fill-opacity="0.7"/>
<path d="M131.12 125.281C131.12 122.214 131.12 119.146 131.12 116.078C132.406 116.078 133.693 116.078 134.88 116.078C135.969 116.078 136.76 116.375 137.255 116.969C137.75 117.464 137.948 118.156 137.948 119.047C137.948 120.432 137.354 121.422 136.167 121.917C136.859 123.005 137.552 124.094 138.245 125.083C137.552 125.083 136.859 125.083 136.068 125.182C135.474 124.193 134.88 123.302 134.287 122.313C133.792 122.313 133.297 122.313 132.901 122.313C132.901 123.302 132.901 124.292 132.901 125.281C132.307 125.281 131.714 125.281 131.12 125.281ZM132.901 120.531C133.495 120.531 134.089 120.531 134.781 120.531C135.177 120.531 135.573 120.432 135.771 120.136C135.969 119.938 136.167 119.542 136.167 119.146C136.167 118.75 136.068 118.354 135.771 118.156C135.474 117.958 135.177 117.859 134.682 117.859C134.089 117.859 133.495 117.859 132.901 117.859C132.901 118.75 132.901 119.641 132.901 120.531Z" fill="#222222" fill-opacity="0.7"/>
<path d="M139.63 124.984C139.63 122.016 139.63 118.948 139.63 115.979C140.323 115.979 140.917 115.979 141.609 115.979C142.302 117.266 143.094 118.453 143.786 119.74C144.479 118.453 145.271 117.167 145.963 115.979C146.656 115.979 147.25 115.979 147.943 115.979C147.943 118.948 147.943 121.818 147.943 124.786C147.349 124.786 146.755 124.786 146.161 124.885C146.161 122.906 146.161 121.026 146.161 119.047C145.37 120.333 144.578 121.62 143.786 122.906C142.995 121.62 142.203 120.432 141.51 119.146C141.51 121.125 141.51 123.005 141.51 124.984C140.818 124.984 140.224 124.984 139.63 124.984Z" fill="#222222" fill-opacity="0.7"/>
</g>
<defs>
<radialGradient id="paint0_radial" cx="0" cy="0" r="1" gradientUnits="userSpaceOnUse" gradientTransform="translate(90.8086 44.715) scale(145.057)">
<stop stop-color="#FFE46A"/>
<stop offset="1" stop-color="#FFA44A"/>
</radialGradient>
<linearGradient id="paint1_linear" x1="13.8517" y1="145.192" x2="181.854" y2="66.592" gradientUnits="userSpaceOnUse">
<stop stop-color="#FFB300"/>
<stop offset="1" stop-color="#E27437" stop-opacity="0.2"/>
</linearGradient>
<linearGradient id="paint2_linear" x1="76.6546" y1="232.399" x2="75.7278" y2="-3.02892" gradientUnits="userSpaceOnUse">
<stop stop-color="#FF7A00" stop-opacity="0.35"/>
<stop offset="1" stop-color="#CC622E" stop-opacity="0.2"/>
</linearGradient>
<linearGradient id="paint3_linear" x1="179.503" y1="-0.0416615" x2="121.708" y2="63.994" gradientUnits="userSpaceOnUse">
<stop stop-color="#FFB300"/>
<stop offset="1" stop-color="#FFF49A" stop-opacity="0.2"/>
</linearGradient>
<clipPath id="clip0">
<rect width="190" height="190" fill="white"/>
</clipPath>
</defs>
</svg>
